<svg width="708" height="594" viewBox="0 0 708 594" fill="none" xmlns="http://www.w3.org/2000/svg">
    <path d="M549.466 122.842L553.616 124.021L556.402 118.052L562.7 119.083L565.574 114.927L567.845 116.273L563.996 121.829L558.028 120.851L555.129 127.061L548.885 125.288L549.466 122.842Z" fill="#50BFA5"/>
    <path d="M636.991 243.973L640.315 246.561L645.404 242.071L650.769 245.299L655.173 242.512L656.696 244.573L650.808 248.296L645.724 245.238L640.43 249.908L635.429 246.015L636.991 243.973Z" fill="#50BFA5"/>
    <path d="M507.018 14.4637C516.97 15.9792 519.925 28.0651 511.652 33.472C510.173 34.4555 509.125 35.8982 508.7 37.5369L507.193 43.1587C506.992 43.9048 506.495 44.5536 505.801 44.9762C505.107 45.3988 504.266 45.5641 503.446 45.4395L499.676 44.8658C498.855 44.7408 498.115 44.3343 497.604 43.7274C497.092 43.1205 496.846 42.3576 496.915 41.5906C497.439 35.7863 498.085 33.6839 496.047 31.092C490.082 23.5219 497.065 12.9473 507.018 14.4637Z" fill="#F7CC7F"/>
    <path d="M506.003 39.0362C506.65 34.0631 507.56 28.8133 507.865 27.3242C513.57 27.6151 511.401 22.0531 508.769 24.3136C508.059 24.9931 507.592 25.8579 507.431 26.791C505.534 26.6321 503.689 26.1347 501.997 25.3262C502.192 24.3488 502.14 23.343 501.848 22.3866C501.289 21.2017 499.666 20.8783 499 22.0339C498.877 22.2558 498.804 22.4984 498.785 22.7472C498.766 22.996 498.802 23.2458 498.89 23.4814C499.442 24.4444 500.339 25.1995 501.427 25.6172C501.127 29.5705 500.712 33.5542 500.188 37.4771L500.727 37.539C501.242 33.6789 501.654 29.7601 501.952 25.8696C503.632 26.6433 505.451 27.1244 507.319 27.2888C506.929 29.1924 506.066 34.3104 505.457 38.9794L506.003 39.0362ZM510.578 26.1514C510.225 26.4323 509.81 26.6383 509.361 26.7549C508.913 26.8715 508.443 26.8959 507.983 26.8265C508.129 26.0202 508.533 25.273 509.143 24.6816C510.56 23.4642 511.428 25.303 510.578 26.1514ZM501.354 22.5863C501.594 23.393 501.635 24.2392 501.475 25.0627C500.593 24.7095 499.865 24.0922 499.407 23.31C499.285 23.0363 499.282 22.7291 499.4 22.4537C499.519 22.1783 499.748 21.9564 500.04 21.8352C500.106 21.819 501.136 22.1231 501.354 22.5853V22.5863Z" fill="#FAE0B2"/>
    <path d="M508.744 37.397C508.731 37.4436 508.713 37.4892 508.701 37.5358L507.194 43.1577C506.994 43.9047 506.497 44.5547 505.803 44.9781C505.108 45.4014 504.267 45.5673 503.446 45.4425L499.676 44.8687C498.855 44.7437 498.115 44.3373 497.604 43.7303C497.093 43.1234 496.847 42.3605 496.916 41.5936C497.148 39.0118 497.406 37.1618 497.44 35.6758L508.744 37.397Z" fill="#96D9C9"/>
    <path d="M514.395 10.264L517.371 5.23717C517.503 5.00403 517.531 4.73231 517.448 4.48041C517.366 4.22851 517.18 4.01654 516.931 3.89011C516.681 3.76368 516.388 3.73289 516.115 3.80433C515.841 3.87577 515.608 4.04375 515.467 4.27216L512.491 9.29893C512.359 9.53207 512.331 9.80382 512.413 10.0557C512.496 10.3076 512.682 10.5196 512.931 10.646C513.18 10.7724 513.474 10.8032 513.747 10.7318C514.021 10.6604 514.253 10.4924 514.395 10.264V10.264Z" fill="#FAE0B2"/>
    <path d="M520.9 22.424L527.386 21.899C527.53 21.8901 527.671 21.8547 527.8 21.7948C527.93 21.7349 528.045 21.6518 528.139 21.5503C528.233 21.4487 528.304 21.3309 528.348 21.2036C528.392 21.0763 528.408 20.9421 528.396 20.8089C528.383 20.6758 528.342 20.5463 528.274 20.428C528.207 20.3098 528.115 20.2052 528.003 20.1203C527.891 20.0355 527.763 19.9721 527.624 19.9339C527.486 19.8957 527.34 19.8835 527.197 19.898L520.71 20.4231C520.566 20.4319 520.425 20.4674 520.296 20.5273C520.166 20.5871 520.052 20.6702 519.958 20.7718C519.864 20.8733 519.792 20.9912 519.748 21.1185C519.704 21.2458 519.688 21.3799 519.7 21.5131C519.713 21.6463 519.754 21.7758 519.822 21.894C519.889 22.0123 519.981 22.1169 520.093 22.2018C520.205 22.2866 520.333 22.3499 520.472 22.3881C520.61 22.4263 520.756 22.4385 520.899 22.424H520.9Z" fill="#FAE0B2"/>
    <path d="M527.332 40.8264C527.534 40.637 527.647 40.3812 527.645 40.1151C527.644 39.849 527.528 39.5944 527.324 39.4072C525.725 37.9461 523.98 36.6289 522.112 35.4732C521.993 35.396 521.86 35.3416 521.718 35.313C521.576 35.2845 521.43 35.2825 521.288 35.3071C521.145 35.3317 521.01 35.3823 520.889 35.4561C520.768 35.53 520.664 35.6254 520.584 35.7369C520.504 35.8484 520.448 35.9736 520.421 36.1052C520.394 36.2368 520.395 36.3721 520.425 36.5032C520.455 36.6343 520.513 36.7585 520.596 36.8685C520.679 36.9785 520.784 37.0721 520.907 37.1437C522.66 38.2284 524.298 39.4649 525.799 40.8365C526.004 41.0231 526.281 41.1268 526.568 41.1249C526.856 41.123 527.13 41.0156 527.332 40.8264V40.8264Z" fill="#FAE0B2"/>
    <path d="M498.368 9.99244C498.645 9.92331 498.882 9.755 499.026 9.52446C499.17 9.29392 499.209 9.02002 499.134 8.76288C498.399 6.2129 497.95 3.59921 497.797 0.963696C497.791 0.830802 497.757 0.700292 497.696 0.579764C497.635 0.459236 497.549 0.351085 497.443 0.261569C497.337 0.172053 497.212 0.102952 497.077 0.0582968C496.941 0.0136414 496.798 -0.00567511 496.654 0.0014387C496.511 0.00855251 496.37 0.0419669 496.241 0.0997494C496.111 0.157532 495.995 0.238528 495.9 0.33804C495.805 0.437552 495.732 0.55359 495.685 0.679436C495.639 0.805282 495.62 0.938421 495.629 1.07113C495.791 3.84573 496.263 6.59735 497.038 9.28187C497.075 9.40935 497.138 9.52886 497.225 9.63357C497.312 9.73828 497.42 9.82613 497.544 9.89212C497.667 9.95811 497.803 10.0009 497.945 10.0181C498.086 10.0354 498.23 10.0266 498.368 9.99244V9.99244Z" fill="#FAE0B2"/>
    <path d="M491.689 17.7084C491.73 17.582 491.744 17.4494 491.73 17.3182C491.716 17.1869 491.674 17.0595 491.606 16.9432C491.539 16.827 491.447 16.7241 491.337 16.6406C491.227 16.5571 491.099 16.4946 490.963 16.4565L484.22 14.5752C483.944 14.4983 483.646 14.526 483.392 14.6522C483.138 14.7784 482.949 14.9929 482.866 15.2483C482.783 15.5037 482.813 15.7791 482.949 16.0141C483.085 16.249 483.317 16.4242 483.593 16.5011L490.336 18.3855C490.473 18.4235 490.617 18.4361 490.759 18.4227C490.901 18.4092 491.039 18.3698 491.165 18.3069C491.29 18.244 491.401 18.1588 491.491 18.0561C491.581 17.9534 491.649 17.8352 491.689 17.7084V17.7084Z" fill="#FAE0B2"/>
    <path d="M480.61 34.3145C480.71 34.3146 480.809 34.302 480.905 34.277C483.246 33.6677 485.51 32.8279 487.658 31.7722C487.907 31.6449 488.093 31.4319 488.174 31.1791C488.255 30.9263 488.226 30.654 488.092 30.4211C487.959 30.1882 487.731 30.0133 487.459 29.9342C487.187 29.8551 486.893 29.8781 486.639 29.9983C484.628 30.9863 482.509 31.7724 480.317 32.343C480.065 32.4086 479.847 32.5566 479.703 32.7596C479.56 32.9625 479.5 33.2067 479.536 33.4471C479.572 33.6874 479.7 33.9077 479.898 34.0671C480.096 34.2266 480.349 34.3144 480.611 34.3145H480.61Z" fill="#FAE0B2"/>
    <path d="M289.584 150.446L293.453 141.98L303.182 140.13C303.432 140.082 303.662 139.971 303.847 139.809C304.031 139.647 304.163 139.44 304.228 139.212C304.292 138.984 304.286 138.744 304.211 138.519C304.136 138.294 303.994 138.092 303.801 137.938L296.296 131.917L297.401 122.783C297.429 122.548 297.386 122.312 297.276 122.099C297.167 121.886 296.995 121.706 296.781 121.579C296.567 121.452 296.318 121.383 296.064 121.379C295.809 121.376 295.558 121.439 295.34 121.56L286.834 126.304L277.787 122.509C277.555 122.411 277.298 122.376 277.045 122.406C276.792 122.437 276.554 122.533 276.357 122.682C276.159 122.831 276.011 123.029 275.929 123.252C275.847 123.476 275.835 123.716 275.893 123.945L278.14 132.898L271.443 139.69C271.271 139.864 271.156 140.079 271.11 140.311C271.063 140.542 271.088 140.781 271.18 141.001C271.273 141.22 271.43 141.411 271.634 141.552C271.838 141.693 272.081 141.779 272.335 141.799L282.23 142.588L287.138 150.579C287.264 150.784 287.449 150.953 287.673 151.066C287.897 151.179 288.151 151.231 288.406 151.217C288.66 151.203 288.906 151.124 289.114 150.987C289.322 150.851 289.485 150.663 289.584 150.446V150.446Z" fill="#F7CC7F"/>
    <path d="M342.525 155.172L344.115 161.099L354.703 159.782L358.183 168.182L366.281 168.397L366.163 172.19L355.333 171.903L352.035 163.943L341.021 165.31L338.627 156.39L342.525 155.172Z" fill="#F48C7F"/>
    <path d="M638.14 204.731L694.643 194.994C694.913 194.948 695.17 194.853 695.4 194.714C695.63 194.576 695.829 194.397 695.984 194.187C696.139 193.978 696.248 193.742 696.305 193.494C696.362 193.245 696.366 192.989 696.315 192.739L689.237 157.565C689.187 157.315 689.084 157.077 688.934 156.864C688.785 156.651 688.591 156.467 688.365 156.324C688.138 156.18 687.884 156.079 687.615 156.026C687.347 155.973 687.069 155.97 686.8 156.017L630.296 165.753C630.026 165.8 629.769 165.895 629.539 166.033C629.309 166.172 629.111 166.351 628.955 166.56C628.8 166.77 628.691 167.005 628.634 167.254C628.577 167.502 628.573 167.759 628.624 168.008L635.702 203.183C635.752 203.433 635.855 203.671 636.005 203.884C636.154 204.097 636.348 204.28 636.574 204.424C636.801 204.568 637.055 204.669 637.324 204.721C637.593 204.774 637.87 204.777 638.14 204.731V204.731Z" fill="#F7CC7F"/>
    <path d="M665.035 164.519L682.233 161.555C682.503 161.509 682.76 161.414 682.99 161.275C683.22 161.137 683.419 160.958 683.574 160.748C683.729 160.539 683.839 160.303 683.895 160.055C683.952 159.806 683.956 159.55 683.906 159.3L682.828 153.948C682.777 153.698 682.675 153.46 682.525 153.247C682.375 153.034 682.182 152.851 681.955 152.707C681.729 152.563 681.474 152.462 681.206 152.41C680.937 152.357 680.66 152.354 680.39 152.401L663.192 155.365C662.648 155.459 662.165 155.749 661.852 156.172C661.538 156.595 661.419 157.116 661.521 157.62L662.598 162.973C662.699 163.477 663.013 163.923 663.47 164.213C663.927 164.503 664.49 164.613 665.035 164.519V164.519Z" fill="#F7CC7F"/>
    <path d="M635.566 203.386C635.708 203.85 636.032 204.249 636.475 204.503C636.918 204.758 637.448 204.85 637.961 204.761L694.832 194.961C695.343 194.873 695.8 194.612 696.114 194.23C696.428 193.847 696.577 193.37 696.532 192.891L693.556 161.366C693.531 161.097 693.445 160.836 693.304 160.6C693.163 160.364 692.971 160.157 692.738 159.994C692.506 159.831 692.24 159.714 691.956 159.652C691.673 159.59 691.378 159.583 691.091 159.633L627.912 170.519C627.626 170.569 627.355 170.672 627.115 170.824C626.875 170.976 626.672 171.172 626.519 171.4C626.366 171.629 626.265 171.884 626.225 172.15C626.184 172.416 626.204 172.687 626.283 172.946L635.566 203.386Z" fill="#FAE0B2"/>
    <path d="M420.644 43.6635L430.32 46.1085L432.401 35.2622L429.235 34.7412L427.768 42.3833L421.489 40.7969L420.644 43.6635Z" fill="#50BFA5"/>
    <path d="M550.637 63.5609L600.335 79.9682C601.104 80.2222 601.95 80.1834 602.688 79.8603C603.426 79.5371 603.994 78.9561 604.27 78.2449L613.441 54.4511C613.716 53.7397 613.674 52.9565 613.325 52.2738C612.976 51.591 612.348 51.0645 611.579 50.8099L561.886 34.4067C561.117 34.1527 560.271 34.1915 559.533 34.5146C558.795 34.8377 558.226 35.4188 557.951 36.13L548.78 59.9238C548.507 60.6342 548.549 61.4158 548.897 62.0974C549.245 62.7791 549.871 63.3053 550.637 63.5609Z" fill="#86B1F2"/>
    <path d="M583.575 57.4455C582.921 59.1431 582.825 60.9821 583.3 62.7301C583.775 64.478 584.8 66.0562 586.244 67.2653C587.688 68.4744 589.488 69.26 591.415 69.5227C593.342 69.7854 595.309 69.5135 597.069 68.7414C598.829 67.9692 600.302 66.7314 601.302 65.1846C602.301 63.6378 602.783 61.8514 602.686 60.0513C602.588 58.2512 601.916 56.5183 600.754 55.0716C599.593 53.625 597.993 52.5296 596.159 51.924C594.941 51.5219 593.649 51.3458 592.358 51.4057C591.066 51.4656 589.8 51.7603 588.631 52.273C587.463 52.7857 586.415 53.5064 585.547 54.3939C584.68 55.2814 584.009 56.3184 583.575 57.4455V57.4455Z" fill="white"/>
    <path d="M591.439 56.1703C591.246 56.6709 591.218 57.2132 591.358 57.7287C591.498 58.2442 591.8 58.7097 592.226 59.0662C592.652 59.4228 593.182 59.6545 593.751 59.732C594.319 59.8095 594.899 59.7294 595.418 59.5016C595.937 59.2739 596.371 58.9088 596.666 58.4526C596.961 57.9964 597.103 57.4697 597.074 56.9388C597.045 56.4079 596.847 55.8969 596.504 55.4703C596.162 55.0438 595.69 54.7208 595.149 54.5423C594.424 54.303 593.626 54.3401 592.93 54.6454C592.234 54.9506 591.698 55.4992 591.439 56.1703V56.1703Z" fill="#86B1F2"/>
    <path d="M592.733 61.2493L592.434 61.1509C591.88 60.9679 591.292 60.8877 590.704 60.915C590.116 60.9422 589.54 61.0764 589.008 61.3097C588.476 61.5431 587.999 61.8711 587.604 62.2751C587.209 62.6791 586.904 63.151 586.707 63.6641V63.6641L595.447 66.5494C595.645 66.0364 595.732 65.4924 595.703 64.9484C595.673 64.4044 595.528 63.8711 595.276 63.379C595.024 62.8868 594.67 62.4454 594.233 62.08C593.797 61.7146 593.287 61.4323 592.733 61.2493V61.2493Z" fill="#86B1F2"/>
    <path d="M582.35 52.4702C582.646 52.4693 582.931 52.372 583.157 52.1957C583.382 52.0193 583.534 51.775 583.584 51.5057C583.634 51.2364 583.58 50.9593 583.432 50.723C583.284 50.4868 583.05 50.3065 582.772 50.2138L561.049 43.0431C560.738 42.9492 560.399 42.9714 560.106 43.105C559.812 43.2385 559.586 43.4728 559.476 43.7581C559.366 44.0434 559.381 44.3571 559.517 44.6324C559.654 44.9078 559.9 45.1231 560.206 45.2326L581.929 52.4033C582.064 52.4479 582.207 52.4705 582.35 52.4702V52.4702Z" fill="white"/>
    <path d="M576.486 57.4819C576.781 57.4816 577.068 57.3847 577.294 57.2082C577.52 57.0317 577.672 56.7871 577.722 56.5173C577.773 56.2475 577.719 55.9698 577.57 55.7333C577.42 55.4968 577.186 55.3166 576.907 55.2244L559.942 49.6239C559.631 49.53 559.292 49.5522 558.998 49.6858C558.705 49.8193 558.479 50.0537 558.369 50.3389C558.259 50.6242 558.274 50.9379 558.41 51.2133C558.546 51.4887 558.793 51.704 559.098 51.8134L576.064 57.4139C576.199 57.4588 576.342 57.4818 576.486 57.4819Z" fill="white"/>
    <path d="M383.237 69.2244C380.654 71.1321 376.161 77.2699 370.429 81.579C367.076 84.099 364.494 83.4583 360.213 83.9368C339.906 86.2084 345.409 90.0492 342.973 90.4243C343.664 91.8971 349.991 104.343 351.174 106.858C351.564 107.918 352.36 108.809 353.411 109.364C354.463 109.918 355.697 110.097 356.881 109.867C361.08 109.33 365.316 108.931 369.452 108.101C380.051 105.972 385.949 101.069 393.543 95.1115C394.488 94.4638 395.154 93.5268 395.423 92.4673C395.691 91.4078 395.545 90.2945 395.01 89.3255C391.61 82.3733 387.675 75.6557 383.237 69.2244V69.2244Z" fill="#466EB6"/>
    <path d="M340.772 105.398C340.863 109.493 340.524 110.316 342.425 109.694C343.569 109.306 344.682 108.846 345.758 108.317C346.525 107.953 346.55 107.472 345.93 106.897C345.029 106.06 344.103 105.244 343.2 104.431C343.51 103.633 343.508 102.76 343.194 101.964C342.88 101.168 342.274 100.498 341.482 100.072C341.153 99.893 341.393 100.275 338.565 94.2499C347.916 93.1825 354.516 92.4658 365.925 91.1673C368.921 90.8395 371.747 89.7017 374.048 87.8962C382.198 81.5864 390.345 75.2743 398.49 68.9598C398.746 68.7892 398.96 68.5708 399.119 68.3187C399.278 68.0666 399.379 67.7864 399.413 67.4963C399.448 67.2061 399.416 66.9124 399.321 66.6342C399.225 66.356 399.068 66.0995 398.858 65.8813C398.542 65.5704 398.141 65.3445 397.697 65.2276C397.254 65.1107 396.784 65.1071 396.339 65.2174C393.734 65.5215 368.203 68.454 365.611 68.7348C362.278 69.0712 359.129 70.3238 356.572 72.3313C348.565 78.5356 340.549 84.7285 332.522 90.9099C331.427 91.7593 331.125 92.5398 331.511 93.4846C331.601 93.7354 331.744 93.9673 331.931 94.1666C332.118 94.3659 332.347 94.5286 332.603 94.6454C332.859 94.7621 333.138 94.8304 333.423 94.8464C333.708 94.8624 333.994 94.8257 334.263 94.7385C335.275 94.5357 335.722 94.8186 336.07 95.6853C337.642 99.6021 338.74 100.47 338.361 101.9C338.07 103.007 339.494 104.918 340.772 105.398Z" fill="#86B1F2"/>
    <path d="M641.503 297.539L648.336 297.248C664.5 296.557 680.388 293.114 695.203 287.089L696.83 286.428C696.83 286.428 707.365 293.498 701.042 302.783C684.252 304.782 667.813 308.787 652.135 314.698L646.774 317.1L641.503 297.539Z" fill="#466EB6"/>
    <path d="M646.754 317.107C647.833 316.856 647.52 312.282 646.056 306.894C644.592 301.506 642.543 297.296 641.464 297.547C640.385 297.798 640.686 302.413 642.149 307.802C643.613 313.191 645.673 317.359 646.754 317.107Z" fill="#86B1F2"/>
    <path d="M646.79 317.096L646.767 317.099C646.767 317.099 644.798 305.274 642.286 302.212L644.354 301.781C645.023 303.456 645.59 305.164 646.053 306.897C647.503 312.22 647.825 316.749 646.79 317.096Z" fill="#355389"/>
    <path d="M672.65 308.162C673.608 307.167 677.271 302.492 671.168 294.403C672.29 294.169 673.408 293.922 674.522 293.662C678.192 298.987 678.209 303.121 677.529 305.71C677.421 306.119 677.256 306.652 677.107 307.048C675.617 307.403 674.131 307.774 672.65 308.162Z" fill="#B75742"/>
    <path d="M670.663 296.249L658.819 287.393L663.548 287.445L664.488 283.406L672.949 294.714L670.663 296.249Z" fill="#B75742"/>
    <path d="M674.032 294.621L676.131 284.758L678.051 288.079L681.119 286.878L676.538 295.34L674.032 294.621Z" fill="#B75742"/>
    <path d="M677.268 294.093C676.586 293.422 675.703 292.955 674.732 292.75C673.762 292.546 672.747 292.615 671.819 292.948C670.891 293.28 670.091 293.861 669.522 294.617C668.953 295.373 668.64 296.269 668.625 297.19C668.609 298.111 668.891 299.015 669.434 299.787C669.977 300.559 670.756 301.164 671.673 301.523C672.589 301.883 673.601 301.981 674.578 301.805C675.555 301.63 676.453 301.188 677.158 300.537C678.095 299.696 678.633 298.545 678.653 297.336C678.674 296.128 678.176 294.962 677.268 294.093V294.093Z" fill="#F47458"/>
    <path d="M277.025 235.578L303.67 213.581C305.401 212.151 304.679 209.209 302.292 207.958L281.026 196.816C280.442 196.464 279.753 196.29 279.056 196.321C278.36 196.351 277.691 196.583 277.145 196.984L250.501 218.981C248.77 220.411 249.49 223.353 251.879 224.604L273.143 235.744C273.727 236.097 274.416 236.271 275.113 236.241C275.81 236.211 276.478 235.979 277.025 235.578V235.578Z" fill="#9BC1F9"/>
    <path d="M278.288 218.076L280.508 201.172C280.532 200.834 280.432 200.498 280.226 200.218C280.02 199.938 279.719 199.73 279.37 199.627C279.219 199.57 279.056 199.547 278.893 199.559C278.73 199.571 278.573 199.617 278.433 199.694C278.293 199.772 278.174 199.878 278.086 200.005C277.998 200.132 277.942 200.277 277.924 200.427L275.88 215.981L255.677 220.502C255.518 220.545 255.372 220.62 255.248 220.721C255.124 220.822 255.026 220.948 254.962 221.088C254.897 221.229 254.866 221.381 254.873 221.534C254.879 221.686 254.922 221.836 254.999 221.971C255.123 222.286 255.362 222.551 255.674 222.721C255.986 222.891 256.352 222.956 256.71 222.905L278.288 218.076Z" fill="white"/>
    <path d="M645.984 102.408L643.23 107.45L637.008 107.263L634.353 113.117L627.791 111.028L624.473 117.525L618.176 116.29L613.878 122.058L616.238 123.563L619.451 119.251L626.097 120.553L629.286 114.308L635.957 116.437L638.886 109.978L644.963 110.159L647.516 105.486L651.479 106.378L652.156 103.802L645.984 102.408Z" fill="#F7CC7F"/>
    <path d="M250.447 249.756L244.791 251.884L240.232 247.962L234.075 250.761L230.611 245.197L223.498 248.079L219.625 243.315L212.286 245.052L212.996 247.621L218.48 246.323L222.566 251.344L229.404 248.575L232.926 254.232L239.717 251.144L244.17 254.974L249.412 253.003L251.767 256.084L254.107 254.554L250.447 249.756Z" fill="#50BFA5"/>
    <path d="M440.262 216.601C440.262 216.601 321.785 437.277 92.2834 385.105C44.3429 374.207 3.71541 411.322 0.464252 432.683C-2.78691 454.044 76.8447 378.706 124.785 444.049C172.726 509.393 195.478 485.117 242.607 471.52C289.736 457.923 257.233 520.075 290.547 519.1C323.862 518.124 348.751 436.564 386.279 461.81C423.808 487.056 428.331 533.231 465.015 496.68C501.699 460.129 559.901 389.028 524.207 216.704L440.262 216.601Z" fill="url(#paint0_linear_596_397)"/>
    <path d="M440.262 216.601C440.262 216.601 432.205 309.69 328.197 363.256C224.188 416.823 172.746 418.096 97.9719 409.703C23.1973 401.311 0.465463 432.683 0.465463 432.683C0.465463 432.683 9.13226 384.672 80.1014 374.207C151.071 363.742 243.098 414.361 347.703 319.377C395.509 275.964 440.262 216.601 440.262 216.601Z" fill="url(#paint1_linear_596_397)"/>
    <path d="M540.966 580.206C540.966 580.206 548.335 588.315 566.077 590.808C566.336 590.942 566.552 591.138 566.703 591.376C566.853 591.613 566.933 591.883 566.933 592.159C566.933 592.434 566.853 592.704 566.703 592.941C566.552 593.179 566.336 593.375 566.077 593.509H540.966L535.331 591.116L534.345 593.509H528.686C528.686 593.509 526.1 585.611 530.848 580.206H540.966Z" fill="#111C49"/>
    <path d="M423.343 580.206C423.343 580.206 415.974 588.315 398.232 590.808C397.973 590.942 397.757 591.138 397.606 591.376C397.456 591.613 397.376 591.883 397.376 592.159C397.376 592.434 397.456 592.704 397.606 592.941C397.757 593.179 397.973 593.375 398.232 593.509H423.343L428.978 591.116L429.964 593.509H435.623C435.623 593.509 438.209 585.611 433.462 580.206H423.343Z" fill="#111C49"/>
    <path d="M432.055 472.604L438.358 359.06L482.202 318.393V371.622L454.086 472.608C473.642 518.783 435.433 580.7 435.433 580.7H421.677L432.055 472.604Z" fill="url(#paint2_linear_596_397)"/>
    <path d="M532.342 472.604L526.042 359.06L482.199 318.393V371.622L510.313 472.604C490.757 518.779 528.967 580.696 528.967 580.696L540.965 580.206L532.342 472.604Z" fill="url(#paint3_linear_596_397)"/>
    <path d="M496.268 200.745L537.372 216.711L513.492 310.122L531.038 361.047C531.038 361.047 489.236 351.229 482.202 324.041V200.745H496.268Z" fill="url(#paint4_linear_596_397)"/>
    <path d="M468.129 200.745L427.534 216.711L451.054 311.415L432.87 363.364C432.87 363.364 475.167 351.226 482.202 324.034V200.745H468.129Z" fill="url(#paint5_linear_596_397)"/>
    <path d="M478.643 159.435L470.208 200.746L495.196 202.242L494.195 173.206L478.643 159.435Z" fill="url(#paint6_radial_596_397)"/>
    <path opacity="0.06" d="M494.434 180.11L494.755 189.505C494.755 189.505 476.554 181.403 476.111 171.824L478.643 159.435L494.434 180.11Z" fill="#040505"/>
    <path d="M478.909 153.821C478.909 153.821 474.454 181.823 501.988 181.449V142.854C501.988 142.854 483.768 138.934 478.909 153.821Z" fill="url(#paint7_radial_596_397)"/>
    <path d="M480.223 143.979C480.223 143.979 486.156 136.249 495.983 136.06V136.054C495.983 136.054 501.652 135.236 509.413 139.982L506.578 140.42C506.578 140.42 509.615 144.041 512.72 140.106C512.72 140.106 516.432 148.003 507.557 147.912H501.989L485.928 147.474L483.363 153.344V166.332H481.339L480.393 154.716L476.112 171.82C469.872 144.589 480.223 143.979 480.223 143.979Z" fill="url(#paint8_linear_596_397)"/>
    <path d="M480.393 154.561C480.393 154.561 477.039 152.926 475.535 155.061C473.822 157.494 476.951 163.14 481.135 163.838L480.393 154.561Z" fill="url(#paint9_radial_596_397)"/>
    <path d="M496.268 200.745L482.198 299.739L468.129 200.745H496.268Z" fill="url(#paint10_linear_596_397)"/>
    <path d="M468.608 198.401L482.198 200.746L474.038 208.974L468.129 200.746L468.608 198.401Z" fill="url(#paint11_linear_596_397)"/>
    <path d="M495.789 198.401L482.198 200.746L490.359 208.974L496.268 200.746L495.789 198.401Z" fill="url(#paint12_linear_596_397)"/>
    <path d="M475.551 207.448L482.198 200.746L488.803 207.405L485.297 215.092L489.041 251.563L482.194 299.739L475.347 251.563L479.095 215.089L475.551 207.448Z" fill="url(#paint13_linear_596_397)"/>
    <path d="M482.198 299.739V200.746L475.552 207.448L479.095 215.092L475.351 251.563L482.198 299.739Z" fill="url(#paint14_linear_596_397)"/>
    <path d="M530.563 308.543C530.563 308.543 524.429 305.269 519.293 307.381L514.162 309.493C514.759 310.016 515.521 310.348 516.337 310.443C517.152 310.537 517.979 310.387 518.696 310.016L509.786 313.685L515.075 324.698C515.075 324.698 518.667 326.546 523.798 324.434L535.816 319.486L530.563 308.543Z" fill="url(#paint15_radial_596_397)"/>
    <path d="M537.373 216.709L595.16 285.398L564.963 287.464L527.623 254.843L537.373 216.709Z" fill="url(#paint16_linear_596_397)"/>
    <path d="M587.649 276.471C587.115 275.836 568.578 272.362 529.753 306.672L535.823 319.487C535.823 319.487 602.673 294.326 595.16 285.398L587.649 276.471Z" fill="url(#paint17_linear_596_397)"/>
    <path d="M529.752 306.671L535.822 319.486L540.97 317.468L533.552 303.42L529.752 306.671Z" fill="url(#paint18_linear_596_397)"/>
    <path d="M434.342 308.543C434.342 308.543 440.477 305.269 445.612 307.381L450.742 309.493C450.145 310.016 449.383 310.349 448.568 310.443C447.753 310.537 446.926 310.387 446.209 310.016L455.119 313.685L449.825 324.699C449.825 324.699 446.233 326.547 441.102 324.435L429.083 319.487L434.342 308.543Z" fill="url(#paint19_radial_596_397)"/>
    <path d="M427.533 216.709L369.746 285.398L399.944 287.464L437.284 254.843L427.533 216.709Z" fill="url(#paint20_linear_596_397)"/>
    <path d="M377.258 276.471C377.791 275.836 396.329 272.362 435.153 306.672L429.083 319.487C429.083 319.487 362.235 294.326 369.746 285.398L377.258 276.471Z" fill="url(#paint21_linear_596_397)"/>
    <path d="M435.153 306.671L429.083 319.486L423.935 317.468L431.361 303.42L435.153 306.671Z" fill="url(#paint22_linear_596_397)"/>
    <path opacity="0.09" d="M437.284 254.844L432.077 234.479L403.95 283.965L437.284 254.844Z" fill="#040505"/>
    <defs>
    <linearGradient id="paint0_linear_596_397" x1="536.965" y1="513.363" x2="382.393" y2="183.904" gradientUnits="userSpaceOnUse">
    <stop stop-color="#E0164A"/>
    <stop offset="0.999" stop-color="#10295E"/>
    </linearGradient>
    <linearGradient id="paint1_linear_596_397" x1="197.934" y1="255.928" x2="227.367" y2="630.994" gradientUnits="userSpaceOnUse">
    <stop stop-color="#E0164A"/>
    <stop offset="0.999" stop-color="#10295E"/>
    </linearGradient>
    <linearGradient id="paint2_linear_596_397" x1="470.46" y1="281.932" x2="243.921" y2="380.834" gradientUnits="userSpaceOnUse">
    <stop stop-color="#101C47"/>
    <stop offset="0.999" stop-color="#10295E"/>
    </linearGradient>
    <linearGradient id="paint3_linear_596_397" x1="420.024" y1="444.036" x2="523.12" y2="444.365" gradientUnits="userSpaceOnUse">
    <stop stop-color="#101C47"/>
    <stop offset="0.999" stop-color="#10295E"/>
    </linearGradient>
    <linearGradient id="paint4_linear_596_397" x1="660.953" y1="88.2135" x2="473.957" y2="115.858" gradientUnits="userSpaceOnUse">
    <stop stop-color="#417298"/>
    <stop offset="0.999" stop-color="#10295E"/>
    </linearGradient>
    <linearGradient id="paint5_linear_596_397" x1="728.533" y1="65.9341" x2="435.895" y2="91.2573" gradientUnits="userSpaceOnUse">
    <stop stop-color="#417298"/>
    <stop offset="0.999" stop-color="#10295E"/>
    </linearGradient>
    <radialGradient id="paint6_radial_596_397" cx="0" cy="0" r="1" gradientUnits="userSpaceOnUse" gradientTransform="translate(387.062 180.282) rotate(180) scale(99.4869 92.0785)">
    <stop stop-color="#FFF2BF"/>
    <stop offset="0.999" stop-color="#D53334"/>
    </radialGradient>
    <radialGradient id="paint7_radial_596_397" cx="0" cy="0" r="1" gradientUnits="userSpaceOnUse" gradientTransform="translate(416.323 153.052) rotate(180) scale(157.733 145.986)">
    <stop stop-color="#FFF2BF"/>
    <stop offset="0.999" stop-color="#D53334"/>
    </radialGradient>
    <linearGradient id="paint8_linear_596_397" x1="559.996" y1="91.9413" x2="441.76" y2="210.533" gradientUnits="userSpaceOnUse">
    <stop stop-color="#E0164A"/>
    <stop offset="0.999" stop-color="#10295E"/>
    </linearGradient>
    <radialGradient id="paint9_radial_596_397" cx="0" cy="0" r="1" gradientUnits="userSpaceOnUse" gradientTransform="translate(302.788 152.719) rotate(180) scale(30.9505 28.6364)">
    <stop stop-color="#FFF2BF"/>
    <stop offset="0.999" stop-color="#D53334"/>
    </radialGradient>
    <linearGradient id="paint10_linear_596_397" x1="517.147" y1="197.875" x2="392.024" y2="210.487" gradientUnits="userSpaceOnUse">
    <stop stop-color="#C5D4ED"/>
    <stop offset="0.999" stop-color="#8F9FBD"/>
    </linearGradient>
    <linearGradient id="paint11_linear_596_397" x1="451.837" y1="189.73" x2="499.742" y2="238.554" gradientUnits="userSpaceOnUse">
    <stop stop-color="#417298"/>
    <stop offset="0.999" stop-color="#10295E"/>
    </linearGradient>
    <linearGradient id="paint12_linear_596_397" x1="2137.69" y1="189.73" x2="2185.61" y2="238.557" gradientUnits="userSpaceOnUse">
    <stop stop-color="#417298"/>
    <stop offset="0.999" stop-color="#10295E"/>
    </linearGradient>
    <linearGradient id="paint13_linear_596_397" x1="597.654" y1="140.955" x2="251.426" y2="147.225" gradientUnits="userSpaceOnUse">
    <stop stop-color="#E0164A"/>
    <stop offset="0.999" stop-color="#10295E"/>
    </linearGradient>
    <linearGradient id="paint14_linear_596_397" x1="529.637" y1="200.647" x2="449.128" y2="201.049" gradientUnits="userSpaceOnUse">
    <stop stop-color="#E0164A"/>
    <stop offset="0.999" stop-color="#10295E"/>
    </linearGradient>
    <radialGradient id="paint15_radial_596_397" cx="0" cy="0" r="1" gradientUnits="userSpaceOnUse" gradientTransform="translate(743.953 -67.395) rotate(-110.546) scale(37.6424 25.9397)">
    <stop stop-color="#FFF2BF"/>
    <stop offset="0.999" stop-color="#D53334"/>
    </radialGradient>
    <linearGradient id="paint16_linear_596_397" x1="611.301" y1="214.728" x2="543.69" y2="264.397" gradientUnits="userSpaceOnUse">
    <stop stop-color="#417298"/>
    <stop offset="0.999" stop-color="#10295E"/>
    </linearGradient>
    <linearGradient id="paint17_linear_596_397" x1="675.472" y1="206.91" x2="601.465" y2="344.837" gradientUnits="userSpaceOnUse">
    <stop stop-color="#417298"/>
    <stop offset="0.999" stop-color="#10295E"/>
    </linearGradient>
    <linearGradient id="paint18_linear_596_397" x1="544.324" y1="302.296" x2="493.515" y2="329.322" gradientUnits="userSpaceOnUse">
    <stop stop-color="#417298"/>
    <stop offset="0.999" stop-color="#3A65AE"/>
    </linearGradient>
    <radialGradient id="paint19_radial_596_397" cx="0" cy="0" r="1" gradientUnits="userSpaceOnUse" gradientTransform="translate(551.571 -89.7932) rotate(-69.4544) scale(37.6503 25.9411)">
    <stop stop-color="#FFF2BF"/>
    <stop offset="0.999" stop-color="#D53334"/>
    </radialGradient>
    <linearGradient id="paint20_linear_596_397" x1="175.442" y1="249.61" x2="411.014" y2="251.866" gradientUnits="userSpaceOnUse">
    <stop stop-color="#417298"/>
    <stop offset="0.999" stop-color="#10295E"/>
    </linearGradient>
    <linearGradient id="paint21_linear_596_397" x1="1014.33" y1="206.91" x2="940.322" y2="344.836" gradientUnits="userSpaceOnUse">
    <stop stop-color="#417298"/>
    <stop offset="0.999" stop-color="#10295E"/>
    </linearGradient>
    <linearGradient id="paint22_linear_596_397" x1="883.359" y1="302.296" x2="832.55" y2="329.322" gradientUnits="userSpaceOnUse">
    <stop stop-color="#417298"/>
    <stop offset="0.999" stop-color="#3A65AE"/>
    </linearGradient>
    </defs>
    </svg>
    