<svg width="77" height="77" viewBox="0 0 77 77" fill="none" xmlns="http://www.w3.org/2000/svg">
<g id="Group 7976">
<g id="Ellipse 348" filter="url(#filter0_di_18_20)">
<circle cx="38.2671" cy="36.0758" r="26.8448" transform="rotate(90 38.2671 36.0758)" fill="url(#paint0_radial_18_20)"/>
<circle cx="38.2671" cy="36.0758" r="26.0351" transform="rotate(90 38.2671 36.0758)" stroke="white" stroke-width="1.61928"/>
</g>
<g id="Polygon 23">
<path d="M47.8674 33.9723C49.4866 34.9072 49.4866 37.2444 47.8674 38.1793L35.289 45.4415C33.6697 46.3763 31.6456 45.2077 31.6456 43.338L31.6456 28.8137C31.6456 26.9439 33.6697 25.7753 35.289 26.7102L47.8674 33.9723Z" fill="url(#paint1_radial_18_20)"/>
<path d="M47.8674 33.9723C49.4866 34.9072 49.4866 37.2444 47.8674 38.1793L35.289 45.4415C33.6697 46.3763 31.6456 45.2077 31.6456 43.338L31.6456 28.8137C31.6456 26.9439 33.6697 25.7753 35.289 26.7102L47.8674 33.9723Z" fill="black" fill-opacity="0.2"/>
</g>
</g>
<defs>
<filter id="filter0_di_18_20" x="0.161029" y="0.472237" width="76.2121" height="76.2122" filterUnits="userSpaceOnUse" color-interpolation-filters="sRGB">
<feFlood flood-opacity="0" result="BackgroundImageFix"/>
<feColorMatrix in="SourceAlpha" type="matrix" values="0 0 0 0 0 0 0 0 0 0 0 0 0 0 0 0 0 0 127 0" result="hardAlpha"/>
<feOffset dy="2.50252"/>
<feGaussianBlur stdDeviation="5.63067"/>
<feComposite in2="hardAlpha" operator="out"/>
<feColorMatrix type="matrix" values="0 0 0 0 0 0 0 0 0 0 0 0 0 0 0 0 0 0 0.1 0"/>
<feBlend mode="normal" in2="BackgroundImageFix" result="effect1_dropShadow_18_20"/>
<feBlend mode="normal" in="SourceGraphic" in2="effect1_dropShadow_18_20" result="shape"/>
<feColorMatrix in="SourceAlpha" type="matrix" values="0 0 0 0 0 0 0 0 0 0 0 0 0 0 0 0 0 0 127 0" result="hardAlpha"/>
<feOffset dy="3.23855"/>
<feGaussianBlur stdDeviation="1.61928"/>
<feComposite in2="hardAlpha" operator="arithmetic" k2="-1" k3="1"/>
<feColorMatrix type="matrix" values="0 0 0 0 0 0 0 0 0 0 0 0 0 0 0 0 0 0 0.25 0"/>
<feBlend mode="normal" in2="shape" result="effect2_innerShadow_18_20"/>
</filter>
<radialGradient id="paint0_radial_18_20" cx="0" cy="0" r="1" gradientUnits="userSpaceOnUse" gradientTransform="translate(34.0921 9.48445) rotate(61.6993) scale(107.587 2998.79)">
<stop stop-color="#FE11BE"/>
<stop offset="1" stop-color="#640A4A"/>
</radialGradient>
<radialGradient id="paint1_radial_18_20" cx="0" cy="0" r="1" gradientUnits="userSpaceOnUse" gradientTransform="translate(38.2673 36.0758) rotate(-180) scale(13.2434)">
<stop stop-color="#7064A4"/>
<stop offset="1" stop-color="#140639"/>
</radialGradient>
</defs>
</svg>
