<svg width="153" height="170" viewBox="0 0 153 170" fill="none" xmlns="http://www.w3.org/2000/svg">
<path d="M115.589 169.751H9.20295C4.12876 169.751 0 165.622 0 160.547V9.20295C0 4.12876 4.12876 0 9.20295 0H97.8186C98.5218 0 99.1965 0.279741 99.6939 0.777057L124.016 25.0989C124.513 25.5963 124.793 26.271 124.793 26.9742V66.6365C124.793 68.1013 123.605 69.2889 122.14 69.2889C120.676 69.2889 119.488 68.1013 119.488 66.6365V28.0725L96.7203 5.30471H9.20295C7.05309 5.30471 5.30471 7.05309 5.30471 9.20295V160.547C5.30471 162.696 7.05309 164.446 9.20295 164.446H115.589C117.738 164.446 119.488 162.696 119.488 160.547V152.112C119.488 150.647 120.676 149.459 122.14 149.459C123.605 149.459 124.793 150.647 124.793 152.112V160.547C124.793 165.622 120.664 169.751 115.589 169.751Z" fill="white"/>
<path d="M122.146 29.6383H97.8147C96.35 29.6383 95.1624 28.4507 95.1624 26.9859V2.655C95.1624 1.58264 95.8086 0.615204 96.7994 0.204659C97.7914 -0.208476 98.9285 0.0207557 99.69 0.779682L124.021 25.1106C124.78 25.8696 125.007 27.0092 124.596 28.0013C124.185 28.992 123.218 29.6383 122.146 29.6383ZM100.467 24.3336H115.743L100.467 9.05793V24.3336Z" fill="white"/>
<path d="M113.441 127.836C113.164 127.836 112.886 127.792 112.616 127.706C111.905 127.472 111.325 126.949 111.019 126.265L107.506 118.514L99.0424 117.573C98.3016 117.491 97.6308 117.101 97.1917 116.5C96.754 115.898 96.5882 115.14 96.7359 114.41L98.4311 106.046L92.1694 100.323C91.6202 99.8208 91.3081 99.1111 91.3068 98.3677C91.3055 97.6243 91.6177 96.9146 92.1655 96.4121L98.4311 90.658L96.7359 82.3215C96.5882 81.5923 96.7527 80.836 97.1892 80.2338C97.6256 79.6329 98.2952 79.2418 99.0347 79.1576L107.506 78.1901L111.027 70.448C111.335 69.7707 111.914 69.254 112.623 69.0234C113.331 68.7929 114.102 68.8719 114.751 69.2397L122.14 73.4319L129.561 69.2371C130.208 68.8706 130.977 68.7903 131.688 69.0247C132.395 69.254 132.973 69.7707 133.281 70.448L136.802 78.1901L145.242 79.1576C145.981 79.243 146.65 79.6329 147.087 80.2351C147.523 80.836 147.688 81.5936 147.54 82.3215L145.846 90.6541L152.137 96.4082C152.688 96.9107 153.001 97.623 153 98.3677C152.999 99.1137 152.684 99.8247 152.134 100.326L145.846 106.05L147.54 114.41C147.688 115.14 147.523 115.898 147.084 116.499C146.645 117.101 145.974 117.491 145.235 117.573L136.802 118.513L133.291 126.26C132.987 126.945 132.407 127.47 131.696 127.703C130.983 127.941 130.208 127.861 129.555 127.489L122.14 123.271L114.756 127.488C114.352 127.718 113.898 127.836 113.441 127.836ZM122.138 117.566C122.59 117.566 123.043 117.681 123.45 117.913L129.648 121.44L132.594 114.949C132.98 114.097 133.787 113.513 134.716 113.409L141.765 112.623L140.348 105.629C140.163 104.714 140.471 103.77 141.162 103.141L146.412 98.3612L141.158 93.5551C140.47 92.927 140.163 91.9829 140.348 91.0699L141.765 84.0984L134.708 83.2902C133.782 83.184 132.98 82.5999 132.596 81.7529L129.651 75.28L123.443 78.7898C122.633 79.2508 121.642 79.2482 120.829 78.7872L114.655 75.2839L111.712 81.7529C111.326 82.6012 110.525 83.184 109.599 83.2902L102.511 84.0996L103.928 91.0699C104.113 91.9816 103.807 92.9231 103.122 93.5513L97.8859 98.3612L103.118 103.144C103.806 103.773 104.113 104.716 103.928 105.629L102.511 112.622L109.591 113.409C110.521 113.511 111.328 114.097 111.714 114.949L114.657 121.436L120.823 117.915C121.23 117.683 121.685 117.566 122.138 117.566Z" fill="white"/>
<path d="M131.119 145.672C130.582 145.672 130.048 145.509 129.592 145.188L122.14 139.94L114.718 145.185C113.91 145.759 112.849 145.832 111.967 145.376C111.088 144.92 110.535 144.011 110.535 143.02V125.404C110.535 124.453 111.044 123.574 111.87 123.103L120.821 117.979C121.637 117.512 122.636 117.514 123.452 117.977L132.434 123.1C133.261 123.573 133.772 124.452 133.772 125.404V143.02C133.772 144.011 133.22 144.919 132.341 145.374C131.956 145.574 131.538 145.672 131.119 145.672ZM122.138 134.042C122.673 134.042 123.208 134.204 123.665 134.527L128.467 137.908V126.945L122.14 123.336L115.84 126.941V137.898L120.607 134.528C121.066 134.204 121.602 134.042 122.138 134.042Z" fill="white"/>
<path d="M117.509 108.424C116.831 108.424 116.152 108.165 115.634 107.647L110.109 102.122C109.073 101.086 109.073 99.4076 110.109 98.3716C111.145 97.3355 112.824 97.3355 113.86 98.3716L117.509 102.021L130.447 89.0844C131.483 88.0484 133.162 88.0484 134.198 89.0844C135.234 90.1205 135.234 91.799 134.198 92.835L119.385 107.647C118.866 108.165 118.188 108.424 117.509 108.424Z" fill="white"/>
<path d="M88.0432 47.7864H21.9247C20.4599 47.7864 19.2723 46.5988 19.2723 45.1341C19.2723 43.6693 20.4599 42.4817 21.9247 42.4817H88.0432C89.508 42.4817 90.6956 43.6693 90.6956 45.1341C90.6956 46.5988 89.508 47.7864 88.0432 47.7864Z" fill="white"/>
<path d="M88.0432 69.2889H21.9247C20.4599 69.2889 19.2723 68.1013 19.2723 66.6365C19.2723 65.1718 20.4599 63.9842 21.9247 63.9842H88.0432C89.508 63.9842 90.6956 65.1718 90.6956 66.6365C90.6956 68.1013 89.508 69.2889 88.0432 69.2889Z" fill="white"/>
<path d="M88.0432 90.7927H21.9247C20.4599 90.7927 19.2723 89.6051 19.2723 88.1403C19.2723 86.6756 20.4599 85.488 21.9247 85.488H88.0432C89.508 85.488 90.6956 86.6756 90.6956 88.1403C90.6956 89.6051 89.508 90.7927 88.0432 90.7927Z" fill="white"/>
<path d="M88.0432 112.295H21.9247C20.4599 112.295 19.2723 111.108 19.2723 109.643C19.2723 108.178 20.4599 106.99 21.9247 106.99H88.0432C89.508 106.99 90.6956 108.178 90.6956 109.643C90.6956 111.108 89.508 112.295 88.0432 112.295Z" fill="white"/>
<path d="M88.0432 133.798H21.9247C20.4599 133.798 19.2723 132.61 19.2723 131.145C19.2723 129.68 20.4599 128.493 21.9247 128.493H88.0432C89.508 128.493 90.6956 129.68 90.6956 131.145C90.6956 132.61 89.508 133.798 88.0432 133.798Z" fill="white"/>
<path d="M88.0432 155.301H21.9247C20.4599 155.301 19.2723 154.114 19.2723 152.649C19.2723 151.184 20.4599 149.997 21.9247 149.997H88.0432C89.508 149.997 90.6956 151.184 90.6956 152.649C90.6956 154.114 89.508 155.301 88.0432 155.301Z" fill="white"/>
</svg>
