<svg width="167" height="126" viewBox="0 0 167 126" fill="none" xmlns="http://www.w3.org/2000/svg">
<path d="M26.0938 125.25H52.1875C53.5716 125.25 54.899 124.7 55.8777 123.721C56.8564 122.743 57.4062 121.415 57.4062 120.031V104.375C57.4062 102.991 56.8564 101.663 55.8777 100.685C54.899 99.7061 53.5716 99.1562 52.1875 99.1562C50.8034 99.1562 49.476 99.7061 48.4973 100.685C47.5186 101.663 46.9688 102.991 46.9688 104.375V114.812H26.0938C21.9415 114.812 17.9592 113.163 15.0231 110.227C12.087 107.291 10.4375 103.309 10.4375 99.1562V93.4678C17.7307 92.2412 24.3532 88.4699 29.1294 82.8234C33.9055 77.1769 36.5263 70.0206 36.5263 62.625C36.5263 55.2294 33.9055 48.0731 29.1294 42.4266C24.3532 36.7801 17.7307 33.0088 10.4375 31.7822V26.0938C10.4375 21.9415 12.087 17.9592 15.0231 15.0231C17.9592 12.087 21.9415 10.4375 26.0938 10.4375H46.9688V20.875C46.9688 22.2591 47.5186 23.5865 48.4973 24.5652C49.476 25.5439 50.8034 26.0938 52.1875 26.0938C53.5716 26.0938 54.899 25.5439 55.8777 24.5652C56.8564 23.5865 57.4062 22.2591 57.4062 20.875V5.21875C57.4062 3.83465 56.8564 2.50724 55.8777 1.52854C54.899 0.549832 53.5716 0 52.1875 0H26.0938C19.1758 0.00828663 12.5436 2.7601 7.65184 7.65184C2.7601 12.5436 0.00828663 19.1758 0 26.0938L0 36.5312C0 37.9153 0.549831 39.2428 1.52854 40.2215C2.50724 41.2002 3.83465 41.75 5.21875 41.75C10.7551 41.75 16.0648 43.9493 19.9796 47.8641C23.8944 51.779 26.0937 57.0886 26.0938 62.625C26.0937 68.1614 23.8944 73.471 19.9796 77.3859C16.0648 81.3007 10.7551 83.5 5.21875 83.5C3.83465 83.5 2.50724 84.0498 1.52854 85.0285C0.549831 86.0072 0 87.3347 0 88.7188L0 99.1562C0.00828663 106.074 2.7601 112.706 7.65184 117.598C12.5436 122.49 19.1758 125.242 26.0938 125.25V125.25Z" fill="white"/>
<path d="M140.906 0H73.0625C71.6784 0 70.351 0.549832 69.3723 1.52854C68.3936 2.50724 67.8438 3.83465 67.8438 5.21875C67.8438 6.60285 68.3936 7.93026 69.3723 8.90896C70.351 9.88767 71.6784 10.4375 73.0625 10.4375H140.906C145.059 10.4375 149.041 12.087 151.977 15.0231C154.913 17.9592 156.562 21.9415 156.562 26.0938V31.7822C149.269 33.0088 142.647 36.7801 137.871 42.4266C133.094 48.0731 130.474 55.2294 130.474 62.625C130.474 70.0206 133.094 77.1769 137.871 82.8234C142.647 88.4699 149.269 92.2412 156.562 93.4678V99.1562C156.562 103.309 154.913 107.291 151.977 110.227C149.041 113.163 145.059 114.812 140.906 114.812H73.0625C71.6784 114.812 70.351 115.362 69.3723 116.341C68.3936 117.32 67.8438 118.647 67.8438 120.031C67.8438 121.415 68.3936 122.743 69.3723 123.721C70.351 124.7 71.6784 125.25 73.0625 125.25H140.906C147.824 125.242 154.456 122.49 159.348 117.598C164.24 112.706 166.992 106.074 167 99.1562V88.7188C167 87.3347 166.45 86.0072 165.471 85.0285C164.493 84.0498 163.165 83.5 161.781 83.5C156.245 83.5 150.935 81.3007 147.02 77.3859C143.106 73.471 140.906 68.1614 140.906 62.625C140.906 57.0886 143.106 51.779 147.02 47.8641C150.935 43.9493 156.245 41.75 161.781 41.75C163.165 41.75 164.493 41.2002 165.471 40.2215C166.45 39.2428 167 37.9153 167 36.5312V26.0938C166.992 19.1758 164.24 12.5436 159.348 7.65184C154.456 2.7601 147.824 0.00828663 140.906 0V0Z" fill="white"/>
<path d="M57.4062 41.75C57.4062 40.3659 56.8564 39.0385 55.8777 38.0598C54.899 37.0811 53.5716 36.5312 52.1875 36.5312C50.8034 36.5312 49.476 37.0811 48.4973 38.0598C47.5186 39.0385 46.9688 40.3659 46.9688 41.75V52.1875C46.9688 53.5716 47.5186 54.899 48.4973 55.8777C49.476 56.8564 50.8034 57.4062 52.1875 57.4062C53.5716 57.4062 54.899 56.8564 55.8777 55.8777C56.8564 54.899 57.4062 53.5716 57.4062 52.1875V41.75Z" fill="white"/>
<path d="M52.1875 67.8438C50.8034 67.8438 49.476 68.3936 48.4973 69.3723C47.5186 70.351 46.9688 71.6784 46.9688 73.0625V83.5C46.9688 84.8841 47.5186 86.2115 48.4973 87.1902C49.476 88.1689 50.8034 88.7188 52.1875 88.7188C53.5716 88.7188 54.899 88.1689 55.8777 87.1902C56.8564 86.2115 57.4062 84.8841 57.4062 83.5V73.0625C57.4062 71.6784 56.8564 70.351 55.8777 69.3723C54.899 68.3936 53.5716 67.8438 52.1875 67.8438Z" fill="white"/>
<path d="M83.5 52.1875C86.3822 52.1875 88.7188 49.851 88.7188 46.9688C88.7188 44.0865 86.3822 41.75 83.5 41.75C80.6178 41.75 78.2812 44.0865 78.2812 46.9688C78.2812 49.851 80.6178 52.1875 83.5 52.1875Z" fill="white"/>
<path d="M109.594 88.7188C112.476 88.7188 114.812 86.3822 114.812 83.5C114.812 80.6178 112.476 78.2812 109.594 78.2812C106.712 78.2812 104.375 80.6178 104.375 83.5C104.375 86.3822 106.712 88.7188 109.594 88.7188Z" fill="white"/>
<path d="M74.5918 87.1897C75.579 88.1518 76.9029 88.6902 78.2814 88.6902C79.6599 88.6902 80.9839 88.1518 81.9711 87.1897L118.502 50.6584C119.453 49.6742 119.979 48.3559 119.967 46.9876C119.955 45.6192 119.406 44.3103 118.439 43.3427C117.471 42.3751 116.162 41.8262 114.794 41.8143C113.426 41.8025 112.107 42.3285 111.123 43.2791L74.5918 79.8104C73.6134 80.789 73.0638 82.1162 73.0638 83.5C73.0638 84.8838 73.6134 86.211 74.5918 87.1897Z" fill="white"/>
</svg>
