<svg width="219" height="172" viewBox="0 0 219 172" fill="none" xmlns="http://www.w3.org/2000/svg">
<path d="M200.145 160.379C201.348 161.605 202.084 163.282 202.084 164.959C202.084 166.636 201.348 168.313 200.145 169.538C198.875 170.699 197.136 171.409 195.398 171.409C193.66 171.409 191.922 170.699 190.652 169.538C189.448 168.313 188.713 166.636 188.713 164.959C188.713 163.282 189.448 161.605 190.652 160.379C193.192 157.993 197.671 157.993 200.145 160.379ZM106.061 0.867354C108.195 -0.289118 110.805 -0.289118 112.939 0.867354L215.45 56.4174C220.183 58.9825 220.183 65.5195 215.45 68.0846L201.132 75.8315L201.172 76.2911V143.439C201.172 147.14 198.043 150.14 194.183 150.14C190.644 150.14 187.72 147.619 187.257 144.349L187.193 143.439L187.175 83.3977L173.747 90.6752L173.749 139.029C173.749 141.33 172.387 143.432 170.235 144.451C132 162.561 87 162.561 48.7653 144.451C46.8824 143.559 45.6042 141.839 45.314 139.881L45.2513 139.029L45.2434 90.6752L3.5502 68.0846C-0.867826 65.6905 -1.16236 59.8364 2.66659 56.981L3.5502 56.4174L106.061 0.867354ZM161.124 97.5147L112.939 123.635C110.805 124.791 108.195 124.791 106.061 123.635L57.8658 97.5147L57.8626 135.19L60.9309 136.497C91.9357 149.085 127.064 149.085 158.069 136.497L161.128 135.19L161.124 97.5147ZM109.5 14.3937L21.1917 62.2475L109.5 110.092L173.179 75.5826L120.315 55.6687C117.022 54.4282 115.262 51.0567 116.078 47.8502L116.366 46.9815C117.659 43.824 121.176 42.1363 124.521 42.9193L125.427 43.1948L188.858 67.0805L197.799 62.2475L109.5 14.3937Z" fill="white"/>
</svg>
