<svg width="190" height="176" viewBox="0 0 190 176" fill="none" xmlns="http://www.w3.org/2000/svg">
<path d="M80.3846 88.3077C80.3846 76.2171 70.5521 66.3846 58.4615 66.3846C46.371 66.3846 36.5385 76.2171 36.5385 88.3077C36.5385 100.398 46.371 110.231 58.4615 110.231C70.5521 110.231 80.3846 100.398 80.3846 88.3077ZM58.4615 95.6154C54.4313 95.6154 51.1538 92.3379 51.1538 88.3077C51.1538 84.2775 54.4313 81 58.4615 81C62.4917 81 65.7692 84.2775 65.7692 88.3077C65.7692 92.3379 62.4917 95.6154 58.4615 95.6154Z" fill="white"/>
<path d="M73.0769 110.231H58.4615H43.8461C31.7556 110.231 21.9231 120.063 21.9231 132.154V146.769C21.9231 150.803 25.1969 154.077 29.2308 154.077H87.6923C91.7261 154.077 95 150.803 95 146.769V132.154C95 120.063 85.1675 110.231 73.0769 110.231ZM80.3846 139.462H36.5384V132.154C36.5384 128.124 39.8159 124.846 43.8461 124.846H73.0769C77.1071 124.846 80.3846 128.124 80.3846 132.154V139.462Z" fill="white"/>
<path d="M182.692 44.4615H124.231V7.92305C124.231 3.8892 120.957 0.615356 116.923 0.615356H73.0769C69.0431 0.615356 65.7692 3.8892 65.7692 7.92305V44.4615H7.30769C3.27385 44.4615 0 47.7354 0 51.7692V168.692C0 172.726 3.27385 176 7.30769 176H182.692C186.726 176 190 172.726 190 168.692V51.7692C190 47.7354 186.726 44.4615 182.692 44.4615ZM80.3846 15.2307H109.615V44.4615H80.3846V15.2307ZM175.385 161.385H14.6154V59.0769H175.385V161.385Z" fill="white"/>
<path d="M102.308 81C102.308 85.0339 105.582 88.3077 109.615 88.3077H160.769C164.803 88.3077 168.077 85.0339 168.077 81C168.077 76.9662 164.803 73.6923 160.769 73.6923H109.615C105.582 73.6923 102.308 76.9662 102.308 81Z" fill="white"/>
<path d="M160.769 95.6154H109.615C105.582 95.6154 102.308 98.8892 102.308 102.923C102.308 106.957 105.582 110.231 109.615 110.231H160.769C164.803 110.231 168.077 106.957 168.077 102.923C168.077 98.8892 164.803 95.6154 160.769 95.6154Z" fill="white"/>
<path d="M160.769 117.538H109.615C105.582 117.538 102.308 120.812 102.308 124.846C102.308 128.88 105.582 132.154 109.615 132.154H160.769C164.803 132.154 168.077 128.88 168.077 124.846C168.077 120.812 164.803 117.538 160.769 117.538Z" fill="white"/>
</svg>
