<svg width="106" height="145" viewBox="0 0 106 145" fill="none" xmlns="http://www.w3.org/2000/svg">
<path d="M102.788 9.66667H89.9394V3.22222C89.9394 1.45 88.4939 0 86.7273 0H19.2727C17.5061 0 16.0606 1.45 16.0606 3.22222V9.66667H3.21212C1.44545 9.66667 0 11.1167 0 12.8889V141.778C0 141.842 0.016061 141.907 0.016061 141.971C0.0321216 142.052 0.0321223 142.116 0.0481829 142.197C0.0803041 142.471 0.128484 142.728 0.240908 142.986C0.240908 143.002 0.240908 143.002 0.240908 143.018C0.353333 143.276 0.51394 143.518 0.690607 143.743C0.722728 143.792 0.770909 143.84 0.819091 143.904C0.995758 144.114 1.18848 144.307 1.42939 144.452L1.44545 144.468C1.6703 144.613 1.91121 144.726 2.16818 144.807C2.23242 144.839 2.29667 144.855 2.36091 144.871C2.63394 144.952 2.92303 145 3.21212 145H102.788C103.077 145 103.366 144.952 103.639 144.871C103.703 144.855 103.768 144.839 103.832 144.807C104.089 144.726 104.33 144.613 104.555 144.468L104.571 144.452C104.812 144.307 105.004 144.114 105.197 143.904C105.229 143.84 105.277 143.792 105.309 143.743C105.486 143.518 105.647 143.276 105.759 143.018C105.759 143.002 105.759 143.002 105.759 142.986C105.872 142.728 105.92 142.471 105.952 142.197C105.968 142.116 105.968 142.052 105.984 141.971C105.984 141.907 106 141.842 106 141.778V12.8889C106 11.1167 104.555 9.66667 102.788 9.66667ZM22.4848 6.44444H83.5152V25.7778H22.4848V6.44444ZM6.42424 16.1111H16.0606V25.7778H6.42424V16.1111ZM10.9694 138.556L20.6058 128.889H85.3942L95.0306 138.556H10.9694ZM99.5758 133.996L88.9918 123.395C88.3976 122.783 87.5785 122.444 86.7273 122.444H19.2727C18.4215 122.444 17.6024 122.783 17.0082 123.395L6.42424 133.996V32.2222H99.5758V133.996ZM99.5758 25.7778H89.9394V16.1111H99.5758V25.7778ZM19.2727 80.5556H86.7273C88.4939 80.5556 89.9394 79.1056 89.9394 77.3333V45.1111C89.9394 43.3389 88.4939 41.8889 86.7273 41.8889H19.2727C17.5061 41.8889 16.0606 43.3389 16.0606 45.1111V77.3333C16.0606 79.1056 17.5061 80.5556 19.2727 80.5556ZM22.4848 48.3333H83.5152V74.1111H22.4848V48.3333ZM73.8788 61.2222C73.8788 62.9944 72.4333 64.4444 70.6667 64.4444H35.3333C33.5667 64.4444 32.1212 62.9944 32.1212 61.2222C32.1212 59.45 33.5667 58 35.3333 58H70.6667C72.4333 58 73.8788 59.45 73.8788 61.2222Z" fill="white"/>
</svg>
