<svg width="88" height="96" viewBox="0 0 88 96" fill="none" xmlns="http://www.w3.org/2000/svg">
<path d="M86.3668 40.5135L72.6668 27.2135C69.5668 24.2135 65.4668 22.5135 61.1668 22.5135H57.5668L45.8668 16.2135V14.9135C50.0668 13.6135 52.4668 8.91349 50.6668 4.61349C49.8668 2.61349 48.1668 1.11349 46.1668 0.413488C43.4668 -0.486512 40.6668 0.113488 38.5668 1.91349C36.8668 3.41349 35.9668 5.71349 35.9668 7.91349V8.21349C35.9668 8.91349 36.4668 9.41349 37.1668 9.41349H39.1668C39.8668 9.41349 40.3668 8.91349 40.3668 8.21349V7.61349C40.3668 6.61349 40.7668 5.71349 41.5668 5.11349C42.4668 4.51349 43.4668 4.31349 44.4668 4.51349C45.6668 4.81349 46.5668 5.61349 46.7668 6.81349C47.1668 8.81349 45.8668 10.3135 44.3668 10.7135C42.6668 11.1135 41.4668 12.6135 41.4668 14.3135V16.2135L29.7668 22.5135H26.1668C21.8668 22.5135 17.7668 24.2135 14.6668 27.2135L0.966792 40.5135C-0.133208 41.5135 -0.333208 43.2135 0.566792 44.5135L8.36679 55.8135C9.36679 57.2135 11.3668 57.6135 12.7668 56.5135L19.0668 51.7135L21.4668 92.2135C21.5668 93.8135 22.9668 95.1135 24.5668 95.1135H62.8668C64.4668 95.1135 65.8668 93.8135 65.9668 92.2135L68.3668 51.7135L74.7668 56.5135C76.1668 57.6135 78.1668 57.2135 79.1668 55.8135L86.9668 44.5135C87.6668 43.2135 87.4668 41.5135 86.3668 40.5135ZM43.6668 20.1135L53.1668 25.2135C51.3668 27.9135 47.8668 29.8135 43.7668 29.8135C39.6668 29.8135 36.0668 27.9135 34.2668 25.2135L43.6668 20.1135Z" fill="white"/>
</svg>
