<svg width="142" height="100" viewBox="0 0 142 100" fill="none" xmlns="http://www.w3.org/2000/svg">
<path d="M139.633 12.4333H63.9888C60.3955 5.21428 53.1282 0.599976 44.9667 0.599976C37.7978 0.599976 31.176 4.24185 27.2733 10.151C26.8553 10.1262 26.4749 10.0666 26.0333 10.0666C14.2878 10.0666 4.73333 19.6223 4.73333 31.3666C4.73333 37.5167 7.4305 43.3502 11.9581 47.3486C4.58773 52.0704 0 60.2936 0 69.2333V97.6333C0 98.9403 1.05853 100 2.36667 100H49.7C51.0081 100 52.0667 98.9403 52.0667 97.6333V90.5333H68.6333C69.9415 90.5333 71 89.4736 71 88.1666V59.7666C71 56.5162 70.3618 53.309 69.1867 50.3H139.633C140.941 50.3 142 49.2403 142 47.9333V14.8C142 13.493 140.941 12.4333 139.633 12.4333ZM47.3333 95.2666H4.73333V69.2333C4.73333 60.8367 9.68161 53.2132 17.3386 49.8123C18.1475 49.4518 18.6883 48.6706 18.7392 47.7866C18.7923 46.9025 18.344 46.0624 17.5813 45.6117C12.5752 42.6511 9.46667 37.1932 9.46667 31.3666C9.46667 22.2316 16.8995 14.8 26.0333 14.8C26.803 14.8 27.5171 14.8474 28.1897 14.9456C36.406 16.0122 42.6 23.0718 42.6 31.3666C42.6 37.1932 39.4914 42.6511 34.4854 45.6117C33.7227 46.0624 33.2743 46.9025 33.3275 47.7866C33.3783 48.6706 33.9191 49.4518 34.7281 49.8123C42.3851 53.2132 47.3333 60.8367 47.3333 69.2333V88.1666V95.2666ZM66.2667 85.8H52.0667V69.2333C52.0667 60.2936 47.4789 52.0704 40.1085 47.3486C44.6362 43.3502 47.3333 37.5167 47.3333 31.3666C47.3333 30.7367 47.3008 30.1135 47.2464 29.496C47.2283 29.2915 47.1952 29.0913 47.1714 28.8883C47.1232 28.4769 47.0713 28.0668 46.9997 27.6622C46.9581 27.4272 46.9046 27.1967 46.8553 26.9641C46.7778 26.5986 46.6959 26.2354 46.5995 25.8765C46.5347 25.6346 46.4626 25.3962 46.3895 25.1576C46.2849 24.8167 46.1733 24.4793 46.0522 24.1455C45.9654 23.9061 45.8761 23.6688 45.7811 23.4335C45.6495 23.1077 45.5078 22.7879 45.3607 22.4701C45.2548 22.2412 45.1508 22.0124 45.0373 21.7877C44.8765 21.4702 44.7022 21.1613 44.5262 20.8529C44.4056 20.6412 44.2905 20.4266 44.1629 20.2194C43.9614 19.8927 43.7433 19.5779 43.5248 19.2629C43.4037 19.0883 43.2918 18.9071 43.1657 18.7361C42.8269 18.2775 42.4701 17.8328 42.0963 17.4028C41.9178 17.1971 41.7243 17.0057 41.5381 16.807C41.3226 16.5773 41.1106 16.3447 40.8849 16.1246C40.6677 15.9124 40.439 15.7129 40.2128 15.5099C40.0016 15.3207 39.7922 15.1306 39.5735 14.9496C39.3301 14.7481 39.0789 14.557 38.8265 14.3662C38.6094 14.2022 38.3915 14.0406 38.1678 13.8847C37.9032 13.7001 37.6342 13.5229 37.3608 13.3501C37.1344 13.2071 36.9046 13.07 36.6725 12.9354C36.39 12.7716 36.1061 12.6111 35.8153 12.4602C35.5744 12.3351 35.328 12.2198 35.0817 12.1037C34.7896 11.966 34.4991 11.8272 34.1998 11.7028C33.9271 11.5893 33.6467 11.4911 33.3682 11.3886C33.0838 11.2842 32.8033 11.1726 32.5132 11.0801C32.4915 11.0732 32.4709 11.0639 32.4492 11.057C35.5462 7.46655 40.1062 5.33331 44.9667 5.33331C51.7477 5.33331 57.7799 9.39871 60.3292 15.6748C61.1289 17.6844 61.5333 19.7795 61.5333 21.9C61.5333 27.7265 58.4248 33.1844 53.4187 36.145C52.656 36.5957 52.21 37.4347 52.2608 38.3176C52.3117 39.2016 52.8502 39.9839 53.6591 40.3445C54.6737 40.7966 55.6512 41.3307 56.5816 41.9372C58.4424 43.1506 60.1148 44.6552 61.5192 46.3793C61.609 46.4897 61.6739 46.618 61.7616 46.73C62.3581 47.493 62.9261 48.2796 63.4125 49.1182C65.2795 52.3468 66.2667 56.0296 66.2667 59.7666V85.8ZM137.267 45.5666H66.7821C66.6051 45.2964 66.3961 45.0492 66.209 44.7859C65.9729 44.4534 65.7383 44.1227 65.4868 43.8016C65.1202 43.3336 64.7302 42.888 64.3326 42.4461C64.0756 42.1604 63.8275 41.869 63.5582 41.5949C63.0989 41.127 62.6115 40.691 62.1189 40.2585C61.8768 40.0461 61.6487 39.8194 61.399 39.6159C60.6415 38.9985 59.8558 38.4165 59.0349 37.8877C63.5672 33.8893 66.2667 28.0535 66.2667 21.9C66.2667 21.1552 66.2196 20.4142 66.1423 19.6765C66.117 19.4362 66.0724 19.1991 66.039 18.9598C65.9698 18.4631 65.8918 17.9678 65.7874 17.4755C65.7657 17.3732 65.7583 17.2688 65.7351 17.1666H137.267V45.5666Z" fill="white"/>
<path d="M127.8 40.8333C129.108 40.8333 130.167 39.7736 130.167 38.4666V24.2666C130.167 22.9596 129.108 21.9 127.8 21.9C126.492 21.9 125.433 22.9596 125.433 24.2666V38.4666C125.433 39.7736 126.492 40.8333 127.8 40.8333Z" fill="white"/>
<path d="M113.6 40.8333C114.908 40.8333 115.967 39.7736 115.967 38.4666V24.2666C115.967 22.9596 114.908 21.9 113.6 21.9C112.292 21.9 111.233 22.9596 111.233 24.2666V38.4666C111.233 39.7736 112.292 40.8333 113.6 40.8333Z" fill="white"/>
<path d="M99.4 40.8333C100.708 40.8333 101.767 39.7736 101.767 38.4666V24.2666C101.767 22.9596 100.708 21.9 99.4 21.9C98.0919 21.9 97.0333 22.9596 97.0333 24.2666V38.4666C97.0333 39.7736 98.0919 40.8333 99.4 40.8333Z" fill="white"/>
<path d="M85.2 40.8333C86.5081 40.8333 87.5667 39.7736 87.5667 38.4666V24.2666C87.5667 22.9596 86.5081 21.9 85.2 21.9C83.8919 21.9 82.8333 22.9596 82.8333 24.2666V38.4666C82.8333 39.7736 83.8919 40.8333 85.2 40.8333Z" fill="white"/>
<path d="M71 40.8333C72.3081 40.8333 73.3667 39.7736 73.3667 38.4666V24.2666C73.3667 22.9596 72.3081 21.9 71 21.9C69.6919 21.9 68.6333 22.9596 68.6333 24.2666V38.4666C68.6333 39.7736 69.6919 40.8333 71 40.8333Z" fill="white"/>
</svg>
