<svg width="115" height="115" viewBox="0 0 115 115" fill="none" xmlns="http://www.w3.org/2000/svg">
<path d="M63.75 114.75H38.25V38.25H63.75V51C69.1853 44.0847 77.4282 39.9621 86.2219 39.7609C102.036 39.8487 114.796 52.7174 114.75 68.5312V114.75H89.25V71.7188C88.23 64.5953 82.1215 59.3104 74.9254 59.3257C71.778 59.4252 68.8067 60.8035 66.6978 63.1418C64.589 65.4808 63.5243 68.5778 63.75 71.7188V114.75ZM25.5 114.75H0V38.25H25.5V114.75ZM12.75 25.5C5.70837 25.5 0 19.7916 0 12.75C0 5.70837 5.70837 0 12.75 0C19.7916 0 25.5 5.70837 25.5 12.75C25.5 16.1315 24.1567 19.3745 21.7656 21.7656C19.3745 24.1567 16.1315 25.5 12.75 25.5Z" fill="white"/>
</svg>
