<svg width="96" height="66" viewBox="0 0 96 66" fill="none" xmlns="http://www.w3.org/2000/svg">
<path d="M35.0237 33.3C33.5237 29.5 29.8237 27 25.7237 27H25.5237L22.7237 37.7L21.8237 29.8H22.0237C22.3237 29.8 22.7237 29.5 22.7237 29.1V27.7C22.7237 27.3 22.4237 27 22.0237 27H19.4237C19.0237 27 18.7237 27.3 18.7237 27.7V29.2C18.7237 29.6 19.0237 29.9 19.4237 29.9H19.6237L18.7237 37.7L15.9237 27.1H15.7237C11.5237 27.1 7.82372 29.7 6.32372 33.6L0.223721 50C-0.476279 51.9 0.523721 54 2.42372 54.7C4.32372 55.4 6.42372 54.4 7.12372 52.6L11.1237 41.7V54.7C11.1237 56.4 12.4237 57.7 14.1237 57.7L23.3237 57.8C23.4237 57.3 23.5237 56.7 23.7237 56.2L29.9237 39.7C30.9237 37 32.7237 34.8 35.0237 33.3Z" fill="white"/>
<path d="M21.1183 25.3914C25.9736 25.1735 29.7329 21.0609 29.515 16.2057C29.2971 11.3504 25.1845 7.59111 20.3293 7.809C15.474 8.02689 11.7147 12.1395 11.9326 16.9947C12.1505 21.85 16.2631 25.6093 21.1183 25.3914Z" fill="white"/>
<path d="M94.8238 50L88.7238 33.6C87.2238 29.7 83.5238 27.1 79.3238 27.1H79.1238L76.3238 37.7L75.4238 29.8H75.6238C76.0238 29.8 76.3238 29.5 76.3238 29.1V27.7C76.3238 27.3 76.0238 27 75.6238 27H73.0238C72.7238 27 72.3238 27.3 72.3238 27.7V29.2C72.3238 29.6 72.6238 29.9 73.0238 29.9H73.2238L72.3238 37.7L69.5238 27H69.4238C65.3238 27 61.6238 29.5 60.1238 33.3C62.4238 34.8 64.2238 37 65.2238 39.7L71.3238 56.1C71.5238 56.6 71.6238 57.2 71.7238 57.7L81.0238 57.8C82.7238 57.8 84.1238 56.4 84.1238 54.7V41.6L88.1238 52.5C88.6238 54 90.0238 54.9 91.5238 54.9C92.1238 54.9 92.8238 54.7 93.4238 54.3C94.8238 53.5 95.4238 51.6 94.8238 50Z" fill="white"/>
<path d="M74.7187 25.3934C79.5739 25.1755 83.3332 21.0629 83.1153 16.2077C82.8975 11.3524 78.7849 7.59313 73.9296 7.81101C69.0744 8.0289 65.3151 12.1415 65.5329 16.9967C65.7508 21.852 69.8634 25.6113 74.7187 25.3934Z" fill="white"/>
<path d="M61.9238 41C60.4238 37.1 56.7238 34.5 52.5238 34.5H52.3238L49.5238 45.2L48.6238 37.3H48.8238C49.2238 37.3 49.5238 37 49.5238 36.6V35.1C49.5238 34.7 49.2238 34.4 48.8238 34.4H46.2238C45.8238 34.4 45.5238 34.7 45.5238 35.1V36.6C45.5238 37 45.8238 37.3 46.2238 37.3H46.4238L45.5238 45.1L42.7238 34.5H42.5238C38.3238 34.5 34.6238 37.1 33.1238 41L27.0238 57.5C26.3238 59.4 27.3238 61.5 29.2238 62.2C31.1238 62.9 33.2238 61.9 33.9238 60.1L37.9238 49.2V62.3C37.9238 64 39.3238 65.3 40.9238 65.4L54.0238 65.5C55.7238 65.5 57.1238 64.1 57.1238 62.4V49.1L61.1238 60C61.6238 61.5 63.0238 62.4 64.5238 62.4C65.1238 62.4 65.8238 62.2 66.4238 61.8C67.9238 60.9 68.4238 59 67.9238 57.4L61.9238 41Z" fill="white"/>
<path d="M47.9172 32.7916C52.7724 32.5737 56.5317 28.4611 56.3138 23.6059C56.0959 18.7506 51.9834 14.9913 47.1281 15.2092C42.2729 15.4271 38.5135 19.5397 38.7314 24.3949C38.9493 29.2502 43.0619 33.0095 47.9172 32.7916Z" fill="white"/>
<path d="M47.5238 9.9C48.5238 9.9 49.3238 9.1 49.3238 8.1V1.8C49.3238 0.800001 48.5238 0 47.5238 0C46.5238 0 45.7238 0.800001 45.7238 1.8V8.1C45.8238 9.1 46.5238 9.9 47.5238 9.9Z" fill="white"/>
<path d="M39.0237 12.4C39.3237 12.7 39.8237 12.9 40.2237 12.9C40.6237 12.9 41.1237 12.7 41.4237 12.4C42.1237 11.7 42.1237 10.6 41.4237 9.9L36.9237 5.4C36.2237 4.7 35.1237 4.7 34.4237 5.4C33.7237 6.1 33.7237 7.2 34.4237 7.9L39.0237 12.4Z" fill="white"/>
<path d="M54.8238 12.9C55.2238 12.9 55.7238 12.7 56.0238 12.4L60.5238 7.9C61.2238 7.2 61.2238 6.1 60.5238 5.4C59.8238 4.7 58.7238 4.7 58.0238 5.4L53.5238 9.9C52.8238 10.6 52.8238 11.7 53.5238 12.4C53.9238 12.7 54.3238 12.9 54.8238 12.9Z" fill="white"/>
</svg>
