<svg width="1228" height="90" viewBox="0 0 1228 90" fill="none" xmlns="http://www.w3.org/2000/svg">
<path d="M95.0845 21.52H97.0845V19.52H95.0845V21.52ZM39.7885 22.544L39.4529 20.5723L39.4458 20.5736L39.7885 22.544ZM30.4445 25.488L31.3927 27.2489L31.4043 27.2427L31.4158 27.2363L30.4445 25.488ZM25.5805 29.968L23.844 28.9757L23.8359 28.9899L23.8281 29.0042L25.5805 29.968ZM23.5325 35.6L21.5745 35.1921L21.0729 37.6H23.5325V35.6ZM95.0845 35.6V37.6H97.0845V35.6H95.0845ZM116.973 90V92H118.973V90H116.973ZM95.0845 90H93.0845V92H95.0845V90ZM95.0845 55.312H97.0845V53.312H95.0845V55.312ZM22.1245 55.312V53.312H20.1245V55.312H22.1245ZM22.1245 90V92H24.1245V90H22.1245ZM0.3645 90H-1.6355V92H0.3645V90ZM3.3085 26.256L1.43231 25.5632L1.4276 25.576L1.42306 25.5888L3.3085 26.256ZM12.0125 12.176L10.5983 10.7618L10.5903 10.7697L10.5825 10.7778L12.0125 12.176ZM26.0925 3.47199L26.7597 5.35744L26.7725 5.3529L26.7853 5.34819L26.0925 3.47199ZM116.973 0.399994H118.973V-1.60001H116.973V0.399994ZM95.0845 19.52H55.6605V23.52H95.0845V19.52ZM55.6605 19.52C49.0368 19.52 43.6207 19.8629 39.4529 20.5724L40.1241 24.5156C43.9776 23.8597 49.1429 23.52 55.6605 23.52V19.52ZM39.4458 20.5736C35.401 21.277 32.0459 22.3104 29.4732 23.7397L31.4158 27.2363C33.4511 26.1056 36.3253 25.1763 40.1312 24.5144L39.4458 20.5736ZM29.4963 23.7271C27.0211 25.0599 25.0909 26.7936 23.844 28.9757L27.317 30.9603C28.1181 29.5583 29.4306 28.3055 31.3927 27.2489L29.4963 23.7271ZM23.8281 29.0042C22.7868 30.8973 22.0387 32.964 21.5745 35.1921L25.4905 36.0079C25.8796 34.14 26.4968 32.452 27.3329 30.9318L23.8281 29.0042ZM23.5325 37.6H95.0845V33.6H23.5325V37.6ZM97.0845 35.6V21.52H93.0845V35.6H97.0845ZM116.973 88H95.0845V92H116.973V88ZM97.0845 90V55.312H93.0845V90H97.0845ZM95.0845 53.312H22.1245V57.312H95.0845V53.312ZM20.1245 55.312V90H24.1245V55.312H20.1245ZM22.1245 88H0.3645V92H22.1245V88ZM2.3645 90V45.072H-1.6355V90H2.3645ZM2.3645 45.072C2.3645 38.26 3.31991 32.2193 5.19394 26.9232L1.42306 25.5888C-0.628244 31.386 -1.6355 37.8893 -1.6355 45.072H2.3645ZM5.18469 26.9487C7.14516 21.6392 9.90361 17.1936 13.4425 13.5742L10.5825 10.7778C6.61206 14.8384 3.56784 19.7795 1.43231 25.5632L5.18469 26.9487ZM13.4267 13.5902C17.0387 9.97817 21.4702 7.2291 26.7597 5.35744L25.4253 1.58655C19.6215 3.64022 14.6663 6.69381 10.5983 10.7618L13.4267 13.5902ZM26.7853 5.34819C32.0711 3.39649 38.1447 2.39999 45.0365 2.39999V-1.60001C37.763 -1.60001 31.2072 -0.548506 25.3998 1.5958L26.7853 5.34819ZM45.0365 2.39999H116.973V-1.60001H45.0365V2.39999ZM114.973 0.399994V90H118.973V0.399994H114.973ZM227.71 21.52H229.71V19.52H227.71V21.52ZM172.413 22.544L172.078 20.5723L172.071 20.5736L172.413 22.544ZM163.07 25.488L164.018 27.2489L164.029 27.2427L164.041 27.2363L163.07 25.488ZM158.206 29.968L156.469 28.9757L156.461 28.9899L156.453 29.0042L158.206 29.968ZM156.158 35.6L154.2 35.1921L153.698 37.6H156.158V35.6ZM227.71 35.6V37.6H229.71V35.6H227.71ZM249.598 90V92H251.598V90H249.598ZM227.71 90H225.71V92H227.71V90ZM227.71 55.312H229.71V53.312H227.71V55.312ZM154.749 55.312V53.312H152.749V55.312H154.749ZM154.749 90V92H156.749V90H154.749ZM132.99 90H130.99V92H132.99V90ZM135.934 26.256L134.057 25.5632L134.053 25.576L134.048 25.5888L135.934 26.256ZM144.637 12.176L143.223 10.7618L143.215 10.7697L143.207 10.7778L144.637 12.176ZM158.717 3.47199L159.385 5.35744L159.397 5.3529L159.41 5.34819L158.717 3.47199ZM249.598 0.399994H251.598V-1.60001H249.598V0.399994ZM227.71 19.52H188.286V23.52H227.71V19.52ZM188.286 19.52C181.662 19.52 176.246 19.8629 172.078 20.5724L172.749 24.5156C176.603 23.8597 181.768 23.52 188.286 23.52V19.52ZM172.071 20.5736C168.026 21.277 164.671 22.3104 162.098 23.7397L164.041 27.2363C166.076 26.1056 168.95 25.1763 172.756 24.5144L172.071 20.5736ZM162.121 23.7271C159.646 25.0599 157.716 26.7936 156.469 28.9757L159.942 30.9603C160.743 29.5583 162.056 28.3055 164.018 27.2489L162.121 23.7271ZM156.453 29.0042C155.412 30.8973 154.664 32.964 154.2 35.1921L158.115 36.0079C158.505 34.14 159.122 32.452 159.958 30.9318L156.453 29.0042ZM156.158 37.6H227.71V33.6H156.158V37.6ZM229.71 35.6V21.52H225.71V35.6H229.71ZM249.598 88H227.71V92H249.598V88ZM229.71 90V55.312H225.71V90H229.71ZM227.71 53.312H154.749V57.312H227.71V53.312ZM152.749 55.312V90H156.749V55.312H152.749ZM154.749 88H132.99V92H154.749V88ZM134.99 90V45.072H130.99V90H134.99ZM134.99 45.072C134.99 38.26 135.945 32.2193 137.819 26.9232L134.048 25.5888C131.997 31.386 130.99 37.8893 130.99 45.072H134.99ZM137.81 26.9487C139.77 21.6392 142.529 17.1936 146.068 13.5742L143.207 10.7778C139.237 14.8384 136.193 19.7795 134.057 25.5632L137.81 26.9487ZM146.052 13.5902C149.664 9.97817 154.095 7.2291 159.385 5.35744L158.05 1.58655C152.246 3.64022 147.291 6.69381 143.223 10.7618L146.052 13.5902ZM159.41 5.34819C164.696 3.39649 170.77 2.39999 177.661 2.39999V-1.60001C170.388 -1.60001 163.832 -0.548506 158.025 1.5958L159.41 5.34819ZM177.661 2.39999H249.598V-1.60001H177.661V2.39999ZM247.598 0.399994V90H251.598V0.399994H247.598ZM298.255 35.216V33.216H296.255V35.216H298.255ZM359.566 31.76L360.929 33.2238L360.943 33.2114L360.956 33.1988L359.566 31.76ZM364.302 21.52L366.279 21.8241L366.634 19.52H364.302V21.52ZM288.143 21.52V19.52H286.143V21.52H288.143ZM288.143 90V92H290.143V90H288.143ZM266.383 90H264.383V92H266.383V90ZM266.383 0.399994V-1.60001H264.383V0.399994H266.383ZM385.423 0.399994H387.423V-1.60001H385.423V0.399994ZM352.398 54.928L352.19 52.9389L348.096 53.3673L350.964 56.3211L352.398 54.928ZM386.447 90V92H391.176L387.882 88.6069L386.447 90ZM360.078 90L358.662 91.4116L359.248 92H360.078V90ZM325.518 55.312L326.935 53.9004L326.349 53.312H325.518V55.312ZM298.255 55.312H296.255V57.312H298.255V55.312ZM298.255 37.216H349.198V33.216H298.255V37.216ZM349.198 37.216C353.979 37.216 357.981 35.969 360.929 33.2238L358.204 30.2962C356.203 32.1589 353.292 33.216 349.198 33.216V37.216ZM360.956 33.1988C363.829 30.4243 365.55 26.5616 366.279 21.8241L362.326 21.2159C361.689 25.3531 360.253 28.317 358.177 30.3212L360.956 33.1988ZM364.302 19.52H288.143V23.52H364.302V19.52ZM286.143 21.52V90H290.143V21.52H286.143ZM288.143 88H266.383V92H288.143V88ZM268.383 90V0.399994H264.383V90H268.383ZM266.383 2.39999H385.423V-1.60001H266.383V2.39999ZM383.423 0.399994V17.552H387.423V0.399994H383.423ZM383.423 17.552C383.423 28.5478 380.748 36.7818 375.668 42.5317C370.593 48.2754 362.869 51.8214 352.19 52.9389L352.607 56.9171C363.944 55.7306 372.732 51.8952 378.665 45.1803C384.593 38.4716 387.423 29.1695 387.423 17.552H383.423ZM350.964 56.3211L385.012 91.3931L387.882 88.6069L353.834 53.5349L350.964 56.3211ZM386.447 88H360.078V92H386.447V88ZM361.495 88.5884L326.935 53.9004L324.102 56.7236L358.662 91.4116L361.495 88.5884ZM325.518 53.312H298.255V57.312H325.518V53.312ZM300.255 55.312V35.216H296.255V55.312H300.255ZM422.893 0.399994H424.893V-1.60001H422.893V0.399994ZM492.397 68.752V70.752H494.396V68.752H492.397ZM492.397 0.399994V-1.60001H490.397V0.399994H492.397ZM514.156 0.399994H516.156V-1.60001H514.156V0.399994ZM514.156 90V92H516.156V90H514.156ZM430.189 86.928L429.548 88.8227L429.556 88.8254L430.189 86.928ZM414.573 77.84L413.203 79.2973L413.21 79.304L413.217 79.3107L414.573 77.84ZM404.589 62.992L402.726 63.7208L402.731 63.7324L402.735 63.744L404.589 62.992ZM401.133 0.399994V-1.60001H399.133V0.399994H401.133ZM420.893 0.399994V44.048H424.893V0.399994H420.893ZM420.893 44.048C420.893 52.7843 423.89 59.619 430.09 64.1863C436.176 68.6694 445.063 70.752 456.428 70.752V66.752C445.437 66.752 437.555 64.7173 432.463 60.9657C427.484 57.2983 424.893 51.781 424.893 44.048H420.893ZM456.428 70.752H492.397V66.752H456.428V70.752ZM494.396 68.752V0.399994H490.397V68.752H494.396ZM492.397 2.39999H514.156V-1.60001H492.397V2.39999ZM512.156 0.399994V90H516.156V0.399994H512.156ZM514.156 88H450.797V92H514.156V88ZM450.797 88C443.381 88 436.729 87.0001 430.821 85.0306L429.556 88.8254C435.936 90.9519 443.023 92 450.797 92V88ZM430.829 85.0333C425.014 83.0677 420.058 80.1752 415.928 76.3693L413.217 79.3107C417.791 83.5261 423.246 86.6923 429.548 88.8227L430.829 85.0333ZM415.942 76.3827C411.903 72.5859 408.732 67.8839 406.442 62.24L402.735 63.744C405.224 69.8761 408.709 75.0727 413.203 79.2973L415.942 76.3827ZM406.451 62.2632C404.255 56.6514 403.133 50.1226 403.133 42.64H399.133C399.133 50.5174 400.314 57.5566 402.726 63.7208L406.451 62.2632ZM403.133 42.64V0.399994H399.133V42.64H403.133ZM401.133 2.39999H422.893V-1.60001H401.133V2.39999ZM551.518 0.399994H553.518V-1.60001H551.518V0.399994ZM621.021 68.752V70.752H623.021V68.752H621.021ZM621.021 0.399994V-1.60001H619.021V0.399994H621.021ZM642.781 0.399994H644.781V-1.60001H642.781V0.399994ZM642.781 90V92H644.781V90H642.781ZM558.813 86.928L558.173 88.8227L558.181 88.8254L558.813 86.928ZM543.198 77.84L541.828 79.2973L541.835 79.304L541.842 79.3107L543.198 77.84ZM533.214 62.992L531.351 63.7208L531.356 63.7324L531.36 63.744L533.214 62.992ZM529.758 0.399994V-1.60001H527.758V0.399994H529.758ZM549.518 0.399994V44.048H553.518V0.399994H549.518ZM549.518 44.048C549.518 52.7843 552.515 59.619 558.715 64.1863C564.801 68.6694 573.688 70.752 585.054 70.752V66.752C574.062 66.752 566.18 64.7173 561.088 60.9657C556.109 57.2983 553.518 51.781 553.518 44.048H549.518ZM585.054 70.752H621.021V66.752H585.054V70.752ZM623.021 68.752V0.399994H619.021V68.752H623.021ZM621.021 2.39999H642.781V-1.60001H621.021V2.39999ZM640.781 0.399994V90H644.781V0.399994H640.781ZM642.781 88H579.422V92H642.781V88ZM579.422 88C572.006 88 565.354 87.0001 559.446 85.0306L558.181 88.8254C564.561 90.9519 571.648 92 579.422 92V88ZM559.454 85.0333C553.639 83.0677 548.683 80.1752 544.553 76.3693L541.842 79.3107C546.416 83.5261 551.871 86.6923 558.173 88.8227L559.454 85.0333ZM544.567 76.3827C540.528 72.5859 537.357 67.8839 535.067 62.24L531.36 63.744C533.849 69.8761 537.333 75.0727 541.828 79.2973L544.567 76.3827ZM535.076 62.2632C532.88 56.6514 531.758 50.1226 531.758 42.64H527.758C527.758 50.5174 528.939 57.5566 531.351 63.7208L535.076 62.2632ZM531.758 42.64V0.399994H527.758V42.64H531.758ZM529.758 2.39999H551.518V-1.60001H529.758V2.39999ZM767.055 21.52V23.52H769.055V21.52H767.055ZM678.351 35.216L676.365 34.9748L676.093 37.216H678.351V35.216ZM767.438 35.216H769.438V33.216H767.438V35.216ZM657.615 90H655.615V92H657.615V90ZM657.615 68.752V66.752H655.615V68.752H657.615ZM741.711 65.296L740.373 63.8094L740.36 63.8207L740.348 63.8322L741.711 65.296ZM746.575 55.312L748.55 55.6219L748.913 53.312H746.575V55.312ZM657.615 55.312H655.615V57.312H657.615V55.312ZM767.055 0.399994H769.055V-1.60001H767.055V0.399994ZM767.055 19.52H693.711V23.52H767.055V19.52ZM693.711 19.52C688.819 19.52 684.725 20.7465 681.691 23.4512C678.66 26.1541 676.958 30.0931 676.365 34.9748L680.336 35.4572C680.852 31.2082 682.265 28.2992 684.354 26.4368C686.44 24.5761 689.471 23.52 693.711 23.52V19.52ZM678.351 37.216H767.438V33.216H678.351V37.216ZM765.438 35.216V52.24H769.438V35.216H765.438ZM765.438 52.24C765.438 64.4782 762.147 73.3003 755.902 79.0938C749.629 84.9135 740.03 88 726.734 88V92C740.575 92 751.328 88.7932 758.623 82.0262C765.946 75.233 769.438 65.1751 769.438 52.24H765.438ZM726.734 88H657.615V92H726.734V88ZM659.615 90V68.752H655.615V90H659.615ZM657.615 70.752H731.343V66.752H657.615V70.752ZM731.343 70.752C736.123 70.752 740.125 69.5051 743.073 66.7598L740.348 63.8322C738.347 65.695 735.436 66.752 731.343 66.752V70.752ZM743.048 66.7826C746.036 64.0941 747.817 60.2989 748.55 55.6219L744.599 55.0021C743.967 59.0291 742.505 61.8899 740.373 63.8094L743.048 66.7826ZM746.575 53.312H657.615V57.312H746.575V53.312ZM659.615 55.312V38.16H655.615V55.312H659.615ZM659.615 38.16C659.615 25.9235 662.915 17.1022 669.18 11.3084C675.475 5.48722 685.107 2.39999 698.447 2.39999V-1.60001C684.565 -1.60001 673.781 1.6061 666.465 8.37162C659.119 15.1645 655.615 25.2231 655.615 38.16H659.615ZM698.447 2.39999H767.055V-1.60001H698.447V2.39999ZM765.055 0.399994V21.52H769.055V0.399994H765.055ZM896.281 90V92H898.281V90H896.281ZM874.521 90H872.521V92H874.521V90ZM874.521 55.44H876.521V53.44H874.521V55.44ZM805.018 55.44V53.44H803.018V55.44H805.018ZM805.018 90V92H807.018V90H805.018ZM783.258 90H781.258V92H783.258V90ZM783.258 0.399994V-1.60001H781.258V0.399994H783.258ZM805.018 0.399994H807.018V-1.60001H805.018V0.399994ZM805.018 35.216H803.018V37.216H805.018V35.216ZM874.521 35.216V37.216H876.521V35.216H874.521ZM874.521 0.399994V-1.60001H872.521V0.399994H874.521ZM896.281 0.399994H898.281V-1.60001H896.281V0.399994ZM896.281 88H874.521V92H896.281V88ZM876.521 90V55.44H872.521V90H876.521ZM874.521 53.44H805.018V57.44H874.521V53.44ZM803.018 55.44V90H807.018V55.44H803.018ZM805.018 88H783.258V92H805.018V88ZM785.258 90V0.399994H781.258V90H785.258ZM783.258 2.39999H805.018V-1.60001H783.258V2.39999ZM803.018 0.399994V35.216H807.018V0.399994H803.018ZM805.018 37.216H874.521V33.216H805.018V37.216ZM876.521 35.216V0.399994H872.521V35.216H876.521ZM874.521 2.39999H896.281V-1.60001H874.521V2.39999ZM894.281 0.399994V90H898.281V0.399994H894.281ZM970.753 0.399994V-1.60001H969.224L968.823 -0.124735L970.753 0.399994ZM981.377 0.399994H983.377V-1.60001H981.377V0.399994ZM981.377 28.176V30.176H983.377V28.176H981.377ZM963.201 28.176L961.271 27.6513L960.584 30.176H963.201V28.176ZM970.753 2.39999H981.377V-1.60001H970.753V2.39999ZM979.377 0.399994V28.176H983.377V0.399994H979.377ZM981.377 26.176H963.201V30.176H981.377V26.176ZM965.13 28.7007L972.682 0.924723L968.823 -0.124735L961.271 27.6513L965.13 28.7007ZM1102.67 90V92H1104.67V90H1102.67ZM991.951 90H989.951V92H991.951V90ZM991.951 35.216V33.216H989.951V35.216H991.951ZM1082.19 35.216V37.216H1084.51L1084.17 34.9202L1082.19 35.216ZM991.951 21.52H989.951V23.52H991.951V21.52ZM991.951 0.399994V-1.60001H989.951V0.399994H991.951ZM1103.18 55.312V57.312H1105.18V55.312H1103.18ZM1012.69 55.312V53.312H1010.69V55.312H1012.69ZM1012.69 68.752H1010.69V70.752H1012.69V68.752ZM1102.67 68.752H1104.67V66.752H1102.67V68.752ZM1102.67 88H991.951V92H1102.67V88ZM993.951 90V35.216H989.951V90H993.951ZM991.951 37.216H1082.19V33.216H991.951V37.216ZM1084.17 34.9202C1083.44 30.0572 1081.68 26.1443 1078.7 23.4568C1075.69 20.7579 1071.7 19.52 1066.96 19.52V23.52C1071.01 23.52 1073.95 24.5648 1076.02 26.4312C1078.11 28.309 1079.57 31.2441 1080.21 35.5118L1084.17 34.9202ZM1066.96 19.52H991.951V23.52H1066.96V19.52ZM993.951 21.52V0.399994H989.951V21.52H993.951ZM991.951 2.39999H1062.35V-1.60001H991.951V2.39999ZM1062.35 2.39999C1075.69 2.39999 1085.32 5.48722 1091.62 11.3084C1097.88 17.1022 1101.18 25.9235 1101.18 38.16H1105.18C1105.18 25.2231 1101.68 15.1645 1094.33 8.37162C1087.02 1.6061 1076.23 -1.60001 1062.35 -1.60001V2.39999ZM1101.18 38.16V55.312H1105.18V38.16H1101.18ZM1103.18 53.312H1012.69V57.312H1103.18V53.312ZM1010.69 55.312V68.752H1014.69V55.312H1010.69ZM1012.69 70.752H1102.67V66.752H1012.69V70.752ZM1100.67 68.752V90H1104.67V68.752H1100.67ZM1227.72 0.399994H1229.72V-1.60001H1227.72V0.399994ZM1224.77 64.272L1226.65 64.9484L1226.66 64.9392L1224.77 64.272ZM1216.07 78.224L1214.65 76.8098L1216.07 78.224ZM1201.99 87.056L1202.65 88.9414L1202.67 88.9369L1202.68 88.9322L1201.99 87.056ZM1117.25 90H1115.25V92H1117.25V90ZM1117.25 68.752V66.752H1115.25V68.752H1117.25ZM1197.64 65.68L1198.66 67.395L1198.68 67.3856L1198.7 67.376L1197.64 65.68ZM1204.8 55.312L1206.73 55.8614L1207.45 53.312H1204.8V55.312ZM1154.12 55.312H1152.12V57.312H1154.12V55.312ZM1154.12 35.216V33.216H1152.12V35.216H1154.12ZM1205.96 35.216V37.216H1207.96V35.216H1205.96ZM1205.96 21.52H1207.96V19.52H1205.96V21.52ZM1137.6 35.216V37.216H1139.34L1139.58 35.4937L1137.6 35.216ZM1116.74 35.216L1114.74 35.1278L1114.65 37.216H1116.74V35.216ZM1225.72 0.399994V45.456H1229.72V0.399994H1225.72ZM1225.72 45.456C1225.72 52.268 1224.76 58.3087 1222.89 63.6048L1226.66 64.9392C1228.71 59.142 1229.72 52.6387 1229.72 45.456H1225.72ZM1222.89 63.5956C1221.02 68.7989 1218.27 73.1923 1214.65 76.8098L1217.48 79.6382C1221.54 75.5757 1224.6 70.6677 1226.65 64.9484L1222.89 63.5956ZM1214.65 76.8098C1211.04 80.4279 1206.59 83.2229 1201.29 85.1798L1202.68 88.9322C1208.47 86.7931 1213.42 83.7001 1217.48 79.6382L1214.65 76.8098ZM1201.32 85.1706C1196.03 87.0429 1189.9 88 1182.92 88V92C1190.26 92 1196.85 90.9944 1202.65 88.9414L1201.32 85.1706ZM1182.92 88H1117.25V92H1182.92V88ZM1119.25 90V68.752H1115.25V90H1119.25ZM1117.25 70.752H1182.53V66.752H1117.25V70.752ZM1182.53 70.752C1189.33 70.752 1194.8 69.716 1198.66 67.395L1196.61 63.965C1193.65 65.74 1189.04 66.752 1182.53 66.752V70.752ZM1198.7 67.376C1202.62 64.9225 1205.26 60.9993 1206.73 55.8614L1202.88 54.7626C1201.62 59.182 1199.48 62.1708 1196.58 63.984L1198.7 67.376ZM1204.8 53.312H1154.12V57.312H1204.8V53.312ZM1156.12 55.312V35.216H1152.12V55.312H1156.12ZM1154.12 37.216H1205.96V33.216H1154.12V37.216ZM1207.96 35.216V21.52H1203.96V35.216H1207.96ZM1205.96 19.52H1152.84V23.52H1205.96V19.52ZM1152.84 19.52C1148.06 19.52 1144.04 20.7549 1141.03 23.4568C1138.04 26.1496 1136.31 30.0705 1135.62 34.9383L1139.58 35.4937C1140.18 31.2308 1141.63 28.3037 1143.71 26.4312C1145.78 24.5678 1148.74 23.52 1152.84 23.52V19.52ZM1137.6 33.216H1116.74V37.216H1137.6V33.216ZM1118.74 35.3041C1119.23 24.0785 1122.75 15.9689 1129.01 10.6259C1135.32 5.24755 1144.73 2.39999 1157.57 2.39999V-1.60001C1144.21 -1.60001 1133.72 1.3551 1126.42 7.58212C1119.07 13.8445 1115.27 23.1429 1114.74 35.1278L1118.74 35.3041ZM1157.57 2.39999H1227.72V-1.60001H1157.57V2.39999Z" fill="url(#paint0_linear_1154_457)"/>
<defs>
<linearGradient id="paint0_linear_1154_457" x1="614" y1="-28" x2="614" y2="97" gradientUnits="userSpaceOnUse">
<stop stop-color="white" stop-opacity="0.25"/>
<stop offset="1" stop-color="white" stop-opacity="0.65"/>
</linearGradient>
</defs>
</svg>
