<svg width="493" height="493" viewBox="0 0 493 493" fill="none" xmlns="http://www.w3.org/2000/svg">
<g opacity="0.5">
<path d="M190.591 349.363L190.605 349.363L190.619 349.362C192.17 349.329 193.698 349.739 195.024 350.544C196.351 351.35 197.421 352.517 198.108 353.911L198.128 353.951L198.151 353.991C200.082 357.373 201.655 360.948 202.842 364.659L202.854 364.696L202.868 364.734C203.3 365.871 203.496 367.084 203.445 368.299C203.394 369.499 203.103 370.677 202.589 371.762C201.729 373.287 200.482 374.559 198.974 375.448C197.453 376.345 195.721 376.82 193.957 376.826L193.894 376.826L193.831 376.831C186.941 377.432 180.015 377.509 173.113 377.062L173.085 377.06L173.057 377.059C163.923 376.81 154.936 374.702 146.641 370.865C144.687 369.905 142.84 368.739 141.134 367.385L141.127 367.38L141.121 367.374C138.839 365.605 137.113 363.216 136.149 360.492C132.463 349.713 129.944 338.568 128.636 327.25L128.635 327.243C127.504 317.863 127.349 308.392 128.174 298.981C130.727 270.978 141.7 246.989 162.749 228.25L162.757 228.243L162.765 228.236C181.627 210.95 204.211 198.249 228.766 191.118C235.06 189.39 241.49 188.198 247.985 187.555L247.99 187.554C249.263 187.424 250.511 187.361 251.803 187.295C252.55 187.257 253.312 187.219 254.101 187.166H254.377H254.395H254.413H254.431H254.449H254.467H254.485H254.503H254.521H254.539H254.557H254.575H254.593H254.611H254.629H254.647H254.665H254.683H254.701H254.719H254.737H254.755H254.773H254.791H254.809H254.827H254.845H254.863H254.881H254.899H254.917H254.935H254.953H254.971H254.989H255.007H255.025H255.043H255.061H255.079H255.097H255.115H255.133H255.151H255.169H255.187H255.205H255.223H255.241H255.259H255.277H255.295H255.313H255.331H255.349H255.367H255.385H255.403H255.421H255.439H255.457H255.475H255.493H255.511H255.529H255.547H255.565H255.583H255.601H255.619H255.637H255.655H255.673H255.691H255.709H255.727H255.745H255.763H255.781H255.799H255.817H255.835H255.853H255.871H255.889H255.907H255.925H255.943H255.961H255.979H255.997H256.015H256.033H256.051H256.069H256.087H256.105H256.123H256.141H256.159H256.177H256.195H256.213H256.231H256.249H256.268H256.286H256.304H256.322H256.34H256.358H256.376H256.394H256.412H256.43H256.448H256.466H256.484H256.502H256.52H256.538H256.556H256.574H256.592H256.61H256.628H256.646H256.664H256.682H256.7H256.718H256.736H256.754H256.772H256.79H256.808H256.826H256.844H256.863H256.881H256.899H256.917H256.935H256.953H256.971H256.989H257.007H257.025H257.043H257.061H257.079H257.097H257.115H257.133H257.151H257.169H257.187H257.205H257.223H257.241H257.26H257.278H257.296H257.314H257.332H257.35H257.368H257.386H257.404H257.422H257.44H257.458H257.476H257.494H257.512H257.53H257.548H257.567H257.585H257.603H257.621H257.639H257.657H257.675H257.693H257.711H257.729H257.747H257.765H257.783H257.801H257.82H257.838H257.856H257.874H257.892H257.91H257.928H257.946H257.964H257.982H258H258.018H258.036H258.055H258.073H258.091H258.109H258.127H258.145H258.163H258.181H258.199H258.217H258.235H258.254H258.272H258.29H258.308H258.326H258.344H258.362H258.38H258.398H258.416H258.435H258.453H258.471H258.489H258.507H258.525H258.543H258.561H258.579H258.598H258.616H258.634H258.652H258.67H258.688H258.706H258.724H258.743H258.761H258.779H258.797H258.815H258.833H258.851H258.869H258.888H258.906H258.924H258.942H258.96H258.978H258.996H259.014H259.033H259.051H259.069H259.087H259.105H259.123H259.141H259.16H259.178H259.196H259.214H259.232H259.25H259.268H259.287H259.305H259.323H259.341H259.359H259.377H259.396H259.414H259.432H259.45H259.468H259.486H259.505H259.523H259.541H259.559H259.577H259.595H259.614H259.632H259.65H259.668H259.686H259.704H259.723H259.741H259.759H259.777H259.795H259.814H259.832H259.85H259.868H259.886H259.905H259.923H259.941H259.959H259.977H259.996H260.014H260.032H260.05H260.068H260.087H260.105H260.123H260.141H260.159H260.178H260.196H260.214H260.232H260.25H260.269H260.287H260.305H260.323H260.342H260.36H260.378H260.396H260.415H260.433H260.451H260.469H260.487H260.506H260.524H260.542H260.56H260.579H260.597H260.615H260.633H260.652H260.67H260.688H260.706H260.725H260.743H260.761H260.779H260.798H260.816H260.834H260.852H260.871H260.889H260.907H260.926H260.944H260.962H260.98H260.999H261.017H261.035H261.054H261.072H261.09H261.108H261.127H261.145H261.163H261.182H261.2H261.218H261.236H261.255H261.273H261.291H261.31H261.328H261.346H261.365H261.383H261.401H261.419H261.438H261.456H261.474H261.493H261.511H261.529H261.548H261.566H261.584H261.603H261.621H261.639H261.658H261.676H261.694H261.713H261.731H261.749H261.768H261.786H261.804H261.823H261.841H261.86H261.878H261.896H261.915H261.933H261.951H261.97H261.988H262.006H262.025H262.043H262.062H262.08H262.098H262.117H262.135H262.153H262.172H262.19H262.209H262.227H262.245H262.264H262.282H262.301H262.319H262.337H262.356H262.374H262.393H262.411H262.429H262.448H262.466H262.485H262.503H262.521H262.54H262.558H262.577H262.595H262.614H262.632H262.65H262.669H262.687H262.706H262.724H262.743H262.761H262.779H262.798H262.816H262.835H262.853H262.872H262.89H262.909H262.927H262.946H262.964H262.983H263.001H263.019H263.038H263.056H263.075H263.093H263.112H263.13H263.149H263.167H263.186H263.204H263.223H263.241H263.26H263.278H263.297H263.315H263.334H263.352H263.371H263.389H263.408H263.426H263.445H263.463H263.482H263.5H263.519H263.537H263.556H263.575H263.593H263.612H263.63H263.638C278.286 188.112 292.591 192.021 305.69 198.658L305.7 198.663L305.71 198.668C315.17 203.282 321.198 210.89 326.591 219.708C330.698 226.431 334.305 233.422 337.787 240.56L337.788 240.562C338.542 242.102 339.403 243.591 340.235 245.03C340.423 245.355 340.609 245.678 340.793 245.997C341.803 247.76 342.741 249.478 343.467 251.297L343.471 251.305L343.474 251.313C348.129 262.594 351.226 274.459 352.68 286.58C353.193 290.98 353.307 295.418 353.022 299.839C352.437 307.803 350.936 315.672 348.549 323.291L348.546 323.302C346.372 330.422 341.411 334.853 335.668 339.299C334.987 338.21 334.353 337.092 333.769 335.947L333.744 335.898L333.716 335.851C330.241 330.12 326.403 324.619 322.226 319.381C322.257 319.323 322.284 319.269 322.303 319.231C322.323 319.189 322.336 319.164 322.346 319.145C322.464 318.938 322.585 318.726 322.709 318.511C323.258 317.56 323.847 316.537 324.332 315.444L324.341 315.424L324.349 315.404C326.839 309.316 328.53 302.93 329.379 296.406C329.983 292.657 330.472 288.907 330.846 285.134C331.38 282.498 331.425 279.785 330.98 277.132L330.969 277.067L330.952 277.003C327.806 264.914 323.31 253.217 317.549 242.136C311.959 230.913 302.199 222.331 290.362 218.232C288.942 217.73 287.471 217.345 286.071 216.979C285.875 216.927 285.68 216.876 285.488 216.826C283.886 216.403 282.38 215.983 280.972 215.397L280.942 215.384L280.911 215.373C274.878 213.163 268.519 211.974 262.096 211.856C259.543 211.691 257.005 211.734 254.532 211.795C254.252 211.801 253.974 211.809 253.696 211.816C251.486 211.872 249.332 211.927 247.189 211.856L247.181 211.856L247.173 211.856C236.348 211.607 225.613 213.877 215.812 218.486C201.099 224.603 188.282 234.541 178.683 247.274L178.678 247.281L178.672 247.288C166.004 264.529 160.712 284.29 159.116 305.119L159.112 305.176V305.233V305.653V307.354V309.429V309.431V309.433V309.434V309.436V309.438V309.44V309.442V309.444V309.446V309.448V309.45V309.452V309.454V309.456V309.457V309.459V309.461V309.463V309.465V309.467V309.469V309.471V309.473V309.475V309.477V309.479V309.481V309.482V309.484V309.486V309.488V309.49V309.492V309.494V309.496V309.498V309.5V309.502V309.504V309.506V309.508V309.509V309.511V309.513V309.515V309.517V309.519V309.521V309.523V309.525V309.527V309.529V309.531V309.533V309.535V309.537V309.539V309.54V309.542V309.544V309.546V309.548V309.55V309.552V309.554V309.556V309.558V309.56V309.562V309.564V309.566V309.568V309.57V309.572V309.574V309.576V309.577V309.579V309.581V309.583V309.585V309.587V309.589V309.591V309.593V309.595V309.597V309.599V309.601V309.603V309.605V309.607V309.609V309.611V309.613V309.615V309.617V309.618V309.62V309.622V309.624V309.626V309.628V309.63V309.632V309.634V309.636V309.638V309.64V309.642V309.644V309.646V309.648V309.65V309.652V309.654V309.656V309.658V309.66V309.662V309.664V309.666V309.668V309.67V309.672V309.674V309.675V309.677V309.679V309.681V309.683V309.685V309.687V309.689V309.691V309.693V309.695V309.697V309.699V309.701V309.703V309.705V309.707V309.709V309.711V309.713V309.715V309.717V309.719V309.721V309.723V309.725V309.727V309.729V309.731V309.733V309.735V309.737V309.739V309.741V309.743V309.745V309.747V309.749V309.751V309.753V309.755V309.757V309.759V309.761V309.763V309.765V309.767V309.769V309.771V309.773V309.775V309.777V309.779V309.78V309.782V309.784V309.786V309.788V309.79V309.792V309.794V309.796V309.798V309.8V309.802V309.804V309.806V309.808V309.81V309.812V309.814V309.816V309.818V309.82V309.822V309.824V309.826V309.828V309.83V309.832V309.834V309.836V309.838V309.84V309.842V309.844V309.846V309.848V309.85V309.852V309.854V309.856V309.858V309.86V309.862V309.864V309.866V309.868V309.87V309.872V309.874V309.876V309.878V309.88V309.882V309.884V309.886V309.888V309.89V309.893V309.895V309.897V309.899V309.901V309.903V309.905V309.907V309.909V309.911V309.913V309.915V309.917V309.919V309.921V309.923V309.925V309.927V309.929V309.931V309.933V309.935V309.937V309.939V309.941V309.943V309.945V309.947V309.949V309.951V309.953V309.955V309.957V309.959V309.961V309.963V309.965V309.967V309.969V309.971V309.973V309.975V309.977V309.979V309.981V309.983V309.985V309.987V309.989V309.991V309.993V309.995V309.997V309.999V310.001V310.003V310.005V310.007V310.009V310.011V310.014V310.016V310.018V310.02V310.022V310.024V310.026V310.028V310.03V310.032V310.034V310.036V310.038V310.04V310.042V310.044V310.046V310.048V310.05V310.052V310.054V310.056V310.058V310.06V310.062V310.064V310.066V310.068V310.07V310.072V310.074V310.076V310.078V310.08V310.082V310.084V310.087V310.089V310.091V310.093V310.095V310.097V310.099V310.101V310.103V310.105V310.107V310.109V310.111V310.113V310.115V310.117V310.119V310.121V310.123V310.125V310.127V310.129V310.131V310.133V310.135V310.137V310.139V310.141V310.143V310.146V310.148V310.15V310.152V310.154V310.156V310.158V310.16V310.162V310.164V310.166V310.168V310.17V310.172V310.174V310.176V310.178V310.18V310.182V310.184V310.186V310.188V310.19V310.192V310.194V310.196V310.199V310.201V310.203V310.205V310.207V310.209V310.211V310.213V310.215V310.217V310.219V310.221V310.223V310.225V310.227V310.229V310.231V310.233V310.235V310.237V310.239V310.241V310.243V310.245V310.248V310.25V310.252V310.254V310.256V310.258V310.26V310.262V310.264V310.266V310.268V310.27V310.272V310.274V310.276V310.278V310.28V310.282V310.284V310.286V310.288V310.29V310.292V310.295V310.297V310.299V310.301V310.302C157.734 317.081 157.639 324.059 158.831 330.874L158.832 330.879C159.507 334.654 161.254 338.154 163.865 340.96L163.886 340.983L163.908 341.004C167.796 344.851 172.939 347.163 178.391 347.514C180.231 347.8 182.09 347.943 183.952 347.943C186.037 348.885 188.301 349.37 190.591 349.363Z" stroke="white" stroke-width="3"/>
<path d="M179.779 344.405L179.722 344.398L179.665 344.394C174.923 344.103 170.445 342.103 167.06 338.764C164.854 336.385 163.377 333.42 162.805 330.224C161.669 323.731 161.769 317.082 163.1 310.627L163.13 310.477V310.324V309.707C163.364 309.223 163.424 308.76 163.456 308.459C163.472 308.314 163.483 308.204 163.491 308.119C163.512 307.908 163.517 307.852 163.545 307.779L163.582 307.682L163.605 307.582C164.784 302.422 166.49 297.397 168.694 292.586C172.031 285.395 176.24 278.644 181.227 272.486C185.358 267.421 189.963 262.762 194.979 258.574C201.26 253.474 208.449 249.613 216.165 247.194L216.191 247.185L216.216 247.176C225.543 243.876 235.172 241.503 244.964 240.093C247.966 239.703 250.955 239.449 253.986 239.241L254.012 239.239L254.037 239.237C256.626 238.969 259.235 238.968 261.823 239.234C264.151 239.563 266.462 240.046 268.814 240.561C269.214 240.649 269.615 240.738 270.018 240.827C271.979 241.26 273.973 241.701 275.981 242.064L276.019 242.071L276.057 242.076C276.338 242.112 276.603 242.228 276.82 242.41C277.037 242.593 277.198 242.835 277.282 243.107L277.301 243.167L277.324 243.225C278.697 246.614 278.839 250.377 277.728 253.86L277.723 253.876L277.718 253.892C277.662 254.081 277.612 254.257 277.564 254.422C277.187 255.734 277.019 256.315 276.265 256.734L276.241 256.747L276.217 256.761C273.556 258.368 270.527 259.264 267.421 259.366C261.782 259.408 256.151 259.817 250.565 260.588C243.818 261.253 237.12 262.344 230.511 263.855C223.732 265.388 217.25 268.025 211.324 271.66L211.301 271.675L211.277 271.69C207.414 274.262 203.729 277.093 200.247 280.162C196.185 283.476 192.646 287.386 189.75 291.759L189.739 291.776L189.728 291.793C187.344 295.613 185.418 300.07 186.816 305.189C187.24 307.363 188.107 309.426 189.363 311.249C190.631 313.09 192.268 314.646 194.169 315.819L194.24 315.863L194.314 315.898C197.101 317.219 200.19 317.768 203.26 317.486C206.155 317.414 209.033 317.024 211.843 316.324L211.857 316.321L211.872 316.317C223.602 313.144 234.846 308.386 245.294 302.174L245.303 302.168C251.116 298.654 257.261 295.723 263.649 293.417C270.877 290.876 278.618 290.155 286.19 291.319L286.22 291.324L286.249 291.327C289.748 291.724 293.086 293.014 295.943 295.074C310.148 307.079 322.373 321.252 332.167 337.072C333.007 338.714 333.943 340.304 334.969 341.836C335.339 343.015 335.818 344.135 336.269 345.182L336.303 345.261C336.78 346.368 337.223 347.397 337.56 348.463C338.82 352.489 338.484 355.575 337.115 357.865C335.732 360.181 333.127 361.965 329.284 363.021L329.153 363.057L329.03 363.116C327.555 363.828 325.878 363.993 324.295 363.585C321.448 362.313 318.815 360.607 316.489 358.528C316.488 358.527 316.487 358.526 316.485 358.524L313.017 355.369C312.454 354.68 311.865 354.045 311.291 353.44C311.154 353.294 311.017 353.151 310.882 353.009C310.425 352.529 309.982 352.064 309.542 351.572C306.126 347.547 303.066 343.232 300.396 338.676L300.39 338.667L300.385 338.658C299.392 337.018 298.593 335.292 297.757 333.484C297.658 333.27 297.558 333.054 297.457 332.836C296.529 330.838 295.529 328.759 294.193 326.824C291.532 322.463 288.235 318.526 284.409 315.144L284.373 315.111L284.334 315.081C281.567 312.939 278.312 311.52 274.861 310.95C271.416 310.382 267.883 310.678 264.581 311.814C258.17 313.87 252.084 316.829 246.506 320.601C243.99 322.152 241.535 323.742 239.096 325.321C233.209 329.133 227.416 332.884 221.096 335.88C214.718 338.697 208.082 340.889 201.282 342.424L201.275 342.425L201.267 342.427C196.1 343.652 190.835 344.411 185.534 344.696C183.611 344.766 181.685 344.669 179.779 344.405Z" stroke="white" stroke-width="3"/>
<path d="M28.1939 146.37L28.1714 146.345C27.3696 145.468 26.3997 144.762 25.3198 144.269C24.2454 143.779 23.084 143.51 21.9041 143.477H21.9022H21.8985H21.8948H21.8911H21.8874H21.8838H21.8801H21.8764H21.8727H21.869H21.8653H21.8617H21.858H21.8543H21.8506H21.8469H21.8433H21.8396H21.8359H21.8322H21.8285H21.8248H21.8212H21.8175H21.8138H21.8101H21.8064H21.8028H21.7991H21.7954H21.7917H21.788H21.7843H21.7807H21.777H21.7733H21.7696H21.7659H21.7623H21.7586H21.7549H21.7512H21.7475H21.7438H21.7402H21.7365H21.7328H21.7291H21.7254H21.7218H21.7181H21.7144H21.7107H21.707H21.7033H21.6997H21.696H21.6923H21.6886H21.6849H21.6813H21.6776H21.6739H21.6702H21.6665H21.6628H21.6592H21.6555H21.6518H21.6481H21.6444H21.6408H21.6371H21.6334H21.6297H21.626H21.6223H21.6187H21.615H21.6113H21.6076H21.6039H21.6003H21.5966H21.5929H21.5892H21.5855H21.5818H21.5782H21.5745H21.5708H21.5671H21.5634H21.5598H21.5561H21.5524H21.5487H21.545H21.5413H21.5377H21.534H21.5303H21.5266H21.5229H21.5193H21.5156H21.5119H21.5082H21.5045H21.5008H21.4972H21.4935H21.4898H21.4861H21.4824H21.4788H21.4751H21.4714H21.4677H21.464H21.4603H21.4567H21.453H21.4493H21.4456H21.4419H21.4383H21.4346H21.4309H21.4272H21.4235H21.4198H21.4162H21.4125H21.4088H21.4051H21.4014H21.3978H21.3941H21.3904H21.3867H21.383H21.3793H21.3757H21.372H21.3683H21.3646H21.3609H21.3573H21.3536H21.3499H21.3462H21.3425H21.3388H21.3352H21.3315H21.3278H21.3241H21.3204H21.3168H21.3131H21.3094H21.3057H21.302H21.2983H21.2947H21.291H21.2873H21.2836H21.2799H21.2763H21.2726H21.2689H21.2652H21.2615H21.2578H21.2542H21.2505H21.2468H21.2431H21.2394H21.2358H21.2321H21.2284H21.2247H21.221H21.2173H21.2137H21.21H21.2063H21.2026H21.1989H21.1953H21.1916H21.1879H21.1842H21.1805H21.1768H21.1732H21.1695H21.1658H21.1621H21.1584H21.1548H21.1511H21.1474H21.1437H21.14H21.1363H21.1327H21.129H21.1253H21.1216H21.1179H21.1143H21.1106H21.1069H21.1032H21.0995H21.0958H21.0922H21.0885H21.0848H21.0811H21.0774H21.0738H21.0701H21.0664H21.0627H21.059H21.0553H21.0517H21.048H21.0443H21.0406H21.0369H21.0333H21.0296H21.0259H21.0222H21.0185H21.0148H21.0112H21.0075H21.0038H21.0001H20.9964H20.9928H20.9891H20.9854H20.9817H20.978H20.9743H20.9707H20.967H20.9633H20.9596H20.9559H20.9523H20.9486H20.9449H20.9412H20.9375H20.9338H20.9302H20.9265H20.9228H20.9191H20.9154H20.9118H20.9081H20.9044H20.9007H20.897H20.8933H20.8897H20.886H20.8823H20.8786H20.8749H20.8713H20.8676H20.8639H20.8602H20.8565H20.8528H20.8492H20.8455H20.8418H20.8381H20.8344H20.8308H20.8271H20.8234H20.8197H20.816H20.8123H20.8087H20.805H20.8013H20.7976H20.7939H20.7903H20.7866H20.7829H20.7792H20.7755H20.7718H20.7682H20.7645H20.7608H20.7571H20.7534H20.7498H20.7461H20.7424H20.7387H20.735H20.7313H20.7277H20.724H20.7203H20.7166H20.7129H20.7093H20.7056H20.7019H20.6982H20.6945H20.6908H20.6872H20.6835H20.6798H20.6761H20.6724H20.6688H20.6651H20.6614H20.6577H20.654H20.6503H20.6467H20.643H20.6393H20.6356H20.6319H20.6283H20.6246H20.6209H20.6172H20.6135H20.6098H20.6062H20.6025H20.5988H20.5951H20.5914H20.5878H20.5841H20.5804H20.5767H20.573H20.5693H20.5657H20.562H20.5583H20.5546H20.5509H20.5473H20.5436H20.5399H20.5362H20.5325H20.5288H20.5252H20.5215H20.5178H20.5141H20.5104H20.5068H20.5031H20.4994H20.4957H20.492H20.4883H20.4847H20.481H20.4773H20.4736H20.4699H20.4663H20.4626H20.4589H20.4552H20.4515H20.4479H20.4442H20.4405H20.4368H20.4331H20.4294H20.4258H20.4221H20.4184H20.4147H20.411H20.4074H20.4037H20.4H20.3963H20.3926H20.3889H20.3853H20.3816H20.3779H20.3742H20.3705H20.3668H20.3632H20.3595H20.3558H20.3521H20.3484H20.3448H20.3411H20.3374H20.3337H20.33H20.3264H20.3227H20.319H20.3153H20.3116H20.3079H20.3043H20.3006H20.2969H20.2932H20.2895H20.2859H20.2822H20.2785H20.2748H20.2711H20.2674H20.2638H20.2601H20.2564H20.2527H20.249H20.2454H20.2417H20.238H20.2343H20.2306H20.2269H20.2233H20.2196H20.2159H20.2122H20.2085H20.2049H20.2012H20.1975H20.1938H20.1901H20.1864H20.1828H20.1791H20.1754H20.1717H20.168H20.1644H20.1607H20.157H20.1533H20.1496H20.1459H20.1423H20.1386H20.1349H20.1312H20.1275H20.1239H20.1202H20.1165H20.1128H20.1091H20.1054H20.1018H20.0981H20.0944H20.0907H20.087H20.0834H20.0797H20.076H20.0723H20.0686H20.0649H20.0613H20.0576H20.0539H20.0502H20.0465H20.0429H20.0392H19.5039H16.6879H16.3639C15.1198 143.52 13.8928 143.782 12.7393 144.251C12.1228 144.503 11.5879 144.921 11.1944 145.46C10.8007 145.999 10.5642 146.637 10.5113 147.303C10.4585 147.969 10.5914 148.637 10.8952 149.232C11.1916 149.812 11.6393 150.3 12.1899 150.645C15.8576 152.536 19.5023 154.459 23.1239 156.412C36.746 163.734 50.3116 171.286 63.3282 179.782C66.0249 181.522 68.4733 183.494 70.8356 185.445C71.1776 185.728 71.5174 186.01 71.8559 186.29C73.8724 187.963 75.8405 189.595 77.9267 191.099C90.6955 200.074 101.515 211.548 109.73 224.828C110.506 225.946 111.347 227.017 112.25 228.035L112.286 228.075L112.319 228.118C113.331 229.44 114.365 230.76 115.404 232.088C118.635 236.216 121.917 240.409 124.753 244.893L124.758 244.901L124.763 244.909C126.097 247.077 128.232 248.628 130.703 249.225L130.736 249.232L130.768 249.242C131.807 249.542 132.894 249.634 133.968 249.513C135.042 249.391 136.082 249.058 137.027 248.532C137.972 248.007 138.804 247.299 139.476 246.45C140.147 245.601 140.645 244.628 140.94 243.585L140.942 243.577L140.944 243.569C141.173 242.793 141.406 242.037 141.635 241.29C142.032 240 142.421 238.735 142.772 237.432C144.482 230.911 144.01 225.167 139.652 220.163C139.202 219.657 138.774 219.077 138.398 218.568C138.25 218.368 138.11 218.178 137.98 218.008L137.975 218.001L137.97 217.994C135.766 215.044 132.889 212.665 129.579 211.057L129.568 211.052C124.21 208.392 118.876 205.71 113.519 202.98M28.1939 146.37L114.2 201.644M28.1939 146.37L28.2176 146.393C34.1057 152.283 40.5582 157.579 47.4818 162.204M28.1939 146.37L47.4818 162.204M113.519 202.98L114.2 201.644M113.519 202.98C113.52 202.981 113.52 202.981 113.521 202.981L114.2 201.644M113.519 202.98C111.509 201.96 109.457 200.963 107.391 199.96C102.441 197.556 97.4136 195.115 92.7037 192.225M114.2 201.644C112.138 200.597 110.055 199.586 107.973 198.575C103.052 196.185 98.1317 193.795 93.4874 190.946M92.7037 192.225L93.4874 190.946M92.7037 192.225C77.2785 182.774 62.1495 172.829 47.4818 162.204M92.7037 192.225C92.7035 192.224 92.7032 192.224 92.7029 192.224L93.4874 190.946M93.4874 190.946L47.4818 162.204" stroke="white" stroke-width="3"/>
<path d="M379.1 224.541L379.116 224.541L379.133 224.541C388.159 224.281 396.995 221.879 404.913 217.532C411.03 214.295 416.763 210.379 422.006 205.858C430.254 198.756 440.389 194.213 451.173 192.784C455.168 192.272 459.103 191.812 463.097 191.582L463.137 191.58L463.176 191.575C467.534 191.091 471.94 191.292 476.236 192.17C478.43 192.831 480.391 194.105 481.889 195.842L481.904 195.859L481.919 195.875C482.516 196.528 482.514 196.887 482.493 197.01C482.466 197.166 482.302 197.556 481.486 198.065L481.469 198.076L481.453 198.087C480.102 198.98 478.479 199.366 476.871 199.176L476.845 199.173L476.818 199.171C470.434 198.645 464.008 199.242 457.83 200.935C453.834 201.837 449.925 203.065 446.09 204.322L446.09 204.322L446.078 204.326C443.181 205.303 440.48 206.786 438.099 208.704L438.088 208.713L438.077 208.723C431.886 213.909 425.43 218.768 418.735 223.281C415.955 225.078 413.101 226.561 410.17 228.084C408.429 228.989 406.66 229.908 404.864 230.916L404.86 230.918C398.697 234.396 392.837 238.345 387.017 242.266C385.679 243.168 384.342 244.068 383.005 244.961L383.003 244.963C378.935 247.689 374.146 249.134 369.252 249.114L369.226 249.114L369.2 249.115C367.092 249.178 365.005 248.671 363.161 247.645C361.316 246.62 359.782 245.114 358.72 243.287L358.701 243.255L358.681 243.223C356.723 240.213 355.676 236.7 355.665 233.108C355.666 228.389 359.692 224.548 365.353 224.238H365.356H365.363H365.369H365.375H365.382H365.388H365.394H365.4H365.407H365.413H365.419H365.425H365.432H365.438H365.444H365.451H365.457H365.463H365.469H365.476H365.482H365.488H365.494H365.501H365.507H365.513H365.52H365.526H365.532H365.538H365.545H365.551H365.557H365.563H365.57H365.576H365.582H365.589H365.595H365.601H365.607H365.614H365.62H365.626H365.632H365.639H365.645H365.651H365.658H365.664H365.67H365.676H365.683H365.689H365.695H365.701H365.708H365.714H365.72H365.727H365.733H365.739H365.745H365.752H365.758H365.764H365.77H365.777H365.783H365.789H365.796H365.802H365.808H365.814H365.821H365.827H365.833H365.839H365.846H365.852H365.858H365.865H365.871H365.877H365.883H365.89H365.896H365.902H365.908H365.915H365.921H365.927H365.934H365.94H365.946H365.952H365.959H365.965H365.971H365.977H365.984H365.99H365.996H366.003H366.009H366.015H366.021H366.028H366.034H366.04H366.046H366.053H366.059H366.065H366.072H366.078H366.084H366.09H366.097H366.103H366.109H366.115H366.122H366.128H366.134H366.141H366.147H366.153H366.159H366.166H366.172H366.178H366.184H366.191H366.197H366.203H366.21H366.216H366.222H366.228H366.235H366.241H366.247H366.253H366.26H366.266H366.272H366.279H366.285H366.291H366.297H366.304H366.31H366.316H366.322H366.329H366.335H366.341H366.348H366.354H366.36H366.366H366.373H366.379H366.385H366.391H366.398H366.404H366.41H366.417H366.423H366.429H366.435H366.442H366.448H366.454H366.46H366.467H366.473H366.479H366.486H366.492H366.498H366.504H366.511H366.517H366.523H366.529H366.536H366.542H366.548H366.555H366.561H366.567H366.573H366.58H366.586H366.592H366.598H366.605H366.611H366.617H366.624H366.63H366.636H366.642H366.649H366.655H366.661H366.667H366.674H366.68H366.686H366.693H366.699H366.705H366.711H366.718H366.724H366.73H366.736H366.743H366.749H366.755H366.762H366.768H366.774H366.78H366.787H366.793H366.799H366.805H366.812H366.818H366.824H366.831H366.837H366.843H366.849H366.856H366.862H366.868H366.874H366.881H366.887H366.893H366.9H366.906H366.912H366.918H366.925H366.931H366.937H366.943H366.95H366.956H366.962H366.969H366.975H366.981H366.987H366.994H367H367.006H367.012H367.019H367.025H367.031H367.038H367.044H367.05H367.056H367.063H367.069H367.075H367.081H367.088H367.094H367.1H367.107H367.113H367.119H367.125H367.132H367.138H367.144H367.15H367.157H367.163H367.169H367.176H367.182H367.188H367.194H367.201H367.207H367.213H367.219H367.226H367.232H367.238H367.245H367.251H367.257H367.263H367.27H367.276H367.282H367.288H367.295H367.301H367.307H367.314H367.32H367.326H367.332H367.339H367.345H367.351H367.357H367.364H367.37H367.376H367.383H367.389H367.395H367.401H367.408H367.414H367.42H367.426H367.433H367.439H367.445H367.452H367.458H367.464H367.47H367.477H367.483H367.489H367.495H367.502H367.508H367.514H367.521H367.527H367.533H367.539H367.546H367.552H367.558H367.564H367.571H367.577H367.583H367.59H367.596H367.602H367.608H367.615H367.621H367.627H367.633H367.64H367.646H367.652H367.659H367.665H367.671H367.677H367.684H367.69H367.696H367.702H367.709H367.715H367.721H367.728H367.734H367.74H367.746H367.753H367.759H367.765H367.771H367.778H367.784H367.79H367.797H367.803H367.809H367.815H367.822H367.828H367.834H367.84H367.847H367.853H367.859H367.866H367.872H367.878H367.884H367.891H367.897H367.903H367.909H367.916H367.922H367.928H367.935H367.941H367.947H367.953H367.96H367.966H367.972H367.978H367.985H367.991H367.997H368.004H368.01H368.016H368.022H368.029H368.035H368.041H368.047H368.054H368.06H368.066H368.073H368.079H368.085H368.091H368.098H368.104H368.11H368.116H368.123H368.129H368.135H368.142H368.148H368.154H368.16H368.167H368.173H368.179H368.185H368.192H368.198H368.204H368.211H368.217H368.223H368.229H368.236H368.242H368.248H368.254H368.261H368.267H368.273H368.28H368.286H368.292H368.298H368.305H368.311H368.317H368.323H368.33H368.336H368.342H368.349H368.355H368.361H368.367H368.374H368.38H368.386H368.392H368.399H368.405H368.411H368.418H368.424H368.43H368.436H368.443H368.449H368.455H368.461H368.468H368.474H368.48H368.487H368.493H368.499H368.505H368.512H368.518H368.524H369.374L369.421 224.159C370.247 224.198 371.084 224.245 371.929 224.292C374.289 224.423 376.709 224.557 379.1 224.541Z" stroke="white" stroke-width="3"/>
<path d="M88.9937 288.736L89.0994 288.751H89.2062C91.0319 288.751 92.8694 288.825 94.7401 288.904L94.9738 288.914C96.7449 288.989 98.5465 289.065 100.346 289.077C103.004 289.256 105.515 290.369 107.434 292.222L107.524 292.309L107.627 292.38C109.906 293.945 111.766 296.049 113.041 298.505C114.314 300.958 114.964 303.686 114.935 306.45C114.858 309.084 114.247 310.942 113.176 312.342C112.094 313.755 110.417 314.867 107.902 315.765L107.881 315.773L107.861 315.78C106.611 316.268 105.266 316.462 103.929 316.348C102.593 316.235 101.3 315.816 100.15 315.124L100.122 315.107L100.093 315.091C93.3902 311.447 86.922 307.385 80.7262 302.931L80.7081 302.918L80.6895 302.906C76.3217 299.959 71.2346 298.259 65.9747 297.99C58.4533 297.493 50.9915 296.322 43.6788 294.49C40.145 293.601 36.5203 293.124 32.877 293.07C27.432 292.881 22.0146 292.206 16.689 291.054C14.0371 290.447 12.6342 289.136 11.882 287.641C11.0929 286.072 10.9361 284.126 11.1513 282.197L11.1547 282.166L11.1569 282.135C11.189 281.674 11.3739 281.238 11.6816 280.896C11.9893 280.554 12.4022 280.324 12.8543 280.244L12.8982 280.237L12.9415 280.226C15.8737 279.526 18.9416 279.643 21.8117 280.567C27.9907 282.584 34.3306 284.069 40.7621 285.005C41.0183 285.045 41.2746 285.085 41.5312 285.125C46.3593 285.877 51.2592 286.64 56.1875 286.999C57.3288 287.086 58.4843 287.18 59.6491 287.274C61.5835 287.432 63.5434 287.591 65.506 287.722C73.2614 288.259 81.0105 288.493 88.7535 288.702L88.9937 288.736Z" stroke="white" stroke-width="3"/>
<path d="M181.738 189.856L181.689 189.837L181.64 189.821C175.044 187.704 171.888 182.774 169.911 176.203L169.905 176.184L169.899 176.165C168.315 171.37 167.254 166.418 166.733 161.395C165.965 151.838 164.264 142.38 161.656 133.155L161.656 133.155L161.654 133.149C161.176 131.483 160.581 129.852 160.006 128.278C159.916 128.031 159.826 127.786 159.738 127.542C159.079 125.729 158.47 123.977 158.051 122.184C157.945 121.608 157.947 121.017 158.056 120.441L158.081 120.306L158.082 120.235C158.283 120.228 158.481 120.215 158.65 120.204C158.708 120.201 158.762 120.197 158.812 120.194C159.107 120.176 159.317 120.171 159.492 120.187C159.657 120.202 159.743 120.232 159.79 120.256C159.827 120.274 159.887 120.311 159.967 120.424L159.968 120.425C161.29 122.284 162.581 124.131 163.823 126.02L163.824 126.021C165.455 128.495 167.065 131 168.679 133.513C172.574 139.575 176.498 145.681 180.815 151.495L180.816 151.497C182.489 153.743 184.404 155.741 186.29 157.651C186.58 157.944 186.868 158.235 187.155 158.524C188.754 160.135 190.306 161.698 191.734 163.377C192.932 164.852 194.236 166.257 195.52 167.626C195.672 167.787 195.823 167.947 195.973 168.107C197.107 169.313 198.217 170.492 199.265 171.71C201.399 174.474 202.779 177.746 203.271 181.205L203.28 181.269L203.295 181.331C203.593 182.624 203.649 183.961 203.459 185.274C203.153 187.308 202.34 188.86 201.091 190.002C199.828 191.157 198.012 191.989 195.548 192.377C194.421 192.541 193.28 192.584 192.144 192.506C188.575 192.081 185.076 191.19 181.738 189.856Z" stroke="white" stroke-width="3"/>
<path d="M292.171 183.275L292.153 184.775L291.984 183.284C290.376 183.466 288.343 182.681 286.425 181.215C284.53 179.765 283.056 177.883 282.482 176.353C282.188 175.548 282.058 174.692 282.098 173.836C282.138 172.978 282.349 172.137 282.719 171.362C283.088 170.586 283.608 169.893 284.249 169.322C284.889 168.752 285.637 168.315 286.448 168.038L286.475 168.028L286.502 168.018C294.283 165.017 300.95 159.685 305.592 152.749C308.165 148.949 309.803 144.593 310.372 140.038C310.555 138.779 310.908 137.551 311.422 136.388L311.433 136.362L311.444 136.335C313.863 130.23 315.46 123.831 316.195 117.304L316.204 117.221V117.136C316.204 117.104 316.21 117.041 316.247 116.865C316.252 116.843 316.257 116.818 316.263 116.789C316.268 116.77 316.272 116.749 316.277 116.727C317.379 117.25 318.28 118.129 318.83 119.228C319.438 120.442 319.575 121.839 319.215 123.149L319.207 123.18L319.199 123.212C318.909 124.485 318.603 125.766 318.294 127.057C317.312 131.168 316.307 135.371 315.731 139.661C315.431 141.884 314.874 144.005 314.287 146.211L314.243 146.378C313.676 148.507 313.085 150.724 312.754 153.051L312.752 153.059L312.751 153.067C312.607 154.161 312.599 155.252 312.592 156.24C312.591 156.309 312.591 156.378 312.59 156.447C312.581 157.519 312.563 158.482 312.41 159.423C312.119 161.086 311.567 162.692 310.776 164.183C309.927 165.744 309.225 167.365 308.554 168.914L308.496 169.049C307.797 170.663 307.126 172.198 306.318 173.65L306.292 173.698L306.268 173.748C304.614 177.313 301.831 180.229 298.351 182.044C296.4 182.882 294.295 183.301 292.171 183.275Z" stroke="white" stroke-width="3"/>
<path d="M309.1 355.597C309.185 355.687 309.269 355.777 309.354 355.868C309.181 355.95 309.009 356.034 308.841 356.121L308.778 356.153L308.718 356.192C306.966 357.317 304.856 357.739 302.808 357.376L302.739 357.363L302.668 357.357C299.233 357.077 295.852 356.323 292.622 355.117L292.558 355.093L292.492 355.075C292.025 354.947 291.593 354.714 291.231 354.392C290.868 354.07 290.584 353.669 290.401 353.22C290.217 352.77 290.14 352.284 290.174 351.8C290.209 351.315 290.354 350.845 290.599 350.426L290.644 350.349L290.68 350.268C291.998 347.236 293.899 344.494 296.275 342.199C296.6 341.921 296.996 341.749 297.589 341.559C297.677 341.53 297.774 341.5 297.879 341.468C298.041 341.419 298.22 341.363 298.41 341.3C301.009 345.597 303.948 349.679 307.198 353.507L307.198 353.507L307.203 353.513C307.797 354.206 308.4 354.851 308.987 355.477C309.024 355.517 309.062 355.557 309.1 355.597Z" stroke="white" stroke-width="3"/>
<path d="M255.816 185.424H255.489C255.606 185.306 255.699 185.282 255.816 185.424Z" fill="#61290C"/>
</g>
</svg>
