<svg width="432" height="240" viewBox="0 0 432 240" fill="none" xmlns="http://www.w3.org/2000/svg">
<g opacity="0.5">
<path d="M165.024 212.12L165.034 212.12C166.607 212.086 168.158 212.502 169.504 213.319C170.849 214.136 171.935 215.321 172.632 216.734L172.639 216.748L172.647 216.761C174.432 219.887 175.885 223.192 176.983 226.621L176.987 226.633L176.991 226.646C177.425 227.788 177.622 229.008 177.57 230.229C177.519 231.445 177.222 232.638 176.697 233.736C175.84 235.267 174.593 236.542 173.083 237.433C171.569 238.326 169.845 238.799 168.088 238.804L168.067 238.804L168.046 238.806C161.741 239.356 155.403 239.427 149.087 239.017L149.078 239.017L149.068 239.016C140.648 238.786 132.362 236.843 124.715 233.303C122.88 232.403 121.146 231.308 119.544 230.038L119.54 230.034C117.335 228.324 115.667 226.015 114.736 223.381C111.366 213.525 109.062 203.335 107.865 192.987L107.865 192.984C106.83 184.401 106.689 175.733 107.444 167.12C109.781 141.476 119.84 119.465 139.151 102.274L139.151 102.274L139.156 102.269C156.396 86.4689 177.04 74.86 199.485 68.3431C205.254 66.7585 211.147 65.6657 217.1 65.0764L217.102 65.0762C218.277 64.9559 219.454 64.896 220.646 64.8354C221.33 64.8006 222.019 64.7656 222.715 64.7188H222.994H223.01H223.027H223.043H223.06H223.076H223.092H223.109H223.125H223.141H223.158H223.174H223.19H223.207H223.223H223.239H223.256H223.272H223.289H223.305H223.321H223.338H223.354H223.37H223.387H223.403H223.419H223.436H223.452H223.468H223.485H223.501H223.518H223.534H223.55H223.567H223.583H223.599H223.616H223.632H223.648H223.665H223.681H223.698H223.714H223.73H223.747H223.763H223.779H223.796H223.812H223.828H223.845H223.861H223.878H223.894H223.91H223.927H223.943H223.959H223.976H223.992H224.008H224.025H224.041H224.058H224.074H224.09H224.107H224.123H224.139H224.156H224.172H224.188H224.205H224.221H224.238H224.254H224.27H224.287H224.303H224.319H224.336H224.352H224.369H224.385H224.401H224.418H224.434H224.45H224.467H224.483H224.5H224.516H224.532H224.549H224.565H224.581H224.598H224.614H224.631H224.647H224.663H224.68H224.696H224.712H224.729H224.745H224.762H224.778H224.794H224.811H224.827H224.843H224.86H224.876H224.893H224.909H224.925H224.942H224.958H224.975H224.991H225.007H225.024H225.04H225.056H225.073H225.089H225.106H225.122H225.138H225.155H225.171H225.188H225.204H225.22H225.237H225.253H225.27H225.286H225.302H225.319H225.335H225.352H225.368H225.384H225.401H225.417H225.434H225.45H225.466H225.483H225.499H225.516H225.532H225.548H225.565H225.581H225.598H225.614H225.63H225.647H225.663H225.68H225.696H225.712H225.729H225.745H225.762H225.778H225.794H225.811H225.827H225.844H225.86H225.877H225.893H225.909H225.926H225.942H225.959H225.975H225.991H226.008H226.024H226.041H226.057H226.074H226.09H226.106H226.123H226.139H226.156H226.172H226.189H226.205H226.221H226.238H226.254H226.271H226.287H226.304H226.32H226.336H226.353H226.369H226.386H226.402H226.419H226.435H226.452H226.468H226.484H226.501H226.517H226.534H226.55H226.567H226.583H226.6H226.616H226.632H226.649H226.665H226.682H226.698H226.715H226.731H226.748H226.764H226.781H226.797H226.813H226.83H226.846H226.863H226.879H226.896H226.912H226.929H226.945H226.962H226.978H226.995H227.011H227.028H227.044H227.06H227.077H227.093H227.11H227.126H227.143H227.159H227.176H227.192H227.209H227.225H227.242H227.258H227.275H227.291H227.308H227.324H227.341H227.357H227.374H227.39H227.407H227.423H227.44H227.456H227.473H227.489H227.506H227.522H227.539H227.555H227.572H227.588H227.605H227.621H227.638H227.654H227.671H227.687H227.704H227.72H227.737H227.753H227.77H227.786H227.803H227.819H227.836H227.852H227.869H227.885H227.902H227.918H227.935H227.952H227.968H227.985H228.001H228.018H228.034H228.051H228.067H228.084H228.1H228.117H228.133H228.15H228.167H228.183H228.2H228.216H228.233H228.249H228.266H228.282H228.299H228.315H228.332H228.349H228.365H228.382H228.398H228.415H228.431H228.448H228.465H228.481H228.498H228.514H228.531H228.547H228.564H228.581H228.597H228.614H228.63H228.647H228.663H228.68H228.697H228.713H228.73H228.746H228.763H228.78H228.796H228.813H228.829H228.846H228.863H228.879H228.896H228.912H228.929H228.946H228.962H228.979H228.995H229.012H229.029H229.045H229.062H229.078H229.095H229.112H229.128H229.145H229.162H229.178H229.195H229.211H229.228H229.245H229.261H229.278H229.295H229.311H229.328H229.345H229.361H229.378H229.394H229.411H229.428H229.444H229.461H229.478H229.494H229.511H229.528H229.544H229.561H229.578H229.594H229.611H229.628H229.644H229.661H229.678H229.694H229.711H229.728H229.744H229.761H229.778H229.794H229.811H229.828H229.844H229.861H229.878H229.894H229.911H229.928H229.945H229.961H229.978H229.995H230.011H230.028H230.045H230.061H230.078H230.095H230.112H230.128H230.145H230.162H230.178H230.195H230.212H230.229H230.245H230.262H230.279H230.295H230.312H230.329H230.346H230.362H230.379H230.396H230.413H230.429H230.446H230.463H230.48H230.496H230.513H230.53H230.547H230.563H230.58H230.597H230.614H230.63H230.647H230.664H230.681H230.697H230.714H230.731H230.748H230.765H230.781H230.798H230.815H230.832H230.848H230.865H230.882H230.899H230.916H230.932H230.949H230.966H230.983H231H231.016H231.033H231.05H231.067H231.084H231.1H231.117H231.134H231.151H231.168H231.185H231.201H231.218H231.235H231.252H231.269H231.286H231.302H231.319H231.336H231.353H231.37H231.387H231.403H231.42H231.437H231.438C244.876 65.5824 258.001 69.1669 270.016 75.2555L270.023 75.2589C278.841 79.5596 284.426 86.6424 289.358 94.7052C293.111 100.849 296.402 107.23 299.572 113.727L299.572 113.728C300.243 115.097 301.007 116.419 301.762 117.726C301.934 118.024 302.106 118.321 302.276 118.618C303.197 120.224 304.076 121.83 304.76 123.543L304.762 123.548C309.022 133.873 311.857 144.731 313.187 155.823C313.66 159.877 313.765 163.965 313.502 168.037C312.966 175.342 311.59 182.56 309.4 189.548L309.399 189.551C307.243 196.615 302.183 200.858 296.651 205.095C295.822 203.835 295.062 202.529 294.376 201.184L294.367 201.167L294.358 201.152C291.107 195.789 287.504 190.65 283.573 185.766C283.597 185.745 283.619 185.723 283.64 185.7C283.748 185.586 283.823 185.459 283.877 185.359C283.905 185.308 283.93 185.258 283.951 185.215L283.954 185.209C283.974 185.17 283.99 185.138 284.005 185.109C284.12 184.906 284.237 184.703 284.355 184.499C284.852 183.636 285.359 182.756 285.779 181.809L285.782 181.802L285.785 181.795C288.021 176.327 289.539 170.592 290.301 164.733C290.85 161.324 291.295 157.915 291.633 154.484C292.106 152.179 292.148 149.806 291.758 147.485L291.755 147.463L291.749 147.442C288.906 136.515 284.842 125.944 279.634 115.929C274.655 105.928 265.959 98.281 255.413 94.6295C254.158 94.1853 252.858 93.845 251.581 93.5108C251.402 93.464 251.224 93.4174 251.047 93.3707C249.591 92.9869 248.172 92.5918 246.831 92.0343L246.822 92.0301L246.811 92.0264C241.412 90.0486 235.721 88.986 229.973 88.8825C227.689 88.7336 225.41 88.7713 223.156 88.8268C222.903 88.833 222.65 88.8395 222.397 88.846C220.392 88.8972 218.408 88.9478 216.433 88.8825L216.428 88.8824C206.717 88.6597 197.087 90.6972 188.296 94.8346C175.06 100.334 163.529 109.272 154.895 120.726L154.895 120.726L154.891 120.731C143.504 136.229 138.726 154.015 137.283 172.841L137.282 172.86V172.879V173.261V174.807V176.692V176.694V176.696V176.697V176.699V176.701V176.702V176.704V176.706V176.708V176.709V176.711V176.713V176.715V176.716V176.718V176.72V176.722V176.723V176.725V176.727V176.729V176.73V176.732V176.734V176.736V176.737V176.739V176.741V176.743V176.744V176.746V176.748V176.75V176.751V176.753V176.755V176.757V176.758V176.76V176.762V176.764V176.765V176.767V176.769V176.771V176.772V176.774V176.776V176.778V176.779V176.781V176.783V176.785V176.787V176.788V176.79V176.792V176.794V176.795V176.797V176.799V176.801V176.802V176.804V176.806V176.808V176.809V176.811V176.813V176.815V176.817V176.818V176.82V176.822V176.824V176.825V176.827V176.829V176.831V176.833V176.834V176.836V176.838V176.84V176.841V176.843V176.845V176.847V176.848V176.85V176.852V176.854V176.856V176.857V176.859V176.861V176.863V176.864V176.866V176.868V176.87V176.872V176.873V176.875V176.877V176.879V176.881V176.882V176.884V176.886V176.888V176.889V176.891V176.893V176.895V176.897V176.898V176.9V176.902V176.904V176.906V176.907V176.909V176.911V176.913V176.914V176.916V176.918V176.92V176.922V176.923V176.925V176.927V176.929V176.931V176.932V176.934V176.936V176.938V176.94V176.941V176.943V176.945V176.947V176.949V176.95V176.952V176.954V176.956V176.958V176.959V176.961V176.963V176.965V176.967V176.968V176.97V176.972V176.974V176.976V176.977V176.979V176.981V176.983V176.985V176.986V176.988V176.99V176.992V176.994V176.995V176.997V176.999V177.001V177.003V177.004V177.006V177.008V177.01V177.012V177.014V177.015V177.017V177.019V177.021V177.023V177.024V177.026V177.028V177.03V177.032V177.033V177.035V177.037V177.039V177.041V177.043V177.044V177.046V177.048V177.05V177.052V177.053V177.055V177.057V177.059V177.061V177.062V177.064V177.066V177.068V177.07V177.072V177.073V177.075V177.077V177.079V177.081V177.083V177.084V177.086V177.088V177.09V177.092V177.093V177.095V177.097V177.099V177.101V177.103V177.104V177.106V177.108V177.11V177.112V177.114V177.115V177.117V177.119V177.121V177.123V177.124V177.126V177.128V177.13V177.132V177.134V177.135V177.137V177.139V177.141V177.143V177.145V177.146V177.148V177.15V177.152V177.154V177.156V177.157V177.159V177.161V177.163V177.165V177.167V177.168V177.17V177.172V177.174V177.176V177.178V177.179V177.181V177.183V177.185V177.187V177.189V177.19V177.192V177.194V177.196V177.198V177.2V177.201V177.203V177.205V177.207V177.209V177.211V177.212V177.214V177.216V177.218V177.22V177.222V177.223V177.225V177.227V177.229V177.231V177.233V177.235V177.236V177.238V177.24V177.242V177.244V177.246V177.247V177.249V177.251V177.253V177.255V177.257V177.258V177.26V177.262V177.264V177.266V177.268V177.27V177.271V177.273V177.275V177.277V177.279V177.281V177.282V177.284V177.286V177.288V177.29V177.292V177.294V177.295V177.297V177.299V177.301V177.303V177.305V177.306V177.308V177.31V177.312V177.314V177.316V177.318V177.319V177.321V177.323V177.325V177.327V177.329V177.33V177.332V177.334V177.336V177.338V177.34V177.342V177.343V177.345V177.347V177.349V177.351V177.353V177.355V177.356V177.358V177.36V177.362V177.364V177.366V177.368V177.369V177.371V177.373V177.375V177.377V177.379V177.38V177.382V177.384V177.386V177.388V177.39V177.392V177.393V177.395V177.397V177.399V177.401V177.403V177.405V177.406V177.408V177.41V177.412V177.414V177.416V177.418V177.419V177.421V177.423V177.425V177.427V177.429V177.431V177.432V177.434V177.436V177.438V177.44V177.442V177.444V177.445V177.447V177.449V177.451V177.453V177.455V177.457V177.458V177.46V177.462V177.464V177.466V177.468V177.47V177.471V177.473V177.475V177.477V177.479V177.481V177.483V177.484V177.486V177.488V177.49V177.492V177.494V177.496V177.497V177.499V177.501V177.503V177.505V177.507V177.509V177.51V177.512V177.514V177.516V177.518V177.52V177.522V177.523V177.525V177.527V177.529V177.531V177.533V177.535V177.537V177.538V177.54V177.542V177.544V177.546V177.548V177.55V177.551V177.553V177.555V177.557V177.559V177.561V177.563V177.564V177.566V177.568V177.57V177.572V177.573C136.035 183.654 135.944 189.917 137.015 196.032L137.015 196.034C137.599 199.301 139.111 202.331 141.371 204.759L141.378 204.767L141.385 204.774C144.779 208.132 149.272 210.147 154.034 210.444C155.737 210.711 157.458 210.839 159.181 210.829C161.009 211.685 163.005 212.126 165.024 212.12Z" stroke="#EE6422"/>
<path d="M155.083 209.334L155.064 209.332L155.045 209.33C150.52 209.053 146.248 207.142 143.022 203.953C140.897 201.667 139.475 198.816 138.925 195.741C137.874 189.734 137.966 183.581 139.197 177.607L139.208 177.558V177.507V177.505V177.503V177.501V177.499V177.497V177.495V177.494V177.492V177.49V177.488V177.486V177.484V177.482V177.48V177.479V177.477V177.475V177.473V177.471V177.469V177.467V177.466V177.464V177.462V177.46V177.458V177.456V177.454V177.453V177.451V177.449V177.447V177.445V177.443V177.441V177.44V177.438V177.436V177.434V177.432V177.43V177.428V177.427V177.425V177.423V177.421V177.419V177.417V177.415V177.413V177.412V177.41V177.408V177.406V177.404V177.402V177.4V177.399V177.397V177.395V177.393V177.391V177.389V177.387V177.386V177.384V177.382V177.38V177.378V177.376V177.374V177.373V177.371V177.369V177.367V177.365V177.363V177.361V177.36V177.358V177.356V177.354V177.352V177.35V177.348V177.347V177.345V177.343V177.341V177.339V177.337V177.335V177.334V177.332V177.33V177.328V177.326V177.324V177.322V177.321V177.319V177.317V177.315V177.313V177.311V177.309V177.308V177.306V177.304V177.302V177.3V177.298V177.296V177.295V177.293V177.291V177.289V177.287V177.285V177.283V177.282V177.28V177.278V177.276V177.274V177.272V177.27V177.269V177.267V177.265V177.263V177.261V177.259V177.257V177.256V177.254V177.252V177.25V177.248V177.246V177.245V177.243V177.241V177.239V177.237V177.235V177.233V177.232V177.23V177.228V177.226V177.224V177.222V177.22V177.219V177.217V177.215V177.213V177.211V177.209V177.207V177.206V177.204V177.202V177.2V177.198V177.196V177.195V177.193V177.191V177.189V177.187V177.185V177.183V177.182V177.18V177.178V177.176V177.174V177.172V177.171V177.169V177.167V177.165V177.163V177.161V177.159V177.158V177.156V177.154V177.152V177.15V177.148V177.147V177.145V177.143V177.141V177.139V177.137V177.135V177.134V177.132V177.13V177.128V177.126V177.124V177.123V177.121V177.119V177.117V177.115V177.113V177.112V177.11V177.108V177.106V177.104V177.102V177.101V177.099V177.097V177.095V177.093V177.091V177.089V177.088V177.086V177.084V177.082V177.08V177.078V177.077V177.075V177.073V177.071V177.069V177.067V177.066V177.064V177.062V177.06V177.058V177.056V177.055V177.053V177.051V177.049V177.047V177.045V177.044V177.042V177.04V177.038V177.036V177.034V177.033V177.031V177.029V177.027V177.025V177.023V177.022V177.02V177.018V177.016V177.014V177.012V177.011V177.009V177.007V177.005V177.003V177.002V177V176.998V176.996V176.994V176.992V176.991V176.989V176.987V176.985V176.983V176.981V176.98V176.978V176.976V176.974V176.972V176.971V176.969V176.967V176.965V176.963V176.961V176.96V176.958V176.956V176.954V176.952V176.951V176.949V176.947V176.945V176.943V176.941V176.94V176.938V176.936V176.934V176.932V176.931V176.929V176.927V176.925V176.923V176.921V176.92V176.918V176.916V176.914V176.912V176.911V176.909V176.907V176.905V176.903V176.902V176.9V176.898V176.896V176.894V176.892V176.891V176.889V176.887V176.885V176.883V176.882V176.88V176.878V176.876V176.874V176.873V176.871V176.869V176.867V176.865V176.864V176.862V176.86V176.858V176.856V176.855V176.853V176.851V176.849V176.847V176.846V176.844V176.842V176.84V176.838V176.837V176.835V176.833V176.831V176.829V176.828V176.826V176.824V176.822V176.82V176.819V176.817V176.815V176.813V176.811V176.81V176.808V176.806V176.804V176.802V176.801V176.799V176.797V176.795V176.793V176.792V176.79V176.788V176.786V176.785V176.783V176.781V176.779V176.777V176.776V176.774V176.772V176.77V176.768V176.767V176.765V176.763V176.761V176.759V176.758V176.756V176.754V176.752V176.751V176.749V176.747V176.745V176.743V176.742V176.74V176.738V176.736V176.735V176.733V176.731V176.729V176.729C139.421 176.381 139.477 176.015 139.509 175.72C139.517 175.643 139.524 175.572 139.53 175.505C139.554 175.252 139.572 175.069 139.641 174.888L139.653 174.856L139.66 174.822C140.746 170.075 142.315 165.452 144.343 161.025C147.405 154.425 151.269 148.229 155.846 142.576C159.637 137.928 163.863 133.654 168.466 129.811C174.26 125.106 180.891 121.543 188.009 119.311L188.018 119.308L188.026 119.305C196.558 116.286 205.366 114.116 214.322 112.827C217.078 112.469 219.815 112.237 222.579 112.046L222.588 112.046L222.597 112.045C225.013 111.795 227.449 111.795 229.866 112.044C232.021 112.348 234.154 112.794 236.299 113.265C236.665 113.345 237.032 113.426 237.4 113.507C239.181 113.901 240.974 114.297 242.781 114.624L242.794 114.626L242.806 114.628C243.226 114.681 243.621 114.855 243.946 115.127C244.27 115.4 244.509 115.76 244.634 116.165L244.641 116.185L244.648 116.205C245.971 119.471 246.109 123.098 245.037 126.456L245.037 126.456L245.034 126.466C244.985 126.632 244.94 126.793 244.896 126.95C244.572 128.099 244.319 128.996 243.304 129.559L243.296 129.564L243.288 129.569C240.74 131.107 237.84 131.965 234.866 132.06C229.769 132.098 224.68 132.467 219.631 133.164C213.53 133.765 207.473 134.752 201.496 136.118C195.428 137.49 189.625 139.851 184.32 143.105L184.312 143.11L184.304 143.115C180.822 145.435 177.499 147.987 174.36 150.754C170.73 153.713 167.569 157.205 164.982 161.111L164.982 161.111L164.974 161.123C162.841 164.542 161.248 168.335 162.437 172.643C162.797 174.514 163.541 176.289 164.622 177.858C165.706 179.432 167.106 180.763 168.732 181.766L168.755 181.78L168.78 181.792C171.181 182.931 173.844 183.401 176.489 183.153C179.067 183.091 181.629 182.745 184.131 182.122L184.131 182.122L184.141 182.12C194.725 179.257 204.871 174.963 214.299 169.358L214.302 169.356C219.634 166.132 225.271 163.444 231.13 161.329C237.834 158.971 245.014 158.303 252.036 159.382L252.046 159.384L252.056 159.385C255.394 159.763 258.578 160.997 261.3 162.968C274.299 173.947 285.484 186.915 294.441 201.391C295.212 202.901 296.074 204.362 297.022 205.768C297.346 206.832 297.781 207.85 298.209 208.844L298.247 208.933C298.675 209.926 299.093 210.896 299.412 211.906C300.609 215.73 300.33 218.804 298.926 221.154C297.518 223.512 294.922 225.233 291.297 226.229L291.253 226.241L291.212 226.261C289.666 227.007 287.904 227.172 286.247 226.726C283.553 225.53 281.061 223.921 278.863 221.955C278.863 221.955 278.862 221.954 278.862 221.954L275.657 219.038C275.154 218.419 274.623 217.845 274.09 217.283C273.968 217.154 273.847 217.027 273.725 216.899C273.305 216.458 272.888 216.02 272.476 215.559C269.337 211.86 266.524 207.896 264.07 203.709L264.067 203.703C263.138 202.169 262.392 200.555 261.634 198.918C261.544 198.722 261.453 198.526 261.362 198.329C260.515 196.506 259.629 194.67 258.454 192.972C256.079 189.074 253.133 185.555 249.715 182.533L249.703 182.522L249.69 182.512C247.289 180.653 244.464 179.421 241.469 178.927C238.476 178.433 235.408 178.692 232.539 179.68C226.783 181.525 221.318 184.182 216.31 187.571C214.054 188.962 211.838 190.396 209.627 191.828C204.253 195.308 198.91 198.767 193.108 201.516C187.258 204.101 181.171 206.112 174.933 207.52L174.928 207.521C170.18 208.647 165.341 209.344 160.47 209.605C158.67 209.671 156.867 209.581 155.083 209.334Z" stroke="#FAE203"/>
<path d="M18.0671 27.9114L18.0596 27.9032C17.2527 27.0207 16.2766 26.3102 15.1895 25.814C14.1043 25.3188 12.9308 25.0473 11.7388 25.0156H11.7386H11.7353H11.7319H11.7286H11.7252H11.7219H11.7186H11.7152H11.7119H11.7085H11.7052H11.7018H11.6985H11.6951H11.6918H11.6884H11.6851H11.6818H11.6784H11.6751H11.6717H11.6684H11.665H11.6617H11.6583H11.655H11.6516H11.6483H11.6449H11.6416H11.6383H11.6349H11.6316H11.6282H11.6249H11.6215H11.6182H11.6148H11.6115H11.6081H11.6048H11.6014H11.5981H11.5948H11.5914H11.5881H11.5847H11.5814H11.578H11.5747H11.5713H11.568H11.5646H11.5613H11.558H11.5546H11.5513H11.5479H11.5446H11.5412H11.5379H11.5345H11.5312H11.5278H11.5245H11.5211H11.5178H11.5145H11.5111H11.5078H11.5044H11.5011H11.4977H11.4944H11.491H11.4877H11.4843H11.481H11.4776H11.4743H11.471H11.4676H11.4643H11.4609H11.4576H11.4542H11.4509H11.4475H11.4442H11.4408H11.4375H11.4342H11.4308H11.4275H11.4241H11.4208H11.4174H11.4141H11.4107H11.4074H11.404H11.4007H11.3973H11.394H11.3907H11.3873H11.384H11.3806H11.3773H11.3739H11.3706H11.3672H11.3639H11.3605H11.3572H11.3538H11.3505H11.3472H11.3438H11.3405H11.3371H11.3338H11.3304H11.3271H11.3237H11.3204H11.317H11.3137H11.3104H11.307H11.3037H11.3003H11.297H11.2936H11.2903H11.2869H11.2836H11.2802H11.2769H11.2735H11.2702H11.2669H11.2635H11.2602H11.2568H11.2535H11.2501H11.2468H11.2434H11.2401H11.2367H11.2334H11.23H11.2267H11.2234H11.22H11.2167H11.2133H11.21H11.2066H11.2033H11.1999H11.1966H11.1932H11.1899H11.1866H11.1832H11.1799H11.1765H11.1732H11.1698H11.1665H11.1631H11.1598H11.1564H11.1531H11.1497H11.1464H11.1431H11.1397H11.1364H11.133H11.1297H11.1263H11.123H11.1196H11.1163H11.1129H11.1096H11.1062H11.1029H11.0996H11.0962H11.0929H11.0895H11.0862H11.0828H11.0795H11.0761H11.0728H11.0694H11.0661H11.0628H11.0594H11.0561H11.0527H11.0494H11.046H11.0427H11.0393H11.036H11.0326H11.0293H11.0259H11.0226H11.0193H11.0159H11.0126H11.0092H11.0059H11.0025H10.9992H10.9958H10.9925H10.9891H10.9858H10.9824H10.9791H10.9758H10.9724H10.9691H10.9657H10.9624H10.959H10.9557H10.9523H10.949H10.9456H10.9423H10.939H10.9356H10.9323H10.9289H10.9256H10.9222H10.9189H10.9155H10.9122H10.9088H10.9055H10.9021H10.8988H10.8955H10.8921H10.8888H10.8854H10.8821H10.8787H10.8754H10.872H10.8687H10.8653H10.862H10.8586H10.8553H10.852H10.8486H10.8453H10.8419H10.8386H10.8352H10.8319H10.8285H10.8252H10.8218H10.8185H10.8152H10.8118H10.8085H10.8051H10.8018H10.7984H10.7951H10.7917H10.7884H10.785H10.7817H10.7783H10.775H10.7717H10.7683H10.765H10.7616H10.7583H10.7549H10.7516H10.7482H10.7449H10.7415H10.7382H10.7348H10.7315H10.7282H10.7248H10.7215H10.7181H10.7148H10.7114H10.7081H10.7047H10.7014H10.698H10.6947H10.6913H10.688H10.6847H10.6813H10.678H10.6746H10.6713H10.6679H10.6646H10.6612H10.6579H10.6545H10.6512H10.6479H10.6445H10.6412H10.6378H10.6345H10.6311H10.6278H10.6244H10.6211H10.6177H10.6144H10.611H10.6077H10.6044H10.601H10.5977H10.5943H10.591H10.5876H10.5843H10.5809H10.5776H10.5742H10.5709H10.5675H10.5642H10.5609H10.5575H10.5542H10.5508H10.5475H10.5441H10.5408H10.5374H10.5341H10.5307H10.5274H10.5241H10.5207H10.5174H10.514H10.5107H10.5073H10.504H10.5006H10.4973H10.4939H10.4906H10.4872H10.4839H10.4806H10.4772H10.4739H10.4705H10.4672H10.4638H10.4605H10.4571H10.4538H10.4504H10.4471H10.4437H10.4404H10.4371H10.4337H10.4304H10.427H10.4237H10.4203H10.417H10.4136H10.4103H10.4069H10.4036H10.4003H10.3969H10.3936H10.3902H10.3869H10.3835H10.3802H10.3768H10.3735H10.3701H10.3668H10.3634H10.3601H10.3568H10.3534H10.3501H10.3467H10.3434H10.34H10.3367H10.3333H10.33H10.3266H10.3233H10.3199H10.3166H10.3133H10.3099H10.3066H10.3032H10.2999H10.2965H10.2932H10.2898H10.2865H10.2831H10.2798H10.2765H10.2731H10.2698H10.2664H10.2631H10.2597H10.2564H10.253H10.2497H10.2463H10.243H10.2396H10.2363H10.233H10.2296H10.2263H10.2229H10.2196H10.2162H10.2129H10.2095H10.2062H10.2028H10.1995H10.1961H10.1928H10.1895H10.1861H10.1828H10.1794H10.1761H10.1727H10.1694H10.166H10.1627H10.1593H10.156H10.1527H10.1493H10.146H10.1426H10.1393H10.1359H10.1326H10.1292H10.1259H10.1225H10.1192H10.1158H10.1125H10.1092H10.1058H10.1025H10.0991H10.0958H10.0924H10.0891H10.0857H10.0824H10.079H10.0757H10.0723H10.069H10.0657H10.0623H10.059H10.0556H10.0523H10.0489H10.0456H10.0422H10.0389H10.0355H10.0322H9.54576H6.98665H6.67758C5.44005 25.0566 4.2195 25.3166 3.07234 25.7835C2.3637 26.0728 1.74911 26.5536 1.29717 27.1724C0.845182 27.7912 0.573671 28.5237 0.512998 29.2882C0.452324 30.0526 0.604883 30.8189 0.953611 31.5015C1.29974 32.1791 1.82559 32.7477 2.47316 33.1451C5.81203 34.8666 9.12982 36.6162 12.4265 38.394C24.8017 45.0464 37.1044 51.8959 48.9028 59.5964M18.0671 27.9114L48.6304 60.0157M18.0671 27.9114L18.075 27.9193C23.3899 33.2358 29.2146 38.0155 35.4646 42.189M18.0671 27.9114L35.7502 41.7785M48.9028 59.5964C48.9031 59.5966 48.9034 59.5968 48.9037 59.597L48.6304 60.0157M48.9028 59.5964C48.9024 59.5961 48.9019 59.5959 48.9015 59.5956L48.6304 60.0157M48.9028 59.5964C51.3082 61.149 53.5003 62.9125 55.6453 64.6846C55.9537 64.9394 56.261 65.1942 56.5677 65.4486C58.4006 66.9687 60.2156 68.4739 62.1388 69.8601M48.6304 60.0157C51.3504 61.7712 53.8009 63.8035 56.2465 65.8318C58.0796 67.3521 59.9099 68.87 61.8489 70.2675M62.1388 69.8601C62.138 69.8595 62.1372 69.859 62.1364 69.8584L61.8489 70.2675M62.1388 69.8601C73.6553 77.9539 83.4123 88.3037 90.8194 100.283M62.1388 69.8601C62.1396 69.8607 62.1404 69.8613 62.1413 69.8619L61.8489 70.2675M61.8489 70.2675L90.8194 100.283M90.8194 100.283C90.817 100.279 90.8146 100.276 90.8121 100.272L90.401 100.557L90.8263 100.294C90.824 100.29 90.8217 100.287 90.8194 100.283ZM90.8194 100.283C91.5474 101.334 92.3377 102.34 93.1861 103.296L93.1981 103.31L93.209 103.324C94.1413 104.542 95.0888 105.752 96.0379 106.965C98.9682 110.709 101.913 114.471 104.465 118.506L104.468 118.511C105.8 120.675 107.932 122.224 110.399 122.82L110.41 122.822L110.421 122.825C111.474 123.13 112.577 123.224 113.666 123.1C114.755 122.977 115.809 122.639 116.768 122.106C117.726 121.573 118.57 120.856 119.251 119.995C119.932 119.134 120.436 118.147 120.735 117.091L120.736 117.085C120.939 116.4 121.147 115.722 121.355 115.046C121.719 113.861 122.081 112.682 122.404 111.486M90.8194 100.283L122.887 111.614M122.404 111.486C122.403 111.486 122.403 111.486 122.403 111.487L122.887 111.614M122.404 111.486C122.404 111.485 122.404 111.484 122.404 111.484L122.887 111.614M122.404 111.486C124.005 105.382 123.593 99.8323 119.381 94.9989M122.887 111.614C124.515 105.407 124.114 99.6673 119.757 94.6685M119.381 94.9989C119.382 94.9997 119.383 95.0005 119.384 95.0012L119.757 94.6685M119.381 94.9989C118.999 94.5699 118.651 94.0975 118.317 93.6453C118.176 93.454 118.038 93.2664 117.9 93.0873L117.897 93.0826C115.812 90.2908 113.089 88.0401 109.957 86.5186L109.954 86.5167C105.088 84.1012 100.243 81.6646 95.3768 79.1856M119.381 94.9989C119.381 94.9983 119.38 94.9976 119.38 94.997L119.757 94.6685M119.757 94.6685L95.3768 79.1856M95.3768 79.1856C95.3771 79.1857 95.3773 79.1858 95.3775 79.1859L95.6038 78.7401L95.3768 79.1856ZM95.3768 79.1856C93.5203 78.2434 91.6377 77.3292 89.7508 76.4128C85.2686 74.236 80.7617 72.0472 76.5191 69.444M95.3768 79.1856L76.7806 69.0178M76.5191 69.444C76.5192 69.444 76.5193 69.4441 76.5194 69.4441L76.7806 69.0178M76.5191 69.444L76.7806 69.0178M76.5191 69.444C62.5119 60.8617 48.7775 51.8332 35.4646 42.189M76.7806 69.0178C62.7795 60.4393 49.0534 51.416 35.7502 41.7785M35.4646 42.189C35.4673 42.1908 35.4699 42.1926 35.4726 42.1943L35.7502 41.7785M35.4646 42.189C35.4621 42.1871 35.4595 42.1853 35.4569 42.1834L35.7502 41.7785" stroke="#EE6422"/>
<path d="M336.334 98.6864V98.6865L336.345 98.6862C344.414 98.4546 352.311 96.307 359.389 92.4204C364.893 89.508 370.052 85.9846 374.769 81.9167C382.393 75.3522 391.76 71.1534 401.727 69.8331C405.362 69.3675 408.964 68.9458 412.626 68.7351L412.639 68.7343L412.652 68.7328C416.714 68.2817 420.822 68.4708 424.826 69.2932C426.993 69.9384 428.929 71.1915 430.407 72.9047L430.412 72.9102L430.417 72.9157C431.058 73.616 431.235 74.2019 431.152 74.6769C431.068 75.1632 430.685 75.6956 429.844 76.2208L429.844 76.2207L429.833 76.2279C428.435 77.153 426.755 77.5524 425.092 77.3557L425.083 77.3547L425.074 77.3539C419.366 76.8836 413.621 77.4185 408.098 78.9345C404.502 79.7447 400.976 80.8514 397.488 81.9947L397.484 81.996C394.948 82.8517 392.584 84.1496 390.499 85.8296L390.499 85.8295L390.492 85.8356C384.841 90.5697 378.947 95.0054 372.835 99.1248C370.279 100.777 367.613 102.164 364.917 103.566C363.342 104.385 361.756 105.21 360.176 106.096L360.175 106.096C354.606 109.239 349.316 112.803 344.029 116.366C342.809 117.187 341.59 118.009 340.368 118.825L340.367 118.825C336.527 121.399 332.007 122.763 327.387 122.744L327.378 122.744L327.37 122.744C325.298 122.807 323.248 122.308 321.435 121.3C319.623 120.293 318.116 118.814 317.073 117.02L317.067 117.009L317.06 116.998C315.19 114.123 314.19 110.768 314.18 107.336C314.18 102.477 318.32 98.7024 323.823 98.4111H323.827H323.833H323.839H323.845H323.85H323.856H323.862H323.867H323.873H323.879H323.884H323.89H323.896H323.902H323.907H323.913H323.919H323.924H323.93H323.936H323.941H323.947H323.953H323.959H323.964H323.97H323.976H323.981H323.987H323.993H323.998H324.004H324.01H324.016H324.021H324.027H324.033H324.038H324.044H324.05H324.055H324.061H324.067H324.073H324.078H324.084H324.09H324.095H324.101H324.107H324.113H324.118H324.124H324.13H324.135H324.141H324.147H324.152H324.158H324.164H324.17H324.175H324.181H324.187H324.192H324.198H324.204H324.209H324.215H324.221H324.227H324.232H324.238H324.244H324.249H324.255H324.261H324.266H324.272H324.278H324.284H324.289H324.295H324.301H324.306H324.312H324.318H324.323H324.329H324.335H324.341H324.346H324.352H324.358H324.363H324.369H324.375H324.38H324.386H324.392H324.398H324.403H324.409H324.415H324.42H324.426H324.432H324.437H324.443H324.449H324.455H324.46H324.466H324.472H324.477H324.483H324.489H324.494H324.5H324.506H324.512H324.517H324.523H324.529H324.534H324.54H324.546H324.551H324.557H324.563H324.569H324.574H324.58H324.586H324.591H324.597H324.603H324.608H324.614H324.62H324.626H324.631H324.637H324.643H324.648H324.654H324.66H324.665H324.671H324.677H324.683H324.688H324.694H324.7H324.705H324.711H324.717H324.722H324.728H324.734H324.74H324.745H324.751H324.757H324.762H324.768H324.774H324.779H324.785H324.791H324.797H324.802H324.808H324.814H324.819H324.825H324.831H324.836H324.842H324.848H324.854H324.859H324.865H324.871H324.876H324.882H324.888H324.893H324.899H324.905H324.911H324.916H324.922H324.928H324.933H324.939H324.945H324.95H324.956H324.962H324.968H324.973H324.979H324.985H324.99H324.996H325.002H325.007H325.013H325.019H325.025H325.03H325.036H325.042H325.047H325.053H325.059H325.064H325.07H325.076H325.082H325.087H325.093H325.099H325.104H325.11H325.116H325.121H325.127H325.133H325.139H325.144H325.15H325.156H325.161H325.167H325.173H325.179H325.184H325.19H325.196H325.201H325.207H325.213H325.218H325.224H325.23H325.236H325.241H325.247H325.253H325.258H325.264H325.27H325.275H325.281H325.287H325.293H325.298H325.304H325.31H325.315H325.321H325.327H325.332H325.338H325.344H325.35H325.355H325.361H325.367H325.372H325.378H325.384H325.389H325.395H325.401H325.407H325.412H325.418H325.424H325.429H325.435H325.441H325.446H325.452H325.458H325.464H325.469H325.475H325.481H325.486H325.492H325.498H325.503H325.509H325.515H325.521H325.526H325.532H325.538H325.543H325.549H325.555H325.56H325.566H325.572H325.578H325.583H325.589H325.595H325.6H325.606H325.612H325.617H325.623H325.629H325.635H325.64H325.646H325.652H325.657H325.663H325.669H325.674H325.68H325.686H325.692H325.697H325.703H325.709H325.714H325.72H325.726H325.731H325.737H325.743H325.749H325.754H325.76H325.766H325.771H325.777H325.783H325.788H325.794H325.8H325.806H325.811H325.817H325.823H325.828H325.834H325.84H325.845H325.851H325.857H325.863H325.868H325.874H325.88H325.885H325.891H325.897H325.902H325.908H325.914H325.92H325.925H325.931H325.937H325.942H325.948H325.954H325.959H325.965H325.971H325.977H325.982H325.988H325.994H325.999H326.005H326.011H326.016H326.022H326.028H326.034H326.039H326.045H326.051H326.056H326.062H326.068H326.073H326.079H326.085H326.091H326.096H326.102H326.108H326.113H326.119H326.125H326.13H326.136H326.142H326.148H326.153H326.159H326.165H326.17H326.176H326.182H326.187H326.193H326.199H326.205H326.21H326.216H326.222H326.227H326.233H326.239H326.245H326.25H326.256H326.262H326.267H326.273H326.279H326.284H326.29H326.296H326.302H326.307H326.313H326.319H326.324H326.33H326.336H326.341H326.347H326.353H326.359H326.364H326.37H326.376H326.381H326.387H326.393H326.398H326.404H326.41H326.416H326.421H326.427H326.433H326.438H326.444H326.45H326.455H326.461H326.467H326.473H326.478H326.484H326.49H326.495H326.501H326.507H326.512H326.518H326.524H326.53H326.535H326.541H326.547H326.552H326.558H326.564H326.569H326.575H326.581H326.587H326.592H326.598H326.604H326.609H326.615H326.621H326.626H326.632H326.638H326.644H326.649H326.655H326.661H326.666H326.672H326.678H326.683H326.689H326.695H326.701H326.706H326.712H326.718H326.723H326.729H327.012L327.069 98.317C328.009 98.3574 328.957 98.41 329.908 98.4629C332.037 98.5812 334.187 98.7006 336.334 98.6864Z" stroke="#EE6422"/>
<path d="M72.8545 157.04L72.8192 157.035L72.5517 156.997C65.4977 156.806 58.4551 156.594 51.4104 156.107C51.4102 156.107 51.41 156.107 51.4098 156.107L51.4443 155.608C49.6672 155.489 47.9065 155.346 46.1571 155.204C45.0957 155.117 44.0386 155.031 42.9844 154.951L72.8545 157.04ZM72.8545 157.04H72.89C74.57 157.04 76.2572 157.108 77.9555 157.18L78.1627 157.188C79.7847 157.257 81.4169 157.326 83.0454 157.336C85.6743 157.506 88.158 158.605 90.0546 160.437L90.0846 160.466L90.119 160.489C92.3076 161.992 94.0929 164.011 95.3167 166.369C96.5398 168.726 97.1644 171.349 97.1353 174.005C97.0627 176.526 96.4739 178.409 95.3584 179.866C94.2396 181.328 92.549 182.417 90.1704 183.266L90.1636 183.268L90.1569 183.271C88.8978 183.762 87.5432 183.958 86.1969 183.843C84.8507 183.728 83.5485 183.306 82.3902 182.609L82.3809 182.604L82.3713 182.599C76.2484 179.269 70.3396 175.559 64.6797 171.49L64.6737 171.486L64.6675 171.482C60.8264 168.89 56.3527 167.397 51.7272 167.161C44.8378 166.706 38.003 165.633 31.3049 163.956C28.1555 163.163 24.9249 162.738 21.6778 162.691C16.6735 162.517 11.6945 161.898 6.80009 160.839C4.15503 160.234 2.6563 158.888 1.84813 157.282C1.02766 155.65 0.891667 153.694 1.09733 151.851L1.09848 151.84L1.0992 151.83C1.14177 151.22 1.38677 150.642 1.79512 150.187C2.20345 149.733 2.75163 149.428 3.35242 149.322L3.36704 149.32L3.38147 149.316C6.20057 148.643 9.15012 148.756 11.9093 149.644C17.4798 151.463 23.1954 152.802 28.9935 153.645C29.2245 153.681 29.4555 153.717 29.6867 153.753C34.0833 154.438 38.5046 155.126 42.9474 155.45L72.8545 157.04Z" stroke="#EE6422"/>
<path d="M156.661 68.8291L156.645 68.8227L156.628 68.8174C150.251 66.7704 147.244 61.9754 145.406 55.8686L145.406 55.8686L145.402 55.8559C143.942 51.4364 142.965 46.8716 142.486 42.2414C141.792 33.6093 140.256 25.0659 137.901 16.7334L137.9 16.7315C137.474 15.2489 136.945 13.798 136.422 12.3657C136.34 12.1407 136.258 11.9162 136.176 11.6921C135.575 10.0364 135.004 8.39615 134.609 6.70517C134.49 6.07007 134.491 5.41822 134.611 4.7833L134.62 4.7385L134.62 4.69291C134.621 4.49825 134.692 4.31052 134.819 4.16376C134.94 4.02492 135.103 3.93145 135.283 3.89791C135.5 3.89623 135.723 3.88185 135.93 3.86853C135.986 3.86489 136.041 3.86133 136.095 3.85814C136.369 3.84178 136.613 3.83344 136.841 3.85374C137.271 3.89208 137.615 4.0277 137.9 4.42901L137.9 4.42927C139.104 6.12188 140.285 7.81068 141.422 9.54005L141.422 9.54055C142.916 11.8069 144.386 14.0943 145.857 16.3838C149.39 21.8818 152.93 27.3919 156.835 32.6511L156.836 32.6517C158.317 34.6412 160.02 36.4204 161.732 38.1534C161.992 38.4167 162.253 38.6789 162.512 38.9405C163.967 40.4062 165.406 41.8558 166.729 43.4115C167.798 44.7281 168.966 45.988 170.136 47.2337C170.273 47.3797 170.41 47.5253 170.547 47.6709C171.581 48.7702 172.608 49.8625 173.579 50.9912C175.617 53.625 176.935 56.7449 177.405 60.0441L177.408 60.0652L177.413 60.0861C177.708 61.3658 177.763 62.6894 177.574 63.9892C177.272 66.0083 176.452 67.6086 175.151 68.7973C173.847 69.9902 172.023 70.8008 169.662 71.1713C168.568 71.3309 167.46 71.3723 166.357 71.2949C163.031 70.9007 159.771 70.0718 156.661 68.8291Z" stroke="#EE6422"/>
<path d="M257.299 62.9097L257.33 62.9101C259.391 62.9355 261.435 62.526 263.327 61.7084C266.672 59.9722 269.347 57.1744 270.935 53.7527L270.943 53.736L270.952 53.72C271.71 52.3576 272.335 50.9236 272.968 49.4619L273.015 49.3523C273.63 47.9339 274.255 46.4904 275.009 45.1055C275.772 43.6677 276.304 42.1183 276.585 40.5144C276.736 39.5836 276.752 38.646 276.76 37.6732C276.761 37.614 276.761 37.5546 276.762 37.4951C276.769 36.5874 276.776 35.6465 276.899 34.7075L276.9 34.7021L276.9 34.7021C277.194 32.639 277.719 30.667 278.238 28.7198L278.273 28.5863C278.806 26.5868 279.326 24.6091 279.607 22.5269C279.607 22.5268 279.607 22.5267 279.607 22.5266L280.102 22.5934C280.616 18.7696 281.506 15.0432 282.396 11.3219C282.679 10.1372 282.962 8.95308 283.232 7.76645L257.299 62.9097ZM257.299 62.9097L257.268 62.9132C255.486 63.1146 253.416 62.2526 251.595 60.8603C249.781 59.4735 248.319 57.6389 247.726 56.056C247.419 55.2158 247.282 54.3225 247.324 53.4286C247.366 52.5342 247.586 51.6572 247.971 50.8491C248.356 50.041 248.899 49.3181 249.567 48.7229C250.234 48.1277 251.014 47.6721 251.86 47.3828L251.869 47.3797L251.878 47.3762C258.784 44.7129 264.701 39.9799 268.821 33.8235L257.299 62.9097Z" stroke="#EE6422"/>
<path d="M273.357 218.063C273.706 218.436 274.055 218.807 274.403 219.19C274.364 219.207 274.326 219.224 274.287 219.241C273.839 219.44 273.36 219.651 272.886 219.895L272.864 219.906L272.844 219.919C271.07 221.058 268.932 221.487 266.857 221.118L266.834 221.114L266.81 221.112C263.609 220.851 260.458 220.148 257.448 219.024L257.427 219.016L257.405 219.01C256.853 218.859 256.342 218.583 255.914 218.203L255.582 218.577L255.914 218.203C255.485 217.823 255.149 217.349 254.933 216.818C254.716 216.286 254.625 215.712 254.665 215.14C254.706 214.568 254.878 214.013 255.167 213.517L255.182 213.492L255.194 213.465C256.441 210.598 258.24 208.007 260.488 205.839C260.924 205.458 261.427 205.257 262 205.073C262.098 205.041 262.199 205.01 262.303 204.978C262.646 204.872 263.019 204.757 263.381 204.599C265.809 208.69 268.577 212.568 271.655 216.194L271.657 216.196C272.183 216.809 272.718 217.383 273.252 217.952C273.287 217.989 273.322 218.026 273.357 218.063Z" stroke="#EF6522"/>
<path d="M224.302 64.0006H224.004C224.111 63.8936 224.196 63.8722 224.302 64.0006Z" fill="#61290C"/>
</g>
</svg>
