<svg width="598" height="427" viewBox="0 0 598 427" fill="none" xmlns="http://www.w3.org/2000/svg">
<g filter="url(#filter0_dddddd_1_230)">
<path d="M242.813 216.254C244.629 217.131 246.616 217.583 248.628 217.576C250.321 217.539 251.989 217.991 253.437 218.878C254.884 219.764 256.052 221.05 256.802 222.583C258.631 225.813 260.119 229.228 261.244 232.771C261.708 234.005 261.919 235.322 261.864 236.641C261.808 237.961 261.488 239.255 260.922 240.445C260.008 242.096 258.676 243.472 257.063 244.432C255.449 245.392 253.612 245.901 251.739 245.907C245.317 246.472 238.862 246.545 232.429 246.124C223.816 245.887 215.34 243.881 207.519 240.228C205.622 239.29 203.831 238.149 202.176 236.825C199.861 235.014 198.111 232.568 197.134 229.78C193.703 219.659 191.358 209.194 190.14 198.566C189.085 189.747 188.942 180.841 189.711 171.992C192.092 145.633 202.348 122.982 222.044 105.294C239.592 89.071 260.604 77.1515 283.45 70.4607C289.332 68.8309 295.339 67.7069 301.409 67.1009C303.297 66.9058 305.228 66.8625 307.137 66.7324H307.438C310.27 66.7324 313.102 66.7324 316.02 66.7324C329.727 67.6189 343.114 71.3059 355.369 77.5705C364.445 82.0357 370.174 89.3839 375.194 97.6642C379.013 103.972 382.361 110.518 385.579 117.173C387.231 120.576 389.441 123.676 390.857 127.252C395.197 137.861 398.084 149.019 399.439 160.416C399.922 164.596 400.03 168.811 399.761 173.01C399.214 180.526 397.811 187.952 395.577 195.142C393.281 202.728 387.81 207.193 382.039 211.637C381.068 210.19 380.187 208.685 379.4 207.128C375.978 201.436 372.172 195.99 368.007 190.828C368.565 191.001 368.715 190.525 368.886 190.199C369.509 189.094 370.152 188.032 370.667 186.861C372.92 181.304 374.449 175.475 375.216 169.52C375.774 166.031 376.224 162.541 376.568 159.029C377.039 156.724 377.083 154.35 376.696 152.028C373.821 140.882 369.711 130.098 364.445 119.882C359.453 109.765 350.733 102.029 340.157 98.3362C337.304 97.3174 334.214 96.8405 331.425 95.67C325.997 93.6642 320.275 92.5872 314.496 92.4836C309.905 92.1801 305.313 92.6353 300.765 92.4836C290.988 92.2574 281.293 94.3277 272.444 98.5312C259.095 104.124 247.466 113.216 238.758 124.868C227.279 140.626 222.452 158.726 220.993 177.931V178.321V179.903V181.832C220.993 182.136 220.993 182.461 220.993 182.786C219.731 188.963 219.636 195.324 220.714 201.536C221.289 204.783 222.779 207.794 225.005 210.206C228.367 213.562 232.819 215.572 237.535 215.864C239.281 216.141 241.046 216.271 242.813 216.254Z" fill="#EF6522"/>
<path d="M242.812 216.256C240.955 216.325 239.096 216.231 237.255 215.974C232.538 215.683 228.086 213.673 224.725 210.317C222.499 207.904 221.009 204.893 220.434 201.646C219.356 195.435 219.451 189.073 220.713 182.897C220.713 182.571 220.713 182.246 220.713 181.943C221.142 181.379 220.949 180.664 221.185 180.035C222.294 175.143 223.897 170.378 225.969 165.816C229.093 159.023 233.035 152.645 237.706 146.828C241.573 142.045 245.883 137.646 250.579 133.692C256.507 128.835 263.292 125.158 270.576 122.854C279.263 119.753 288.232 117.524 297.352 116.199C300.163 115.831 302.952 115.592 305.763 115.397C308.252 115.138 310.761 115.138 313.251 115.397C317.671 116.026 321.983 117.24 326.382 118.042C326.904 118.109 327.396 118.327 327.799 118.669C328.202 119.011 328.5 119.463 328.656 119.971C330.042 123.424 330.187 127.259 329.064 130.809C328.677 132.131 328.463 133.497 327.068 134.277C324.407 135.898 321.378 136.801 318.271 136.9C313.118 136.939 307.972 137.315 302.866 138.027C296.695 138.64 290.568 139.646 284.522 141.04C278.419 142.432 272.585 144.827 267.25 148.128C263.733 150.491 260.378 153.09 257.209 155.91C253.563 158.907 250.388 162.444 247.79 166.401C245.644 169.869 244.121 173.598 245.279 177.803C245.63 179.655 246.359 181.414 247.419 182.966C248.479 184.518 249.848 185.831 251.437 186.82C253.796 187.948 256.413 188.413 259.011 188.164C261.594 188.102 264.163 187.753 266.671 187.123C277.364 184.206 287.614 179.83 297.138 174.118C302.576 170.801 308.326 168.035 314.302 165.859C321.182 163.418 328.551 162.726 335.758 163.843C339.237 164.241 342.555 165.54 345.391 167.615C358.63 178.893 370.021 192.215 379.141 207.087C379.928 208.643 380.809 210.149 381.78 211.596C382.424 213.763 383.539 215.758 384.226 217.947C386.715 225.967 383.153 231.169 375.644 233.25C373.953 234.073 372.025 234.251 370.215 233.749C367.42 232.502 364.835 230.819 362.556 228.763L359.273 225.75C358.265 224.493 357.128 223.409 356.033 222.174C352.828 218.365 349.956 214.282 347.451 209.97C345.306 206.394 344.104 202.405 341.765 199.002C339.381 195.052 336.423 191.486 332.99 188.424C330.621 186.574 327.833 185.347 324.878 184.855C321.923 184.363 318.893 184.621 316.062 185.606C310.262 187.481 304.757 190.182 299.712 193.626C291.903 198.482 284.457 203.944 276.111 207.933C270.144 210.593 263.936 212.661 257.574 214.11C252.726 215.269 247.786 215.988 242.812 216.256Z" fill="#FAE203"/>
<path d="M90.1773 26.3293C90.7566 26.3293 91.3359 26.3293 91.9152 26.3293C93.1949 26.3627 94.4549 26.6563 95.6198 27.1926C96.7847 27.7289 97.8306 28.4969 98.6952 29.4507C104.066 34.87 109.951 39.7417 116.267 43.9954C129.763 53.858 143.688 63.092 157.891 71.8708C163.985 75.6425 170.593 78.5471 176.987 81.8202C181.921 84.3563 186.835 86.849 191.77 89.3201C195.02 90.9128 197.845 93.2691 200.009 96.1914C200.502 96.8417 200.953 97.5137 201.489 98.1206C205.909 103.236 206.316 109.11 204.664 115.461C204.149 117.391 203.527 119.298 202.969 121.206C202.648 122.352 202.106 123.422 201.374 124.356C200.642 125.29 199.734 126.068 198.703 126.646C197.672 127.224 196.539 127.591 195.367 127.725C194.196 127.859 193.009 127.757 191.877 127.427C189.243 126.786 186.968 125.118 185.547 122.788C182.136 117.347 178.038 112.405 174.155 107.29C173.278 106.292 172.461 105.243 171.709 104.147C164.229 91.9407 154.375 81.3956 142.744 73.1497C138.152 69.8116 134.161 65.8015 129.334 62.6585C117.383 54.7901 104.917 47.7887 92.3658 40.9824C89.0187 39.1616 85.6502 37.3697 82.2602 35.6067C81.5161 35.1503 80.9122 34.4941 80.5157 33.7112C80.1192 32.9283 79.9458 32.0495 80.0148 31.1728C80.0837 30.2962 80.3924 29.4561 80.9063 28.7464C81.4202 28.0366 82.1192 27.4849 82.9253 27.153C84.1472 26.6513 85.4476 26.3724 86.7659 26.3293H87.0877H89.6838H90.1773Z" fill="#EF6522"/>
<path d="M411.518 101.328C414.736 101.458 417.954 101.74 421.194 101.718C429.3 101.484 437.235 99.3069 444.345 95.3673C449.896 92.4044 455.1 88.8198 459.857 84.681C467.666 77.8981 477.261 73.5596 487.471 72.1956C491.161 71.7187 494.83 71.2852 498.563 71.0684C502.744 70.6001 506.973 70.7976 511.093 71.6537C513.392 72.3399 515.448 73.6792 517.015 75.512C518.431 77.0727 518.152 78.525 516.328 79.6739C514.81 80.6872 512.986 81.1249 511.179 80.9094C505.444 80.4326 499.671 80.9755 494.122 82.5134C490.496 83.3371 486.934 84.4643 483.394 85.6348C480.878 86.4912 478.532 87.79 476.464 89.4714C470.716 94.3285 464.722 98.8794 458.506 103.106C454.386 105.794 449.923 107.831 445.632 110.259C438.702 114.204 432.201 118.799 425.571 123.264C421.592 125.955 416.907 127.382 412.119 127.361C409.925 127.428 407.755 126.895 405.837 125.819C403.918 124.744 402.323 123.164 401.219 121.249C399.269 118.223 398.226 114.693 398.215 111.083C398.215 105.772 402.7 101.74 408.493 101.437C409.48 101.437 410.466 101.437 411.453 101.437L411.518 101.328Z" fill="#EF6522"/>
<path d="M153.943 161.436C157.376 161.436 160.831 161.718 164.263 161.74C167.056 161.919 169.694 163.094 171.709 165.056C173.998 166.641 175.865 168.772 177.144 171.26C178.424 173.748 179.078 176.516 179.046 179.319C178.896 184.63 176.579 187.491 171.644 189.268C170.295 189.799 168.843 190.011 167.4 189.887C165.957 189.763 164.561 189.307 163.319 188.553C157.089 185.136 151.077 181.328 145.318 177.152C141.497 174.551 137.046 173.052 132.445 172.816C125.424 172.349 118.459 171.246 111.633 169.522C108.474 168.72 105.234 168.29 101.978 168.243C96.8682 168.064 91.7846 167.426 86.7872 166.335C81.1444 165.035 80.1789 160.461 80.608 156.581C80.6591 155.843 80.9529 155.143 81.4427 154.594C81.9326 154.044 82.5904 153.675 83.3114 153.546C86.262 152.835 89.3492 152.955 92.237 153.893C97.8616 155.746 103.633 157.109 109.487 157.968C114.186 158.705 118.885 159.464 123.605 159.811C126.437 160.027 129.291 160.288 132.187 160.483C139.332 160.981 146.477 161.198 153.643 161.393L153.943 161.436Z" fill="#EF6522"/>
<path d="M248.713 74.7123C245.291 74.3042 241.937 73.4443 238.736 72.1545C232.042 69.9869 228.909 64.893 227.021 58.5636C225.528 54.0041 224.528 49.2946 224.039 44.5175C223.338 35.7151 221.786 27.0031 219.405 18.5062C218.418 15.038 216.873 11.7433 216.058 8.21005C215.923 7.49391 215.923 6.75858 216.058 6.04244C216.059 5.72109 216.175 5.41102 216.384 5.16844C216.592 4.92587 216.88 4.76684 217.195 4.72019C218.289 4.72019 219.512 4.3517 220.306 5.47885C221.529 7.21294 222.73 8.94704 223.889 10.7245C229.06 18.6363 233.909 26.7431 239.508 34.3514C242.469 38.3615 246.331 41.5479 249.528 45.3412C251.674 48.0074 254.227 50.4568 256.48 53.1012C258.606 55.8689 259.981 59.1487 260.471 62.617C260.784 63.9887 260.843 65.4074 260.642 66.8005C259.999 71.1357 257.124 73.8019 252.189 74.5823C251.038 74.7517 249.873 74.7953 248.713 74.7123Z" fill="#EF6522"/>
<path d="M340.692 64.8909C336.701 65.3461 331.766 61.0109 330.479 57.5428C330.144 56.6184 329.995 55.6357 330.041 54.6524C330.087 53.6691 330.326 52.7049 330.746 51.8165C331.166 50.9281 331.757 50.1333 332.485 49.4788C333.213 48.8244 334.063 48.3234 334.985 48.0053C341.894 45.3175 347.813 40.5409 351.935 34.3277C354.188 30.9714 355.622 27.1236 356.118 23.0994C356.304 21.7987 356.665 20.5298 357.191 19.3278C359.376 13.7651 360.819 7.93377 361.482 1.9869C361.482 1.61841 361.611 1.27159 361.654 0.903098C361.804 -0.00729816 362.319 -0.180699 363.113 0.166119C364.595 0.751529 365.81 1.87077 366.523 3.30782C367.236 4.74488 367.397 6.39788 366.975 7.94783C365.838 12.9767 364.486 17.9622 363.8 23.1211C363.22 27.4563 361.654 31.3363 361.053 35.5849C360.796 37.5574 361.053 39.5516 360.731 41.5458C360.437 43.2421 359.88 44.8808 359.079 46.4012C357.535 49.2625 356.526 52.3838 354.96 55.2234C353.299 58.8331 350.5 61.7837 347 63.612C345.01 64.4821 342.86 64.9179 340.692 64.8909Z" fill="#EE6422"/>
<path d="M347.386 209.948C349.892 214.259 352.763 218.342 355.969 222.151C357.02 223.387 358.114 224.471 359.208 225.728C358.522 226.053 357.814 226.335 357.063 226.725C355.155 227.96 352.857 228.425 350.626 228.025C347.332 227.754 344.09 227.024 340.993 225.858C340.357 225.683 339.77 225.362 339.277 224.921C338.783 224.48 338.397 223.93 338.148 223.313C337.899 222.697 337.794 222.031 337.841 221.367C337.888 220.704 338.085 220.059 338.418 219.485C339.711 216.486 341.577 213.775 343.911 211.508C344.962 210.576 346.292 210.576 347.386 209.948Z" fill="#EF6522"/>
<path d="M307.545 66.7361H307.243C307.351 66.6253 307.437 66.6032 307.545 66.7361Z" fill="#61290C"/>
</g>
<defs>
<filter id="filter0_dddddd_1_230" x="0" y="0" width="597.914" height="426.393" filterUnits="userSpaceOnUse" color-interpolation-filters="sRGB">
<feFlood flood-opacity="0" result="BackgroundImageFix"/>
<feColorMatrix in="SourceAlpha" type="matrix" values="0 0 0 0 0 0 0 0 0 0 0 0 0 0 0 0 0 0 127 0" result="hardAlpha"/>
<feOffset dy="2.76726"/>
<feGaussianBlur stdDeviation="1.1069"/>
<feColorMatrix type="matrix" values="0 0 0 0 0 0 0 0 0 0 0 0 0 0 0 0 0 0 0.0590406 0"/>
<feBlend mode="normal" in2="BackgroundImageFix" result="effect1_dropShadow_1_230"/>
<feColorMatrix in="SourceAlpha" type="matrix" values="0 0 0 0 0 0 0 0 0 0 0 0 0 0 0 0 0 0 127 0" result="hardAlpha"/>
<feOffset dy="6.6501"/>
<feGaussianBlur stdDeviation="2.66004"/>
<feColorMatrix type="matrix" values="0 0 0 0 0 0 0 0 0 0 0 0 0 0 0 0 0 0 0.0848175 0"/>
<feBlend mode="normal" in2="effect1_dropShadow_1_230" result="effect2_dropShadow_1_230"/>
<feColorMatrix in="SourceAlpha" type="matrix" values="0 0 0 0 0 0 0 0 0 0 0 0 0 0 0 0 0 0 127 0" result="hardAlpha"/>
<feOffset dy="12.5216"/>
<feGaussianBlur stdDeviation="5.00862"/>
<feColorMatrix type="matrix" values="0 0 0 0 0 0 0 0 0 0 0 0 0 0 0 0 0 0 0.105 0"/>
<feBlend mode="normal" in2="effect2_dropShadow_1_230" result="effect3_dropShadow_1_230"/>
<feColorMatrix in="SourceAlpha" type="matrix" values="0 0 0 0 0 0 0 0 0 0 0 0 0 0 0 0 0 0 127 0" result="hardAlpha"/>
<feOffset dy="22.3363"/>
<feGaussianBlur stdDeviation="8.93452"/>
<feColorMatrix type="matrix" values="0 0 0 0 0 0 0 0 0 0 0 0 0 0 0 0 0 0 0.125183 0"/>
<feBlend mode="normal" in2="effect3_dropShadow_1_230" result="effect4_dropShadow_1_230"/>
<feColorMatrix in="SourceAlpha" type="matrix" values="0 0 0 0 0 0 0 0 0 0 0 0 0 0 0 0 0 0 127 0" result="hardAlpha"/>
<feOffset dy="41.7776"/>
<feGaussianBlur stdDeviation="16.711"/>
<feColorMatrix type="matrix" values="0 0 0 0 0 0 0 0 0 0 0 0 0 0 0 0 0 0 0.150959 0"/>
<feBlend mode="normal" in2="effect4_dropShadow_1_230" result="effect5_dropShadow_1_230"/>
<feColorMatrix in="SourceAlpha" type="matrix" values="0 0 0 0 0 0 0 0 0 0 0 0 0 0 0 0 0 0 127 0" result="hardAlpha"/>
<feOffset dy="100"/>
<feGaussianBlur stdDeviation="40"/>
<feColorMatrix type="matrix" values="0 0 0 0 0 0 0 0 0 0 0 0 0 0 0 0 0 0 0.21 0"/>
<feBlend mode="normal" in2="effect5_dropShadow_1_230" result="effect6_dropShadow_1_230"/>
<feBlend mode="normal" in="SourceGraphic" in2="effect6_dropShadow_1_230" result="shape"/>
</filter>
</defs>
</svg>
