<svg xmlns="http://www.w3.org/2000/svg" viewBox="0 0 2127.16 1355.14"><defs><style>.cls-1{fill:#a9503c;}.cls-1,.cls-10,.cls-11,.cls-16,.cls-17,.cls-19,.cls-2,.cls-25,.cls-26,.cls-28,.cls-29,.cls-7,.cls-8{fill-rule:evenodd;}.cls-2{fill:#bf604b;}.cls-26,.cls-3{fill:#193d6d;}.cls-4{fill:#fff;}.cls-5,.cls-7{fill:#bf755a;}.cls-11,.cls-12,.cls-6{fill:#dbb2a3;}.cls-6{stroke:#935139;stroke-width:2.34px;}.cls-15,.cls-24,.cls-6{stroke-linecap:round;stroke-linejoin:round;}.cls-22,.cls-8{fill:#0a2445;}.cls-10,.cls-9{fill:#935139;}.cls-13{fill:#bf3d32;}.cls-14,.cls-17{fill:#aab9cc;}.cls-15,.cls-19,.cls-20{fill:#cfd8e2;}.cls-15{stroke:#8096b3;stroke-width:3.43px;}.cls-16,.cls-18{fill:#8096b3;}.cls-21{fill:#bf3e33;}.cls-23,.cls-25{fill:#fbcb22;}.cls-24,.cls-29,.cls-30{fill:#feedb4;}.cls-24{stroke:#eca400;stroke-width:5.56px;}.cls-27,.cls-28{fill:#eca400;}.cls-31{fill:#bf3f34;}</style></defs><g id="Layer_2" data-name="Layer 2"><g id="Laurel2"><g id="Layer21"><path class="cls-1" d="M2050.53,794.9A604.3,604.3,0,0,1,1994.91,937c-22.05,40.36-51.6,83.09-90.93,122.07-68.77,68.15-159.46,121.37-264.64,132.76-87,9.42-183.84-9.84-286.33-72.85a6.43,6.43,0,1,0-6.69,11c105.62,63.65,205.1,82.42,294.16,72,107.17-12.56,199.29-67.45,268.82-137.57,39.5-39.84,69.06-83.37,91-124.44A610.9,610.9,0,0,0,2055.24,796a2.42,2.42,0,1,0-4.71-1.13Z"/><path class="cls-1" d="M1511.89,1048.6c-5.81-.14-57-.69-81.91,16.61-43.64,30.3-31.65,76.22-31.18,77.92,11.88-12.33,33.23-33.68,50.41-47.07S1495,1061.18,1511.89,1048.6Z"/><path class="cls-2" d="M1511.89,1048.6c-16.87,12.58-45.61,34.15-62.68,47.46s-38.53,34.74-50.41,47.07v0s57.32,3.22,82.57-26.78c24.65-29.31,31-67.8,31-67.8Z"/><path class="cls-2" d="M2055,716.77c2,2.42,19.19,24,20.11,40.26,1.62,28.56-21.84,38.7-22.72,39.07,1.29-9.14,3.27-25.27,3.26-37S2055.25,728.1,2055,716.77Z"/><path class="cls-1" d="M2055,716.77c.26,11.33.63,30.68.65,42.33s-2,27.87-3.26,37h0s-20.38-23.26-16-43.91c4.26-20.18,18.47-35.66,18.47-35.66Z"/><path class="cls-1" d="M2107.07,914c-2.36,3.8-23.54,37.07-45.18,45.86-37.92,15.41-62.5-11.65-63.4-12.67,13-2.48,35.71-7.27,51.58-12.72S2091.85,919.62,2107.07,914Z"/><path class="cls-2" d="M2107.07,914c-15.22,5.59-41.23,15.06-57,20.47s-38.63,10.24-51.58,12.72l0,0s22-38.34,52-42c29.29-3.58,56.82,8.49,56.82,8.49Z"/><path class="cls-1" d="M2032.06,1067c-3.7,3.13-36.65,30.35-61.89,32.19-44.24,3.22-60.55-32.88-61.14-34.23,14.19,1.77,39.25,4.42,57.43,4.11S2014.5,1067.67,2032.06,1067Z"/><path class="cls-2" d="M2032.06,1067c-17.56.67-47.54,1.75-65.6,2.07s-43.24-2.34-57.43-4.11l0,0s35.53-32.17,67.66-25.94c31.39,6.1,55.74,27.73,55.74,27.73Z"/><path class="cls-1" d="M1787.32,1076.88c-3.82,1.24-37.35,12.66-49.63,29.67-21.51,29.82-3.12,57-2.42,58,4.92-10.78,13.94-29.63,22.07-42.32S1779.2,1089,1787.32,1076.88Z"/><path class="cls-2" d="M1787.32,1076.88c-8.11,12.09-21.91,32.77-30,45.38s-17.15,31.54-22.07,42.32l0,0s38.15-11.09,47.71-36.47c9.35-24.8,4.67-51.39,4.67-51.39Z"/><path class="cls-1" d="M1972.93,802.86c-.68,3.56-6.34,35,1.72,52.16,14.13,30,43.65,27.41,44.75,27.3-6.36-8.6-17.29-24-23.75-35.94S1978.93,814.55,1972.93,802.86Z"/><path class="cls-2" d="M1972.94,802.85c6,11.7,16.29,31.64,22.71,43.53s17.39,27.34,23.75,35.94h0s7.94-35-7.91-53.62C1996,810.46,1973,802.52,1973,802.52Z"/><path class="cls-1" d="M1769.87,1289.54c-5.38.22-52.91,1.57-78.36-14.4-44.59-28-39.51-71.67-39.3-73.3,12.68,11.49,35.36,31.36,53.1,43.76S1752.52,1277.89,1769.87,1289.54Z"/><path class="cls-2" d="M1769.87,1289.53c-17.35-11.64-46.93-31.6-64.56-43.93s-40.42-32.27-53.1-43.76v0s52.87-4,80.31,24c26.81,27.36,37.84,63.71,37.84,63.71Z"/><path class="cls-1" d="M2127,791.78c-1.39,2.85-14,27.83-29.33,36.54-26.94,15.27-48.13.45-48.91-.11,9.48-3.36,26.1-9.55,37.47-15.27S2116.16,797.51,2127,791.78Z"/><path class="cls-2" d="M2127,791.78c-10.87,5.73-29.46,15.47-40.77,21.16s-28,11.91-37.47,15.27l0,0s12.7-28.48,34.85-34.87c21.65-6.24,43.54-1.8,43.54-1.8Z"/><path class="cls-2" d="M1450.71,1284.16c-3.09-22,.76-56.12-13.09-84.72s-46-43-46-43-3,25.56,13.6,58.5c8.78,17.44,30,47.63,40.06,61.64Z"/><path class="cls-1" d="M1391.58,1156.48s-36.62,29.29-21.33,63.84c17.92,40.51,80.46,63.84,80.46,63.84l-5.47-7.54c-10.06-14-31.28-44.2-40.06-61.64C1388.59,1182,1391.58,1156.48,1391.58,1156.48Z"/><path class="cls-2" d="M1825.45,1220.36c-13.84-10.11-30.63-30.53-53.88-38.21s-48.46,2.43-48.46,2.43,12.53,15.36,39.65,23.85c14.36,4.5,42.44,9,55.59,10.91Z"/><path class="cls-1" d="M1723.11,1184.58s-3.44,36,23.87,46c32,11.81,78.47-10.26,78.47-10.26l-7.1-1c-13.15-1.95-41.23-6.41-55.59-10.91C1735.64,1199.94,1723.11,1184.58,1723.11,1184.58Z"/><path class="cls-2" d="M1662.85,1286.18c-9.28-16.23-16.9-44.06-36.63-62.07s-49.35-19.19-49.35-19.19,5.63,20.89,28.86,41.44c12.29,10.87,38.28,27.84,50.5,35.64Z"/><path class="cls-1" d="M1576.87,1204.92s-19.46,34.29,3.25,56.5c26.63,26,82.73,24.76,82.73,24.76l-6.62-4.18c-12.22-7.8-38.21-24.77-50.5-35.64C1582.5,1225.81,1576.87,1204.92,1576.87,1204.92Z"/><path class="cls-2" d="M1650.12,1113.76c-5.86,14.87-8.89,39.33-23.36,57s-39.37,22.29-39.37,22.29,2.2-18.36,19.32-38.58c9.06-10.71,29-28.24,38.32-36.34Z"/><path class="cls-1" d="M1587.39,1193s-20.65-26.61-4.18-48.17c19.31-25.29,66.91-31.1,66.91-31.1l-5.09,4.35c-9.37,8.1-29.26,25.63-38.32,36.34C1589.59,1174.67,1587.39,1193,1587.39,1193Z"/><path class="cls-2" d="M1476.73,1170.72c8.34,4.94,43.89,22.67,79-10.4,22.75-21.44,25.62-53,33-72.3l-59.92,41.64c-16.71,11.6-53.89,39.91-53.89,39.91Z"/><path class="cls-1" d="M1581,1087.17c-14.46-1.2-45.88-1.91-65.86,11.56-34.59,23.32-39.42,60.06-40.08,68.89l-.11,2s37.18-28.31,53.89-39.91,59.92-41.64,59.92-41.64Z"/><path class="cls-2" d="M1934.93,1013c6.42-3.65,27.73-19.27,19.11-55-5.58-23.14-21.53-38.15-31.54-50.31l4.93,55.35c1.36,15.42,6,50.7,6,50.7Z"/><path class="cls-1" d="M1919,912.5c-6.25,9.11-18.57,29.63-17.21,47.92,2.37,31.68,24.85,48.74,30.43,52.51l1.25.81s-4.69-35.28-6-50.7-4.93-55.35-4.93-55.35Z"/><path class="cls-1" d="M1854.35,1116.82c1.92,8.36,12.3,41.93,54.91,44.2,27.61,1.47,49.54-16,66.4-23l-63.24-12.91C1894.79,1121.45,1854,1115,1854,1115Z"/><path class="cls-2" d="M1971.47,1132.48c-8.07-10-26.81-30.52-47.63-35.08-36-7.89-62.51,11.46-68.56,16.42L1854,1115s40.82,6.5,58.45,10.11,63.24,12.91,63.24,12.91Z"/><path class="cls-1" d="M2029.41,882.48c4.45,4.71,24,22.6,52.64,7.79,18.54-9.6,26.15-29.33,34.41-40.4l-46.1,15.78c-12.85,4.39-41.92,15.76-41.92,15.76Z"/><path class="cls-2" d="M2111.64,847.9c-9.07-3.41-29.12-9.62-44.42-4.63-26.48,8.65-36.31,31.36-38.35,36.91l-.43,1.23s29.07-11.37,41.92-15.76l46.1-15.78Z"/><path class="cls-2" d="M1877.11,1074.14c7-1.79,29.41-17.77,33-47.62,2.82-23.27-11-41.4-17.33-55.55l-9.77,53.82c-2.74,15-7.5,49.71-7.5,49.71Z"/><path class="cls-1" d="M1888.23,974.62c-8.31,7-25.37,23.27-28.85,41-6,30.69,10.86,52.76,15.17,57.79l1,1.1s4.76-34.71,7.5-49.71S1892.8,971,1892.8,971Z"/><path class="cls-2" d="M1559,1322s8.85-43.94-7.58-75.79c-21.06-40.81-67.26-54.5-78.48-57.28l-2.49-.57s20.23,25,40.11,54c9.94,14.52,22,34.42,31.68,50.7Z"/><path class="cls-1" d="M1468.17,1196.64c-3.67,15.54-8.87,49.57,8.3,73.2C1499.35,1301.35,1559,1322,1559,1322l-16.76-28.93c-9.63-16.28-21.74-36.18-31.68-50.7-19.88-29-40.11-54-40.11-54Z"/><path class="cls-2" d="M1983.4,755.25s25,2.45,39.41,16.48c18.44,18,18.22,45,17.87,51.49l-.1,1.43s-10.08-14.94-22.4-30.37c-6.16-7.71-14.85-17.47-22-25.3Z"/><path class="cls-1" d="M2035.75,824.51c-8.93-.58-28-3.37-37.9-16.44-13.16-17.44-14.45-52.82-14.45-52.82L1996.17,769c7.16,7.83,15.85,17.59,22,25.3,12.32,15.43,22.4,30.37,22.4,30.37Z"/><path class="cls-2" d="M1914.83,1218.76s-9.09-36-32.77-54c-30.35-23-69.8-16.72-79.19-14.79l-2.07.46s24.06,11.45,49.32,26.06c12.63,7.31,28.81,17.87,41.83,26.61Z"/><path class="cls-1" d="M1802.06,1157.46c2.81,12.94,11.09,40.26,32.38,51.8,28.39,15.39,80.39,9.5,80.39,9.5L1892,1203.11c-13-8.74-29.2-19.3-41.83-26.61-25.26-14.61-49.32-26.06-49.32-26.06Z"/><path class="cls-2" d="M1941.71,847.91s28.47,10.64,40.92,31.51c15.94,26.74,7.27,58.24,4.85,65.69l-.56,1.64s-7.13-20.58-16.72-42.43c-4.79-10.93-11.92-25-17.84-36.4Z"/><path class="cls-1" d="M1981.33,945.09c-10.26-3.45-31.71-12.65-39.17-31-9.94-24.46-.45-66.18-.45-66.18l10.65,20c5.92,11.37,13.05,25.47,17.84,36.4,9.59,21.85,16.72,42.43,16.72,42.43Z"/><path class="cls-2" d="M1843.64,1015.22s15.26,30.45,9.57,57.08c-7.29,34.12-38.42,53.38-46.09,57.66l-1.71.92s9.84-22.34,18.62-47.6c4.39-12.63,9.29-29.65,13.09-43.5Z"/><path class="cls-1" d="M1802.08,1125.25c-5.79-10.66-16.4-34.57-8.53-55.32,10.48-27.67,50.09-54.71,50.09-54.71l-6.52,24.56c-3.8,13.85-8.7,30.87-13.09,43.5-8.78,25.26-18.62,47.6-18.62,47.6Z"/><path class="cls-2" d="M2072.78,991.52s-28.31-18.95-55.44-16.63c-34.76,3-57.75,31.47-63,38.54l-1.12,1.59s23.4-7,49.55-12.54c13.08-2.78,30.57-5.52,44.79-7.57Z"/><path class="cls-1" d="M1958.43,1019c9.85,7.08,32.25,20.58,53.82,15.37,28.77-7,60.53-42.87,60.53-42.87l-25.18,3.39c-14.22,2.05-31.71,4.79-44.79,7.57-26.15,5.56-49.55,12.54-49.55,12.54Z"/><path class="cls-2" d="M1727.74,1068.3s10.12,36.7-1.9,64.66c-15.4,35.83-53.72,50.18-63.06,53.21l-2.07.63s15.64-22.36,30.75-48.15c7.56-12.89,16.63-30.47,23.81-44.84Z"/><path class="cls-1" d="M1658.28,1179.9c-4-12.94-10.47-41.46,2.66-62.5,17.51-28.06,66.8-49.1,66.8-49.1l-12.47,25.51c-7.18,14.37-16.25,32-23.81,44.84-15.11,25.79-30.75,48.15-30.75,48.15Z"/><path class="cls-1" d="M71.93,796A610,610,0,0,0,126.82,940c22,41.07,51.55,84.6,91,124.44,69.53,70.12,161.65,125,268.82,137.57,89.07,10.43,188.54-8.34,294.16-72a6.43,6.43,0,0,0-6.68-11c-102.5,63-199.36,82.27-286.34,72.85-105.18-11.39-195.87-64.61-264.64-132.76-39.33-39-68.87-81.71-90.93-122.07A604.75,604.75,0,0,1,76.63,794.9a2.42,2.42,0,1,0-4.7,1.13Z"/><path class="cls-1" d="M615.28,1048.6c5.8-.14,57-.69,81.9,16.61,43.65,30.3,31.65,76.22,31.19,77.92-11.89-12.33-33.24-33.68-50.42-47.07S632.14,1061.18,615.28,1048.6Z"/><path class="cls-2" d="M615.28,1048.6c16.86,12.58,45.61,34.15,62.67,47.46s38.53,34.74,50.42,47.07l0,0s-57.32,3.22-82.56-26.78c-24.66-29.31-31-67.8-31-67.8Z"/><path class="cls-2" d="M72.17,716.77c-2,2.42-19.19,24-20.11,40.26-1.62,28.56,21.84,38.7,22.72,39.07-1.29-9.14-3.27-25.27-3.25-37S71.92,728.1,72.17,716.77Z"/><path class="cls-1" d="M72.17,716.77c-.25,11.33-.63,30.68-.65,42.33s2,27.87,3.26,37h0s20.38-23.26,16-43.91C86.56,732,72.35,716.54,72.35,716.54Z"/><path class="cls-1" d="M20.09,914c2.36,3.8,23.55,37.07,45.18,45.86,37.92,15.41,62.5-11.65,63.41-12.67-13-2.48-35.72-7.27-51.59-12.72S35.31,919.62,20.09,914Z"/><path class="cls-2" d="M20.09,914c15.22,5.59,41.23,15.06,57,20.47s38.63,10.24,51.59,12.72l0,0s-22-38.34-52-42c-29.29-3.58-56.81,8.49-56.81,8.49Z"/><path class="cls-1" d="M95.11,1067c3.69,3.13,36.64,30.35,61.89,32.19,44.23,3.22,60.54-32.88,61.13-34.23-14.19,1.77-39.25,4.42-57.43,4.11S112.66,1067.67,95.11,1067Z"/><path class="cls-2" d="M95.11,1067c17.55.67,47.53,1.75,65.59,2.07s43.25-2.34,57.43-4.11l0,0s-35.53-32.17-67.66-25.94c-31.39,6.1-55.74,27.73-55.74,27.73Z"/><path class="cls-1" d="M339.85,1076.88c3.82,1.24,37.35,12.66,49.62,29.67,21.51,29.82,3.12,57,2.42,58C387,1153.8,378,1135,369.83,1122.26S348,1089,339.85,1076.88Z"/><path class="cls-2" d="M339.85,1076.88c8.11,12.09,21.9,32.77,30,45.38s17.14,31.54,22.06,42.32l0,0s-38.14-11.09-47.71-36.47c-9.35-24.8-4.67-51.39-4.67-51.39Z"/><path class="cls-1" d="M154.23,802.86c.68,3.56,6.34,35-1.72,52.16-14.12,30-43.65,27.41-44.75,27.3,6.36-8.6,17.29-24,23.75-35.94S148.23,814.55,154.23,802.86Z"/><path class="cls-2" d="M154.23,802.85c-6,11.7-16.3,31.64-22.72,43.53s-17.39,27.34-23.75,35.94h0s-7.94-35,7.92-53.62c15.48-18.23,38.52-26.17,38.52-26.17Z"/><path class="cls-1" d="M357.29,1289.54c5.38.22,52.91,1.57,78.36-14.4,44.59-28,39.51-71.67,39.3-73.3-12.68,11.49-35.36,31.36-53.1,43.76S374.64,1277.89,357.29,1289.54Z"/><path class="cls-2" d="M357.29,1289.53c17.35-11.64,46.93-31.6,64.56-43.93s40.42-32.27,53.1-43.76v0s-52.88-4-80.32,24c-26.8,27.36-37.84,63.71-37.84,63.71Z"/><path class="cls-1" d="M.14,791.78c1.38,2.85,14,27.83,29.32,36.54,26.94,15.27,48.13.45,48.91-.11-9.48-3.36-26.1-9.55-37.47-15.27S11,797.51.14,791.78Z"/><path class="cls-2" d="M.14,791.78C11,797.51,29.6,807.25,40.9,812.94s28,11.91,37.47,15.27l0,0s-12.7-28.48-34.86-34.87C21.9,787.08,0,791.52,0,791.52Z"/><path class="cls-2" d="M676.46,1284.16c3.08-22-.77-56.12,13.08-84.72s46.05-43,46.05-43,3,25.56-13.6,58.5c-8.79,17.44-30,47.63-40.07,61.64Z"/><path class="cls-1" d="M735.59,1156.48s36.61,29.29,21.32,63.84c-17.92,40.51-80.45,63.84-80.45,63.84l5.46-7.54c10.06-14,31.28-44.2,40.07-61.64C738.58,1182,735.59,1156.48,735.59,1156.48Z"/><path class="cls-2" d="M301.71,1220.36c13.84-10.11,30.64-30.53,53.89-38.21s48.46,2.43,48.46,2.43-12.54,15.36-39.66,23.85c-14.35,4.5-42.44,9-55.58,10.91Z"/><path class="cls-1" d="M404.06,1184.58s3.43,36-23.88,46c-32,11.81-78.47-10.26-78.47-10.26l7.11-1c13.14-1.95,41.23-6.41,55.58-10.91C391.52,1199.94,404.06,1184.58,404.06,1184.58Z"/><path class="cls-2" d="M464.31,1286.18c9.28-16.23,16.9-44.06,36.64-62.07s49.34-19.19,49.34-19.19-5.63,20.89-28.85,41.44c-12.3,10.87-38.29,27.84-50.51,35.64Z"/><path class="cls-1" d="M550.29,1204.92s19.46,34.29-3.25,56.5c-26.62,26-82.73,24.76-82.73,24.76l6.62-4.18c12.22-7.8,38.21-24.77,50.51-35.64C544.66,1225.81,550.29,1204.92,550.29,1204.92Z"/><path class="cls-2" d="M477.05,1113.76c5.85,14.87,8.88,39.33,23.35,57S539.77,1193,539.77,1193s-2.2-18.36-19.31-38.58c-9.06-10.71-29-28.24-38.33-36.34Z"/><path class="cls-1" d="M539.77,1193s20.66-26.61,4.18-48.17c-19.31-25.29-66.9-31.1-66.9-31.1l5.08,4.35c9.38,8.1,29.27,25.63,38.33,36.34C537.57,1174.67,539.77,1193,539.77,1193Z"/><path class="cls-2" d="M650.43,1170.72c-8.33,4.94-43.88,22.67-79-10.4-22.75-21.44-25.62-53-33-72.3l59.91,41.64c16.71,11.6,53.89,39.91,53.89,39.91Z"/><path class="cls-1" d="M546.21,1087.17c14.46-1.2,45.89-1.91,65.86,11.56,34.59,23.32,39.42,60.06,40.09,68.89l.1,2s-37.18-28.31-53.89-39.91S538.46,1088,538.46,1088Z"/><path class="cls-2" d="M192.23,1013c-6.42-3.65-27.73-19.27-19.11-55,5.59-23.14,21.53-38.15,31.54-50.31L199.73,963c-1.36,15.42-6,50.7-6,50.7Z"/><path class="cls-1" d="M208.15,912.5c6.25,9.11,18.58,29.63,17.21,47.92-2.36,31.68-24.84,48.74-30.43,52.51l-1.25.81s4.69-35.28,6-50.7,4.93-55.35,4.93-55.35Z"/><path class="cls-1" d="M272.82,1116.82c-1.93,8.36-12.3,41.93-54.91,44.2-27.61,1.47-49.55-16-66.41-23l63.25-12.91c17.62-3.61,58.44-10.11,58.44-10.11Z"/><path class="cls-2" d="M155.7,1132.48c8.06-10,26.8-30.52,47.62-35.08,36.05-7.89,62.51,11.46,68.56,16.42l1.31,1.13s-40.82,6.5-58.44,10.11S151.5,1138,151.5,1138Z"/><path class="cls-1" d="M97.76,882.48c-4.45,4.71-24,22.6-52.65,7.79-18.53-9.6-26.15-29.33-34.41-40.4l46.1,15.78c12.86,4.39,41.92,15.76,41.92,15.76Z"/><path class="cls-2" d="M15.52,847.9c9.07-3.41,29.13-9.62,44.42-4.63,26.49,8.65,36.31,31.36,38.36,36.91l.42,1.23S69.66,870,56.8,865.65L10.7,849.87Z"/><path class="cls-2" d="M250.05,1074.14c-7-1.79-29.41-17.77-33-47.62-2.82-23.27,11-41.4,17.33-55.55l9.77,53.82c2.74,15,7.5,49.71,7.5,49.71Z"/><path class="cls-1" d="M238.93,974.62c8.31,7,25.37,23.27,28.85,41,6,30.69-10.85,52.76-15.17,57.79l-1,1.1s-4.76-34.71-7.5-49.71S234.36,971,234.36,971Z"/><path class="cls-2" d="M568.17,1322s-8.86-43.94,7.57-75.79c21.06-40.81,67.26-54.5,78.48-57.28l2.49-.57s-20.22,25-40.11,54c-9.94,14.52-22.05,34.42-31.67,50.7Z"/><path class="cls-1" d="M659,1196.64c3.67,15.54,8.87,49.57-8.29,73.2-22.89,31.51-82.53,52.14-82.53,52.14l16.76-28.93c9.62-16.28,21.73-36.18,31.67-50.7,19.89-29,40.11-54,40.11-54Z"/><path class="cls-2" d="M143.76,755.25s-25,2.45-39.41,16.48c-18.44,18-18.21,45-17.87,51.49l.1,1.43s10.08-14.94,22.4-30.37c6.16-7.71,14.86-17.47,22-25.3Z"/><path class="cls-1" d="M91.41,824.51c8.94-.58,28-3.37,37.91-16.44,13.15-17.44,14.44-52.82,14.44-52.82L131,769c-7.15,7.83-15.85,17.59-22,25.3-12.32,15.43-22.4,30.37-22.4,30.37Z"/><path class="cls-2" d="M212.33,1218.76s9.09-36,32.77-54c30.35-23,69.81-16.72,79.2-14.79l2.06.46s-24.05,11.45-49.31,26.06c-12.63,7.31-28.81,17.87-41.83,26.61Z"/><path class="cls-1" d="M325.1,1157.46c-2.81,12.94-11.09,40.26-32.38,51.8-28.39,15.39-80.39,9.5-80.39,9.5l22.89-15.65c13-8.74,29.2-19.3,41.83-26.61,25.26-14.61,49.31-26.06,49.31-26.06Z"/><path class="cls-2" d="M185.45,847.91S157,858.55,144.54,879.42c-15.95,26.74-7.28,58.24-4.86,65.69l.56,1.64s7.13-20.58,16.72-42.43c4.8-10.93,11.92-25,17.84-36.4Z"/><path class="cls-1" d="M145.84,945.09c10.26-3.45,31.71-12.65,39.16-31,9.94-24.46.45-66.18.45-66.18l-10.65,20c-5.92,11.37-13,25.47-17.84,36.4-9.59,21.85-16.72,42.43-16.72,42.43Z"/><path class="cls-2" d="M283.53,1015.22s-15.27,30.45-9.58,57.08c7.29,34.12,38.42,53.38,46.09,57.66l1.71.92s-9.84-22.34-18.62-47.6c-4.39-12.63-9.29-29.65-13.09-43.5Z"/><path class="cls-1" d="M325.08,1125.25c5.79-10.66,16.4-34.57,8.54-55.32-10.49-27.67-50.09-54.71-50.09-54.71l6.51,24.56c3.8,13.85,8.7,30.87,13.09,43.5,8.78,25.26,18.62,47.6,18.62,47.6Z"/><path class="cls-2" d="M54.38,991.52s28.31-18.95,55.44-16.63c34.76,3,57.75,31.47,63,38.54l1.12,1.59s-23.39-7-49.55-12.54c-13.08-2.78-30.57-5.52-44.79-7.57Z"/><path class="cls-1" d="M168.73,1019c-9.85,7.08-32.25,20.58-53.82,15.37-28.76-7-60.53-42.87-60.53-42.87l25.18,3.39c14.22,2.05,31.71,4.79,44.79,7.57C150.51,1008,173.9,1015,173.9,1015Z"/><path class="cls-2" d="M399.42,1068.3s-10.12,36.7,1.9,64.66c15.41,35.83,53.72,50.18,63.06,53.21l2.08.63s-15.65-22.36-30.76-48.15c-7.55-12.89-16.62-30.47-23.8-44.84Z"/><path class="cls-1" d="M468.88,1179.9c4-12.94,10.47-41.46-2.66-62.5-17.5-28.06-66.8-49.1-66.8-49.1l12.48,25.51c7.18,14.37,16.25,32,23.8,44.84,15.11,25.79,30.76,48.15,30.76,48.15Z"/></g></g><g id="Laurel1"><path class="cls-1" d="M506.65,284.49c-17.7,37.64-46.22,107.58-62.44,196.17C433,541.91,427.66,612,435.79,686.57c14.31,131.21,64.93,265.29,166.52,367.64,84.43,85.07,204.07,148.26,367.49,169.64a8.59,8.59,0,1,0,2.15-17c-159.61-19.46-276.92-80-360-162.23C511.46,945.1,460.94,814,445.79,685.44c-8.67-73.5-4-142.77,6.55-203.32,15.31-87.91,43-157.46,60.17-194.9a3.23,3.23,0,1,0-5.86-2.73Z"/><path class="cls-1" d="M864.45,1000.93c6.18,4.69,60.16,46.74,71.81,85.55,20.4,68-30.37,106-32.28,107.44-2.16-22.79-6.71-62.89-13.52-91.19C883.7,1074.61,871.61,1028.13,864.45,1000.93Z"/><path class="cls-2" d="M864.45,1000.93c7.16,27.2,19.25,73.68,26,101.8,6.8,28.3,11.35,68.4,13.51,91.19l-.05,0s-62.62-44.36-64-96.74c-1.38-51.18,24-96.74,24-96.74Z"/><path class="cls-2" d="M572.89,201.82c-4.08.88-40,9.07-54.54,25.35-25.47,28.52-9.38,58.65-8.77,59.76,6.25-10.62,17.62-29.14,27.4-41.39S563.19,213.46,572.89,201.82Z"/><path class="cls-1" d="M572.89,201.82c-9.7,11.64-26.2,31.55-35.92,43.72s-21.14,30.77-27.39,41.39v0s40.66-7.34,53.3-32.57c12.35-24.65,10.38-52.66,10.38-52.66Z"/><path class="cls-1" d="M354.21,364.71c-.7,5.93-6.24,58.35,9.06,85.56,26.81,47.67,75,39.85,76.84,39.53-11.49-13.38-31.29-37.33-43.34-56.24S365.47,383.22,354.21,364.71Z"/><path class="cls-2" d="M354.21,364.71c11.26,18.51,30.57,50.06,42.55,68.85s31.87,42.87,43.35,56.25h.05s8.87-58.44-19.42-87.23c-27.64-28.12-66.48-38.42-66.48-38.42Z"/><path class="cls-1" d="M305.29,587.07c1.26,6.36,13,62.25,37.91,85.19,43.56,40.2,90.67,16,92.42,15.11-16.31-10-44.73-28-63.47-43.52S323.08,602.4,305.29,587.07Z"/><path class="cls-2" d="M305.29,587.07c17.79,15.33,48.24,41.41,66.86,56.78s47.16,33.56,63.47,43.52l.05,0s-10.36-63.22-49.15-83.45c-37.89-19.76-81.36-17.41-81.36-17.41Z"/><path class="cls-1" d="M552.94,801.18c3,4.48,28.51,44.34,27.18,72.34-2.34,49.08-44.21,62.21-45.78,62.68,3.83-15.36,10.09-42.57,12.16-62.61S551.36,820.57,552.94,801.18Z"/><path class="cls-2" d="M552.94,801.18c-1.59,19.39-4.39,52.51-6.44,72.41s-8.33,47.25-12.16,62.61l0,0s-30.66-43.35-19.53-77.86c10.87-33.71,37.91-57.61,37.91-57.61Z"/><path class="cls-1" d="M587,360.15c-2.24,4.29-22.53,41.9-45.22,53.1-39.77,19.63-68.46-7.68-69.51-8.71,13.8-3.7,38-10.66,54.74-17.8S571,367.38,587,360.15Z"/><path class="cls-2" d="M587,360.14c-16,7.24-43.37,19.51-60,26.6s-40.94,14.1-54.74,17.8l0,0s20.81-43.17,52.92-49.48c31.37-6.17,62.06,4.72,62.06,4.72Z"/><path class="cls-1" d="M394.13,1038c5.44,4.71,54,45.7,93.91,50.19,69.92,7.86,101-42,102.11-43.91-22.82,1.45-63.07,3.34-91.95,1.54C469.51,1044.07,422,1040.31,394.13,1038Z"/><path class="cls-2" d="M394.13,1038c27.83,2.27,75.38,6,104.07,7.82,28.88,1.8,69.13-.09,91.95-1.54l0,0s-52-48.19-104-41.76c-50.8,6.29-92.6,35.11-92.6,35.11Z"/><path class="cls-1" d="M435.13,220.28c-.92,4.13-8.58,40.71.24,62.62,15.45,38.39,49.95,40.53,51.23,40.6-7.12-11.41-19.34-31.72-26.47-47.17S441.72,235.32,435.13,220.28Z"/><path class="cls-2" d="M435.13,220.27c6.59,15,17.92,40.7,25,56.06s19.35,35.76,26.47,47.17h0s10.43-40.35-7.42-65.48c-17.43-24.54-44-38.13-44-38.13Z"/><path class="cls-2" d="M732.29,1298.15c21.57-20.45,45.93-59.31,84.22-77.68s83.91-6.58,83.91-6.58-18.16,29.21-62.93,49.84c-23.7,10.92-71,24.82-93.21,31.09Z"/><path class="cls-1" d="M900.42,1213.89s13.89,61.1-30.86,84.5c-52.46,27.43-137.27-.24-137.27-.24l12-3.33c22.19-6.27,69.51-20.17,93.21-31.09C882.26,1243.1,900.42,1213.89,900.42,1213.89Z"/><path class="cls-2" d="M393.61,919.44c22.89,1,57.45-6.41,88.15,4.92s48.64,42.88,48.64,42.88-25.89,5.63-61.31-8.07c-18.76-7.25-51.83-26-67.2-34.88Z"/><path class="cls-1" d="M530.4,967.24s-26.34,40.46-63.28,28.26c-43.32-14.31-73.51-76.06-73.51-76.06l8.28,4.85c15.37,8.91,48.44,27.63,67.2,34.88C504.51,972.87,530.4,967.24,530.4,967.24Z"/><path class="cls-2" d="M508.81,1123.64c23.22-9.25,54.35-32,90-34.4s67.57,21,67.57,21-23.28,17.15-64.67,19.3c-21.91,1.13-63.2-2.77-82.48-4.79Z"/><path class="cls-1" d="M666.36,1110.26s-8.2,52-50.44,56.36c-49.51,5.06-107.11-43-107.11-43l10.4,1.13c19.28,2,60.57,5.92,82.48,4.79C643.08,1127.41,666.36,1110.26,666.36,1110.26Z"/><path class="cls-2" d="M665.67,954c-6.25,20.42-23.45,48.52-23,79s22.61,56.07,22.61,56.07,13-21,11.93-56.41c-.56-18.74-6.76-53.62-9.82-69.9Z"/><path class="cls-1" d="M665.26,1089.06s43.75-10.61,44.48-46.87c.86-42.52-44.07-88.22-44.07-88.22l1.7,8.78c3.06,16.28,9.26,51.16,9.82,69.9C678.24,1068,665.26,1089.06,665.26,1089.06Z"/><path class="cls-2" d="M799.54,1157.88c-12.84-1.77-64.77-12.84-73.94-76.65-6-41.35,17.31-76.72,25.72-103.05l28,93.43c7.82,26,23.13,86.58,23.13,86.58Z"/><path class="cls-1" d="M760.13,983.75c16.12,10.79,49.56,36.21,59.23,66.93,16.76,53.17-8.79,95.61-15.44,105.39l-1.51,2.12s-15.31-60.55-23.13-86.58-28-93.43-28-93.43Z"/><path class="cls-2" d="M451.81,611.46c-3.67-9.16-12.95-43.23,25.79-73.38,25.11-19.55,54.27-22,74.86-26.34L501.23,565.5c-14.27,15-48.54,48-48.54,48Z"/><path class="cls-1" d="M552.11,519.67c-1.06,14.73-5.25,46.45-21.91,64.44-28.85,31.15-66.56,30.27-75.53,29.57l-2-.2s34.27-33,48.54-48,51.23-53.76,51.23-53.76Z"/><path class="cls-1" d="M449.6,787.13c-9,7.14-47.77,33.61-94.21.5-30.09-21.45-38.51-57.93-50.23-79.39L382,747.4c21.43,10.9,69.53,38.09,69.53,38.09Z"/><path class="cls-2" d="M314.11,706c16.75-3.72,53.44-9.6,79,3,44.26,21.76,55.81,64,58,74.25l.44,2.27S403.46,758.3,382,747.4s-76.87-39.16-76.87-39.16Z"/><path class="cls-1" d="M461.68,396.38c-8.57,1.22-43.95,3.61-61.52-35.69-11.39-25.47-2.93-52.44-2.35-70.89l35.06,54.88c9.79,15.29,30.71,51.38,30.71,51.38Z"/><path class="cls-2" d="M404.49,291.76c12.33,4,38.46,14.19,50.3,32.14,20.49,31.09,11.85,63,9.37,70.52l-.58,1.64S442.66,360,432.87,344.68s-35.06-54.88-35.06-54.88Z"/><path class="cls-2" d="M461.34,723.56c-5.88-7.73-15.95-43.07,5.12-77.29,16.42-26.66,46-34.11,64.37-43.65L496.24,667c-9.63,18-33.54,58.22-33.54,58.22Z"/><path class="cls-1" d="M532.57,610.24c2.84,14.26,7.15,45.46-4,66.89-19.25,37.1-55.27,46.11-64,47.79l-1.93.33S486.61,685,496.24,667s34.59-64.41,34.59-64.41Z"/><path class="cls-2" d="M587.58,1247.53s27.33-53.32,71-72.93c56-25.13,115.69-1,129.74,5.45l3.08,1.47s-41.93,9.27-86.9,23.08c-22.49,6.9-51.72,17.63-75.34,26.64Z"/><path class="cls-1" d="M786.9,1192.1c-9.1,19.3-32,59.21-69.62,69.63-50.16,13.89-129.7-14.2-129.7-14.2l41.61-16.29c23.62-9,52.85-19.74,75.34-26.64,45-13.81,86.9-23.08,86.9-23.08Z"/><path class="cls-2" d="M615.71,301.66s-28.21-18.27-54.93-15.58C526.52,289.53,504.26,318,499.23,325l-1.09,1.58s23-7.23,48.71-13.1c12.86-2.94,30.07-5.9,44.07-8.13Z"/><path class="cls-1" d="M503.31,330.48c9.82,6.84,32.12,19.83,53.32,14.37,28.28-7.28,59.08-43.19,59.08-43.19l-24.79,3.72c-14,2.23-31.21,5.19-44.07,8.13-25.73,5.87-48.71,13.1-48.71,13.1Z"/><path class="cls-2" d="M301.5,843.35s39.51-30.11,79.21-29.16c50.88,1.22,86.9,40.63,95.11,50.47l1.78,2.2s-34.68-8.06-73.26-13.81c-19.29-2.88-45-5.3-65.89-7Z"/><path class="cls-1" d="M470.43,873.16c-13.71,11.18-45.11,32.85-77,27.19-42.5-7.54-91.95-57-91.95-57l36.95,2.7c20.89,1.7,46.6,4.12,65.89,7,38.58,5.75,73.26,13.81,73.26,13.81Z"/><path class="cls-2" d="M582.15,433.24s-38.63-12.57-69-1.11C474.2,446.81,457,487,453.36,496.77l-.77,2.18s24.59-15.59,52.81-30.45c14.11-7.43,33.29-16.24,49-23.2Z"/><path class="cls-1" d="M459.82,501.87c13.6,4.93,43.69,13.17,66.76.2,30.76-17.3,55.57-68.83,55.57-68.83l-27.8,12.06c-15.66,7-34.84,15.77-49,23.2C477.18,483.36,452.59,499,452.59,499Z"/><path class="cls-2" d="M545.39,689.83s-41.31,19.12-57.54,51.7c-20.78,41.74-4.27,87.8.19,98.66l1,2.38s8.32-31.55,20.17-65.27c5.92-16.86,15-38.72,22.52-56.38Z"/><path class="cls-1" d="M497.23,839.46c14.93-6.32,45.92-22.49,55-50.73,12.08-37.66-6.82-98.9-6.82-98.9l-13.64,31.09c-7.56,17.66-16.6,39.52-22.52,56.38-11.85,33.72-20.17,65.27-20.17,65.27Z"/><path class="cls-2" d="M325.55,474.27S370.92,478,397.35,503c33.87,32.06,34.19,81,33.74,92.71l-.14,2.59S412.29,571.57,389.57,544c-11.35-13.79-27.36-31.22-40.52-45.2Z"/><path class="cls-1" d="M422.2,598.23c-16.19-.81-50.85-5.34-69.06-28.75-24.29-31.21-27.59-95.21-27.59-95.21l23.5,24.51c13.16,14,29.17,31.41,40.52,45.2C412.29,571.57,431,598.34,431,598.34Z"/><path class="cls-2" d="M622.37,841.82S581.23,871.76,570.52,911c-13.72,50.29,14.39,97.19,21.63,108.14l1.64,2.39s2.26-36.4,7.93-75.95c2.84-19.77,8-45.7,12.45-66.7Z"/><path class="cls-1" d="M602.07,1016.32c15-10.17,45.47-34.63,49.26-67.56,5.06-43.91-29-106.94-29-106.94l-8.2,37c-4.45,21-9.61,46.93-12.45,66.7-5.67,39.55-7.93,75.95-7.93,75.95Z"/><path class="cls-1" d="M1614.65,287.22c17.21,37.44,44.86,107,60.17,194.9,10.54,60.55,15.22,129.82,6.56,203.32-15.16,128.51-65.67,259.66-166.15,359.13-83.1,82.27-200.41,142.77-360,162.23a8.59,8.59,0,1,0,2.15,17c163.43-21.38,283.06-84.57,367.49-169.64,101.59-102.35,152.21-236.43,166.52-367.64,8.13-74.53,2.8-144.66-8.42-205.91-16.22-88.59-44.73-158.53-62.43-196.17a3.24,3.24,0,1,0-5.87,2.73Z"/><path class="cls-1" d="M1262.71,1000.93c-6.18,4.69-60.16,46.74-71.81,85.55-20.4,68,30.37,106,32.28,107.44,2.16-22.79,6.71-62.89,13.52-91.19C1243.46,1074.61,1255.55,1028.13,1262.71,1000.93Z"/><path class="cls-2" d="M1262.71,1000.93c-7.16,27.2-19.25,73.68-26,101.8-6.81,28.3-11.36,68.4-13.52,91.19l0,0s62.62-44.36,64-96.74c1.38-51.18-24-96.74-24-96.74Z"/><path class="cls-2" d="M1554.27,201.82c4.09.88,40,9.07,54.54,25.35,25.47,28.52,9.39,58.65,8.77,59.76-6.25-10.62-17.61-29.14-27.39-41.39S1564,213.46,1554.27,201.82Z"/><path class="cls-1" d="M1554.27,201.82c9.7,11.64,26.2,31.55,35.92,43.72s21.14,30.77,27.4,41.39l0,0s-40.66-7.34-53.3-32.57c-12.35-24.65-10.38-52.66-10.38-52.66Z"/><path class="cls-1" d="M1773,364.71c.7,5.93,6.24,58.35-9.06,85.56-26.81,47.67-75,39.85-76.83,39.53,11.48-13.38,31.28-37.33,43.34-56.24S1761.69,383.22,1773,364.71Z"/><path class="cls-2" d="M1773,364.71c-11.26,18.51-30.57,50.06-42.55,68.85s-31.86,42.87-43.34,56.25h0s-8.88-58.44,19.42-87.23c27.64-28.12,66.47-38.42,66.47-38.42Z"/><path class="cls-1" d="M1821.87,587.07c-1.26,6.36-13,62.25-37.91,85.19-43.56,40.2-90.67,16-92.41,15.11,16.3-10,44.72-28,63.46-43.52S1804.08,602.4,1821.87,587.07Z"/><path class="cls-2" d="M1821.87,587.07c-17.79,15.33-48.24,41.41-66.86,56.78s-47.16,33.56-63.47,43.52l0,0s10.36-63.22,49.14-83.45c37.89-19.76,81.36-17.41,81.36-17.41Z"/><path class="cls-1" d="M1574.22,801.18c-3,4.48-28.5,44.34-27.17,72.34,2.33,49.08,44.21,62.21,45.77,62.68-3.83-15.36-10.09-42.57-12.15-62.61S1575.81,820.57,1574.22,801.18Z"/><path class="cls-2" d="M1574.22,801.18c1.59,19.39,4.39,52.51,6.45,72.41s8.32,47.25,12.15,62.61l0,0s30.65-43.35,19.52-77.86c-10.87-33.71-37.9-57.61-37.9-57.61Z"/><path class="cls-1" d="M1540.15,360.15c2.25,4.29,22.53,41.9,45.22,53.1,39.77,19.63,68.46-7.68,69.52-8.71-13.81-3.7-38-10.66-54.75-17.8S1556.15,367.38,1540.15,360.15Z"/><path class="cls-2" d="M1540.15,360.14c16,7.24,43.37,19.51,60,26.6s40.94,14.1,54.75,17.8l0,0S1634.11,361.34,1602,355c-31.36-6.17-62.06,4.72-62.06,4.72Z"/><path class="cls-1" d="M1733,1038c-5.44,4.71-54,45.7-93.91,50.19-69.92,7.86-101-42-102.11-43.91,22.82,1.45,63.08,3.34,92,1.54C1657.66,1044.07,1705.2,1040.31,1733,1038Z"/><path class="cls-2" d="M1733,1038c-27.83,2.27-75.37,6-104.07,7.82-28.87,1.8-69.13-.09-92-1.54l0,0s52-48.19,104-41.76c50.8,6.29,92.6,35.11,92.6,35.11Z"/><path class="cls-1" d="M1692,220.28c.91,4.13,8.57,40.71-.24,62.62-15.45,38.39-50,40.53-51.24,40.6,7.12-11.41,19.34-31.72,26.47-47.17S1685.44,235.32,1692,220.28Z"/><path class="cls-2" d="M1692,220.27c-6.6,15-17.93,40.7-25,56.06s-19.35,35.76-26.47,47.17h0s-10.44-40.35,7.41-65.48c17.43-24.54,44-38.13,44-38.13Z"/><path class="cls-2" d="M1394.87,1298.15c-21.56-20.45-45.93-59.31-84.22-77.68s-83.9-6.58-83.9-6.58,18.15,29.21,62.92,49.84c23.7,10.92,71,24.82,93.21,31.09Z"/><path class="cls-1" d="M1226.75,1213.89s-13.9,61.1,30.85,84.5c52.46,27.43,137.27-.24,137.27-.24l-12-3.33c-22.18-6.27-69.51-20.17-93.21-31.09C1244.9,1243.1,1226.75,1213.89,1226.75,1213.89Z"/><path class="cls-2" d="M1733.55,919.44c-22.88,1-57.44-6.41-88.14,4.92s-48.65,42.88-48.65,42.88,25.89,5.63,61.32-8.07c18.75-7.25,51.83-26,67.2-34.88Z"/><path class="cls-1" d="M1596.76,967.24s26.35,40.46,63.29,28.26c43.31-14.31,73.5-76.06,73.5-76.06l-8.27,4.85c-15.37,8.91-48.45,27.63-67.2,34.88C1622.65,972.87,1596.76,967.24,1596.76,967.24Z"/><path class="cls-2" d="M1618.36,1123.64c-23.22-9.25-54.36-32-90-34.4s-67.57,21-67.57,21,23.28,17.15,64.67,19.3c21.91,1.13,63.2-2.77,82.48-4.79Z"/><path class="cls-1" d="M1460.8,1110.26s8.2,52,50.44,56.36c49.52,5.06,107.12-43,107.12-43l-10.41,1.13c-19.28,2-60.57,5.92-82.48,4.79C1484.08,1127.41,1460.8,1110.26,1460.8,1110.26Z"/><path class="cls-2" d="M1461.49,954c6.26,20.42,23.45,48.52,23,79s-22.61,56.07-22.61,56.07-13-21-11.92-56.41c.55-18.74,6.75-53.62,9.82-69.9Z"/><path class="cls-1" d="M1461.9,1089.06s-43.74-10.61-44.48-46.87c-.86-42.52,44.07-88.22,44.07-88.22l-1.69,8.78c-3.07,16.28-9.27,51.16-9.82,69.9C1448.92,1068,1461.9,1089.06,1461.9,1089.06Z"/><path class="cls-2" d="M1327.63,1157.88c12.83-1.77,64.76-12.84,73.94-76.65,5.94-41.35-17.32-76.72-25.72-103.05l-28,93.43c-7.82,26-23.12,86.58-23.12,86.58Z"/><path class="cls-1" d="M1367,983.75c-16.12,10.79-49.56,36.21-59.23,66.93-16.75,53.17,8.79,95.61,15.44,105.39l1.52,2.12s15.3-60.55,23.12-86.58,28-93.43,28-93.43Z"/><path class="cls-2" d="M1675.35,611.46c3.67-9.16,13-43.23-25.79-73.38-25.1-19.55-54.27-22-74.86-26.34l51.24,53.76c14.26,15,48.53,48,48.53,48Z"/><path class="cls-1" d="M1575.06,519.67c1,14.73,5.24,46.45,21.9,64.44,28.85,31.15,66.56,30.27,75.54,29.57l2-.2s-34.27-33-48.53-48-51.24-53.76-51.24-53.76Z"/><path class="cls-1" d="M1677.56,787.13c9,7.14,47.77,33.61,94.21.5,30.09-21.45,38.51-57.93,50.23-79.39l-76.86,39.16c-21.44,10.9-69.53,38.09-69.53,38.09Z"/><path class="cls-2" d="M1813.05,706c-16.75-3.72-53.44-9.6-79,3-44.26,21.76-55.81,64-58,74.25l-.43,2.27s48.09-27.19,69.53-38.09S1822,708.24,1822,708.24Z"/><path class="cls-1" d="M1665.49,396.38c8.56,1.22,43.94,3.61,61.52-35.69,11.38-25.47,2.92-52.44,2.34-70.89l-35.06,54.88c-9.79,15.29-30.71,51.38-30.71,51.38Z"/><path class="cls-2" d="M1722.67,291.76c-12.33,4-38.46,14.19-50.29,32.14-20.5,31.09-11.86,63-9.38,70.52l.58,1.64s20.92-36.09,30.71-51.38,35.06-54.88,35.06-54.88Z"/><path class="cls-2" d="M1665.82,723.56c5.88-7.73,16-43.07-5.12-77.29-16.42-26.66-46-34.11-64.37-43.65L1630.92,667c9.63,18,33.55,58.22,33.55,58.22Z"/><path class="cls-1" d="M1594.6,610.24c-2.85,14.26-7.15,45.46,4,66.89,19.25,37.1,55.27,46.11,64,47.79l1.93.33S1640.55,685,1630.92,667s-34.59-64.41-34.59-64.41Z"/><path class="cls-2" d="M1539.58,1247.53s-27.33-53.32-71-72.93c-56-25.13-115.69-1-129.74,5.45l-3.08,1.47s41.94,9.27,86.91,23.08c22.48,6.9,51.71,17.63,75.33,26.64Z"/><path class="cls-1" d="M1340.26,1192.1c9.1,19.3,32,59.21,69.62,69.63,50.16,13.89,129.7-14.2,129.7-14.2L1498,1231.24c-23.62-9-52.85-19.74-75.33-26.64-45-13.81-86.91-23.08-86.91-23.08Z"/><path class="cls-2" d="M1511.45,301.66s28.21-18.27,54.94-15.58c34.25,3.45,56.51,31.89,61.54,38.95l1.09,1.58s-23-7.23-48.7-13.1c-12.86-2.94-30.08-5.9-44.08-8.13Z"/><path class="cls-1" d="M1623.86,330.48c-9.83,6.84-32.12,19.83-53.33,14.37-28.27-7.28-59.08-43.19-59.08-43.19l24.79,3.72c14,2.23,31.22,5.19,44.08,8.13,25.72,5.87,48.7,13.1,48.7,13.1Z"/><path class="cls-2" d="M1825.66,843.35s-39.51-30.11-79.21-29.16c-50.88,1.22-86.9,40.63-95.11,50.47l-1.78,2.2s34.69-8.06,73.27-13.81c19.28-2.88,45-5.3,65.88-7Z"/><path class="cls-1" d="M1656.73,873.16c13.71,11.18,45.11,32.85,77,27.19,42.5-7.54,92-57,92-57l-37,2.7c-20.89,1.7-46.6,4.12-65.88,7-38.58,5.75-73.27,13.81-73.27,13.81Z"/><path class="cls-2" d="M1545,433.24s38.62-12.57,69-1.11c38.93,14.68,56.09,54.83,59.77,64.64l.78,2.18s-24.6-15.59-52.82-30.45c-14.1-7.43-33.29-16.24-49-23.2Z"/><path class="cls-1" d="M1667.34,501.87c-13.6,4.93-43.68,13.17-66.75.2-30.76-17.3-55.57-68.83-55.57-68.83l27.79,12.06c15.66,7,34.85,15.77,49,23.2C1650,483.36,1674.58,499,1674.58,499Z"/><path class="cls-2" d="M1581.78,689.83s41.31,19.12,57.53,51.7c20.78,41.74,4.27,87.8-.18,98.66l-1,2.38s-8.31-31.55-20.17-65.27c-5.92-16.86-15-38.72-22.52-56.38Z"/><path class="cls-1" d="M1629.93,839.46C1615,833.14,1584,817,1575,788.73c-12.08-37.66,6.83-98.9,6.83-98.9l13.63,31.09c7.56,17.66,16.6,39.52,22.52,56.38,11.86,33.72,20.17,65.27,20.17,65.27Z"/><path class="cls-2" d="M1801.61,474.27s-45.37,3.75-71.8,28.77c-33.87,32.06-34.19,81-33.74,92.71l.15,2.59s18.65-26.77,41.37-54.36c11.36-13.79,27.36-31.22,40.53-45.2Z"/><path class="cls-1" d="M1705,598.23c16.19-.81,50.85-5.34,69.07-28.75,24.28-31.21,27.58-95.21,27.58-95.21l-23.49,24.51c-13.17,14-29.17,31.41-40.53,45.2-22.72,27.59-41.37,54.36-41.37,54.36Z"/><path class="cls-2" d="M1504.8,841.82s41.14,29.94,51.84,69.17c13.73,50.29-14.39,97.19-21.63,108.14l-1.64,2.39s-2.26-36.4-7.93-75.95c-2.83-19.77-8-45.7-12.45-66.7Z"/><path class="cls-1" d="M1525.09,1016.32c-15-10.17-45.46-34.63-49.26-67.56-5.06-43.91,29-106.94,29-106.94l8.19,37c4.46,21,9.62,46.93,12.45,66.7,5.67,39.55,7.93,75.95,7.93,75.95Z"/></g><g id="Stand3"><rect class="cls-3" x="1358.24" y="1158.41" width="503.77" height="196.72"/><path class="cls-4" d="M1379.47,1221.27a4.72,4.72,0,0,1-4.72-4.72V1195a20.25,20.25,0,0,1,6-14.39,20.52,20.52,0,0,1,14.39-6h100.69a4.73,4.73,0,0,1,0,9.45H1395.1a10.91,10.91,0,0,0-10.9,10.9v21.52A4.72,4.72,0,0,1,1379.47,1221.27Z"/><path class="cls-4" d="M1379.47,1277.51a4.72,4.72,0,0,1-4.72-4.73v-27.4a4.73,4.73,0,1,1,9.45,0v27.4A4.73,4.73,0,0,1,1379.47,1277.51Z"/><circle class="cls-5" cx="1610.12" cy="1256.78" r="57.27" transform="translate(-417.08 1506.63) rotate(-45)"/><circle class="cls-6" cx="1610.12" cy="1256.78" r="47.34"/><path class="cls-7" d="M1588.87,1250.47a1.56,1.56,0,0,1,3,0l3.07,9.44a1.55,1.55,0,0,0,1.48,1.08h9.93a1.56,1.56,0,0,1,.92,2.83l-8,5.84a1.55,1.55,0,0,0-.57,1.74c.63,1.95,2,6.15,3.07,9.44a1.57,1.57,0,0,1-2.41,1.75l-8-5.84a1.58,1.58,0,0,0-1.83,0l-8,5.84a1.57,1.57,0,0,1-2.41-1.75c1.07-3.29,2.44-7.49,3.07-9.44a1.55,1.55,0,0,0-.57-1.74l-8-5.84a1.56,1.56,0,0,1,.92-2.83h9.92a1.56,1.56,0,0,0,1.49-1.08Z"/><path class="cls-7" d="M1628.2,1250.47a1.56,1.56,0,0,1,3,0c1.07,3.3,2.43,7.5,3.07,9.44a1.54,1.54,0,0,0,1.48,1.08h9.93a1.57,1.57,0,0,1,.92,2.83l-8,5.84a1.55,1.55,0,0,0-.57,1.74c.63,1.95,2,6.15,3.07,9.44a1.59,1.59,0,0,1-.57,1.75,1.56,1.56,0,0,1-1.84,0l-8-5.84a1.59,1.59,0,0,0-1.84,0l-8,5.84a1.55,1.55,0,0,1-1.83,0,1.56,1.56,0,0,1-.57-1.75c1.07-3.29,2.43-7.49,3.07-9.44a1.56,1.56,0,0,0-.57-1.74l-8-5.84a1.56,1.56,0,0,1,.92-2.83h9.92a1.56,1.56,0,0,0,1.49-1.08Z"/><path class="cls-7" d="M1608.63,1222.06a1.56,1.56,0,0,1,3,0c1.07,3.29,2.44,7.49,3.07,9.44a1.57,1.57,0,0,0,1.48,1.08h9.93a1.56,1.56,0,0,1,.92,2.82l-8,5.84a1.56,1.56,0,0,0-.57,1.75l3.07,9.44a1.56,1.56,0,0,1-2.41,1.74l-8-5.83a1.55,1.55,0,0,0-1.83,0l-8,5.83a1.56,1.56,0,0,1-2.4-1.74l3.07-9.44a1.56,1.56,0,0,0-.57-1.75l-8-5.84a1.56,1.56,0,0,1,.92-2.82h9.92a1.57,1.57,0,0,0,1.49-1.08C1606.19,1229.55,1607.56,1225.35,1608.63,1222.06Z"/><path class="cls-8" d="M1881.92,1146a12.38,12.38,0,0,0-12.38-12.38h-511.3v24.76h511.3a12.38,12.38,0,0,0,12.38-12.38Z"/></g><g id="Bronze_Trophy" data-name="Bronze Trophy"><path class="cls-7" d="M1467.09,1117.43c.94-26.72,86.53-32.34,150.83-75.45,64.71,48.62,149.89,48.79,150.83,75.45h0v16.22H1467.09v-16.22Z"/><path class="cls-9" d="M1746.1,1120.62H1489.74a2.49,2.49,0,0,1,0-5H1746.1a2.49,2.49,0,0,1,0,5Z"/><path class="cls-10" d="M1579,959s8.63,12.91,15.8,35.74c2.34,7.47,4.73,15.37,4.65,23.83s-2.74,16.32-5.14,23.83c-7.19,22.57-15.31,35.74-15.31,35.74,0,21.48,77.85,21.48,77.85,0,0,0-8.11-13.17-15.31-35.74-2.39-7.51-5-15.31-5.13-23.83s2.31-16.36,4.65-23.83c7.17-22.83,15.79-35.74,15.79-35.74a38.93,38.93,0,0,0-77.85,0Z"/><path class="cls-9" d="M1733.58,882.74a12.5,12.5,0,0,1-.93-25c55.53-4.2,89.94-33.23,92-77.65.68-14.33-2.84-25-10.74-32.47-17.22-16.39-49.73-13.44-50.06-13.41a12.5,12.5,0,0,1-2.51-24.88c1.78-.18,44.07-4.2,69.7,20.07,13.36,12.65,19.62,30.11,18.59,51.87-1.31,27.54-12.41,51.56-32.11,69.44-20.2,18.33-48.91,29.38-83,32Z"/><path class="cls-9" d="M1486.67,882.74l-1,0c-34.13-2.59-62.83-13.64-83-32-19.7-17.88-30.8-41.9-32.11-69.44-1-21.76,5.22-39.22,18.59-51.87,25.63-24.27,67.92-20.25,69.7-20.07a12.5,12.5,0,0,1-2.52,24.88c-.55,0-32.89-2.92-50,13.41-7.9,7.52-11.42,18.14-10.74,32.47,2.11,44.42,36.52,73.45,92,77.65a12.5,12.5,0,0,1-.93,25Z"/><path class="cls-7" d="M1453.24,738V677.22a15.63,15.63,0,0,1,15.63-15.62h296a15.64,15.64,0,0,1,15.63,15.62v61.59c-.3,132.75-73.5,240.37-163.63,240.37C1526.56,979.18,1453.24,871.12,1453.24,738Z"/><path class="cls-11" d="M1791.51,679.6a18,18,0,0,0-18-18H1460.23a18,18,0,0,0-18,18h0a18,18,0,0,0,18,18h313.28a18,18,0,0,0,18-18Z"/><path class="cls-9" d="M1764.28,684.1h-293a4.5,4.5,0,0,1,0-9h293a4.5,4.5,0,0,1,0,9Z"/><circle class="cls-12" cx="1616.87" cy="820.39" r="83.62" transform="translate(554.12 2289.36) rotate(-81.02)"/><path class="cls-9" d="M1616.87,917.92a97.53,97.53,0,1,1,97.53-97.53A97.64,97.64,0,0,1,1616.87,917.92Zm0-190.7A93.17,93.17,0,1,0,1710,820.39,93.27,93.27,0,0,0,1616.87,727.22Z"/><path class="cls-13" d="M1613.38,809.63a16.72,16.72,0,0,0,10.81-3.65c3.09-2.53,4.64-6,4.64-10.67a13,13,0,0,0-3.65-9.13c-2.39-2.53-5.76-3.79-9.83-3.79a19.05,19.05,0,0,0-6.88,1.12,13,13,0,0,0-4.36,3.09,30.38,30.38,0,0,0-2.94,4.92c-.85,2.1-1.83,3.93-2.53,5.75a4.49,4.49,0,0,1-2.53,2.25,9.18,9.18,0,0,1-4.07.84,7,7,0,0,1-5.06-2.24,7.75,7.75,0,0,1-2.24-5.9,16.33,16.33,0,0,1,2.1-7.58,27.59,27.59,0,0,1,6.32-7.45,30.84,30.84,0,0,1,10.39-5.75,42.15,42.15,0,0,1,13.76-2.11,36.75,36.75,0,0,1,12.08,1.83,27.38,27.38,0,0,1,9.55,5.19,22.87,22.87,0,0,1,6.18,8,24.36,24.36,0,0,1,2,9.68,22.59,22.59,0,0,1-2.95,11.8,40.66,40.66,0,0,1-8.56,9.55,34.56,34.56,0,0,1,9,6.6,24.28,24.28,0,0,1,5.61,8.14,26.9,26.9,0,0,1,1.83,9.69,30,30,0,0,1-2.53,12.08,31,31,0,0,1-7.3,10.39,35.3,35.3,0,0,1-11.66,7.16,41.19,41.19,0,0,1-14.74,2.53,35.5,35.5,0,0,1-14.74-3,33.39,33.39,0,0,1-10.68-7.3,34.46,34.46,0,0,1-6.46-9.13,20.63,20.63,0,0,1-2.1-7.86,8.65,8.65,0,0,1,2.53-6.46,9.37,9.37,0,0,1,6.46-2.39,7,7,0,0,1,3.65,1.12,5.41,5.41,0,0,1,2.38,2.67c2.39,6.32,4.92,11.09,7.59,14.18s6.6,4.64,11.51,4.64a16.77,16.77,0,0,0,8.14-2.11,17.29,17.29,0,0,0,6.6-6.18,17.93,17.93,0,0,0,2.53-9.55c0-5.33-1.4-9.54-4.35-12.63s-7-4.5-12.22-4.5c-1,0-2.38.14-4.21.28s-3.23.28-3.79.28a7.93,7.93,0,0,1-5.76-2,6.39,6.39,0,0,1-2.1-5.2,6.52,6.52,0,0,1,2.52-5.33c1.55-1.27,4.07-2,7.3-2Z"/><path class="cls-12" d="M1503.86,862.18a6.55,6.55,0,0,1-6-4c-28.55-67.18-25.58-130.82-25.43-133.5a6.54,6.54,0,0,1,13.07.69h0c0,.62-2.91,63.4,24.41,127.69a6.56,6.56,0,0,1-6,9.11Z"/><path class="cls-12" d="M1533.26,913.92a6.53,6.53,0,0,1-5.26-2.64,249.49,249.49,0,0,1-18.8-29.51,6.54,6.54,0,1,1,11.5-6.25,236.62,236.62,0,0,0,17.8,28,6.54,6.54,0,0,1-5.24,10.45Z"/></g><g id="Stand2"><rect class="cls-3" x="264.82" y="1105.69" width="503.77" height="249.45"/><path class="cls-4" d="M297.53,1186.52a4.72,4.72,0,0,1-4.72-4.73v-32.52a20.22,20.22,0,0,1,6-14.39,20.48,20.48,0,0,1,14.39-6H413.85a4.73,4.73,0,0,1,0,9.45H313.16a10.89,10.89,0,0,0-10.9,10.9v32.52A4.73,4.73,0,0,1,297.53,1186.52Z"/><path class="cls-4" d="M297.53,1245a4.72,4.72,0,0,1-4.72-4.73v-27.4a4.73,4.73,0,1,1,9.45,0v27.4A4.73,4.73,0,0,1,297.53,1245Z"/><circle class="cls-14" cx="516.7" cy="1230.41" r="84.14" transform="translate(-718.69 725.74) rotate(-45)"/><circle class="cls-15" cx="516.7" cy="1230.41" r="69.55"/><path class="cls-16" d="M483.06,1202.3a1.57,1.57,0,0,1,3,0c1.9,5.86,5.08,15.66,6.14,18.9a1.56,1.56,0,0,0,1.49,1.08h19.87a1.56,1.56,0,0,1,.92,2.83l-16.08,11.68a1.57,1.57,0,0,0-.57,1.75c1.06,3.25,4.24,13,6.15,18.91a1.57,1.57,0,0,1-2.41,1.75l-16.08-11.69a1.56,1.56,0,0,0-1.84,0l-16.08,11.69a1.57,1.57,0,0,1-2.41-1.75c1.91-5.86,5.09-15.66,6.15-18.91a1.57,1.57,0,0,0-.57-1.75l-16.08-11.68a1.56,1.56,0,0,1,.91-2.83h19.88a1.56,1.56,0,0,0,1.49-1.08C478,1218,481.16,1208.16,483.06,1202.3Z"/><path class="cls-16" d="M547.06,1202.3a1.56,1.56,0,0,1,3,0c1.9,5.86,5.09,15.66,6.14,18.9a1.56,1.56,0,0,0,1.49,1.08h19.88a1.57,1.57,0,0,1,.92,2.83l-16.09,11.68a1.58,1.58,0,0,0-.57,1.75c1.06,3.25,4.24,13,6.15,18.91a1.57,1.57,0,0,1-.57,1.75,1.59,1.59,0,0,1-1.84,0l-16.08-11.69a1.56,1.56,0,0,0-1.84,0l-16.08,11.69a1.59,1.59,0,0,1-1.84,0,1.58,1.58,0,0,1-.56-1.75c1.9-5.86,5.09-15.66,6.14-18.91a1.57,1.57,0,0,0-.57-1.75l-16.08-11.68a1.56,1.56,0,0,1,.92-2.83h19.88a1.55,1.55,0,0,0,1.48-1.08C542,1218,545.15,1208.16,547.06,1202.3Z"/><path class="cls-8" d="M244.91,1093.3a12.39,12.39,0,0,1,12.38-12.38h511.3v24.77H257.29a12.39,12.39,0,0,1-12.38-12.38Z"/></g><g id="SilverTrophy"><path class="cls-17" d="M373.67,1064.7c.94-26.71,86.53-32.33,150.83-75.45,64.71,48.62,149.89,48.8,150.83,75.45h0v16.22H373.66V1064.7Z"/><path class="cls-18" d="M652.68,1067.89H396.32a2.49,2.49,0,1,1,0-5H652.68a2.49,2.49,0,1,1,0,5Z"/><path class="cls-16" d="M485.57,906.23s8.63,12.92,15.8,35.75c2.34,7.46,4.73,15.37,4.65,23.83s-2.75,16.31-5.14,23.82c-7.19,22.58-15.31,35.74-15.31,35.74,0,21.49,77.85,21.49,77.85,0,0,0-8.12-13.16-15.31-35.74-2.39-7.51-5.05-15.3-5.13-23.82s2.3-16.37,4.65-23.83c7.17-22.83,15.79-35.75,15.79-35.75a38.93,38.93,0,0,0-77.85,0Z"/><path class="cls-18" d="M640.16,830a12.5,12.5,0,0,1-.93-25c55.53-4.21,89.94-33.24,92-77.66.69-14.36-2.85-25-10.8-32.53-17.11-16.2-49.64-13.38-50-13.35A12.5,12.5,0,1,1,668,656.64c1.78-.19,44.07-4.2,69.7,20.06,13.36,12.66,19.62,30.11,18.58,51.87-1.3,27.55-12.41,51.56-32.11,69.44-20.19,18.33-48.9,29.39-83,32C640.8,830,640.48,830,640.16,830Z"/><path class="cls-18" d="M393.24,830c-.31,0-.63,0-.95,0-34.13-2.58-62.84-13.64-83-32-19.7-17.88-30.8-41.89-32.11-69.44-1-21.76,5.22-39.21,18.59-51.87,25.62-24.26,67.91-20.25,69.7-20.06a12.5,12.5,0,0,1-2.51,24.88h0c-.33,0-32.84-3-50.06,13.4-7.91,7.52-11.42,18.14-10.74,32.47,2.11,44.42,36.51,73.45,92,77.66a12.5,12.5,0,0,1-.93,25Z"/><path class="cls-17" d="M359.82,685.31V624.5a15.63,15.63,0,0,1,15.63-15.63h296a15.62,15.62,0,0,1,15.62,15.63v61.59c-.29,132.74-73.5,240.36-163.62,240.36C433.14,926.45,359.82,818.4,359.82,685.31Z"/><path class="cls-19" d="M698.09,626.87a18,18,0,0,0-18-18H366.81a18,18,0,0,0-18,18h0a18,18,0,0,0,18,18H680.09a18,18,0,0,0,18-18Z"/><path class="cls-18" d="M670.86,631.37h-293a4.5,4.5,0,0,1,0-9H670.86a4.5,4.5,0,0,1,0,9Z"/><circle class="cls-20" cx="523.45" cy="767.66" r="83.62"/><path class="cls-18" d="M523.45,865.19A97.53,97.53,0,1,1,621,767.66,97.64,97.64,0,0,1,523.45,865.19Zm0-190.7a93.17,93.17,0,1,0,93.16,93.17A93.27,93.27,0,0,0,523.45,674.49Z"/><path class="cls-21" d="M511.66,802.88H548c3.57,0,6.42.71,8.27,2.14a8.12,8.12,0,0,1,.57,11.84c-1.42,1.57-3.7,2.42-6.84,2.42h-51.2c-3.56,0-6.27-1-8.13-2.85a9.45,9.45,0,0,1-3-6.85c0-1.71.71-3.85,1.85-6.7a26.39,26.39,0,0,1,4.14-6.42c6.13-6.41,11.84-12,16.68-16.54a109,109,0,0,1,10.7-9,62.64,62.64,0,0,0,9.55-8.13,33,33,0,0,0,5.71-8.27,18.76,18.76,0,0,0,2-8.42,14.91,14.91,0,0,0-2.14-8,13.85,13.85,0,0,0-5.71-5.42,15.4,15.4,0,0,0-8-2c-6.14,0-10.84,2.71-14.41,8a46.8,46.8,0,0,0-2.28,5.7c-1.14,3.14-2.28,5.56-3.71,7.13a7.36,7.36,0,0,1-6,2.57,7.72,7.72,0,0,1-5.84-2.28,9.13,9.13,0,0,1-2.29-6.28,25.78,25.78,0,0,1,2.14-10,28.23,28.23,0,0,1,6.42-9.55,31.19,31.19,0,0,1,11-6.85,41.47,41.47,0,0,1,15.4-2.57A45.64,45.64,0,0,1,541,719.88a28.4,28.4,0,0,1,8.56,6.14,27.14,27.14,0,0,1,5.85,9,30.34,30.34,0,0,1,2,10.69,29.79,29.79,0,0,1-4.27,15.69,54.21,54.21,0,0,1-8.7,11.13c-3,2.56-8,6.84-15,12.54s-11.83,10.13-14.4,13.27A31.62,31.62,0,0,0,511.66,802.88Z"/><path class="cls-20" d="M410.44,809.45a6.55,6.55,0,0,1-6-4C375.86,738.28,378.83,674.64,379,672a6.55,6.55,0,0,1,13.08.68h0c0,.63-2.92,63.41,24.41,127.69a6.55,6.55,0,0,1-6,9.11Z"/><path class="cls-20" d="M439.83,861.19a6.54,6.54,0,0,1-5.26-2.64A248.61,248.61,0,0,1,415.78,829a6.54,6.54,0,0,1,11.5-6.25,235.8,235.8,0,0,0,17.8,28,6.54,6.54,0,0,1-5.25,10.45Z"/></g><g id="Stand1"><rect class="cls-22" x="767.35" y="954.81" width="589.66" height="400.33"/><path class="cls-4" d="M806.23,1053.45a4.73,4.73,0,0,1-4.73-4.73v-48.48a20.37,20.37,0,0,1,20.35-20.35H960.44a4.72,4.72,0,1,1,0,9.44H821.85a10.91,10.91,0,0,0-10.9,10.91v48.48A4.72,4.72,0,0,1,806.23,1053.45Z"/><path class="cls-4" d="M806.23,1121.72a4.73,4.73,0,0,1-4.73-4.73v-39a4.73,4.73,0,0,1,9.45,0v39A4.72,4.72,0,0,1,806.23,1121.72Z"/><circle class="cls-23" cx="1062.18" cy="1151.51" r="136.15" transform="translate(-503.14 1088.34) rotate(-45)"/><circle class="cls-24" cx="1062.18" cy="1151.51" r="112.54"/><path class="cls-25" d="M1059.21,1084.25a3.12,3.12,0,0,1,5.94,0c4.47,13.75,12.64,38.92,15.08,46.41a3.13,3.13,0,0,0,3,2.16H1132a3.12,3.12,0,0,1,1.83,5.65l-39.47,28.68a3.13,3.13,0,0,0-1.14,3.5c2.44,7.49,10.61,32.66,15.08,46.41a3.13,3.13,0,0,1-4.81,3.49L1064,1191.87a3.11,3.11,0,0,0-3.67,0l-39.48,28.68a3.11,3.11,0,0,1-3.67,0,3.15,3.15,0,0,1-1.14-3.49c4.47-13.75,12.65-38.92,15.08-46.41a3.14,3.14,0,0,0-1.13-3.5l-39.48-28.68a3.13,3.13,0,0,1,1.84-5.65h48.79a3.11,3.11,0,0,0,3-2.16C1046.56,1123.17,1054.74,1098,1059.21,1084.25Z"/><path class="cls-26" d="M750.19,942.43a12.38,12.38,0,0,1,12.38-12.38h604.16a12.38,12.38,0,0,1,12.38,12.38h0a12.38,12.38,0,0,1-12.38,12.38H762.57a12.38,12.38,0,0,1-12.38-12.38Z"/></g><g id="Gold_Trophy" data-name="Gold Trophy"><path class="cls-25" d="M884.27,910.51c1.14-32.17,104.21-38.94,181.65-90.86,77.93,58.55,180.51,58.76,181.64,90.86h0v19.54H884.26V910.51Z"/><path class="cls-27" d="M1220.28,913.85H911.55a2.49,2.49,0,0,1,0-5h308.73a2.49,2.49,0,1,1,0,5Z"/><path class="cls-28" d="M1019,719.67s10.38,15.55,19,43.05c2.82,9,5.7,18.51,5.6,28.69s-3.3,19.65-6.18,28.7c-8.67,27.18-18.44,43-18.44,43,0,25.87,93.75,25.87,93.75,0,0,0-9.77-15.86-18.43-43-2.89-9.05-6.09-18.43-6.19-28.7s2.78-19.71,5.6-28.69c8.64-27.5,19-43.05,19-43.05a46.88,46.88,0,0,0-93.75,0Z"/><path class="cls-28" d="M883.38,522.17c-105.65-7.33-151.09-38.9-171.37-84.75s-21.23-112.33-6.94-112.78c8.09.14,21.87.58,28.82,0,16.49-.07,3,12.26,26.69,52.18,34.65,58.39,102.91,65.26,102.91,65.26V392s-58.93,11.26-84.3-36-9.72-67.23-26.21-66.84c-23,.55-59,.4-77.66,0-21.49-.46-13.35,93.66,6.94,149.46S777.8,565.88,883.38,575C883.68,565.18,883.42,532.83,883.38,522.17Z"/><path class="cls-28" d="M1245.92,522.17c105.65-7.33,151.09-38.9,171.37-84.75s21.23-112.33,6.94-112.78c-8.09.14-21.87.58-28.82,0-16.49-.07-3,12.26-26.69,52.18-34.65,58.39-102.91,65.26-102.91,65.26V392s58.93,11.26,84.3-36,9.72-67.23,26.21-66.84c23,.55,59,.4,77.66,0,21.49-.46,13.35,93.66-6.94,149.46S1351.5,565.88,1245.92,575C1245.62,565.18,1245.88,532.83,1245.92,522.17Z"/><path class="cls-25" d="M830.27,398.61V336a46.89,46.89,0,0,1,46.88-46.87h375A46.88,46.88,0,0,1,1299,336v63.73C1298.61,589.86,1193.75,744,1064.65,744,935.3,744,830.27,589.24,830.27,398.61Z"/><path class="cls-29" d="M1314.8,314.91A25.78,25.78,0,0,0,1289,289.13H840.28a25.78,25.78,0,0,0-25.78,25.78h0a25.78,25.78,0,0,0,25.78,25.78H1289a25.78,25.78,0,0,0,25.78-25.78Z"/><path class="cls-23" d="M1275.8,319.41H856.05a4.5,4.5,0,0,1,0-9H1275.8a4.5,4.5,0,0,1,0,9Z"/><circle class="cls-30" cx="1064.65" cy="516.57" r="119.78" transform="translate(-53.44 904.12) rotate(-45)"/><path class="cls-27" d="M1064.65,656.27c-77,0-139.7-62.67-139.7-139.7s62.67-139.7,139.7-139.7,139.7,62.67,139.7,139.7S1141.68,656.27,1064.65,656.27Zm0-273.15c-73.59,0-133.45,59.87-133.45,133.45S991.06,650,1064.65,650s133.45-59.86,133.45-133.45S1138.24,383.12,1064.65,383.12Z"/><path class="cls-31" d="M1082.49,563.7h19.43q7.89,0,11.93,3.64a12.38,12.38,0,0,1,4,9.67q0,13-18.3,13.48v0h-61.46v0q-18.32-.5-18.31-13.48a12.41,12.41,0,0,1,4-9.67q4-3.65,11.93-3.64h19.88V484.83q-25,19.21-33.71,19.22a10,10,0,0,1-7.35-3.3,10.67,10.67,0,0,1-3.2-7.64q0-5,3.15-7.4a71.3,71.3,0,0,1,11.14-6.11,83.15,83.15,0,0,0,19.08-11.83,80.35,80.35,0,0,0,12.67-13.9q5.52-7.68,7.2-9.46t6.3-1.78a10.1,10.1,0,0,1,8.38,4q3.17,4.05,3.16,11.14Z"/><path class="cls-30" d="M902.78,576.43a9.39,9.39,0,0,1-8.64-5.71c-40.9-96.23-36.63-187.38-36.43-191.22a9.37,9.37,0,1,1,18.72,1c0,1.12-4.12,90.93,35,182.9a9.38,9.38,0,0,1-8.62,13Z"/><path class="cls-30" d="M944.88,650.55a9.36,9.36,0,0,1-7.53-3.79,357.62,357.62,0,0,1-26.93-42.27,9.38,9.38,0,0,1,16.48-9,337.16,337.16,0,0,0,25.5,40,9.37,9.37,0,0,1-7.52,15Z"/></g><g id="Blink"><path class="cls-29" d="M973.78,113.54c3.4,40.18,18.33,65.39,43,77.89-25.71,12.67-38.49,40.47-43,77.89-3.89-34.47-15.88-62.35-43-77.89C952.46,177.54,967,151.91,973.78,113.54Z"/><path class="cls-29" d="M288.38,535.05c2.76,32.59,14.87,53,34.9,63.16-20.85,10.28-31.21,32.82-34.9,63.16-3.15-28-12.87-50.56-34.9-63.16C271.1,587,282.9,566.17,288.38,535.05Z"/><path class="cls-28" d="M1071.49,113.54c2.55,30.19,13.77,49.13,32.34,58.52-19.32,9.52-28.92,30.41-32.34,58.52-2.92-25.9-11.93-46.85-32.35-58.52C1055.47,161.62,1066.41,142.37,1071.49,113.54Z"/><path class="cls-28" d="M1842.12,580.16c2.56,30.19,13.77,49.13,32.34,58.52-19.32,9.52-28.92,30.41-32.34,58.52-2.92-25.9-11.92-46.85-32.34-58.52C1826.11,628.25,1837,609,1842.12,580.16Z"/><path class="cls-28" d="M809.24,716.57c2.56,30.2,13.77,49.13,32.34,58.52-19.32,9.53-28.92,30.41-32.34,58.53-2.92-25.91-11.92-46.85-32.34-58.53C793.23,764.66,804.16,745.4,809.24,716.57Z"/><path class="cls-29" d="M1169.19,0c4.25,50.18,22.89,81.66,53.75,97.26-32.11,15.83-48.06,50.54-53.75,97.26-4.85-43-19.82-77.86-53.75-97.26C1142.58,79.92,1160.75,47.92,1169.19,0Z"/><path class="cls-29" d="M1766.74,482.9c3.4,40.18,18.33,65.39,43,77.89-25.71,12.67-38.49,40.47-43,77.89-3.89-34.47-15.87-62.35-43-77.89C1745.42,546.9,1760,521.27,1766.74,482.9Z"/><path class="cls-29" d="M1357.71,560.79c3.4,40.19,18.33,65.39,43,77.89-25.71,12.67-38.49,40.47-43,77.89-3.89-34.47-15.87-62.35-43-77.89C1336.39,624.79,1351,599.16,1357.71,560.79Z"/></g></g></svg>