<svg width="63" height="59" viewBox="0 0 63 59" fill="none" xmlns="http://www.w3.org/2000/svg">
<path d="M61.9838 26.4486H54.8709C55.3381 26.4486 55.7459 26.1293 55.8575 25.6734C55.9691 25.2175 55.7559 24.7456 55.3404 24.529L41.0403 17.0606C41.4367 16.5043 41.6613 15.9007 41.6613 15.2591V10.4962L43.6935 9.73332V11.4726C43.0889 11.8255 42.6774 12.4744 42.6774 13.2241C42.6774 13.9739 43.0889 14.6228 43.6935 14.9756V17.2935H45.7258V14.9761C46.3305 14.6232 46.7419 13.9743 46.7419 13.2246C46.7419 12.4749 46.3305 11.8259 45.7258 11.4731V8.97092L48.1146 8.07358C48.511 7.92508 48.7741 7.54543 48.7741 7.12129C48.7741 6.69714 48.511 6.31749 48.1146 6.16809L31.8565 0.0647124C31.6261 -0.0215708 31.3729 -0.0215708 31.1434 0.0647124L14.8853 6.16809C14.4889 6.3175 14.2258 6.69714 14.2258 7.12129C14.2258 7.54543 14.4889 7.92508 14.8853 8.07448L21.3386 10.4963V15.2591C21.3386 15.9008 21.5632 16.5044 21.9597 17.0606L7.65952 24.5291C7.244 24.7457 7.03034 25.2189 7.14239 25.6735C7.25398 26.128 7.6618 26.4487 8.12903 26.4487H1.01613C0.455446 26.4487 0 26.9046 0 27.4659V31.5348C0 32.0961 0.455446 32.552 1.01613 32.552H3.04839V52.8966C2.4877 52.8966 2.03226 53.3526 2.03226 53.9139V57.9828C2.03226 58.5441 2.4877 59 3.04839 59H59.9516C60.5123 59 60.9677 58.5441 60.9677 57.9828V53.9139C60.9677 53.3526 60.5123 52.8966 59.9516 52.8966V32.552H61.9839C62.5446 32.552 63 32.0961 63 31.5348V27.4659C63 26.9046 62.5445 26.4486 61.9838 26.4486ZM48.7741 52.8966V30.5175H50.8064V52.8966H48.7741ZM29.4676 46.7932H33.5322V52.8966H29.4676V46.7932ZM29.4676 44.7587C29.4676 43.6366 30.379 42.7243 31.4999 42.7243C32.6208 42.7243 33.5322 43.6366 33.5322 44.7587H29.4676ZM31.4999 40.6898C29.2585 40.6898 27.4354 42.5149 27.4354 44.7587V52.8966H25.4031V30.5175H37.5967V52.8966H35.5644V44.7587C35.5644 42.5149 33.7413 40.6898 31.4999 40.6898ZM31.4999 20.3452C34.776 20.3452 37.5958 19.6454 39.4276 18.5133L50.7261 24.4141H12.2735L23.5729 18.5133C25.4038 19.6454 28.2238 20.3452 31.4999 20.3452ZM11.1773 28.4831V26.4486H51.8225V28.4831H11.1773ZM12.1935 30.5175H14.2257V52.8966H12.1935V30.5175ZM16.258 30.5175H19.3064V52.8966H16.258V30.5175ZM21.3386 30.5175H23.3709V52.8966H21.3386V30.5175ZM39.6289 30.5175H41.6612V52.8966H39.6289V30.5175ZM43.6935 30.5175H46.7418V52.8966H43.6935V30.5175ZM31.4999 2.10367L44.864 7.12076L31.4999 12.1379L18.1358 7.12076L31.4999 2.10367ZM31.1434 14.1779C31.2581 14.2206 31.3788 14.2419 31.4999 14.2419C31.621 14.2419 31.7417 14.2206 31.8565 14.1779L39.629 11.2593V15.2592C39.629 16.5035 36.4618 18.3109 31.4999 18.3109C26.5381 18.3109 23.3709 16.5035 23.3709 15.2592V11.2593L31.1434 14.1779ZM2.03213 28.4831H9.14503V29.5003C9.14503 30.0607 9.59912 30.5157 10.1594 30.5175H2.03218L2.03213 28.4831ZM5.08052 32.552H10.1612V52.8966H5.08052V32.552ZM58.9354 56.9655H4.06439V54.931H58.9354V56.9655ZM57.9192 52.8966H52.8386V32.552H57.9192V52.8966ZM60.9676 30.5175H52.8404C53.4007 30.5157 53.8548 30.0607 53.8548 29.5003V28.4831H60.9677L60.9676 30.5175Z" fill="black"/>
</svg>
