<svg width="48" height="48" viewBox="0 0 48 48" fill="none" xmlns="http://www.w3.org/2000/svg">
<path d="M3.23874 36.0175C7.39737 43.1744 15.1427 48 24.0001 48C32.829 48 40.5541 43.2045 44.7222 36.0851C44.7685 36.0349 44.8014 35.9753 44.8236 35.909C46.8402 32.3967 48 28.332 48 24C48 19.668 46.8402 15.6029 44.8236 12.091C44.8014 12.0248 44.7685 11.9651 44.7222 11.9149C40.554 4.79555 32.8291 0 24.0001 0C15.1432 0 7.39805 4.82612 3.23874 11.9825C3.2196 12.012 3.19932 12.0395 3.18708 12.0724C1.16365 15.589 0 19.6598 0 24.0001C0 28.3404 1.16365 32.4109 3.18669 35.9268C3.19931 35.9601 3.21959 35.9876 3.23873 36.0171L3.23874 36.0175ZM28.0261 46.6609C30.7644 44.7862 33.0622 41.0587 34.5255 36.2447H43.4795C40.0835 41.628 34.5221 45.5093 28.0265 46.6609H28.0261ZM44.0639 35.2651H34.8076C35.6866 32.0393 36.1981 28.3762 36.238 24.4895H47.0076C46.9257 28.3968 45.8672 32.0662 44.0642 35.2651H44.0639ZM47.0077 23.5099H36.2381C36.1979 19.6232 35.6863 15.9601 34.8077 12.7342H44.064C45.867 15.9332 46.9255 19.6025 47.0078 23.5099H47.0077ZM43.4792 11.7546H34.5252C33.0619 6.94077 30.7641 3.21338 28.0259 1.33851C34.5217 2.48994 40.0836 6.37123 43.4788 11.7546H43.4792ZM24.489 1.00447C28.2955 1.3393 31.6166 5.55238 33.5317 11.7546H24.489V1.00447ZM24.489 12.7342H33.8179C34.7003 15.9332 35.2181 19.6025 35.2586 23.5099H24.4891L24.489 12.7342ZM24.489 24.4895H35.2585C35.2183 28.3968 34.7006 32.0662 33.8178 35.2651H24.4893L24.489 24.4895ZM24.489 36.2447H33.5317C31.6165 42.4472 28.2955 46.6599 24.489 46.9949V36.2447ZM4.51915 36.2447H13.4731C14.9364 41.0586 17.2343 44.786 19.9725 46.6609C13.4767 45.5095 7.91478 41.6282 4.51954 36.2447H4.51915ZM23.5094 46.9949C19.7028 46.6601 16.3817 42.447 14.4666 36.2447H23.5094V46.9949ZM23.5094 35.2651H14.1804C13.298 32.0662 12.7803 28.3968 12.7397 24.4895H23.5093L23.5094 35.2651ZM23.5094 23.5099H12.7398C12.78 19.6025 13.2977 15.9332 14.1805 12.7342H23.5091L23.5094 23.5099ZM23.5094 11.7546H14.4666C16.3818 5.55218 19.7028 1.33949 23.5094 1.00447V11.7546ZM19.9729 1.33851C17.2347 3.21318 14.9368 6.94067 13.4735 11.7546H4.51954C7.91557 6.37142 13.477 2.49013 19.9725 1.33851H19.9729ZM3.93512 12.7342H13.1914C12.3125 15.9601 11.8009 19.6232 11.761 23.5099H0.991472C1.07374 19.6025 2.1321 15.9332 3.93512 12.7342ZM11.7611 24.4895C11.8013 28.3762 12.3129 32.0393 13.1915 35.2651H3.93522C2.1322 32.0662 1.07376 28.3968 0.991472 24.4895H11.7611Z" fill="black"/>
</svg>
