<svg width="50" height="49" viewBox="0 0 50 49" fill="none" xmlns="http://www.w3.org/2000/svg">
<path d="M4.74564 24.7114C4.74802 34.5188 12.035 42.8695 21.9323 44.4063V30.473H16.7642V24.7114H21.9384V20.3255C21.707 18.2473 22.4324 16.176 23.9176 14.6735C25.4028 13.171 27.494 12.393 29.6242 12.5504C31.153 12.5746 32.6779 12.7079 34.1872 12.9492V17.8515H31.6123C30.7258 17.7378 29.8346 18.0244 29.1897 18.6303C28.5447 19.2363 28.216 20.096 28.296 20.9674V24.7114H33.9407L33.0383 30.475H28.296V44.4063C38.9995 42.7508 46.5052 33.1839 45.3756 22.6363C44.2459 12.0887 34.8761 4.25287 24.0545 4.8056C13.2327 5.35833 4.74737 14.1061 4.74564 24.7114Z" fill="#004DE2"/>
</svg>
