<svg width="44" height="43" viewBox="0 0 44 43" fill="none" xmlns="http://www.w3.org/2000/svg">
<path d="M24.1113 43H14.5557V14.3333H24.1113V19.1111C26.148 16.5198 29.2369 14.9749 32.5321 14.8995C38.458 14.9324 43.2396 19.7547 43.2224 25.6806V43H33.6668V26.875C33.2846 24.2057 30.9956 22.2253 28.299 22.231C27.1196 22.2683 26.0061 22.7847 25.2159 23.661C24.4257 24.5375 24.0267 25.698 24.1113 26.875V43ZM9.77796 43H0.222412V14.3333H9.77796V43ZM5.00019 9.55556C2.36149 9.55556 0.222412 7.41647 0.222412 4.77778C0.222412 2.13908 2.36149 0 5.00019 0C7.63888 0 9.77796 2.13908 9.77796 4.77778C9.77796 6.04492 9.2746 7.26017 8.37857 8.15617C7.48257 9.05219 6.26732 9.55556 5.00019 9.55556Z" fill="#005B8C"/>
</svg>
