<svg width="71" height="46" viewBox="0 0 71 46" fill="none" xmlns="http://www.w3.org/2000/svg">
<path d="M65.6742 1.00092C66.0048 1.00092 66.3254 1.03659 66.6325 1.10429L37.3953 26.531C37.3952 26.531 37.3952 26.531 37.3951 26.5311C36.7442 27.0969 36.0825 27.3348 35.471 27.3348C34.8597 27.3348 34.1988 27.097 33.5493 26.5315L33.5492 26.5313L4.34805 1.11554C4.63457 1.04674 4.93154 1.00729 5.23712 1.00092H5.32476H65.6742ZM70 5.52304V40.692C70 43.0776 68.0754 45 65.6747 45H5.32527C2.924 45 1 43.077 1 40.692V5.52463L29.9062 30.6927C33.1015 33.4749 37.8317 33.5068 41.0367 30.7204L41.037 30.7202L70 5.52304Z" stroke="black" stroke-width="2"/>
</svg>
