<svg width="51" height="63" viewBox="0 0 51 63" fill="none" xmlns="http://www.w3.org/2000/svg">
<path d="M20.5322 52.7405C18.1038 49.3071 14.9882 44.6472 11.8089 39.5453L14.9925 39.0054L25.307 43.2932L25.4993 43.3732L25.6916 43.2929L35.9593 39.0062L39.1874 39.5501C36.0094 44.6505 32.8951 49.3086 30.4675 52.7409C29.2093 54.5197 28.1386 55.965 27.3408 56.9706C26.941 57.4745 26.6153 57.8609 26.3719 58.1219C26.2493 58.2533 26.1557 58.3442 26.0893 58.4004C26.0771 58.4108 26.0669 58.4191 26.0586 58.4255L25.564 58.5127L25.564 58.5126L25.5572 58.5139C25.5384 58.5175 25.5207 58.5192 25.4996 58.5192C25.4776 58.5192 25.4596 58.5173 25.4437 58.5142L25.4437 58.5142L25.4352 58.5127L24.9408 58.4256C24.9325 58.4191 24.9223 58.4108 24.9101 58.4005C24.8437 58.3442 24.7501 58.2532 24.6276 58.1218C24.3842 57.8608 24.0585 57.4743 23.6588 56.9704C22.861 55.9647 21.7903 54.5193 20.5322 52.7405ZM26.0293 58.4464C26.0292 58.4464 26.0305 58.4455 26.0332 58.4441C26.0327 58.4443 26.0324 58.4446 26.032 58.4448C26.0303 58.4459 26.0294 58.4464 26.0293 58.4464ZM24.9674 58.4449C24.9671 58.4447 24.9667 58.4444 24.9663 58.4442C24.971 58.4468 24.9715 58.4475 24.9674 58.4449Z" fill="white" stroke="black"/>
<path d="M0.500011 46.8934H0.5C0.500148 45.363 0.956581 44.087 1.41726 43.1898C1.62425 42.7867 1.83081 42.4626 1.9942 42.2295L4.81561 45.0509L4.81576 45.0511C5.87033 46.1048 6.44929 47.5052 6.4493 48.9964C6.4493 48.9964 6.4493 48.9965 6.4493 48.9965L6.44883 61.7694H2.60556C1.37899 61.7694 0.500011 60.9108 0.500011 59.9871V46.8934Z" fill="white" stroke="black"/>
<path d="M50.5001 59.9889C50.5001 60.9134 49.6221 61.771 48.3948 61.7711C48.3947 61.7711 48.3946 61.7711 48.3945 61.7711L44.5522 61.7685V48.9965C44.5522 47.5053 45.1312 46.1057 46.1859 45.0509L49.0752 42.1617C49.2215 42.3187 49.4071 42.5509 49.5956 42.8744C50.0338 43.6264 50.5001 44.8935 50.5001 46.8951V59.9889Z" fill="white" stroke="black"/>
<path d="M42.066 39.5599C39.0226 44.4677 35.7682 49.4021 32.9 53.4571C31.6399 55.2389 30.5233 56.7486 29.6733 57.8204L29.6732 57.8205C28.3976 59.4282 27.7041 60.1743 26.6066 60.3671L26.6063 60.3671L26.0577 60.4632C26.0571 60.4633 26.0564 60.4635 26.0558 60.4636C25.8579 60.4996 25.6563 60.5171 25.455 60.5171C25.2534 60.5171 25.0496 60.4997 24.8498 60.4622C24.8489 60.4621 24.848 60.4619 24.8472 60.4618L24.3013 60.3647C24.3013 60.3647 24.3013 60.3647 24.3012 60.3647C23.2058 60.1729 22.5117 59.4264 21.2367 57.819C20.3856 56.7471 19.2704 55.2371 18.0101 53.4557L18.01 53.4557C15.1434 49.4026 11.8884 44.4673 8.8441 39.5587C8.73776 39.3888 8.66417 39.2259 8.61413 39.089L8.59394 39.047C7.11208 39.3259 5.67133 39.7873 4.30351 40.4203L7.01701 43.1338C8.5871 44.7039 9.45206 46.7935 9.45206 49.0143V61.7872H41.4601L41.4611 49.018C41.4611 46.7973 42.326 44.7075 43.8977 43.1374L46.6094 40.4244C45.2402 39.7925 43.8002 39.3317 42.3197 39.0528L42.2841 39.1238M42.066 39.5599C42.0659 39.5602 42.0657 39.5604 42.0656 39.5607L41.6415 39.2957L42.0665 39.5592C42.0663 39.5594 42.0662 39.5597 42.066 39.5599ZM42.066 39.5599C42.1644 39.4023 42.2345 39.2522 42.2841 39.1238M42.2841 39.1238C42.2875 39.1149 42.2909 39.1061 42.2941 39.0974L42.0394 39.0022L41.8195 38.939L41.8731 38.974L41.9573 38.9882L42.2728 39.1464L42.2841 39.1238ZM42.0402 38.4946L41.9721 38.6304L42.032 38.5387L42.0402 38.4946ZM42.0402 38.4946L42.0557 38.5024L42.0586 38.498M42.0402 38.4946L42.0586 38.498M42.0586 38.498L42.0583 38.4999L42.0576 38.5033L42.0586 38.498Z" fill="white" stroke="black"/>
<path d="M37.5086 31.7696C37.584 31.5956 37.723 31.4017 37.8854 31.32M37.5086 31.7696L37.05 31.5705M37.5086 31.7696L37.0498 31.571C37.0499 31.5708 37.0499 31.5707 37.05 31.5705M37.5086 31.7696C35.7849 35.7396 32.6967 38.2605 28.8128 39.9045C27.4342 40.4873 25.9836 41.0546 24.4714 40.7605L15.8247 5.23172M37.8854 31.32L39.9557 21.5967C40.8076 22.1953 41.3121 23.0564 41.5853 24.1083L41.5972 24.1561C41.6984 24.5606 41.7508 24.9733 41.751 25.3863L41.751 25.3846L42.251 25.3882H41.751L41.7505 25.4532V25.4567C41.7505 25.8475 41.6953 26.2313 41.5781 26.5924L41.5779 26.593C40.9476 28.5433 39.5869 29.906 37.661 30.8732L37.6607 30.8733C37.3482 31.0305 37.1466 31.3476 37.05 31.5705M37.8854 31.32C39.9017 30.3075 41.3731 28.8526 42.0536 26.7468L37.8854 31.32ZM37.05 31.5705C35.3897 35.3943 32.4156 37.8365 28.6181 39.444C27.2237 40.0335 25.9091 40.5307 24.5669 40.2697C19.4623 39.2766 15.6396 36.5781 13.3066 31.8671L13.3066 31.867C13.0704 31.3902 12.6408 31.0173 12.3171 30.7492L12.3164 30.7486C11.9878 30.4775 11.6441 30.2223 11.3126 29.9763C11.2463 29.9271 11.1804 29.8782 11.1153 29.8297C10.719 29.5342 10.3428 29.2458 9.99775 28.9306C9.32569 28.3152 8.97315 27.4873 8.67389 26.5346L8.67365 26.5339C8.55783 26.1672 8.5 25.7815 8.5 25.3919V25.2505C8.5 24.9216 8.55674 24.5847 8.64082 24.2276C8.64344 24.2178 8.64595 24.2072 8.64819 24.1959C8.91886 23.04 9.48963 22.1175 10.4529 21.4896C10.6915 21.3342 10.9085 21.1297 10.9952 20.8251C11.0767 20.5389 11.0128 20.2608 10.9441 20.0394C10.2008 17.6389 9.95871 15.2286 10.5774 12.8197C11.2149 10.3435 12.4655 8.348 14.7439 7.16042L14.7445 7.16013C14.9492 7.05307 15.1785 6.97072 15.4389 6.88814C15.5096 6.86573 15.5846 6.84271 15.6623 6.81891C15.8555 6.75966 16.0646 6.69555 16.2611 6.62386L16.5614 6.51428L16.588 6.19566C16.5921 6.1468 16.5942 6.11771 16.5964 6.08685C16.5978 6.06708 16.5993 6.04657 16.6013 6.01966L16.6263 5.69659L16.3417 5.54181C16.2577 5.49615 16.1941 5.45608 16.1197 5.40924C16.0616 5.37266 15.997 5.33196 15.911 5.28124C15.8835 5.265 15.8547 5.24838 15.8247 5.23172M15.8247 5.23172C17.1501 4.77847 18.5741 4.61913 20.1536 4.64651L21.5708 4.67107L20.4827 3.76275C19.6542 3.07119 18.784 2.70708 17.9006 2.49021M15.8247 5.23172L17.9006 2.49021M17.9006 2.49021C20.2995 2.1832 22.5801 2.61092 24.8536 3.64868L25.8401 4.09894L25.542 3.05637C25.2587 2.06568 24.6354 1.50567 23.9636 1.10929C23.6892 0.947437 23.3996 0.808693 23.1258 0.68065C23.1772 0.669498 23.2301 0.658565 23.2846 0.647942C24.1019 0.488753 25.2694 0.39987 26.6541 0.689839L17.9006 2.49021ZM39.409 20.0544L39.4092 20.0536C40.164 17.0562 40.2509 14.0815 39.2419 11.1794M39.409 20.0544L39.2419 11.1794M39.409 20.0544C39.3422 20.3215 39.3035 20.6152 39.399 20.908M39.409 20.0544L39.399 20.908M39.2419 11.1794C37.4709 6.08579 33.807 2.95134 28.7412 1.26051L28.7405 1.26028C28.056 1.03069 27.3588 0.837679 26.6543 0.689875L39.2419 11.1794ZM39.399 20.908C39.4977 21.2104 39.7098 21.4243 39.9552 21.5964L39.399 20.908ZM34.3668 23.594C34.3668 25.4726 32.8399 27.0003 30.9619 27.0003C29.0839 27.0003 27.5569 25.473 27.5569 23.594C27.5569 21.7162 29.084 20.1891 30.9617 20.189L34.3668 23.594ZM34.3668 23.594C34.3668 21.7163 32.8399 20.1885 30.9619 20.189L34.3668 23.594ZM22.7456 23.594C22.7456 25.4725 21.2198 27.0003 19.3407 27.0003C17.4627 27.0003 15.9357 25.473 15.9357 23.594C15.9357 21.7162 17.4628 20.1891 19.3405 20.189L22.7456 23.594ZM22.7456 23.594C22.7456 21.7164 21.2198 20.1885 19.3407 20.189L22.7456 23.594ZM19.2619 13.0018L19.6394 12.2746L18.8201 12.2714C16.4838 12.2624 15.0286 13.707 14.1486 15.3621C13.2744 17.0063 12.9184 18.9347 12.7722 20.1198L12.772 20.1212C12.7167 20.5802 12.5869 21.0279 12.3919 21.4459L12.06 22.1573H12.845H14.9041H15.2311L15.3622 21.8578C16.0338 20.3238 17.5649 19.2509 19.3402 19.2509C20.9459 19.2509 22.3504 20.1271 23.1028 21.43L23.3701 21.893L23.8141 21.5954C24.1978 21.3382 24.6567 21.1881 25.1515 21.1881C25.6456 21.1881 26.1052 21.3383 26.4876 21.5951L26.9315 21.8932L27.1992 21.4303C27.9526 20.1274 29.3574 19.2509 30.9619 19.2509C32.7362 19.2509 34.2674 20.3237 34.9401 21.858L35.0713 22.1573H35.398H37.3526H38.0929L37.8164 21.4705C37.6633 21.0902 37.5603 20.6886 37.513 20.2744C37.2201 17.702 35.9957 14.086 31.7188 12.3588L31.4585 12.2537L31.2333 12.4212C30.5139 12.956 29.7906 13.3818 29.2455 13.6743C29.2436 13.6754 29.2416 13.6764 29.2396 13.6775L29.3935 12.91L29.3935 12.9097L30.1003 9.37437L29.1715 9.03625C28.3204 10.5909 27.5172 11.6905 26.8082 12.4675L26.8081 12.4677C25.886 13.4793 25.1244 13.9446 24.621 14.1594C24.5808 14.1765 24.5421 14.1921 24.5051 14.2063L24.7078 12.8667L24.7134 12.8295V12.8287L25.0845 10.3835L24.1778 10.0257C23.5153 10.9915 22.8727 11.7888 22.2626 12.4466L22.2624 12.4468C20.7341 14.0966 19.4134 14.8729 18.5004 15.2395C18.3217 15.3112 18.1581 15.3674 18.0111 15.4116L19.2619 13.0018ZM39.8069 26.0748L39.8062 26.0745L39.8069 26.0746C40.059 25.0933 39.8968 24.1582 39.1453 23.273L39.0884 23.206L39.0121 23.1624L39.0087 23.1604L38.8934 23.0946H38.7607H35.8032H35.3032V23.5946C35.3032 25.9881 33.3547 27.9366 30.9612 27.9366C28.5677 27.9366 26.6192 25.9881 26.6192 23.5946C26.6192 22.7844 25.9624 22.1268 25.1514 22.1268C24.3415 22.1268 23.6821 22.7828 23.6821 23.5946C23.6821 25.9881 21.7336 27.9366 19.3401 27.9366C16.9466 27.9366 14.9981 25.9881 14.9981 23.5946V23.0946H14.4981H11.5416H11.3342L11.1877 23.2415C10.1565 24.2749 10.065 25.8086 10.8528 27.0942L10.8532 27.0949C11.5748 28.2682 12.6983 28.9103 13.7389 29.4753L13.7393 29.4756C13.923 29.5751 14.1144 29.7045 14.2727 29.8482C14.4352 29.9959 14.5353 30.1338 14.5783 30.2447L14.5783 30.2448C16.2157 34.4671 19.4 36.9414 23.5261 38.2676L23.5267 38.2678C24.1867 38.4789 25.0452 38.6338 25.7957 38.4543L25.7959 38.4543C29.8547 37.4814 33.1721 35.3215 35.0845 31.4441C35.6575 30.2853 36.1988 29.4817 37.2878 28.9963C38.5077 28.4531 39.4489 27.4651 39.8069 26.0748Z" fill="white" stroke="black"/>
</svg>
