<svg width="64" height="64" viewBox="0 0 64 64" fill="none" xmlns="http://www.w3.org/2000/svg">
<path d="M51.036 40.3304L51.0359 40.3257L50.8941 40.1839L44.8588 34.1486C44.0758 33.3657 43.0378 32.9718 42.0093 32.9718H41.5093V33.0088C40.6472 33.1154 39.816 33.4985 39.1597 34.1549L39.1594 34.1552L35.4414 37.8799L35.4411 37.8802M51.036 40.3304L35.4411 37.8802M51.036 40.3304C51.6234 40.954 51.9803 41.5775 52.1343 42.204C52.3015 42.884 52.2189 43.5237 51.9958 44.1082C51.5722 45.2182 50.6167 46.1767 49.857 46.9386L49.813 46.9828L49.8124 46.9834L49.6941 47.1017C49.6936 47.1021 49.6932 47.1026 49.6928 47.1031C49.6702 47.126 49.629 47.1677 49.5795 47.2072C45.0515 51.1666 39.9001 52.5287 34.8958 52.0426L34.8957 52.0426C29.2296 51.4919 23.788 48.5597 19.6386 44.384L19.6345 44.38C15.4658 40.2367 12.5269 34.7891 11.976 29.1234C11.4826 24.1015 12.861 18.9391 16.8464 14.3962L16.8918 14.3445L16.9061 14.3352C16.9084 14.3328 16.9108 14.3303 16.9134 14.3277L17.0341 14.207L17.0348 14.2063L17.0708 14.1701C17.8319 13.406 18.7914 12.4424 19.9045 12.0149C20.4887 11.7905 21.1284 11.7066 21.8086 11.873C22.4841 12.0383 23.1563 12.4398 23.8286 13.1121L29.8639 19.1474C30.6465 19.93 31.0407 20.9613 31.0407 21.997V22.497H31.0034C30.8965 23.3555 30.5136 24.1905 29.8576 24.8465L29.8573 24.8469L26.1347 28.5627C26.1342 28.5632 26.1337 28.5637 26.1332 28.5642C25.5528 29.151 24.8356 29.5157 24.0835 29.6646C24.6916 31.691 26.2048 33.946 28.1356 35.8769M51.036 40.3304L28.1356 35.8769M35.4411 37.8802C34.8638 38.4577 34.4918 39.1728 34.342 39.9271C32.3185 39.3179 30.0712 37.8063 28.1356 35.8769M35.4411 37.8802L28.1356 35.8769M48.7731 42.3051L48.7743 42.3063C48.9772 42.5081 49.0427 42.6819 49.0553 42.8286C49.0689 42.9859 49.0266 43.1737 48.9089 43.4015C48.6635 43.8767 48.1828 44.3617 47.6865 44.8547L47.6854 44.8558L47.5951 44.9461C43.7375 48.3128 39.3936 49.4661 35.1662 49.0506L35.1658 49.0505C30.2477 48.5711 25.4485 45.9878 21.7443 42.2519L21.7429 42.2505L21.7367 42.2442L21.7353 42.2429C17.9991 38.5321 15.4159 33.7328 14.9364 28.8211C14.5274 24.5934 15.6745 20.256 19.041 16.3917L19.1311 16.3016C19.6252 15.8075 20.1099 15.3265 20.5859 15.08C20.8141 14.9618 21.0019 14.9191 21.1592 14.9324C21.3056 14.9448 21.479 15.0098 21.6805 15.2126L21.6816 15.2136L27.7169 21.249L27.7169 21.249L27.7209 21.2529C27.9185 21.4461 28.0187 21.7045 28.0187 21.9771V22.0915C27.9941 22.3152 27.8968 22.5315 27.7235 22.7049L27.7232 22.7052L23.9985 26.4232L23.9984 26.4232L23.9928 26.4289C23.857 26.569 23.6722 26.6615 23.4739 26.7026C23.2634 26.7423 23.0524 26.7229 22.8636 26.643L22.8613 26.642C22.0995 26.3239 21.2193 26.6893 20.9017 27.4478L20.9016 27.4477L20.8985 27.4554C20.8105 27.6758 20.7679 27.9187 20.7934 28.1653C20.9295 31.4149 23.1388 35.1101 26.0013 37.9722C28.8879 40.8588 32.6315 43.0858 35.9019 43.1809L35.9047 43.181C36.7068 43.1998 37.3713 42.5916 37.436 41.7985H37.63L37.3292 41.1006C37.2517 40.9208 37.2308 40.7048 37.2707 40.4935C37.3109 40.2999 37.4021 40.1169 37.5499 39.9691L37.5502 39.9687L41.2682 36.244C41.2683 36.2439 41.2684 36.2438 41.2684 36.2438C41.2685 36.2437 41.2685 36.2437 41.2685 36.2437C41.4414 36.0709 41.662 35.9732 41.8839 35.9485H41.9963C42.2631 35.9485 42.5276 36.0493 42.7207 36.2466L42.7243 36.2501L48.7731 42.3051ZM37.4402 41.7276C37.4498 41.4928 37.398 41.2875 37.3279 41.1126L36.9525 41.263L36.87 41.296V40.7985H36.8638H36.7537C36.7458 40.6639 36.755 40.5282 36.7803 40.3963C36.8379 40.1146 36.9722 39.8396 37.1963 39.6155L37.4402 41.7276ZM63.5 32C63.5 49.349 49.349 63.5 32 63.5C14.651 63.5 0.5 49.349 0.5 32C0.5 14.651 14.651 0.5 32 0.5C49.349 0.5 63.5 14.651 63.5 32Z" stroke="black"/>
</svg>
