<svg width="68" height="65" viewBox="0 0 68 65" fill="none" xmlns="http://www.w3.org/2000/svg">
<path d="M66.1309 41.4835L66.1307 41.4832L62.2336 37.1624L57.9139 41.0593C57.9138 41.0593 57.9138 41.0594 57.9138 41.0594C57.7526 41.205 57.7405 41.4525 57.8849 41.6124L57.8858 41.6134C58.0296 41.7732 58.2765 41.7875 58.4393 41.6412L66.1309 41.4835ZM66.1309 41.4835C66.2749 41.643 66.2631 41.8904 66.1013 42.0363L66.1001 42.0374C66.0249 42.1054 65.934 42.1379 65.8399 42.1379C65.7326 42.1379 65.6266 42.0941 65.5491 42.0079L65.5484 42.0071L64.2484 40.5666L62.8153 38.9785L62.5158 41.0965C60.6836 54.054 49.5186 63.5998 36.6177 63.5998C35.6953 63.5998 34.7646 63.5514 33.8295 63.4509L33.8275 63.4507C33.6143 63.4282 33.4574 63.2371 33.4797 63.0198C33.5036 62.8021 33.6979 62.6495 33.9077 62.6724L33.9107 62.6728C47.5169 64.1182 59.7926 54.488 61.7302 41.0552L62.1252 38.317L60.0707 40.1698L58.4397 41.6408L66.1309 41.4835Z" fill="black" fill-opacity="0.01" stroke="black" stroke-width="2"/>
<path d="M63.5838 32.571V32.963H36.3543V32.571C36.3543 26.2865 40.6358 20.9791 46.4395 19.4201L48.9796 18.7377L46.6278 17.5602C44.1673 16.3282 42.4785 13.7846 42.4785 10.8577C42.4785 6.72779 45.8391 3.36719 49.969 3.36719C54.0975 3.36719 57.4595 6.7279 57.4595 10.8577C57.4595 13.784 55.7698 16.329 53.3091 17.56L50.9548 18.7377L53.4973 19.4202C59.3008 20.9778 63.5838 26.2865 63.5838 32.571Z" fill="black" fill-opacity="0.01" stroke="black" stroke-width="2"/>
<path d="M32.5258 1.09468L32.5258 1.0947C32.3608 1.23726 32.3434 1.48549 32.4842 1.64865C32.4842 1.64867 32.4842 1.64869 32.4843 1.64871L33.6812 3.03513L35.2602 4.86406L32.8506 4.6859C18.7076 3.64026 6.21523 14.1305 4.86562 28.3132L32.5258 1.09468ZM32.5258 1.09468C32.6878 0.954707 32.9347 0.9712 33.0776 1.13619L32.5258 1.09468ZM35.4945 5.70221L33.7023 7.24898L31.9644 8.74882C31.8006 8.89036 31.7827 9.13726 31.924 9.30083C32.0028 9.39198 32.1117 9.43792 32.2213 9.43792C32.3146 9.43792 32.4033 9.40636 32.4749 9.34429L32.4763 9.34306L36.8797 5.54031L33.0778 1.13653L35.4945 5.70221ZM35.4945 5.70221L33.1361 5.49574M35.4945 5.70221L33.1361 5.49574M33.1361 5.49574C19.2746 4.28221 6.96654 14.512 5.6475 28.3879C5.62745 28.5909 5.45643 28.743 5.258 28.743C5.23821 28.743 5.22514 28.7424 5.21634 28.7417M33.1361 5.49574L5.21634 28.7417M5.21634 28.7417C5.00115 28.7186 4.84548 28.5275 4.86559 28.3135L5.21634 28.7417Z" fill="black" fill-opacity="0.01" stroke="black" stroke-width="2"/>
<path d="M17.9548 48.5971L18.2767 49.96L18.1433 50.4573C23.9468 52.015 28.2303 57.3237 28.2298 63.6081V63.6081V64.0001H1V63.6081C1 57.3231 5.28155 52.0162 11.0852 50.4572L13.6254 49.7749L11.2735 48.5973C8.81302 47.3653 7.12428 44.8217 7.12428 41.8948C7.12428 37.7649 10.4849 34.4043 14.6148 34.4043C18.7433 34.4043 22.1053 37.765 22.1053 41.8948C22.1053 44.8211 20.4156 47.3661 17.9548 48.5971Z" fill="black" fill-opacity="0.01" stroke="black" stroke-width="2"/>
</svg>
