<svg xmlns="http://www.w3.org/2000/svg" viewBox="0 0 2127.16 1153.41"><defs><style>.cls-1{fill:#a9503c;}.cls-1,.cls-11,.cls-12,.cls-14,.cls-2,.cls-20,.cls-21,.cls-7,.cls-8{fill-rule:evenodd;}.cls-2{fill:#bf604b;}.cls-21,.cls-3{fill:#193d6d;}.cls-4{fill:#fff;}.cls-5,.cls-7{fill:#bf755a;}.cls-6{fill:#dbb2a3;stroke:#935139;stroke-width:2.34px;}.cls-10,.cls-19,.cls-6{stroke-linecap:round;stroke-linejoin:round;}.cls-17,.cls-8{fill:#0a2445;}.cls-12,.cls-9{fill:#aab9cc;}.cls-10,.cls-14,.cls-15{fill:#cfd8e2;}.cls-10{stroke:#8096b3;stroke-width:3.43px;}.cls-11,.cls-13{fill:#8096b3;}.cls-16{fill:#bf3e33;}.cls-18,.cls-20{fill:#fbcb22;}.cls-19{fill:#feedb4;stroke:#eca400;stroke-width:5.56px;}</style></defs><g id="Layer_2" data-name="Layer 2"><g id="Laurel2"><g id="Layer21"><path class="cls-1" d="M2050.53,593.16a604.33,604.33,0,0,1-55.62,142.12c-22.05,40.36-51.6,83.08-90.93,122.06-68.77,68.16-159.46,121.38-264.64,132.77-87,9.42-183.84-9.85-286.33-72.85a6.43,6.43,0,1,0-6.69,11c105.62,63.66,205.1,82.43,294.16,72,107.17-12.56,199.29-67.45,268.82-137.57,39.5-39.84,69.06-83.37,91-124.45a610.7,610.7,0,0,0,54.89-143.92,2.42,2.42,0,0,0-4.71-1.14Z"/><path class="cls-1" d="M1511.89,846.86c-5.81-.13-57-.68-81.91,16.61-43.64,30.3-31.65,76.22-31.18,77.93,11.88-12.33,33.23-33.68,50.41-47.07S1495,859.45,1511.89,846.86Z"/><path class="cls-2" d="M1511.89,846.86c-16.87,12.59-45.61,34.16-62.68,47.47s-38.53,34.74-50.41,47.07v.05s57.32,3.22,82.57-26.78c24.65-29.31,31-67.81,31-67.81Z"/><path class="cls-2" d="M2055,515c2,2.42,19.19,24,20.11,40.25,1.62,28.57-21.84,38.7-22.72,39.07,1.29-9.13,3.27-25.27,3.26-37S2055.25,526.37,2055,515Z"/><path class="cls-1" d="M2055,515c.26,11.33.63,30.67.65,42.33s-2,27.86-3.26,37h0s-20.38-23.25-16-43.91c4.26-20.17,18.47-35.65,18.47-35.65Z"/><path class="cls-1" d="M2107.07,712.3c-2.36,3.8-23.54,37.06-45.18,45.86-37.92,15.4-62.5-11.66-63.4-12.67,13-2.48,35.71-7.28,51.58-12.72S2091.85,717.89,2107.07,712.3Z"/><path class="cls-2" d="M2107.07,712.3c-15.22,5.59-41.23,15.05-57,20.47s-38.63,10.24-51.58,12.72l0,0s22-38.35,52-42c29.29-3.57,56.82,8.5,56.82,8.5Z"/><path class="cls-1" d="M2032.06,865.25c-3.7,3.13-36.65,30.35-61.89,32.2-44.24,3.22-60.55-32.88-61.14-34.24,14.19,1.77,39.25,4.43,57.43,4.11S2014.5,865.93,2032.06,865.25Z"/><path class="cls-2" d="M2032.06,865.25c-17.56.68-47.54,1.76-65.6,2.07s-43.24-2.34-57.43-4.11l0,0s35.53-32.18,67.66-25.94c31.39,6.09,55.74,27.73,55.74,27.73Z"/><path class="cls-1" d="M1787.32,875.14c-3.82,1.25-37.35,12.67-49.63,29.68-21.51,29.81-3.12,57-2.42,58,4.92-10.78,13.94-29.62,22.07-42.31S1779.2,887.23,1787.32,875.14Z"/><path class="cls-2" d="M1787.32,875.14c-8.11,12.09-21.91,32.78-30,45.39s-17.15,31.53-22.07,42.31l0,0s38.15-11.08,47.71-36.47c9.35-24.79,4.67-51.38,4.67-51.38Z"/><path class="cls-1" d="M1972.93,601.12c-.68,3.56-6.34,35,1.72,52.17,14.13,30,43.65,27.4,44.75,27.29-6.36-8.6-17.29-24-23.75-35.93S1978.93,612.82,1972.93,601.12Z"/><path class="cls-2" d="M1972.94,601.12c6,11.69,16.29,31.64,22.71,43.53S2013,672,2019.4,680.58h0s7.94-35-7.91-53.63C1996,608.72,1973,600.79,1973,600.79Z"/><path class="cls-1" d="M1769.87,1087.8c-5.38.22-52.91,1.57-78.36-14.4-44.59-28-39.51-71.67-39.3-73.29,12.68,11.49,35.36,31.36,53.1,43.76S1752.52,1076.16,1769.87,1087.8Z"/><path class="cls-2" d="M1769.87,1087.8c-17.35-11.64-46.93-31.61-64.56-43.93s-40.42-32.28-53.1-43.76v-.05s52.87-4,80.31,24c26.81,27.35,37.84,63.7,37.84,63.7Z"/><path class="cls-1" d="M2127,590.05c-1.39,2.85-14,27.83-29.33,36.54-26.94,15.27-48.13.44-48.91-.12,9.48-3.35,26.1-9.55,37.47-15.27S2116.16,595.78,2127,590.05Z"/><path class="cls-2" d="M2127,590.05c-10.87,5.73-29.46,15.47-40.77,21.15s-28,11.92-37.47,15.27h0s12.7-28.49,34.85-34.87c21.65-6.24,43.54-1.8,43.54-1.8Z"/><path class="cls-2" d="M1450.71,1082.43c-3.09-22,.76-56.12-13.09-84.72s-46-43-46-43-3,25.56,13.6,58.5c8.78,17.43,30,47.63,40.06,61.64Z"/><path class="cls-1" d="M1391.58,954.75S1355,984,1370.25,1018.59c17.92,40.51,80.46,63.84,80.46,63.84l-5.47-7.54c-10.06-14-31.28-44.21-40.06-61.64C1388.59,980.31,1391.58,954.75,1391.58,954.75Z"/><path class="cls-2" d="M1825.45,1018.63c-13.84-10.11-30.63-30.53-53.88-38.21s-48.46,2.42-48.46,2.42,12.53,15.37,39.65,23.86c14.36,4.5,42.44,9,55.59,10.91Z"/><path class="cls-1" d="M1723.11,982.84s-3.44,36,23.87,46c32,11.82,78.47-10.25,78.47-10.25l-7.1-1c-13.15-2-41.23-6.41-55.59-10.91C1735.64,998.21,1723.11,982.84,1723.11,982.84Z"/><path class="cls-2" d="M1662.85,1084.45c-9.28-16.24-16.9-44.06-36.63-62.08s-49.35-19.18-49.35-19.18,5.63,20.88,28.86,41.43c12.29,10.88,38.28,27.84,50.5,35.65Z"/><path class="cls-1" d="M1576.87,1003.19s-19.46,34.28,3.25,56.49c26.63,26,82.73,24.77,82.73,24.77l-6.62-4.18c-12.22-7.81-38.21-24.77-50.5-35.65C1582.5,1024.07,1576.87,1003.19,1576.87,1003.19Z"/><path class="cls-2" d="M1650.12,912c-5.86,14.87-8.89,39.33-23.36,57s-39.37,22.28-39.37,22.28,2.2-18.35,19.32-38.57c9.06-10.71,29-28.24,38.32-36.34Z"/><path class="cls-1" d="M1587.39,991.29s-20.65-26.6-4.18-48.17c19.31-25.28,66.91-31.09,66.91-31.09l-5.09,4.35c-9.37,8.1-29.26,25.63-38.32,36.34C1589.59,972.94,1587.39,991.29,1587.39,991.29Z"/><path class="cls-2" d="M1476.73,969c8.34,4.95,43.89,22.68,79-10.4,22.75-21.43,25.62-53,33-72.3l-59.92,41.65c-16.71,11.6-53.89,39.9-53.89,39.9Z"/><path class="cls-1" d="M1581,885.43c-14.46-1.19-45.88-1.9-65.86,11.57-34.59,23.31-39.42,60.06-40.08,68.88l-.11,2s37.18-28.3,53.89-39.9,59.92-41.65,59.92-41.65Z"/><path class="cls-2" d="M1934.93,811.23c6.42-3.64,27.73-19.26,19.11-55-5.58-23.14-21.53-38.14-31.54-50.3l4.93,55.34c1.36,15.43,6,50.71,6,50.71Z"/><path class="cls-1" d="M1919,710.76c-6.25,9.12-18.57,29.63-17.21,47.93,2.37,31.68,24.85,48.74,30.43,52.51l1.25.81s-4.69-35.28-6-50.71S1922.5,706,1922.5,706Z"/><path class="cls-1" d="M1854.35,915.09c1.92,8.36,12.3,41.93,54.91,44.2,27.61,1.47,49.54-16,66.4-23.06l-63.24-12.9c-17.63-3.61-58.45-10.11-58.45-10.11Z"/><path class="cls-2" d="M1971.47,930.75c-8.07-10-26.81-30.52-47.63-35.08-36-7.89-62.51,11.46-68.56,16.42l-1.31,1.13s40.82,6.5,58.45,10.11,63.24,12.9,63.24,12.9Z"/><path class="cls-1" d="M2029.41,680.75c4.45,4.7,24,22.6,52.64,7.78,18.54-9.6,26.15-29.33,34.41-40.4l-46.1,15.78c-12.85,4.39-41.92,15.77-41.92,15.77Z"/><path class="cls-2" d="M2111.64,646.17c-9.07-3.42-29.12-9.62-44.42-4.63-26.48,8.64-36.31,31.36-38.35,36.9l-.43,1.24s29.07-11.38,41.92-15.77,46.1-15.78,46.1-15.78Z"/><path class="cls-2" d="M1877.11,872.41c7-1.79,29.41-17.78,33-47.63,2.82-23.26-11-41.39-17.33-55.55L1883,823.05c-2.74,15-7.5,49.71-7.5,49.71Z"/><path class="cls-1" d="M1888.23,772.88c-8.31,7-25.37,23.28-28.85,41-6,30.69,10.86,52.75,15.17,57.79l1,1.09s4.76-34.71,7.5-49.71,9.77-53.82,9.77-53.82Z"/><path class="cls-2" d="M1559,1120.25s8.85-44-7.58-75.79c-21.06-40.81-67.26-54.5-78.48-57.28l-2.49-.58s20.23,25,40.11,54c9.94,14.52,22,34.43,31.68,50.71Z"/><path class="cls-1" d="M1468.17,994.91c-3.67,15.53-8.87,49.56,8.3,73.2,22.88,31.51,82.53,52.14,82.53,52.14l-16.76-28.93c-9.63-16.28-21.74-36.19-31.68-50.71-19.88-29-40.11-54-40.11-54Z"/><path class="cls-2" d="M1983.4,553.52s25,2.45,39.41,16.48c18.44,18,18.22,45,17.87,51.48l-.1,1.43s-10.08-14.94-22.4-30.36c-6.16-7.71-14.85-17.47-22-25.3Z"/><path class="cls-1" d="M2035.75,622.78c-8.93-.58-28-3.37-37.9-16.45-13.16-17.44-14.45-52.81-14.45-52.81l12.77,13.73c7.16,7.83,15.85,17.59,22,25.3,12.32,15.42,22.4,30.36,22.4,30.36Z"/><path class="cls-2" d="M1914.83,1017s-9.09-36-32.77-54c-30.35-23-69.8-16.72-79.19-14.79l-2.07.46s24.06,11.45,49.32,26.07c12.63,7.3,28.81,17.87,41.83,26.6Z"/><path class="cls-1" d="M1802.06,955.73c2.81,12.94,11.09,40.25,32.38,51.8,28.39,15.39,80.39,9.49,80.39,9.49L1892,1001.37c-13-8.73-29.2-19.3-41.83-26.6-25.26-14.62-49.32-26.07-49.32-26.07Z"/><path class="cls-2" d="M1941.71,646.17s28.47,10.65,40.92,31.52c15.94,26.74,7.27,58.23,4.85,65.69l-.56,1.64s-7.13-20.59-16.72-42.44c-4.79-10.92-11.92-25-17.84-36.39Z"/><path class="cls-1" d="M1981.33,743.36c-10.26-3.46-31.71-12.66-39.17-31-9.94-24.46-.45-66.19-.45-66.19l10.65,20c5.92,11.37,13.05,25.47,17.84,36.39,9.59,21.85,16.72,42.44,16.72,42.44Z"/><path class="cls-2" d="M1843.64,813.49s15.26,30.45,9.57,57.08c-7.29,34.12-38.42,53.38-46.09,57.66l-1.71.92s9.84-22.35,18.62-47.61c4.39-12.63,9.29-29.64,13.09-43.49Z"/><path class="cls-1" d="M1802.08,923.51c-5.79-10.65-16.4-34.56-8.53-55.32,10.48-27.67,50.09-54.7,50.09-54.7l-6.52,24.56c-3.8,13.85-8.7,30.86-13.09,43.49-8.78,25.26-18.62,47.61-18.62,47.61Z"/><path class="cls-2" d="M2072.78,789.78s-28.31-18.94-55.44-16.62c-34.76,3-57.75,31.47-63,38.54l-1.12,1.58s23.4-7,49.55-12.53c13.08-2.78,30.57-5.52,44.79-7.57Z"/><path class="cls-1" d="M1958.43,817.29c9.85,7.08,32.25,20.58,53.82,15.37,28.77-6.95,60.53-42.88,60.53-42.88l-25.18,3.4c-14.22,2.05-31.71,4.79-44.79,7.57-26.15,5.56-49.55,12.53-49.55,12.53Z"/><path class="cls-2" d="M1727.74,866.57s10.12,36.7-1.9,64.66c-15.4,35.82-53.72,50.17-63.06,53.2l-2.07.64s15.64-22.36,30.75-48.15c7.56-12.89,16.63-30.48,23.81-44.84Z"/><path class="cls-1" d="M1658.28,978.17c-4-12.94-10.47-41.46,2.66-62.5,17.51-28.07,66.8-49.1,66.8-49.1l-12.47,25.51c-7.18,14.36-16.25,31.95-23.81,44.84-15.11,25.79-30.75,48.15-30.75,48.15Z"/><path class="cls-1" d="M71.93,594.3a609.79,609.79,0,0,0,54.89,143.92c22,41.08,51.55,84.61,91,124.45,69.53,70.12,161.65,125,268.82,137.57,89.07,10.43,188.54-8.34,294.16-72a6.43,6.43,0,1,0-6.68-11c-102.5,63-199.36,82.27-286.34,72.85C382.64,978.72,292,925.5,223.18,857.34c-39.33-39-68.87-81.7-90.93-122.06A604.78,604.78,0,0,1,76.63,593.16a2.42,2.42,0,1,0-4.7,1.14Z"/><path class="cls-1" d="M615.28,846.86c5.8-.13,57-.68,81.9,16.61,43.65,30.3,31.65,76.22,31.19,77.93-11.89-12.33-33.24-33.68-50.42-47.07S632.14,859.45,615.28,846.86Z"/><path class="cls-2" d="M615.28,846.86C632.14,859.45,660.89,881,678,894.33s38.53,34.74,50.42,47.07l0,.05s-57.32,3.22-82.56-26.78c-24.66-29.31-31-67.81-31-67.81Z"/><path class="cls-2" d="M72.17,515c-2,2.42-19.19,24-20.11,40.25C50.44,583.86,73.9,594,74.78,594.36c-1.29-9.13-3.27-25.27-3.25-37S71.92,526.37,72.17,515Z"/><path class="cls-1" d="M72.17,515c-.25,11.33-.63,30.67-.65,42.33s2,27.86,3.26,37h0s20.38-23.25,16-43.91c-4.26-20.17-18.47-35.65-18.47-35.65Z"/><path class="cls-1" d="M20.09,712.3c2.36,3.8,23.55,37.06,45.18,45.86,37.92,15.4,62.5-11.66,63.41-12.67-13-2.48-35.72-7.28-51.59-12.72S35.31,717.89,20.09,712.3Z"/><path class="cls-2" d="M20.09,712.3c15.22,5.59,41.23,15.05,57,20.47s38.63,10.24,51.59,12.72l0,0s-22-38.35-52-42c-29.29-3.57-56.81,8.5-56.81,8.5Z"/><path class="cls-1" d="M95.11,865.25c3.69,3.13,36.64,30.35,61.89,32.2,44.23,3.22,60.54-32.88,61.13-34.24-14.19,1.77-39.25,4.43-57.43,4.11S112.66,865.93,95.11,865.25Z"/><path class="cls-2" d="M95.11,865.25c17.55.68,47.53,1.76,65.59,2.07S204,865,218.13,863.21l0,0S182.62,831,150.49,837.24C119.1,843.33,94.75,865,94.75,865Z"/><path class="cls-1" d="M339.85,875.14c3.82,1.25,37.35,12.67,49.62,29.68,21.51,29.81,3.12,57,2.42,58C387,952.06,378,933.22,369.83,920.53S348,887.23,339.85,875.14Z"/><path class="cls-2" d="M339.85,875.14c8.11,12.09,21.9,32.78,30,45.39s17.14,31.53,22.06,42.31l0,0s-38.14-11.08-47.71-36.47c-9.35-24.79-4.67-51.38-4.67-51.38Z"/><path class="cls-1" d="M154.23,601.12c.68,3.56,6.34,35-1.72,52.17-14.12,30-43.65,27.4-44.75,27.29,6.36-8.6,17.29-24,23.75-35.93S148.23,612.82,154.23,601.12Z"/><path class="cls-2" d="M154.23,601.12c-6,11.69-16.3,31.64-22.72,43.53S114.12,672,107.76,680.58h0s-7.94-35,7.92-53.63c15.48-18.23,38.52-26.16,38.52-26.16Z"/><path class="cls-1" d="M357.29,1087.8c5.38.22,52.91,1.57,78.36-14.4,44.59-28,39.51-71.67,39.3-73.29-12.68,11.49-35.36,31.36-53.1,43.76S374.64,1076.16,357.29,1087.8Z"/><path class="cls-2" d="M357.29,1087.8c17.35-11.64,46.93-31.61,64.56-43.93s40.42-32.28,53.1-43.76v-.05s-52.88-4-80.32,24c-26.8,27.35-37.84,63.7-37.84,63.7Z"/><path class="cls-1" d="M.14,590.05c1.38,2.85,14,27.83,29.32,36.54,26.94,15.27,48.13.44,48.91-.12-9.48-3.35-26.1-9.55-37.47-15.27S11,595.78.14,590.05Z"/><path class="cls-2" d="M.14,590.05C11,595.78,29.6,605.52,40.9,611.2s28,11.92,37.47,15.27h0S65.7,598,43.54,591.59C21.9,585.35,0,589.79,0,589.79Z"/><path class="cls-2" d="M676.46,1082.43c3.08-22-.77-56.12,13.08-84.72s46.05-43,46.05-43,3,25.56-13.6,58.5c-8.79,17.43-30,47.63-40.07,61.64Z"/><path class="cls-1" d="M735.59,954.75s36.61,29.29,21.32,63.84c-17.92,40.51-80.45,63.84-80.45,63.84l5.46-7.54c10.06-14,31.28-44.21,40.07-61.64C738.58,980.31,735.59,954.75,735.59,954.75Z"/><path class="cls-2" d="M301.71,1018.63c13.84-10.11,30.64-30.53,53.89-38.21s48.46,2.42,48.46,2.42-12.54,15.37-39.66,23.86c-14.35,4.5-42.44,9-55.58,10.91Z"/><path class="cls-1" d="M404.06,982.84s3.43,36-23.88,46c-32,11.82-78.47-10.25-78.47-10.25l7.11-1c13.14-2,41.23-6.41,55.58-10.91C391.52,998.21,404.06,982.84,404.06,982.84Z"/><path class="cls-2" d="M464.31,1084.45c9.28-16.24,16.9-44.06,36.64-62.08s49.34-19.18,49.34-19.18-5.63,20.88-28.85,41.43c-12.3,10.88-38.29,27.84-50.51,35.65Z"/><path class="cls-1" d="M550.29,1003.19s19.46,34.28-3.25,56.49c-26.62,26-82.73,24.77-82.73,24.77l6.62-4.18c12.22-7.81,38.21-24.77,50.51-35.65C544.66,1024.07,550.29,1003.19,550.29,1003.19Z"/><path class="cls-2" d="M477.05,912c5.85,14.87,8.88,39.33,23.35,57s39.37,22.28,39.37,22.28-2.2-18.35-19.31-38.57c-9.06-10.71-29-28.24-38.33-36.34Z"/><path class="cls-1" d="M539.77,991.29s20.66-26.6,4.18-48.17c-19.31-25.28-66.9-31.09-66.9-31.09l5.08,4.35c9.38,8.1,29.27,25.63,38.33,36.34C537.57,972.94,539.77,991.29,539.77,991.29Z"/><path class="cls-2" d="M650.43,969c-8.33,4.95-43.88,22.68-79-10.4-22.75-21.43-25.62-53-33-72.3l59.91,41.65c16.71,11.6,53.89,39.9,53.89,39.9Z"/><path class="cls-1" d="M546.21,885.43c14.46-1.19,45.89-1.9,65.86,11.57,34.59,23.31,39.42,60.06,40.09,68.88l.1,2s-37.18-28.3-53.89-39.9-59.91-41.65-59.91-41.65Z"/><path class="cls-2" d="M192.23,811.23c-6.42-3.64-27.73-19.26-19.11-55,5.59-23.14,21.53-38.14,31.54-50.3l-4.93,55.34c-1.36,15.43-6,50.71-6,50.71Z"/><path class="cls-1" d="M208.15,710.76c6.25,9.12,18.58,29.63,17.21,47.93-2.36,31.68-24.84,48.74-30.43,52.51l-1.25.81s4.69-35.28,6-50.71S204.66,706,204.66,706Z"/><path class="cls-1" d="M272.82,915.09c-1.93,8.36-12.3,41.93-54.91,44.2-27.61,1.47-49.55-16-66.41-23.06l63.25-12.9c17.62-3.61,58.44-10.11,58.44-10.11Z"/><path class="cls-2" d="M155.7,930.75c8.06-10,26.8-30.52,47.62-35.08,36.05-7.89,62.51,11.46,68.56,16.42l1.31,1.13s-40.82,6.5-58.44,10.11-63.25,12.9-63.25,12.9Z"/><path class="cls-1" d="M97.76,680.75c-4.45,4.7-24,22.6-52.65,7.78C26.58,678.93,19,659.2,10.7,648.13l46.1,15.78c12.86,4.39,41.92,15.77,41.92,15.77Z"/><path class="cls-2" d="M15.52,646.17c9.07-3.42,29.13-9.62,44.42-4.63,26.49,8.64,36.31,31.36,38.36,36.9l.42,1.24S69.66,668.3,56.8,663.91s-46.1-15.78-46.1-15.78Z"/><path class="cls-2" d="M250.05,872.41c-7-1.79-29.41-17.78-33-47.63-2.82-23.26,11-41.39,17.33-55.55l9.77,53.82c2.74,15,7.5,49.71,7.5,49.71Z"/><path class="cls-1" d="M238.93,772.88c8.31,7,25.37,23.28,28.85,41,6,30.69-10.85,52.75-15.17,57.79l-1,1.09s-4.76-34.71-7.5-49.71-9.77-53.82-9.77-53.82Z"/><path class="cls-2" d="M568.17,1120.25s-8.86-44,7.57-75.79c21.06-40.81,67.26-54.5,78.48-57.28l2.49-.58s-20.22,25-40.11,54c-9.94,14.52-22.05,34.43-31.67,50.71Z"/><path class="cls-1" d="M659,994.91c3.67,15.53,8.87,49.56-8.29,73.2-22.89,31.51-82.53,52.14-82.53,52.14l16.76-28.93c9.62-16.28,21.73-36.19,31.67-50.71,19.89-29,40.11-54,40.11-54Z"/><path class="cls-2" d="M143.76,553.52s-25,2.45-39.41,16.48c-18.44,18-18.21,45-17.87,51.48l.1,1.43S96.66,608,109,592.55c6.16-7.71,14.86-17.47,22-25.3Z"/><path class="cls-1" d="M91.41,622.78c8.94-.58,28-3.37,37.91-16.45,13.15-17.44,14.44-52.81,14.44-52.81L131,567.25c-7.15,7.83-15.85,17.59-22,25.3-12.32,15.42-22.4,30.36-22.4,30.36Z"/><path class="cls-2" d="M212.33,1017s9.09-36,32.77-54c30.35-23,69.81-16.72,79.2-14.79l2.06.46s-24.05,11.45-49.31,26.07c-12.63,7.3-28.81,17.87-41.83,26.6Z"/><path class="cls-1" d="M325.1,955.73c-2.81,12.94-11.09,40.25-32.38,51.8-28.39,15.39-80.39,9.49-80.39,9.49l22.89-15.65c13-8.73,29.2-19.3,41.83-26.6,25.26-14.62,49.31-26.07,49.31-26.07Z"/><path class="cls-2" d="M185.45,646.17S157,656.82,144.54,677.69c-15.95,26.74-7.28,58.23-4.86,65.69l.56,1.64s7.13-20.59,16.72-42.44c4.8-10.92,11.92-25,17.84-36.39Z"/><path class="cls-1" d="M145.84,743.36c10.26-3.46,31.71-12.66,39.16-31,9.94-24.46.45-66.19.45-66.19l-10.65,20c-5.92,11.37-13,25.47-17.84,36.39C147.37,724.43,140.24,745,140.24,745Z"/><path class="cls-2" d="M283.53,813.49s-15.27,30.45-9.58,57.08c7.29,34.12,38.42,53.38,46.09,57.66l1.71.92s-9.84-22.35-18.62-47.61c-4.39-12.63-9.29-29.64-13.09-43.49Z"/><path class="cls-1" d="M325.08,923.51c5.79-10.65,16.4-34.56,8.54-55.32-10.49-27.67-50.09-54.7-50.09-54.7L290,838.05c3.8,13.85,8.7,30.86,13.09,43.49,8.78,25.26,18.62,47.61,18.62,47.61Z"/><path class="cls-2" d="M54.38,789.78s28.31-18.94,55.44-16.62c34.76,3,57.75,31.47,63,38.54l1.12,1.58s-23.39-7-49.55-12.53c-13.08-2.78-30.57-5.52-44.79-7.57Z"/><path class="cls-1" d="M168.73,817.29c-9.85,7.08-32.25,20.58-53.82,15.37-28.76-6.95-60.53-42.88-60.53-42.88l25.18,3.4c14.22,2.05,31.71,4.79,44.79,7.57,26.16,5.56,49.55,12.53,49.55,12.53Z"/><path class="cls-2" d="M399.42,866.57s-10.12,36.7,1.9,64.66c15.41,35.82,53.72,50.17,63.06,53.2l2.08.64s-15.65-22.36-30.76-48.15c-7.55-12.89-16.62-30.48-23.8-44.84Z"/><path class="cls-1" d="M468.88,978.17c4-12.94,10.47-41.46-2.66-62.5-17.5-28.07-66.8-49.1-66.8-49.1l12.48,25.51c7.18,14.36,16.25,31.95,23.8,44.84,15.11,25.79,30.76,48.15,30.76,48.15Z"/></g></g><g id="Laurel1"><path class="cls-1" d="M506.65,82.76c-17.7,37.63-46.22,107.58-62.44,196.17-11.21,61.24-16.55,131.38-8.42,205.91C450.1,616,500.72,750.13,602.31,852.48c84.43,85.06,204.07,148.26,367.49,169.64a8.59,8.59,0,0,0,2.15-17c-159.61-19.46-276.92-80-360-162.23-100.48-99.48-151-230.62-166.15-359.13-8.67-73.5-4-142.78,6.55-203.33,15.31-87.91,43-157.45,60.17-194.9a3.23,3.23,0,1,0-5.86-2.72Z"/><path class="cls-1" d="M864.45,799.19c6.18,4.7,60.16,46.74,71.81,85.56,20.4,68-30.37,106-32.28,107.44-2.16-22.79-6.71-62.89-13.52-91.19C883.7,872.88,871.61,826.39,864.45,799.19Z"/><path class="cls-2" d="M864.45,799.19c7.16,27.2,19.25,73.69,26,101.81,6.8,28.3,11.35,68.4,13.51,91.19l-.05,0s-62.62-44.36-64-96.75c-1.38-51.17,24-96.74,24-96.74Z"/><path class="cls-2" d="M572.89.09c-4.08.88-40,9.07-54.54,25.35C492.88,54,509,84.08,509.58,85.2c6.25-10.62,17.62-29.14,27.4-41.39S563.19,11.72,572.89.09Z"/><path class="cls-1" d="M572.89.09c-9.7,11.63-26.2,31.55-35.92,43.72S515.83,74.58,509.58,85.2v0s40.66-7.35,53.3-32.57C575.24,28,573.27,0,573.27,0Z"/><path class="cls-1" d="M354.21,163c-.7,5.94-6.24,58.35,9.06,85.56,26.81,47.68,75,39.85,76.84,39.54-11.49-13.38-31.29-37.34-43.34-56.24S365.47,181.48,354.21,163Z"/><path class="cls-2" d="M354.21,163c11.26,18.51,30.57,50.07,42.55,68.86s31.87,42.86,43.35,56.24h.05s8.87-58.44-19.42-87.23c-27.64-28.13-66.48-38.42-66.48-38.42Z"/><path class="cls-1" d="M305.29,385.34c1.26,6.36,13,62.24,37.91,85.19,43.56,40.2,90.67,16,92.42,15.11-16.31-10-44.73-28.05-63.47-43.52S323.08,400.67,305.29,385.34Z"/><path class="cls-2" d="M305.29,385.34c17.79,15.33,48.24,41.41,66.86,56.78s47.16,33.56,63.47,43.52l.05,0s-10.36-63.21-49.15-83.44c-37.89-19.77-81.36-17.42-81.36-17.42Z"/><path class="cls-1" d="M552.94,599.45c3,4.48,28.51,44.33,27.18,72.34-2.34,49.07-44.21,62.21-45.78,62.68,3.83-15.37,10.09-42.58,12.16-62.61S551.36,618.84,552.94,599.45Z"/><path class="cls-2" d="M552.94,599.44c-1.59,19.4-4.39,52.51-6.44,72.42s-8.33,47.24-12.16,62.61h0s-30.66-43.35-19.53-77.85C525.64,622.92,552.68,599,552.68,599Z"/><path class="cls-1" d="M587,158.41c-2.24,4.3-22.53,41.91-45.22,53.11-39.77,19.63-68.46-7.68-69.51-8.71,13.8-3.7,38-10.67,54.74-17.8S571,165.65,587,158.41Z"/><path class="cls-2" d="M587,158.41c-16,7.23-43.37,19.51-60,26.6s-40.94,14.1-54.74,17.79l0,0s20.81-43.17,52.92-49.48c31.37-6.17,62.06,4.72,62.06,4.72Z"/><path class="cls-1" d="M394.13,836.31c5.44,4.71,54,45.7,93.91,50.18,69.92,7.86,101-42,102.11-43.91-22.82,1.45-63.07,3.35-91.95,1.55C469.51,842.33,422,838.58,394.13,836.31Z"/><path class="cls-2" d="M394.13,836.31c27.83,2.27,75.38,6,104.07,7.82,28.88,1.8,69.13-.1,91.95-1.55l0-.05s-52-48.19-104-41.75c-50.8,6.29-92.6,35.1-92.6,35.1Z"/><path class="cls-1" d="M435.13,18.54c-.92,4.13-8.58,40.72.24,62.62,15.45,38.39,49.95,40.54,51.23,40.6-7.12-11.4-19.34-31.71-26.47-47.16S441.72,33.58,435.13,18.54Z"/><path class="cls-2" d="M435.13,18.54c6.59,15,17.92,40.7,25,56.06s19.35,35.76,26.47,47.16h0s10.43-40.36-7.42-65.48c-17.43-24.54-44-38.14-44-38.14Z"/><path class="cls-2" d="M732.29,1096.42c21.57-20.46,45.93-59.31,84.22-77.68s83.91-6.58,83.91-6.58-18.16,29.21-62.93,49.83c-23.7,10.92-71,24.83-93.21,31.1Z"/><path class="cls-1" d="M900.42,1012.16s13.89,61.1-30.86,84.5c-52.46,27.42-137.27-.24-137.27-.24l12-3.33c22.19-6.27,69.51-20.18,93.21-31.1C882.26,1041.37,900.42,1012.16,900.42,1012.16Z"/><path class="cls-2" d="M393.61,717.71c22.89,1,57.45-6.41,88.15,4.92s48.64,42.88,48.64,42.88-25.89,5.62-61.31-8.07c-18.76-7.26-51.83-26-67.2-34.88Z"/><path class="cls-1" d="M530.4,765.51S504.06,806,467.12,793.77c-43.32-14.31-73.51-76.06-73.51-76.06l8.28,4.85c15.37,8.9,48.44,27.62,67.2,34.88C504.51,771.13,530.4,765.51,530.4,765.51Z"/><path class="cls-2" d="M508.81,921.9c23.22-9.25,54.35-32,90-34.4s67.57,21,67.57,21-23.28,17.15-64.67,19.29c-21.91,1.14-63.2-2.76-82.48-4.78Z"/><path class="cls-1" d="M666.36,908.53s-8.2,52-50.44,56.36c-49.51,5.06-107.11-43-107.11-43l10.4,1.14c19.28,2,60.57,5.92,82.48,4.78C643.08,925.68,666.36,908.53,666.36,908.53Z"/><path class="cls-2" d="M665.67,752.24c-6.25,20.42-23.45,48.51-23,79s22.61,56.07,22.61,56.07,13-21,11.93-56.41c-.56-18.74-6.76-53.63-9.82-69.9Z"/><path class="cls-1" d="M665.26,887.33s43.75-10.61,44.48-46.88c.86-42.51-44.07-88.21-44.07-88.21l1.7,8.78c3.06,16.27,9.26,51.16,9.82,69.9C678.24,866.31,665.26,887.33,665.26,887.33Z"/><path class="cls-2" d="M799.54,956.14c-12.84-1.77-64.77-12.83-73.94-76.65-6-41.35,17.31-76.71,25.72-103l28,93.42c7.82,26,23.13,86.59,23.13,86.59Z"/><path class="cls-1" d="M760.13,782c16.12,10.79,49.56,36.21,59.23,66.92,16.76,53.18-8.79,95.61-15.44,105.39l-1.51,2.13s-15.31-60.55-23.13-86.59-28-93.42-28-93.42Z"/><path class="cls-2" d="M451.81,409.73c-3.67-9.16-12.95-43.23,25.79-73.39,25.11-19.54,54.27-21.95,74.86-26.33l-51.23,53.76c-14.27,15-48.54,48-48.54,48Z"/><path class="cls-1" d="M552.11,317.94c-1.06,14.73-5.25,46.44-21.91,64.43-28.85,31.16-66.56,30.28-75.53,29.57l-2-.2s34.27-33,48.54-48S552.46,310,552.46,310Z"/><path class="cls-1" d="M449.6,585.4c-9,7.13-47.77,33.6-94.21.5-30.09-21.45-38.51-57.93-50.23-79.39L382,545.67c21.43,10.9,69.53,38.09,69.53,38.09Z"/><path class="cls-2" d="M314.11,504.26c16.75-3.72,53.44-9.59,79,3,44.26,21.76,55.81,64,58,74.25l.44,2.27s-48.1-27.19-69.53-38.09-76.87-39.16-76.87-39.16Z"/><path class="cls-1" d="M461.68,194.65c-8.57,1.21-43.95,3.61-61.52-35.7-11.39-25.46-2.93-52.43-2.35-70.88L432.87,143c9.79,15.29,30.71,51.38,30.71,51.38Z"/><path class="cls-2" d="M404.49,90c12.33,4,38.46,14.18,50.3,32.14,20.49,31.09,11.85,63,9.37,70.51l-.58,1.65S442.66,158.24,432.87,143s-35.06-54.88-35.06-54.88Z"/><path class="cls-2" d="M461.34,521.83c-5.88-7.74-15.95-43.07,5.12-77.29,16.42-26.67,46-34.12,64.37-43.65L496.24,465.3c-9.63,18-33.54,58.21-33.54,58.21Z"/><path class="cls-1" d="M532.57,408.51c2.84,14.26,7.15,45.46-4,66.88-19.25,37.11-55.27,46.12-64,47.8l-1.93.32s23.91-40.25,33.54-58.21,34.59-64.41,34.59-64.41Z"/><path class="cls-2" d="M587.58,1045.8s27.33-53.32,71-72.93c56-25.13,115.69-1,129.74,5.44l3.08,1.48s-41.93,9.27-86.9,23.08c-22.49,6.9-51.72,17.63-75.34,26.64Z"/><path class="cls-1" d="M786.9,990.37c-9.1,19.3-32,59.21-69.62,69.63-50.16,13.89-129.7-14.2-129.7-14.2l41.61-16.29c23.62-9,52.85-19.74,75.34-26.64,45-13.81,86.9-23.08,86.9-23.08Z"/><path class="cls-2" d="M615.71,99.93S587.5,81.65,560.78,84.35c-34.26,3.45-56.52,31.89-61.55,39l-1.09,1.58s23-7.23,48.71-13.1c12.86-2.94,30.07-5.9,44.07-8.13Z"/><path class="cls-1" d="M503.31,128.75c9.82,6.84,32.12,19.83,53.32,14.37,28.28-7.28,59.08-43.19,59.08-43.19l-24.79,3.72c-14,2.23-31.21,5.19-44.07,8.13-25.73,5.87-48.71,13.1-48.71,13.1Z"/><path class="cls-2" d="M301.5,641.62S341,611.5,380.71,612.46c50.88,1.22,86.9,40.63,95.11,50.46l1.78,2.21s-34.68-8.06-73.26-13.81c-19.29-2.88-45-5.3-65.89-7Z"/><path class="cls-1" d="M470.43,671.42c-13.71,11.19-45.11,32.86-77,27.2-42.5-7.54-91.95-57-91.95-57l36.95,2.69c20.89,1.71,46.6,4.13,65.89,7,38.58,5.75,73.26,13.81,73.26,13.81Z"/><path class="cls-2" d="M582.15,231.51s-38.63-12.57-69-1.12C474.2,245.08,457,285.23,453.36,295l-.77,2.18s24.59-15.58,52.81-30.44c14.11-7.43,33.29-16.25,49-23.2Z"/><path class="cls-1" d="M459.82,300.14c13.6,4.93,43.69,13.17,66.76.19,30.76-17.3,55.57-68.82,55.57-68.82l-27.8,12.06c-15.66,7-34.84,15.77-49,23.2-28.22,14.86-52.81,30.44-52.81,30.44Z"/><path class="cls-2" d="M545.39,488.1s-41.31,19.12-57.54,51.69c-20.78,41.75-4.27,87.8.19,98.67l1,2.38s8.32-31.55,20.17-65.27c5.92-16.86,15-38.73,22.52-56.38Z"/><path class="cls-1" d="M497.23,637.72c14.93-6.32,45.92-22.48,55-50.73,12.08-37.66-6.82-98.89-6.82-98.89l-13.64,31.09c-7.56,17.65-16.6,39.52-22.52,56.38-11.85,33.72-20.17,65.27-20.17,65.27Z"/><path class="cls-2" d="M325.55,272.53s45.37,3.76,71.8,28.78c33.87,32.05,34.19,81,33.74,92.71l-.14,2.59s-18.66-26.77-41.38-54.36C378.22,328.45,362.21,311,349.05,297Z"/><path class="cls-1" d="M422.2,396.49c-16.19-.8-50.85-5.33-69.06-28.74-24.29-31.21-27.59-95.22-27.59-95.22L349.05,297c13.16,14,29.17,31.41,40.52,45.21C412.29,369.84,431,396.61,431,396.61Z"/><path class="cls-2" d="M622.37,640.08S581.23,670,570.52,709.26c-13.72,50.29,14.39,97.19,21.63,108.13l1.64,2.39s2.26-36.4,7.93-75.94c2.84-19.77,8-45.71,12.45-66.7Z"/><path class="cls-1" d="M602.07,814.59c15-10.17,45.47-34.63,49.26-67.56,5.06-43.91-29-106.95-29-106.95l-8.2,37.06c-4.45,21-9.61,46.93-12.45,66.7-5.67,39.54-7.93,75.94-7.93,75.94Z"/><path class="cls-1" d="M1614.65,85.48c17.21,37.45,44.86,107,60.17,194.9,10.54,60.55,15.22,129.83,6.56,203.33-15.16,128.51-65.67,259.65-166.15,359.13-83.1,82.27-200.41,142.77-360,162.23a8.59,8.59,0,1,0,2.15,17c163.43-21.38,283.06-84.58,367.49-169.64C1626.44,750.13,1677.06,616,1691.37,484.84c8.13-74.53,2.8-144.67-8.42-205.91-16.22-88.59-44.73-158.54-62.43-196.17a3.23,3.23,0,0,0-5.87,2.72Z"/><path class="cls-1" d="M1262.71,799.19c-6.18,4.7-60.16,46.74-71.81,85.56-20.4,68,30.37,106,32.28,107.44,2.16-22.79,6.71-62.89,13.52-91.19C1243.46,872.88,1255.55,826.39,1262.71,799.19Z"/><path class="cls-2" d="M1262.71,799.19c-7.16,27.2-19.25,73.69-26,101.81-6.81,28.3-11.36,68.4-13.52,91.19l0,0s62.62-44.36,64-96.75c1.38-51.17-24-96.74-24-96.74Z"/><path class="cls-2" d="M1554.27.09c4.09.88,40,9.07,54.54,25.35,25.47,28.51,9.39,58.64,8.77,59.76-6.25-10.62-17.61-29.14-27.39-41.39S1564,11.72,1554.27.09Z"/><path class="cls-1" d="M1554.27.09c9.7,11.63,26.2,31.55,35.92,43.72s21.14,30.77,27.4,41.39l0,0s-40.66-7.35-53.3-32.57C1551.92,28,1553.89,0,1553.89,0Z"/><path class="cls-1" d="M1773,163c.7,5.94,6.24,58.35-9.06,85.56-26.81,47.68-75,39.85-76.83,39.54,11.48-13.38,31.28-37.34,43.34-56.24S1761.69,181.48,1773,163Z"/><path class="cls-2" d="M1773,163c-11.26,18.51-30.57,50.07-42.55,68.86s-31.86,42.86-43.34,56.24h0s-8.88-58.44,19.42-87.23c27.64-28.13,66.47-38.42,66.47-38.42Z"/><path class="cls-1" d="M1821.87,385.34c-1.26,6.36-13,62.24-37.91,85.19-43.56,40.2-90.67,16-92.41,15.11,16.3-10,44.72-28.05,63.46-43.52S1804.08,400.67,1821.87,385.34Z"/><path class="cls-2" d="M1821.87,385.34c-17.79,15.33-48.24,41.41-66.86,56.78s-47.16,33.56-63.47,43.52l0,0s10.36-63.21,49.14-83.44c37.89-19.77,81.36-17.42,81.36-17.42Z"/><path class="cls-1" d="M1574.22,599.45c-3,4.48-28.5,44.33-27.17,72.34,2.33,49.07,44.21,62.21,45.77,62.68-3.83-15.37-10.09-42.58-12.15-62.61S1575.81,618.84,1574.22,599.45Z"/><path class="cls-2" d="M1574.22,599.44c1.59,19.4,4.39,52.51,6.45,72.42s8.32,47.24,12.15,62.61h0s30.65-43.35,19.52-77.85c-10.87-33.71-37.9-57.61-37.9-57.61Z"/><path class="cls-1" d="M1540.15,158.41c2.25,4.3,22.53,41.91,45.22,53.11,39.77,19.63,68.46-7.68,69.52-8.71-13.81-3.7-38-10.67-54.75-17.8S1556.15,165.65,1540.15,158.41Z"/><path class="cls-2" d="M1540.15,158.41c16,7.23,43.37,19.51,60,26.6s40.94,14.1,54.75,17.79l0,0s-20.81-43.17-52.93-49.48c-31.36-6.17-62.06,4.72-62.06,4.72Z"/><path class="cls-1" d="M1733,836.31c-5.44,4.71-54,45.7-93.91,50.18-69.92,7.86-101-42-102.11-43.91,22.82,1.45,63.08,3.35,92,1.55C1657.66,842.33,1705.2,838.58,1733,836.31Z"/><path class="cls-2" d="M1733,836.31c-27.83,2.27-75.37,6-104.07,7.82-28.87,1.8-69.13-.1-92-1.55l0-.05s52-48.19,104-41.75c50.8,6.29,92.6,35.1,92.6,35.1Z"/><path class="cls-1" d="M1692,18.54c.91,4.13,8.57,40.72-.24,62.62-15.45,38.39-50,40.54-51.24,40.6,7.12-11.4,19.34-31.71,26.47-47.16S1685.44,33.58,1692,18.54Z"/><path class="cls-2" d="M1692,18.54c-6.6,15-17.93,40.7-25,56.06s-19.35,35.76-26.47,47.16h0s-10.44-40.36,7.41-65.48c17.43-24.54,44-38.14,44-38.14Z"/><path class="cls-2" d="M1394.87,1096.42c-21.56-20.46-45.93-59.31-84.22-77.68s-83.9-6.58-83.9-6.58,18.15,29.21,62.92,49.83c23.7,10.92,71,24.83,93.21,31.1Z"/><path class="cls-1" d="M1226.75,1012.16s-13.9,61.1,30.85,84.5c52.46,27.42,137.27-.24,137.27-.24l-12-3.33c-22.18-6.27-69.51-20.18-93.21-31.1C1244.9,1041.37,1226.75,1012.16,1226.75,1012.16Z"/><path class="cls-2" d="M1733.55,717.71c-22.88,1-57.44-6.41-88.14,4.92s-48.65,42.88-48.65,42.88,25.89,5.62,61.32-8.07c18.75-7.26,51.83-26,67.2-34.88Z"/><path class="cls-1" d="M1596.76,765.51s26.35,40.46,63.29,28.26c43.31-14.31,73.5-76.06,73.5-76.06l-8.27,4.85c-15.37,8.9-48.45,27.62-67.2,34.88C1622.65,771.13,1596.76,765.51,1596.76,765.51Z"/><path class="cls-2" d="M1618.36,921.9c-23.22-9.25-54.36-32-90-34.4s-67.57,21-67.57,21,23.28,17.15,64.67,19.29c21.91,1.14,63.2-2.76,82.48-4.78Z"/><path class="cls-1" d="M1460.8,908.53s8.2,52,50.44,56.36c49.52,5.06,107.12-43,107.12-43L1608,923c-19.28,2-60.57,5.92-82.48,4.78C1484.08,925.68,1460.8,908.53,1460.8,908.53Z"/><path class="cls-2" d="M1461.49,752.24c6.26,20.42,23.45,48.51,23,79s-22.61,56.07-22.61,56.07-13-21-11.92-56.41c.55-18.74,6.75-53.63,9.82-69.9Z"/><path class="cls-1" d="M1461.9,887.33s-43.74-10.61-44.48-46.88c-.86-42.51,44.07-88.21,44.07-88.21L1459.8,761c-3.07,16.27-9.27,51.16-9.82,69.9C1448.92,866.31,1461.9,887.33,1461.9,887.33Z"/><path class="cls-2" d="M1327.63,956.14c12.83-1.77,64.76-12.83,73.94-76.65,5.94-41.35-17.32-76.71-25.72-103l-28,93.42c-7.82,26-23.12,86.59-23.12,86.59Z"/><path class="cls-1" d="M1367,782c-16.12,10.79-49.56,36.21-59.23,66.92-16.75,53.18,8.79,95.61,15.44,105.39l1.52,2.13s15.3-60.55,23.12-86.59,28-93.42,28-93.42Z"/><path class="cls-2" d="M1675.35,409.73c3.67-9.16,13-43.23-25.79-73.39-25.1-19.54-54.27-21.95-74.86-26.33l51.24,53.76c14.26,15,48.53,48,48.53,48Z"/><path class="cls-1" d="M1575.06,317.94c1,14.73,5.24,46.44,21.9,64.43,28.85,31.16,66.56,30.28,75.54,29.57l2-.2s-34.27-33-48.53-48S1574.7,310,1574.7,310Z"/><path class="cls-1" d="M1677.56,585.4c9,7.13,47.77,33.6,94.21.5,30.09-21.45,38.51-57.93,50.23-79.39l-76.86,39.16c-21.44,10.9-69.53,38.09-69.53,38.09Z"/><path class="cls-2" d="M1813.05,504.26c-16.75-3.72-53.44-9.59-79,3-44.26,21.76-55.81,64-58,74.25l-.43,2.27s48.09-27.19,69.53-38.09S1822,506.51,1822,506.51Z"/><path class="cls-1" d="M1665.49,194.65c8.56,1.21,43.94,3.61,61.52-35.7,11.38-25.46,2.92-52.43,2.34-70.88L1694.29,143c-9.79,15.29-30.71,51.38-30.71,51.38Z"/><path class="cls-2" d="M1722.67,90c-12.33,4-38.46,14.18-50.29,32.14-20.5,31.09-11.86,63-9.38,70.51l.58,1.65s20.92-36.09,30.71-51.38,35.06-54.88,35.06-54.88Z"/><path class="cls-2" d="M1665.82,521.83c5.88-7.74,16-43.07-5.12-77.29-16.42-26.67-46-34.12-64.37-43.65l34.59,64.41c9.63,18,33.55,58.21,33.55,58.21Z"/><path class="cls-1" d="M1594.6,408.51c-2.85,14.26-7.15,45.46,4,66.88,19.25,37.11,55.27,46.12,64,47.8l1.93.32s-23.92-40.25-33.55-58.21-34.59-64.41-34.59-64.41Z"/><path class="cls-2" d="M1539.58,1045.8s-27.33-53.32-71-72.93c-56-25.13-115.69-1-129.74,5.44l-3.08,1.48s41.94,9.27,86.91,23.08c22.48,6.9,51.71,17.63,75.33,26.64Z"/><path class="cls-1" d="M1340.26,990.37c9.1,19.3,32,59.21,69.62,69.63,50.16,13.89,129.7-14.2,129.7-14.2L1498,1029.51c-23.62-9-52.85-19.74-75.33-26.64-45-13.81-86.91-23.08-86.91-23.08Z"/><path class="cls-2" d="M1511.45,99.93s28.21-18.28,54.94-15.58c34.25,3.45,56.51,31.89,61.54,39l1.09,1.58s-23-7.23-48.7-13.1c-12.86-2.94-30.08-5.9-44.08-8.13Z"/><path class="cls-1" d="M1623.86,128.75c-9.83,6.84-32.12,19.83-53.33,14.37-28.27-7.28-59.08-43.19-59.08-43.19l24.79,3.72c14,2.23,31.22,5.19,44.08,8.13,25.72,5.87,48.7,13.1,48.7,13.1Z"/><path class="cls-2" d="M1825.66,641.62s-39.51-30.12-79.21-29.16c-50.88,1.22-86.9,40.63-95.11,50.46l-1.78,2.21s34.69-8.06,73.27-13.81c19.28-2.88,45-5.3,65.88-7Z"/><path class="cls-1" d="M1656.73,671.42c13.71,11.19,45.11,32.86,77,27.2,42.5-7.54,92-57,92-57l-37,2.69c-20.89,1.71-46.6,4.13-65.88,7-38.58,5.75-73.27,13.81-73.27,13.81Z"/><path class="cls-2" d="M1545,231.51s38.62-12.57,69-1.12c38.93,14.69,56.09,54.84,59.77,64.64l.78,2.18s-24.6-15.58-52.82-30.44c-14.1-7.43-33.29-16.25-49-23.2Z"/><path class="cls-1" d="M1667.34,300.14c-13.6,4.93-43.68,13.17-66.75.19C1569.83,283,1545,231.51,1545,231.51l27.79,12.06c15.66,7,34.85,15.77,49,23.2,28.22,14.86,52.82,30.44,52.82,30.44Z"/><path class="cls-2" d="M1581.78,488.1s41.31,19.12,57.53,51.69c20.78,41.75,4.27,87.8-.18,98.67l-1,2.38s-8.31-31.55-20.17-65.27c-5.92-16.86-15-38.73-22.52-56.38Z"/><path class="cls-1" d="M1629.93,637.72C1615,631.4,1584,615.24,1575,587c-12.08-37.66,6.83-98.89,6.83-98.89l13.63,31.09c7.56,17.65,16.6,39.52,22.52,56.38,11.86,33.72,20.17,65.27,20.17,65.27Z"/><path class="cls-2" d="M1801.61,272.53s-45.37,3.76-71.8,28.78c-33.87,32.05-34.19,81-33.74,92.71l.15,2.59s18.65-26.77,41.37-54.36C1749,328.45,1765,311,1778.12,297Z"/><path class="cls-1" d="M1705,396.49c16.19-.8,50.85-5.33,69.07-28.74,24.28-31.21,27.58-95.22,27.58-95.22L1778.12,297c-13.17,14-29.17,31.41-40.53,45.21-22.72,27.59-41.37,54.36-41.37,54.36Z"/><path class="cls-2" d="M1504.8,640.08s41.14,29.94,51.84,69.18c13.73,50.29-14.39,97.19-21.63,108.13l-1.64,2.39s-2.26-36.4-7.93-75.94c-2.83-19.77-8-45.71-12.45-66.7Z"/><path class="cls-1" d="M1525.09,814.59c-15-10.17-45.46-34.63-49.26-67.56-5.06-43.91,29-106.95,29-106.95l8.19,37.06c4.46,21,9.62,46.93,12.45,66.7,5.67,39.54,7.93,75.94,7.93,75.94Z"/></g><g id="Stand3"><rect class="cls-3" x="1358.24" y="956.68" width="503.77" height="196.72"/><path class="cls-4" d="M1379.47,1019.54a4.72,4.72,0,0,1-4.72-4.73V993.3a20.22,20.22,0,0,1,6-14.39,20.48,20.48,0,0,1,14.39-6h100.69a4.73,4.73,0,0,1,0,9.45H1395.1a10.89,10.89,0,0,0-10.9,10.9v21.51A4.73,4.73,0,0,1,1379.47,1019.54Z"/><path class="cls-4" d="M1379.47,1075.77a4.72,4.72,0,0,1-4.72-4.72v-27.41a4.73,4.73,0,0,1,9.45,0v27.41A4.72,4.72,0,0,1,1379.47,1075.77Z"/><circle class="cls-5" cx="1610.12" cy="1055.04" r="57.27" transform="translate(-274.43 1447.54) rotate(-45)"/><circle class="cls-6" cx="1610.12" cy="1055.04" r="47.34"/><path class="cls-7" d="M1588.87,1048.74a1.56,1.56,0,0,1,3,0l3.07,9.44a1.57,1.57,0,0,0,1.48,1.08h9.93a1.56,1.56,0,0,1,.92,2.83l-8,5.83a1.56,1.56,0,0,0-.57,1.75l3.07,9.44a1.57,1.57,0,0,1-.57,1.75,1.59,1.59,0,0,1-1.84,0l-8-5.84a1.55,1.55,0,0,0-1.83,0l-8,5.84a1.59,1.59,0,0,1-1.84,0,1.57,1.57,0,0,1-.57-1.75l3.07-9.44a1.56,1.56,0,0,0-.57-1.75l-8-5.83a1.56,1.56,0,0,1,.92-2.83h9.92a1.57,1.57,0,0,0,1.49-1.08Z"/><path class="cls-7" d="M1628.2,1048.74a1.56,1.56,0,0,1,3,0c1.07,3.3,2.43,7.5,3.07,9.44a1.55,1.55,0,0,0,1.48,1.08h9.93a1.56,1.56,0,0,1,1.48,1.08,1.58,1.58,0,0,1-.56,1.75l-8,5.83a1.56,1.56,0,0,0-.57,1.75c.63,1.94,2,6.14,3.07,9.44a1.57,1.57,0,0,1-2.41,1.75l-8-5.84a1.56,1.56,0,0,0-1.84,0l-8,5.84a1.56,1.56,0,0,1-2.4-1.75c1.07-3.3,2.43-7.5,3.07-9.44a1.58,1.58,0,0,0-.57-1.75l-8-5.83a1.56,1.56,0,0,1,.92-2.83h9.92a1.57,1.57,0,0,0,1.49-1.08Z"/><path class="cls-7" d="M1608.63,1020.32a1.56,1.56,0,0,1,3,0l3.07,9.44a1.55,1.55,0,0,0,1.48,1.08h9.93a1.56,1.56,0,0,1,.92,2.83c-2.81,2-6.38,4.63-8,5.84a1.55,1.55,0,0,0-.57,1.74c.63,2,2,6.15,3.07,9.44a1.57,1.57,0,0,1-2.41,1.75l-8-5.83a1.55,1.55,0,0,0-1.83,0l-8,5.83a1.55,1.55,0,0,1-1.83,0,1.56,1.56,0,0,1-.57-1.75c1.07-3.29,2.44-7.49,3.07-9.44a1.55,1.55,0,0,0-.57-1.74l-8-5.84a1.56,1.56,0,0,1,.92-2.83h9.92a1.56,1.56,0,0,0,1.49-1.08Z"/><path class="cls-8" d="M1881.92,944.3a12.38,12.38,0,0,0-12.38-12.38h-511.3v24.76h511.3a12.39,12.39,0,0,0,12.38-12.38Z"/></g><g id="Stand2"><rect class="cls-3" x="264.82" y="903.96" width="503.77" height="249.45"/><path class="cls-4" d="M297.53,984.78a4.72,4.72,0,0,1-4.72-4.72V947.54a20.22,20.22,0,0,1,6-14.39,20.48,20.48,0,0,1,14.39-6H413.85a4.73,4.73,0,0,1,0,9.45H313.16a10.89,10.89,0,0,0-10.9,10.9v32.52A4.72,4.72,0,0,1,297.53,984.78Z"/><path class="cls-4" d="M297.53,1043.24a4.72,4.72,0,0,1-4.72-4.72v-27.4a4.73,4.73,0,1,1,9.45,0v27.4A4.72,4.72,0,0,1,297.53,1043.24Z"/><circle class="cls-9" cx="516.7" cy="1028.68" r="84.14" transform="translate(-576.05 666.66) rotate(-45)"/><circle class="cls-10" cx="516.7" cy="1028.68" r="69.55"/><path class="cls-11" d="M483.06,1000.56a1.57,1.57,0,0,1,3,0c1.9,5.87,5.08,15.67,6.14,18.91a1.57,1.57,0,0,0,1.49,1.08h19.87a1.56,1.56,0,0,1,.92,2.83l-16.08,11.68a1.57,1.57,0,0,0-.57,1.75c1.06,3.24,4.24,13,6.15,18.91a1.56,1.56,0,0,1-2.41,1.74l-16.08-11.68a1.56,1.56,0,0,0-1.84,0l-16.08,11.68a1.56,1.56,0,0,1-2.41-1.74c1.91-5.87,5.09-15.67,6.15-18.91a1.57,1.57,0,0,0-.57-1.75l-16.08-11.68a1.56,1.56,0,0,1,.91-2.83h19.88a1.57,1.57,0,0,0,1.49-1.08C478,1016.23,481.16,1006.43,483.06,1000.56Z"/><path class="cls-11" d="M547.06,1000.56a1.56,1.56,0,0,1,3,0c1.9,5.87,5.09,15.67,6.14,18.91a1.57,1.57,0,0,0,1.49,1.08h19.88a1.57,1.57,0,0,1,.92,2.83l-16.09,11.68a1.58,1.58,0,0,0-.57,1.75c1.06,3.24,4.24,13,6.15,18.91a1.56,1.56,0,0,1-2.41,1.74l-16.08-11.68a1.56,1.56,0,0,0-1.84,0l-16.08,11.68a1.56,1.56,0,0,1-2.4-1.74c1.9-5.87,5.09-15.67,6.14-18.91a1.57,1.57,0,0,0-.57-1.75l-16.08-11.68a1.56,1.56,0,0,1,.92-2.83h19.88a1.57,1.57,0,0,0,1.48-1.08C542,1016.23,545.15,1006.43,547.06,1000.56Z"/><path class="cls-8" d="M244.91,891.57a12.39,12.39,0,0,1,12.38-12.38h511.3V904H257.29a12.39,12.39,0,0,1-12.38-12.39Z"/></g><g id="SilverTrophy"><path class="cls-12" d="M373.67,863c.94-26.72,86.53-32.33,150.83-75.45,64.71,48.62,149.89,48.8,150.83,75.45h0v16.22H373.66V863Z"/><path class="cls-13" d="M652.68,866.16H396.32a2.49,2.49,0,0,1,0-5H652.68a2.49,2.49,0,0,1,0,5Z"/><path class="cls-11" d="M485.57,704.5s8.63,12.91,15.8,35.74c2.34,7.47,4.73,15.38,4.65,23.83s-2.75,16.32-5.14,23.83c-7.19,22.57-15.31,35.74-15.31,35.74,0,21.48,77.85,21.48,77.85,0,0,0-8.12-13.17-15.31-35.74-2.39-7.51-5.05-15.31-5.13-23.83s2.3-16.36,4.65-23.83c7.17-22.83,15.79-35.74,15.79-35.74a38.93,38.93,0,0,0-77.85,0Z"/><path class="cls-13" d="M640.16,628.28a12.5,12.5,0,0,1-.93-25c55.53-4.2,89.94-33.23,92-77.65.69-14.37-2.85-25-10.8-32.53-17.11-16.21-49.64-13.38-50-13.35A12.5,12.5,0,0,1,668,454.9c1.78-.18,44.07-4.2,69.7,20.07,13.36,12.65,19.62,30.11,18.58,51.87-1.3,27.54-12.41,51.56-32.11,69.44-20.19,18.33-48.9,29.38-83,32Z"/><path class="cls-13" d="M393.24,628.28c-.31,0-.63,0-.95,0-34.13-2.59-62.84-13.64-83-32-19.7-17.88-30.8-41.9-32.11-69.44-1-21.76,5.22-39.22,18.59-51.87,25.62-24.27,67.91-20.25,69.7-20.07a12.5,12.5,0,0,1-2.51,24.88h0c-.33,0-32.84-3-50.06,13.41-7.91,7.52-11.42,18.14-10.74,32.47,2.11,44.42,36.51,73.45,92,77.65a12.5,12.5,0,0,1-.93,25Z"/><path class="cls-12" d="M359.82,483.57V422.76a15.63,15.63,0,0,1,15.63-15.62h296a15.62,15.62,0,0,1,15.62,15.62v61.59c-.29,132.75-73.5,240.37-163.62,240.37C433.14,724.72,359.82,616.66,359.82,483.57Z"/><path class="cls-14" d="M698.09,425.14a18,18,0,0,0-18-18H366.81a18,18,0,0,0-18,18h0a18,18,0,0,0,18,18H680.09a18,18,0,0,0,18-18Z"/><path class="cls-13" d="M670.86,429.64h-293a4.5,4.5,0,0,1,0-9H670.86a4.5,4.5,0,0,1,0,9Z"/><circle class="cls-15" cx="523.45" cy="565.93" r="83.62"/><path class="cls-13" d="M523.45,663.46A97.53,97.53,0,1,1,621,565.93,97.64,97.64,0,0,1,523.45,663.46Zm0-190.7a93.17,93.17,0,1,0,93.16,93.17A93.27,93.27,0,0,0,523.45,472.76Z"/><path class="cls-16" d="M511.66,601.15H548c3.57,0,6.42.71,8.27,2.14a8.11,8.11,0,0,1,.57,11.83c-1.42,1.57-3.7,2.43-6.84,2.43h-51.2c-3.56,0-6.27-1-8.13-2.85a9.45,9.45,0,0,1-3-6.85c0-1.71.71-3.85,1.85-6.7a26.39,26.39,0,0,1,4.14-6.42c6.13-6.42,11.84-12,16.68-16.54a109.59,109.59,0,0,1,10.7-9,62.64,62.64,0,0,0,9.55-8.13,32.6,32.6,0,0,0,5.71-8.27,18.69,18.69,0,0,0,2-8.41,14.94,14.94,0,0,0-2.14-8,14,14,0,0,0-5.71-5.42,15.49,15.49,0,0,0-8-2c-6.14,0-10.84,2.71-14.41,8a48,48,0,0,0-2.28,5.71c-1.14,3.14-2.28,5.56-3.71,7.13a7.36,7.36,0,0,1-6,2.57,7.73,7.73,0,0,1-5.84-2.29,9.09,9.09,0,0,1-2.29-6.27,25.78,25.78,0,0,1,2.14-10,28.26,28.26,0,0,1,6.42-9.56,31.31,31.31,0,0,1,11-6.84,41.47,41.47,0,0,1,15.4-2.57A45.64,45.64,0,0,1,541,518.15a28.37,28.37,0,0,1,8.56,6.13,27.18,27.18,0,0,1,5.85,9,30.3,30.3,0,0,1,2,10.69,29.82,29.82,0,0,1-4.27,15.69,54.39,54.39,0,0,1-8.7,11.12c-3,2.57-8,6.85-15,12.55s-11.83,10.13-14.4,13.26A31.75,31.75,0,0,0,511.66,601.15Z"/><path class="cls-15" d="M410.44,607.72a6.55,6.55,0,0,1-6-4c-28.55-67.18-25.58-130.82-25.44-133.5a6.55,6.55,0,0,1,13.08.69h0c0,.63-2.92,63.41,24.41,127.69a6.55,6.55,0,0,1-6,9.11Z"/><path class="cls-15" d="M439.83,659.46a6.54,6.54,0,0,1-5.26-2.64,249.42,249.42,0,0,1-18.79-29.51,6.54,6.54,0,1,1,11.5-6.25,236.62,236.62,0,0,0,17.8,28,6.54,6.54,0,0,1-5.25,10.45Z"/></g><g id="Stand1"><rect class="cls-17" x="767.35" y="753.08" width="589.66" height="400.33"/><path class="cls-4" d="M806.23,851.71A4.72,4.72,0,0,1,801.5,847V798.5a20.37,20.37,0,0,1,20.35-20.35H960.44a4.73,4.73,0,1,1,0,9.45H821.85A10.91,10.91,0,0,0,811,798.5V847A4.72,4.72,0,0,1,806.23,851.71Z"/><path class="cls-4" d="M806.23,920a4.73,4.73,0,0,1-4.73-4.73v-39a4.73,4.73,0,0,1,9.45,0v39A4.72,4.72,0,0,1,806.23,920Z"/><circle class="cls-18" cx="1062.18" cy="949.78" r="136.15" transform="translate(-360.49 1029.26) rotate(-45)"/><circle class="cls-19" cx="1062.18" cy="949.78" r="112.54"/><path class="cls-20" d="M1059.21,882.52a3.12,3.12,0,0,1,5.94,0l15.08,46.41a3.14,3.14,0,0,0,3,2.16H1132a3.12,3.12,0,0,1,1.83,5.65l-39.47,28.68a3.13,3.13,0,0,0-1.14,3.5c2.44,7.49,10.61,32.66,15.08,46.4a3.13,3.13,0,0,1-4.81,3.5c-11.69-8.5-33.1-24.06-39.48-28.68a3.11,3.11,0,0,0-3.67,0l-39.48,28.68a3.13,3.13,0,0,1-4.81-3.5c4.47-13.74,12.65-38.91,15.08-46.4a3.14,3.14,0,0,0-1.13-3.5l-39.48-28.68a3.13,3.13,0,0,1,1.84-5.65h48.79a3.12,3.12,0,0,0,3-2.16Z"/><path class="cls-21" d="M750.19,740.7a12.39,12.39,0,0,1,12.38-12.39h604.16a12.39,12.39,0,0,1,12.38,12.39h0a12.38,12.38,0,0,1-12.38,12.38H762.57a12.38,12.38,0,0,1-12.38-12.38Z"/></g></g></svg>