<svg width="58" height="53" viewBox="0 0 58 53" fill="none" xmlns="http://www.w3.org/2000/svg">
<path d="M40.0169 28.8376H17.6989C16.9405 28.8376 16.213 29.1403 15.6769 29.6801C15.1403 30.2194 14.8393 30.9511 14.8393 31.714V43.4923C14.8393 44.2556 15.1403 44.9874 15.6769 45.5266C16.213 46.0659 16.9405 46.3691 17.6989 46.3691H40.0169C40.7757 46.3691 41.5027 46.0659 42.0392 45.5266C42.5754 44.9873 42.8768 44.2555 42.8768 43.4923V31.714C42.8768 30.9512 42.5754 30.2194 42.0392 29.6801C41.5026 29.1403 40.7756 28.8376 40.0169 28.8376ZM40.9583 43.4649C40.9586 43.4649 40.9588 43.4647 40.9588 43.4644C40.9588 43.7156 40.8598 43.9566 40.683 44.1344C40.5062 44.3118 40.2666 44.4119 40.0169 44.4119H17.6989C17.1791 44.4119 16.7575 43.9877 16.7575 43.4644V37.708C16.7575 37.1557 17.2052 36.708 17.7575 36.708H39.9513C40.5036 36.708 40.9513 37.1557 40.9513 37.708V43.4609C40.9513 43.4629 40.9528 43.4645 40.9548 43.4647L40.9583 43.4649ZM40.9595 34.8062C40.9591 34.7911 40.9468 34.7791 40.9316 34.7791L17.7649 34.7786C17.2126 34.7786 16.7649 34.3309 16.7649 33.7786V31.7137C16.7649 31.1933 17.1823 30.7701 17.6996 30.7667H40.0176C40.2673 30.7667 40.5069 30.8663 40.6837 31.0442C40.8605 31.2215 40.9595 31.4625 40.9595 31.7137V34.8062ZM49.2681 35.5594V13.081C49.2662 11.569 48.6682 10.1187 47.6051 9.0493C46.542 7.9799 45.1006 7.37835 43.597 7.37649H37.8075C37.3019 7.37649 36.8822 6.99712 36.769 6.50437C36.3886 4.84953 35.5161 3.34175 34.2579 2.18839C32.7814 0.834734 30.872 0.0588386 28.8757 5.84829e-06C26.8567 -0.00242358 24.9097 0.752132 23.4142 2.11599C22.1429 3.27545 21.2755 4.805 20.9245 6.47897C20.8188 6.98316 20.3944 7.37649 19.8793 7.37649H14.9643C13.2347 7.37843 11.5765 8.0703 10.3539 9.30055C9.13092 10.5308 8.44312 12.1983 8.44114 13.9381V34.7006C8.44114 35.2122 8.05332 35.6356 7.552 35.7378C5.58158 36.1396 3.78169 37.167 2.4252 38.6805C0.866556 40.4193 0.00284401 42.6768 0 45.0176V52.0317C0 52.5666 0.431337 53 0.96266 53H57.0378H57.0374C57.2929 53 57.5373 52.898 57.7179 52.7163C57.8986 52.535 58 52.2887 58 52.0317V45.0176C57.9976 42.6271 57.0958 40.3261 55.4758 38.5765C53.8623 36.8336 51.6556 35.7672 49.2951 35.5885C49.2799 35.5873 49.2681 35.5746 49.2681 35.5594ZM8.41835 51.0412C8.41512 51.038 8.41077 51.0362 8.40624 51.0362L2.91807 51.0354C2.36584 51.0353 1.91822 50.5876 1.91822 50.0354V45.0173C1.91967 43.1865 2.58285 41.4189 3.78414 40.044C4.73355 38.9577 5.96724 38.175 7.33329 37.7774C7.91317 37.6087 8.44769 38.0795 8.44769 38.6834V51.0289C8.44769 51.0443 8.42923 51.052 8.41835 51.0412ZM28.8753 1.93017C30.3698 1.97001 31.8024 2.53799 32.923 3.53358C33.7526 4.27132 34.3719 5.20895 34.7281 6.24977C34.9262 6.82833 34.4532 7.37674 33.8417 7.37674H23.8661C23.2621 7.37674 22.7906 6.84082 22.9759 6.26586C23.3188 5.20197 23.9409 4.24251 24.7855 3.49415C25.9163 2.49277 27.3689 1.93688 28.8753 1.93017ZM16.7642 9.31337H39.9519C40.5041 9.31337 40.9519 9.76108 40.9519 10.3134V16.7175C40.9519 17.5784 40.6118 18.404 40.0066 19.0127C39.4014 19.6215 38.5808 19.963 37.7248 19.963H19.9844C19.1285 19.963 18.3078 19.6215 17.7027 19.0127C17.0974 18.4039 16.7579 17.5784 16.7579 16.7175V9.31969C16.7579 9.3162 16.7607 9.31337 16.7642 9.31337ZM47.3496 50.1057C47.3496 50.658 46.9019 51.1058 46.3496 51.1058H11.3652C10.8129 51.1058 10.3652 50.658 10.3652 50.1058V13.9379C10.3666 12.732 10.8356 11.5741 11.6722 10.7103C12.2677 10.0958 13.0161 9.66457 13.8302 9.45537C14.3754 9.31527 14.8456 9.77756 14.8456 10.3405V16.7171C14.8475 18.0891 15.39 19.4044 16.3545 20.3747C17.3191 21.3445 18.6266 21.8906 19.9907 21.8925H37.7311C39.0951 21.8906 40.4026 21.3444 41.3672 20.3747C42.3318 19.4044 42.8743 18.0891 42.8761 16.7171V10.0399C42.8761 9.63845 43.2016 9.31299 43.6031 9.31299C44.5976 9.31494 45.5501 9.71335 46.2525 10.4213C46.9548 11.1287 47.3494 12.0882 47.3494 13.0881L47.3496 50.1057ZM56.0744 50.1058C56.0744 50.658 55.6267 51.1058 55.0744 51.1058H50.545C49.9927 51.1058 49.545 50.658 49.545 50.1058V38.6841C49.545 38.0801 50.0795 37.6094 50.6593 37.7781C52.0254 38.1756 53.2591 38.9584 54.2085 40.0447C55.4098 41.4198 56.073 43.1873 56.0744 45.018V50.1058Z" fill="black"/>
</svg>
