<svg width="54" height="53" viewBox="0 0 54 53" fill="none" xmlns="http://www.w3.org/2000/svg">
<path d="M44.8051 14.6669C46.8138 13.4917 48.3168 11.6412 49.0334 9.46081C47.146 10.5569 45.0807 11.329 42.9274 11.7437C39.9418 8.65276 35.2114 7.90055 31.3795 9.90741C27.5476 11.9143 25.5627 16.1834 26.5341 20.3292C18.8026 19.9493 11.5994 16.3751 6.71691 10.4959C4.16882 14.7972 5.47094 20.2958 9.69263 23.0617C8.16602 23.0136 6.67326 22.609 5.33885 21.8818C5.33885 21.9213 5.33885 21.9608 5.33885 22.0003C5.33972 26.4807 8.56636 30.3404 13.0538 31.2283C11.6377 31.6053 10.1524 31.6608 8.71118 31.3906C9.97317 35.2224 13.5816 37.8474 17.6943 37.9257C14.288 40.5421 10.0813 41.9612 5.75115 41.9542C4.98362 41.9553 4.2167 41.9121 3.45438 41.8248C7.8516 44.5901 12.9694 46.0579 18.1963 46.0528C25.4681 46.1017 32.4564 43.296 37.5982 38.2634C42.7401 33.2307 45.6064 26.391 45.5558 19.2744C45.5558 18.8665 45.5462 18.4608 45.5267 18.0573C47.41 16.7253 49.0352 15.0752 50.3263 13.1845C48.5718 13.9456 46.7109 14.4453 44.8051 14.6669Z" fill="#0085FF"/>
</svg>
