<svg width="57" height="58" viewBox="0 0 57 58" fill="none" xmlns="http://www.w3.org/2000/svg">
<path d="M43.2779 32.9926L43.2879 33.0003L43.2982 33.0075C44.2645 33.6814 44.8317 34.7292 44.8317 35.8617V35.8826L44.8334 35.9034C44.9293 37.0492 44.447 38.2135 43.6682 38.9895L39.4086 43.2331L39.402 43.2397L39.3957 43.2465C38.083 44.6549 36.1472 45.3724 34.3004 45.3724C33.1635 45.3724 32.048 45.1675 30.9349 44.5626L30.934 44.5621C27.1495 42.5154 23.5849 39.9318 20.5639 36.9221C17.541 33.9105 14.9512 30.4703 12.9008 26.6012C11.4682 23.7416 11.9857 20.2794 14.2291 18.0444L18.4887 13.8007C19.2676 13.0247 20.4373 12.5434 21.5895 12.639L21.6102 12.6407H21.6309C22.7699 12.6407 23.8223 13.207 24.4984 14.1692L24.5041 14.1773L24.5101 14.1852L28.3281 19.1844C29.2832 20.5223 29.1728 22.3105 28.0497 23.4294L26.6298 24.844L26.3522 25.1205L26.5544 25.4561C27.2201 26.5615 28.0089 27.688 28.9234 28.5991L28.9338 28.6095L28.9448 28.6192C29.9434 29.5035 30.9515 30.2858 32.0779 30.9591L32.4118 31.1587L32.6874 30.8842L34.1072 29.4696C35.2505 28.3306 37.0432 28.1511 38.3611 29.1827L38.363 29.1842L43.2779 32.9926ZM41.3158 36.6512L41.4629 36.5046V36.297V36.0793C41.4629 35.9643 41.4325 35.8447 41.3614 35.7384C41.2923 35.6352 41.204 35.5729 41.1312 35.5366C41.1144 35.5282 41.0979 35.521 41.082 35.5147L36.6826 32.0938L36.3348 31.8234L36.0227 32.1343L34.4937 33.6577C33.5443 34.6035 32.1425 34.8733 30.9325 34.2242L30.9259 34.2206L30.9191 34.2172C29.2304 33.376 27.744 32.2148 26.4618 30.9374C25.1796 29.66 24.0142 28.1793 23.17 26.4973L23.1666 26.4905L23.163 26.4838C22.5119 25.2792 22.7846 23.7812 23.7245 22.8389L25.1367 21.5402L25.4728 21.2311L25.1954 20.8684L21.7857 16.4098C21.769 16.3406 21.7314 16.2412 21.6425 16.1526C21.5117 16.0223 21.3577 16.003 21.3122 15.998C21.2671 15.993 21.2186 15.9931 21.1989 15.9932C21.197 15.9932 21.1953 15.9932 21.194 15.9932H21.0848H20.8782L20.7319 16.139L16.4723 20.3827C15.2226 21.6277 14.9738 23.4944 15.723 24.9872L15.7229 24.9873L15.7287 24.9982C17.6074 28.5213 19.9301 31.7175 22.8071 34.5838C25.6841 37.45 28.8922 39.7639 32.4282 41.6354L32.4282 41.6356L32.4392 41.6411C33.9356 42.3864 35.807 42.1394 37.0562 40.8948L41.3158 36.6512Z" stroke="black"/>
<path d="M55.5606 21.4736L55.6248 21.7197C58.0709 31.4679 54.9626 42.2269 47.4522 49.0992L47.4511 49.1003C39.3426 56.565 27.5999 58.4889 17.454 54.3258L17.2936 54.26L17.1269 54.3076C15.2306 54.8491 13.3065 55.3638 11.3776 55.8797L11.3765 55.88C9.4505 56.3952 7.51975 56.9116 5.61547 57.4554C5.18527 57.5716 4.60265 57.4573 4.14389 57.1441C3.69246 56.836 3.45728 56.4089 3.52788 55.9502L3.52793 55.9502L3.52894 55.943C3.80098 53.9852 4.04575 52.0281 4.29002 50.0748L4.29024 50.073C4.53473 48.1181 4.77873 46.1671 5.04976 44.2167L5.07517 44.0337L4.97559 43.8782C-1.85718 33.2072 -0.787107 19.1224 7.64225 9.73736L7.64388 9.73552C14.4697 2.06024 25.2503 -1.14342 35.1767 1.31105C45.0989 3.7645 52.9993 11.66 55.5606 21.4736ZM47.9403 43.8347V43.9454L48.8554 42.5826C54.2847 34.4975 54.62 23.8637 49.5183 15.5496L49.5177 15.5487C44.5275 7.45645 34.8859 2.80373 25.2391 4.13178C15.9217 5.24235 7.72311 11.999 4.83923 20.9774C3.175 26.0788 3.28741 31.728 5.05996 36.8216L5.06263 36.8293L5.06554 36.8368C5.61448 38.2634 6.2747 39.695 7.0477 41.0215C7.22312 41.3698 7.42414 41.6843 7.6147 41.97C7.6666 42.0478 7.71698 42.1224 7.76586 42.1948C7.90016 42.3938 8.02312 42.5759 8.13477 42.7606C8.29544 43.0904 8.34402 43.4555 8.33203 43.8629C8.32279 44.1768 8.28057 44.4811 8.23566 44.8047C8.21907 44.9243 8.20211 45.0465 8.18631 45.1728C8.02346 46.475 7.8606 47.7501 7.69764 49.026L7.69759 49.0264C7.53467 50.3019 7.37166 51.5782 7.20864 52.8818L7.11478 53.6323L7.84208 53.4246C9.35825 52.9916 10.8751 52.5855 12.3965 52.1782L12.3988 52.1776C13.9088 51.7733 15.4234 51.3678 16.9386 50.9354C17.4739 50.8515 17.9014 50.9439 18.2356 51.111L18.3411 51.1637H18.4591H18.4603C28.7258 55.7629 41.0764 52.6172 47.9403 43.8347Z" stroke="black"/>
</svg>
