<svg width="44" height="43" viewBox="0 0 44 43" fill="none" xmlns="http://www.w3.org/2000/svg">
<g clip-path="url(#clip0_1_175)">
<path d="M3.58646 21.3051C3.58646 28.4133 7.79088 34.5562 13.8876 37.4672L5.1689 13.9967C4.15475 16.2301 3.58646 18.7016 3.58646 21.3051ZM34.203 20.3989C34.203 18.1795 33.3916 16.6425 32.6956 15.4462C31.7691 13.9669 30.9007 12.7142 30.9007 11.235C30.9007 9.58418 32.175 8.04752 33.9699 8.04752C34.051 8.04752 34.1278 8.05743 34.2068 8.06187C30.955 5.1348 26.6226 3.34767 21.8641 3.34767C15.4787 3.34767 9.86091 6.56656 6.59274 11.442C7.02157 11.4547 7.4257 11.4636 7.76896 11.4636C9.68076 11.4636 12.6401 11.2357 12.6401 11.2357C13.6254 11.1786 13.7415 12.6004 12.7573 12.7149C12.7573 12.7149 11.7671 12.8294 10.6653 12.8861L17.3213 32.3378L21.3212 20.5513L18.4735 12.8854C17.4893 12.8287 16.5569 12.7142 16.5569 12.7142C15.5719 12.6575 15.6874 11.1779 16.6723 11.235C16.6723 11.235 19.6908 11.4629 21.4868 11.4629C23.3982 11.4629 26.3579 11.235 26.3579 11.235C27.3439 11.1779 27.4597 12.5998 26.4751 12.7142C26.4751 12.7142 25.4829 12.8287 24.3832 12.8854L30.9884 32.1899L32.8115 26.2042C33.6016 23.7203 34.203 21.9363 34.203 20.3989ZM22.1848 22.8759L16.7009 38.5327C18.3383 39.0056 20.0699 39.2643 21.8641 39.2643C23.9926 39.2643 26.0338 38.9027 27.9337 38.2463C27.8847 38.1694 27.8402 38.0878 27.8037 37.9989L22.1848 22.8759ZM37.902 12.6893C37.9806 13.2613 38.0252 13.8754 38.0252 14.5359C38.0252 16.3582 37.6788 18.4067 36.6354 20.9682L31.0523 36.8279C36.4862 33.7146 40.1411 27.9305 40.1411 21.3055C40.1414 18.1833 39.3297 15.2473 37.902 12.6893ZM21.8641 0.37207C10.1162 0.37207 0.557922 9.76255 0.557922 21.3051C0.557922 32.849 10.1162 42.2392 21.8641 42.2392C33.6117 42.2392 43.1714 32.849 43.1714 21.3051C43.171 9.76255 33.6117 0.37207 21.8641 0.37207ZM21.8641 41.2797C10.6549 41.2797 1.53486 32.3191 1.53486 21.3051C1.53486 10.2919 10.6546 1.33193 21.8641 1.33193C33.073 1.33193 42.1924 10.2919 42.1924 21.3051C42.1924 32.3191 33.073 41.2797 21.8641 41.2797Z" fill="#D4D4D4"/>
</g>
<defs>
<clipPath id="clip0_1_175">
<rect width="42.778" height="41.8659" fill="white" transform="translate(0.557587 0.373779)"/>
</clipPath>
</defs>
</svg>
