<svg width="61" height="59" viewBox="0 0 61 59" fill="none" xmlns="http://www.w3.org/2000/svg">
<path d="M30.1846 46.431H30.1347C29.98 46.431 14.5011 46.4017 10.5958 45.3638C8.44838 44.7977 6.77129 43.1553 6.19398 41.0533C5.49173 37.1761 5.15263 33.244 5.18086 29.3064C5.16271 25.3623 5.51102 21.4248 6.22143 17.5425C6.81461 15.4385 8.48432 13.7887 10.6283 13.1881C14.4262 12.2112 29.4784 12.2112 30.1172 12.2112H30.1696C30.3268 12.2112 45.8456 12.2405 49.7109 13.2784C51.854 13.8475 53.5276 15.4864 54.1078 17.584C54.8325 21.4757 55.1726 25.4265 55.1234 29.3821C55.1409 33.3214 54.7918 37.254 54.0803 41.1315C53.4957 43.2308 51.8175 44.8695 49.671 45.437C45.878 46.4212 30.8234 46.431 30.1846 46.431ZM25.1938 21.9921L25.1813 36.6452L38.1873 29.3186L25.1938 21.9921Z" fill="#FF0000"/>
</svg>
