<svg width="897" height="90" viewBox="0 0 897 90" fill="none" xmlns="http://www.w3.org/2000/svg">
<path d="M95.3345 21.52H96.3345V20.52H95.3345V21.52ZM40.0385 22.544L39.8707 21.5582L39.8672 21.5588L40.0385 22.544ZM30.6945 25.488L31.1686 26.3685L31.1801 26.3622L30.6945 25.488ZM25.8305 29.968L24.9623 29.4719L24.9582 29.4789L24.9543 29.4861L25.8305 29.968ZM23.7825 35.6L22.8035 35.396L22.5527 36.6H23.7825V35.6ZM95.3345 35.6V36.6H96.3345V35.6H95.3345ZM117.223 90V91H118.223V90H117.223ZM95.3345 90H94.3345V91H95.3345V90ZM95.3345 55.312H96.3345V54.312H95.3345V55.312ZM22.3745 55.312V54.312H21.3745V55.312H22.3745ZM22.3745 90V91H23.3745V90H22.3745ZM0.614502 90H-0.385498V91H0.614502V90ZM3.5585 26.256L2.62032 25.9096L2.61578 25.9224L3.5585 26.256ZM12.2625 12.176L11.5554 11.4688L11.5475 11.4769L12.2625 12.176ZM26.3425 3.47199L26.6761 4.4148L26.6889 4.41009L26.3425 3.47199ZM117.223 0.399994H118.223V-0.600006H117.223V0.399994ZM95.3345 20.52H55.9105V22.52H95.3345V20.52ZM55.9105 20.52C49.3133 20.52 43.9599 20.8621 39.8707 21.5582L40.2063 23.5298C44.1384 22.8605 49.3663 22.52 55.9105 22.52V20.52ZM39.8672 21.5588C35.8821 22.2518 32.6472 23.2592 30.2089 24.6138L31.1801 26.3622C33.3498 25.1568 36.3442 24.2015 40.2098 23.5292L39.8672 21.5588ZM30.2204 24.6075C27.8735 25.8713 26.0977 27.4848 24.9623 29.4719L26.6987 30.4641C27.6113 28.8672 29.0782 27.4941 31.1686 26.3685L30.2204 24.6075ZM24.9543 29.4861C23.9643 31.286 23.2489 33.258 22.8035 35.396L24.7615 35.804C25.1694 33.846 25.8193 32.0633 26.7067 30.4499L24.9543 29.4861ZM23.7825 36.6H95.3345V34.6H23.7825V36.6ZM96.3345 35.6V21.52H94.3345V35.6H96.3345ZM117.223 89H95.3345V91H117.223V89ZM96.3345 90V55.312H94.3345V90H96.3345ZM95.3345 54.312H22.3745V56.312H95.3345V54.312ZM21.3745 55.312V90H23.3745V55.312H21.3745ZM22.3745 89H0.614502V91H22.3745V89ZM1.6145 90V45.072H-0.385498V90H1.6145ZM1.6145 45.072C1.6145 38.1674 2.58287 32.011 4.50122 26.5896L2.61578 25.9224C0.608795 31.5943 -0.385498 37.982 -0.385498 45.072H1.6145ZM4.4966 26.6024C6.50083 21.1742 9.33073 16.6048 12.9775 12.8751L11.5475 11.4769C7.68494 15.4272 4.71217 20.2444 2.62041 25.9096L4.4966 26.6024ZM12.9696 12.8831C16.6956 9.15708 21.258 6.33188 26.6761 4.41471L26.0089 2.52927C20.3337 4.53744 15.5094 7.5149 11.5554 11.4689L12.9696 12.8831ZM26.6889 4.41009C32.1051 2.41024 38.2993 1.39999 45.2865 1.39999V-0.600006C38.1084 -0.600006 31.6732 0.437744 25.9961 2.5339L26.6889 4.41009ZM45.2865 1.39999H117.223V-0.600006H45.2865V1.39999ZM116.223 0.399994V90H118.223V0.399994H116.223ZM227.96 21.52H228.96V20.52H227.96V21.52ZM172.664 22.544L172.496 21.5582L172.492 21.5588L172.664 22.544ZM163.319 25.488L163.794 26.3685L163.805 26.3622L163.319 25.488ZM158.456 29.968L157.587 29.4719L157.583 29.4789L157.579 29.4861L158.456 29.968ZM156.408 35.6L155.429 35.396L155.178 36.6H156.408V35.6ZM227.96 35.6V36.6H228.96V35.6H227.96ZM249.848 90V91H250.848V90H249.848ZM227.96 90H226.96V91H227.96V90ZM227.96 55.312H228.96V54.312H227.96V55.312ZM154.999 55.312V54.312H153.999V55.312H154.999ZM154.999 90V91H155.999V90H154.999ZM133.24 90H132.24V91H133.24V90ZM136.184 26.256L135.245 25.9096L135.241 25.9224L136.184 26.256ZM144.887 12.176L144.18 11.4688L144.173 11.4769L144.887 12.176ZM158.967 3.47199L159.301 4.4148L159.314 4.41009L158.967 3.47199ZM249.848 0.399994H250.848V-0.600006H249.848V0.399994ZM227.96 20.52H188.535V22.52H227.96V20.52ZM188.535 20.52C181.938 20.52 176.585 20.8621 172.496 21.5582L172.831 23.5298C176.763 22.8605 181.991 22.52 188.535 22.52V20.52ZM172.492 21.5588C168.507 22.2518 165.272 23.2592 162.834 24.6138L163.805 26.3622C165.975 25.1568 168.969 24.2015 172.835 23.5292L172.492 21.5588ZM162.845 24.6075C160.498 25.8713 158.723 27.4848 157.587 29.4719L159.324 30.4641C160.236 28.8672 161.703 27.4941 163.794 26.3685L162.845 24.6075ZM157.579 29.4861C156.589 31.286 155.874 33.258 155.429 35.396L157.386 35.804C157.794 33.846 158.444 32.0633 159.332 30.4499L157.579 29.4861ZM156.408 36.6H227.96V34.6H156.408V36.6ZM228.96 35.6V21.52H226.96V35.6H228.96ZM249.848 89H227.96V91H249.848V89ZM228.96 90V55.312H226.96V90H228.96ZM227.96 54.312H154.999V56.312H227.96V54.312ZM153.999 55.312V90H155.999V55.312H153.999ZM154.999 89H133.24V91H154.999V89ZM134.24 90V45.072H132.24V90H134.24ZM134.24 45.072C134.24 38.1674 135.208 32.011 137.126 26.5896L135.241 25.9224C133.234 31.5943 132.24 37.982 132.24 45.072H134.24ZM137.122 26.6024C139.126 21.1742 141.956 16.6048 145.603 12.8751L144.173 11.4769C140.31 15.4272 137.337 20.2444 135.245 25.9096L137.122 26.6024ZM145.595 12.8831C149.321 9.15708 153.883 6.33188 159.301 4.41471L158.634 2.52927C152.959 4.53744 148.134 7.5149 144.18 11.4689L145.595 12.8831ZM159.314 4.41009C164.73 2.41024 170.924 1.39999 177.911 1.39999V-0.600006C170.733 -0.600006 164.298 0.437744 158.621 2.5339L159.314 4.41009ZM177.911 1.39999H249.848V-0.600006H177.911V1.39999ZM248.848 0.399994V90H250.848V0.399994H248.848ZM298.505 35.216V34.216H297.505V35.216H298.505ZM359.816 31.76L360.498 32.4919L360.505 32.4857L360.511 32.4794L359.816 31.76ZM364.552 21.52L365.541 21.6721L365.718 20.52H364.552V21.52ZM288.393 21.52V20.52H287.393V21.52H288.393ZM288.393 90V91H289.393V90H288.393ZM266.633 90H265.633V91H266.633V90ZM266.633 0.399994V-0.600006H265.633V0.399994H266.633ZM385.673 0.399994H386.673V-0.600006H385.673V0.399994ZM352.648 54.928L352.544 53.9334L350.497 54.1477L351.931 55.6245L352.648 54.928ZM386.697 90V91H389.061L387.414 89.3034L386.697 90ZM360.328 90L359.62 90.7058L359.913 91H360.328V90ZM325.768 55.312L326.477 54.6062L326.184 54.312H325.768V55.312ZM298.505 55.312H297.505V56.312H298.505V55.312ZM298.505 36.216H349.448V34.216H298.505V36.216ZM349.448 36.216C354.058 36.216 357.786 35.0165 360.498 32.4919L359.135 31.0281C356.897 33.1115 353.714 34.216 349.448 34.216V36.216ZM360.511 32.4794C363.185 29.8975 364.835 26.2594 365.541 21.6721L363.564 21.3679C362.905 25.6552 361.397 28.8439 359.122 31.0406L360.511 32.4794ZM364.552 20.52H288.393V22.52H364.552V20.52ZM287.393 21.52V90H289.393V21.52H287.393ZM288.393 89H266.633V91H288.393V89ZM267.633 90V0.399994H265.633V90H267.633ZM266.633 1.39999H385.673V-0.600006H266.633V1.39999ZM384.673 0.399994V17.552H386.673V0.399994H384.673ZM384.673 17.552C384.673 28.7033 381.959 37.2042 376.667 43.1939C371.378 49.1804 363.388 52.7987 352.544 53.9334L352.753 55.9226C363.925 54.7533 372.447 50.9903 378.166 44.5181C383.882 38.0491 386.673 29.0141 386.673 17.552H384.673ZM351.931 55.6245L385.979 90.6966L387.414 89.3034L353.366 54.2314L351.931 55.6245ZM386.697 89H360.328V91H386.697V89ZM361.037 89.2942L326.477 54.6062L325.06 56.0178L359.62 90.7058L361.037 89.2942ZM325.768 54.312H298.505V56.312H325.768V54.312ZM299.505 55.312V35.216H297.505V55.312H299.505ZM423.143 0.399994H424.143V-0.600006H423.143V0.399994ZM492.646 68.752V69.752H493.646V68.752H492.646ZM492.646 0.399994V-0.600006H491.646V0.399994H492.646ZM514.406 0.399994H515.406V-0.600006H514.406V0.399994ZM514.406 90V91H515.406V90H514.406ZM430.438 86.928L430.118 87.8754L430.122 87.8767L430.438 86.928ZM414.823 77.84L414.138 78.5687L414.145 78.5754L414.823 77.84ZM404.839 62.992L403.907 63.3564L403.912 63.368L404.839 62.992ZM401.383 0.399994V-0.600006H400.383V0.399994H401.383ZM422.143 0.399994V44.048H424.143V0.399994H422.143ZM422.143 44.048C422.143 52.5335 425.039 59.0388 430.933 63.3811C436.771 67.6814 445.406 69.752 456.679 69.752V67.752C445.593 67.752 437.461 65.7053 432.12 61.7709C426.836 57.8785 424.143 52.0319 424.143 44.048H422.143ZM456.679 69.752H492.646V67.752H456.679V69.752ZM493.646 68.752V0.399994H491.646V68.752H493.646ZM492.646 1.39999H514.406V-0.600006H492.646V1.39999ZM513.406 0.399994V90H515.406V0.399994H513.406ZM514.406 89H451.047V91H514.406V89ZM451.047 89C443.541 89 436.781 87.988 430.755 85.9793L430.122 87.8767C436.384 89.964 443.362 91 451.047 91V89ZM430.759 85.9807C424.822 83.9738 419.741 81.0129 415.5 77.1046L414.145 78.5754C418.608 82.6884 423.938 85.7862 430.118 87.8753L430.759 85.9807ZM415.507 77.1114C411.354 73.2076 408.105 68.3819 405.765 62.616L403.912 63.368C406.351 69.3781 409.757 74.451 414.138 78.5686L415.507 77.1114ZM405.77 62.6276C403.52 56.8777 402.383 50.2213 402.383 42.64H400.383C400.383 50.4187 401.549 57.3303 403.907 63.3564L405.77 62.6276ZM402.383 42.64V0.399994H400.383V42.64H402.383ZM401.383 1.39999H423.143V-0.600006H401.383V1.39999ZM551.768 0.399994H552.768V-0.600006H551.768V0.399994ZM621.271 68.752V69.752H622.271V68.752H621.271ZM621.271 0.399994V-0.600006H620.271V0.399994H621.271ZM643.031 0.399994H644.031V-0.600006H643.031V0.399994ZM643.031 90V91H644.031V90H643.031ZM559.063 86.928L558.743 87.8754L558.747 87.8767L559.063 86.928ZM543.448 77.84L542.763 78.5687L542.77 78.5754L543.448 77.84ZM533.464 62.992L532.532 63.3564L532.537 63.368L533.464 62.992ZM530.008 0.399994V-0.600006H529.008V0.399994H530.008ZM550.768 0.399994V44.048H552.768V0.399994H550.768ZM550.768 44.048C550.768 52.5335 553.664 59.0388 559.558 63.3811C565.396 67.6814 574.031 69.752 585.304 69.752V67.752C574.218 67.752 566.086 65.7053 560.745 61.7709C555.461 57.8785 552.768 52.0319 552.768 44.048H550.768ZM585.304 69.752H621.271V67.752H585.304V69.752ZM622.271 68.752V0.399994H620.271V68.752H622.271ZM621.271 1.39999H643.031V-0.600006H621.271V1.39999ZM642.031 0.399994V90H644.031V0.399994H642.031ZM643.031 89H579.672V91H643.031V89ZM579.672 89C572.166 89 565.406 87.988 559.38 85.9793L558.747 87.8767C565.009 89.964 571.987 91 579.672 91V89ZM559.384 85.9807C553.447 83.9738 548.366 81.0129 544.125 77.1046L542.77 78.5754C547.233 82.6884 552.563 85.7862 558.743 87.8753L559.384 85.9807ZM544.132 77.1114C539.979 73.2076 536.73 68.3819 534.39 62.616L532.537 63.368C534.976 69.3781 538.382 74.451 542.763 78.5686L544.132 77.1114ZM534.395 62.6276C532.145 56.8777 531.008 50.2213 531.008 42.64H529.008C529.008 50.4187 530.174 57.3303 532.532 63.3564L534.395 62.6276ZM531.008 42.64V0.399994H529.008V42.64H531.008ZM530.008 1.39999H551.768V-0.600006H530.008V1.39999ZM767.305 21.52V22.52H768.305V21.52H767.305ZM678.601 35.216L677.608 35.0954L677.472 36.216H678.601V35.216ZM767.688 35.216H768.688V34.216H767.688V35.216ZM657.865 90H656.865V91H657.865V90ZM657.865 68.752V67.752H656.865V68.752H657.865ZM741.961 65.296L741.292 64.5527L741.285 64.5583L741.279 64.5641L741.961 65.296ZM746.825 55.312L747.812 55.467L747.994 54.312H746.825V55.312ZM657.865 55.312H656.865V56.312H657.865V55.312ZM767.305 0.399994H768.305V-0.600006H767.305V0.399994ZM767.305 20.52H693.961V22.52H767.305V20.52ZM693.961 20.52C689.232 20.52 685.404 21.7039 682.607 24.1976C679.811 26.6904 678.182 30.3719 677.608 35.0954L679.593 35.3366C680.129 30.9294 681.614 27.7629 683.938 25.6904C686.261 23.6187 689.558 22.52 693.961 22.52V20.52ZM678.601 36.216H767.688V34.216H678.601V36.216ZM766.688 35.216V52.24H768.688V35.216H766.688ZM766.688 52.24C766.688 64.6525 763.347 73.7835 756.832 79.8269C750.304 85.8834 740.416 89 726.984 89V91C740.689 91 751.153 87.8233 758.193 81.2931C765.246 74.7498 768.688 65.0009 768.688 52.24H766.688ZM726.984 89H657.865V91H726.984V89ZM658.865 90V68.752H656.865V90H658.865ZM657.865 69.752H731.593V67.752H657.865V69.752ZM731.593 69.752C736.202 69.752 739.93 68.5525 742.642 66.0279L741.279 64.5641C739.041 66.6475 735.858 67.752 731.593 67.752V69.752ZM742.629 66.0393C745.403 63.543 747.104 59.9815 747.812 55.467L745.837 55.157C745.179 59.3465 743.638 62.441 741.292 64.5527L742.629 66.0393ZM746.825 54.312H657.865V56.312H746.825V54.312ZM658.865 55.312V38.16H656.865V55.312H658.865ZM658.865 38.16C658.865 25.7484 662.216 16.6178 668.751 10.5742C675.301 4.51694 685.221 1.39999 698.697 1.39999V-0.600006C684.95 -0.600006 674.454 2.57638 667.394 9.10581C660.318 15.6489 656.865 25.3982 656.865 38.16H658.865ZM698.697 1.39999H767.305V-0.600006H698.697V1.39999ZM766.305 0.399994V21.52H768.305V0.399994H766.305ZM896.531 90V91H897.531V90H896.531ZM874.771 90H873.771V91H874.771V90ZM874.771 55.44H875.771V54.44H874.771V55.44ZM805.268 55.44V54.44H804.268V55.44H805.268ZM805.268 90V91H806.268V90H805.268ZM783.508 90H782.508V91H783.508V90ZM783.508 0.399994V-0.600006H782.508V0.399994H783.508ZM805.268 0.399994H806.268V-0.600006H805.268V0.399994ZM805.268 35.216H804.268V36.216H805.268V35.216ZM874.771 35.216V36.216H875.771V35.216H874.771ZM874.771 0.399994V-0.600006H873.771V0.399994H874.771ZM896.531 0.399994H897.531V-0.600006H896.531V0.399994ZM896.531 89H874.771V91H896.531V89ZM875.771 90V55.44H873.771V90H875.771ZM874.771 54.44H805.268V56.44H874.771V54.44ZM804.268 55.44V90H806.268V55.44H804.268ZM805.268 89H783.508V91H805.268V89ZM784.508 90V0.399994H782.508V90H784.508ZM783.508 1.39999H805.268V-0.600006H783.508V1.39999ZM804.268 0.399994V35.216H806.268V0.399994H804.268ZM805.268 36.216H874.771V34.216H805.268V36.216ZM875.771 35.216V0.399994H873.771V35.216H875.771ZM874.771 1.39999H896.531V-0.600006H874.771V1.39999ZM895.531 0.399994V90H897.531V0.399994H895.531Z" fill="url(#paint0_radial_1119_428)" fill-opacity="0.37"/>
<defs>
<radialGradient id="paint0_radial_1119_428" cx="0" cy="0" r="1" gradientUnits="userSpaceOnUse" gradientTransform="translate(449 34.5) rotate(90) scale(62.5 547)">
<stop stop-color="white"/>
<stop offset="1" stop-color="white" stop-opacity="0"/>
</radialGradient>
</defs>
</svg>
