<svg width="181" height="182" viewBox="0 0 181 182" fill="none" xmlns="http://www.w3.org/2000/svg">
<g opacity="0.5">
<path d="M179.188 72.7893C180.246 78.0291 180.857 83.4323 180.978 88.9569L168.981 89.2198C168.993 89.8114 169 90.4048 169 91C169 91.5952 168.993 92.1886 168.981 92.7802L180.978 93.0431C180.857 98.5677 180.246 103.971 179.188 109.211L167.425 106.835C167.191 107.994 166.931 109.144 166.647 110.284L178.291 113.185C176.965 118.511 175.171 123.651 172.957 128.558L162.019 123.623C161.533 124.699 161.024 125.762 160.493 126.811L171.199 132.232C168.733 137.102 165.844 141.718 162.581 146.033L153.01 138.795C152.298 139.736 151.566 140.66 150.814 141.568L160.053 149.226C156.583 153.411 152.747 157.279 148.594 160.779L140.861 151.602C139.96 152.362 139.042 153.101 138.107 153.82L145.422 163.333C141.129 166.634 136.534 169.557 131.685 172.053L126.193 161.383C125.148 161.921 124.09 162.436 123.019 162.927L128.023 173.834C123.126 176.08 117.995 177.901 112.678 179.248L109.731 167.615C108.595 167.903 107.448 168.166 106.292 168.403L108.706 180.158C103.469 181.234 98.0671 181.854 92.543 181.977L92.2758 169.98C91.6857 169.993 91.0937 170 90.5 170C89.9063 170 89.3143 169.993 88.7242 169.98L88.457 181.977C82.9329 181.854 77.5309 181.234 72.2936 180.158L74.7077 168.403C73.5518 168.166 72.4053 167.903 71.2688 167.615L68.3223 179.248C63.0046 177.901 57.874 176.08 52.9774 173.834L57.9809 162.927C56.9101 162.436 55.8521 161.921 54.8074 161.383L49.315 172.052C44.4664 169.556 39.8711 166.634 35.5783 163.333L42.8927 153.82C41.958 153.101 41.0398 152.362 40.1385 151.602L32.4059 160.779C28.2528 157.279 24.4168 153.411 20.9474 149.226L30.1862 141.568C29.434 140.66 28.7017 139.736 27.9899 138.795L18.4188 146.033C15.1556 141.718 12.2668 137.102 9.80116 132.232L20.507 126.811C19.9755 125.762 19.4668 124.699 18.9814 123.623L8.04328 128.558C5.82909 123.651 4.03542 118.511 2.70852 113.185L14.3526 110.284C14.0686 109.144 13.8091 107.994 13.5749 106.835L1.81248 109.211C0.754066 103.971 0.143388 98.5677 0.0223584 93.0431L12.0195 92.7802C12.0065 92.1886 12 91.5952 12 91C12 90.4048 12.0065 89.8114 12.0195 89.2198L0.0223585 88.9569C0.143389 83.4323 0.754067 78.0291 1.81248 72.7893L13.5749 75.1653C13.8091 74.0058 14.0686 72.8558 14.3526 71.7157L2.70852 68.8147C4.03542 63.4888 5.8291 58.349 8.04328 53.4418L18.9814 58.3772C19.4668 57.3014 19.9755 56.2384 20.507 55.1888L9.80117 49.768C12.2668 44.8984 15.1556 40.2818 18.4188 35.967L27.9899 43.2055C28.7017 42.2643 29.434 41.3396 30.1862 40.4321L20.9474 32.7742C24.4168 28.5885 28.2528 24.7209 32.4059 21.2212L40.1385 30.3976C41.0398 29.6382 41.9581 28.8988 42.8927 28.1802L35.5784 18.6671C39.8711 15.3665 44.4664 12.4435 49.315 9.9475L54.8074 20.6168C55.8521 20.079 56.9101 19.5642 57.9809 19.0729L52.9774 8.16586C57.874 5.91957 63.0046 4.09936 68.3223 2.75237L71.2689 14.385C72.4053 14.0971 73.5518 13.8342 74.7077 13.5968L72.2936 1.84211C77.531 0.7665 82.9329 0.145764 88.457 0.0227303L88.7242 12.0198C89.3143 12.0066 89.9063 12 90.5 12C91.0937 12 91.6857 12.0066 92.2758 12.0198L92.543 0.0227303C98.0671 0.145764 103.469 0.766501 108.706 1.84211L106.292 13.5968C107.448 13.8342 108.595 14.0971 109.731 14.385L112.678 2.75238C117.995 4.09936 123.126 5.91957 128.023 8.16587L123.019 19.073C124.09 19.5642 125.148 20.079 126.193 20.6168L131.685 9.94751C136.534 12.4435 141.129 15.3665 145.422 18.6671L138.107 28.1802C139.042 28.8989 139.96 29.6382 140.861 30.3976L148.594 21.2213C152.747 24.7209 156.583 28.5885 160.053 32.7742L150.814 40.4321C151.566 41.3396 152.298 42.2643 153.01 43.2055L162.581 35.967C165.844 40.2818 168.733 44.8984 171.199 49.768L160.493 55.1888C161.024 56.2384 161.533 57.3014 162.019 58.3772L172.957 53.4418C175.171 58.349 176.965 63.4888 178.291 68.8147L166.647 71.7157C166.931 72.8558 167.191 74.0058 167.425 75.1653L179.188 72.7893Z" stroke="white" stroke-opacity="0.5" stroke-width="24" stroke-dasharray="4 16"/>
</g>
</svg>
