<svg width="34" height="34" viewBox="0 0 34 34" fill="none" xmlns="http://www.w3.org/2000/svg">
<path d="M0.336426 17.0042C0.338376 25.2032 6.30044 32.1843 14.3982 33.4692V21.8208H10.1698V17.0042H14.4032V13.3376C14.2138 11.6001 14.8073 9.86855 16.0225 8.61245C17.2377 7.35635 18.9487 6.70592 20.6915 6.83755C21.9423 6.85777 23.19 6.96917 24.4248 7.1709V11.2692H22.3182C21.5928 11.1742 20.8637 11.4138 20.336 11.9203C19.8083 12.4269 19.5393 13.1457 19.6048 13.8742V17.0042H24.2232L23.4848 21.8225H19.6048V33.4692C28.3622 32.0852 34.5032 24.0872 33.579 15.2693C32.6547 6.4515 24.9885 -0.0992315 16.1345 0.362852C7.28036 0.824935 0.337842 8.13807 0.336426 17.0042Z" fill="#004DE2"/>
</svg>
