<svg width="181" height="185" viewBox="0 0 181 185" fill="none" xmlns="http://www.w3.org/2000/svg">
<g opacity="0.1">
<path d="M179.216 74.1321C180.258 79.4188 180.859 84.8687 180.978 90.4399L168.981 90.6964C168.994 91.2958 169 91.897 169 92.5C169 93.103 168.994 93.7042 168.981 94.3036L180.978 94.5601C180.859 100.131 180.258 105.581 179.216 110.868L167.442 108.547C167.211 109.723 166.954 110.889 166.673 112.045L178.333 114.88C177.025 120.262 175.255 125.458 173.07 130.421L162.087 125.585C161.606 126.679 161.101 127.759 160.574 128.826L171.333 134.142C168.892 139.082 166.03 143.768 162.796 148.151L153.14 141.025C152.432 141.985 151.703 142.928 150.954 143.854L160.284 151.4C156.832 155.669 153.012 159.615 148.873 163.189L141.03 154.107C140.13 154.884 139.212 155.641 138.279 156.377L145.705 165.802C141.411 169.187 136.81 172.185 131.954 174.747L126.354 164.134C125.307 164.687 124.246 165.215 123.173 165.72L128.279 176.58C123.358 178.893 118.199 180.769 112.85 182.158L109.834 170.543C108.693 170.839 107.541 171.11 106.379 171.354L108.851 183.097C103.574 184.208 98.1291 184.849 92.5599 184.977L92.286 172.98C91.6925 172.993 91.0971 173 90.5 173C89.9029 173 89.3075 172.993 88.714 172.98L88.4401 184.977C82.8709 184.849 77.4259 184.208 72.1486 183.097L74.6205 171.354C73.4593 171.11 72.3074 170.839 71.1657 170.543L68.1501 182.158C62.8012 180.769 57.6424 178.893 52.7214 176.58L57.8273 165.72C56.7539 165.215 55.6932 164.687 54.646 164.134L49.0463 174.747C44.1897 172.185 39.5893 169.187 35.2945 165.802L42.7213 156.377C41.7876 155.641 40.8702 154.884 39.9699 154.107L32.1269 163.189C27.9885 159.615 24.1682 155.669 20.7156 151.4L30.0456 143.854C29.297 142.928 28.5682 141.985 27.8598 141.025L18.2045 148.151C14.97 143.768 12.1082 139.082 9.66722 134.142L20.4256 128.826C19.8985 127.759 19.3939 126.679 18.9125 125.585L7.92991 130.421C5.74467 125.458 3.97519 120.262 2.66682 114.88L14.3272 112.045C14.0461 110.889 13.7894 109.723 13.5577 108.547L1.78419 110.868C0.742142 105.581 0.141106 100.131 0.0220005 94.5601L12.0193 94.3036C12.0064 93.7042 12 93.103 12 92.5C12 91.897 12.0064 91.2958 12.0193 90.6964L0.0220004 90.4399C0.141106 84.8687 0.742144 79.4188 1.7842 74.1321L13.5577 76.4527C13.7894 75.277 14.0461 74.1107 14.3272 72.9546L2.66682 70.1199C3.9752 64.738 5.74468 59.5423 7.92991 54.5792L18.9125 59.4147C19.3939 58.3213 19.8985 57.2408 20.4256 56.174L9.66722 50.8583C12.1082 45.9179 14.97 41.2318 18.2045 36.8491L27.8598 43.9748C28.5682 43.0149 29.297 42.0719 30.0456 41.1463L20.7156 33.5998C24.1682 29.3312 27.9885 25.3848 32.1269 21.8111L39.9699 30.8933C40.8702 30.1158 41.7876 29.3589 42.7213 28.6231L35.2945 19.1975C39.5893 15.8135 44.1897 12.815 49.0463 10.2526L54.646 20.866C55.6932 20.3135 56.7539 19.7845 57.8273 19.2799L52.7214 8.4203C57.6424 6.10663 62.8012 4.23099 68.1501 2.84225L71.1657 14.4572C72.3074 14.1607 73.4593 13.89 74.6205 13.6455L72.1486 1.90288C77.4259 0.791954 82.8709 0.150616 88.4401 0.0234885L88.714 12.0204C89.3075 12.0068 89.9029 12 90.5 12C91.0971 12 91.6925 12.0068 92.286 12.0204L92.5599 0.0234884C98.1291 0.150615 103.574 0.791953 108.851 1.90288L106.379 13.6455C107.541 13.89 108.693 14.1607 109.834 14.4572L112.85 2.84225C118.199 4.23098 123.358 6.10662 128.279 8.42029L123.173 19.2799C124.246 19.7845 125.307 20.3135 126.354 20.866L131.954 10.2526C136.81 12.815 141.411 15.8135 145.705 19.1975L138.279 28.6231C139.212 29.3589 140.13 30.1158 141.03 30.8933L148.873 21.811C153.012 25.3848 156.832 29.3312 160.284 33.5998L150.954 41.1463C151.703 42.0719 152.432 43.0149 153.14 43.9748L162.796 36.8491C166.03 41.2318 168.892 45.918 171.333 50.8583L160.574 56.174C161.101 57.2408 161.606 58.3213 162.087 59.4147L173.07 54.5792C175.255 59.5423 177.025 64.738 178.333 70.1199L166.673 72.9546C166.954 74.1107 167.211 75.277 167.442 76.4528L179.216 74.1321Z" stroke="white" stroke-opacity="0.5" stroke-width="24" stroke-dasharray="4 16"/>
</g>
</svg>
