<svg width="3272" height="1457" viewBox="0 0 3272 1457" fill="none" xmlns="http://www.w3.org/2000/svg">
<path opacity="0.3" d="M216.935 216.926L216.935 216.927C80.2742 353.54 5 535.263 5 728.511C5 921.766 80.2742 1103.48 216.935 1240.1L213.4 1243.63L216.935 1240.1C353.596 1376.74 535.296 1452 728.627 1452C921.913 1452 1103.61 1376.74 1240.29 1240.1L2142.88 337.585L2142.93 337.534L2142.98 337.484L2147.83 332.92C2147.84 332.903 2147.86 332.887 2147.87 332.871C2365.97 114.861 2720.84 114.931 2938.94 332.945L2935.4 336.481L2938.94 332.945C3044.59 438.603 3102.76 579.048 3102.76 728.454C3102.76 877.807 3044.56 1018.33 2938.94 1123.96L2935.4 1120.43L2938.94 1123.96C2833.34 1229.54 2692.8 1287.73 2543.42 1287.73C2394 1287.73 2253.56 1229.55 2147.94 1123.97L2147.93 1123.96M216.935 216.926L2151.47 1120.43L2147.93 1123.96M216.935 216.926C499.009 -65.1551 958.154 -65.1555 1240.28 216.926L1448.09 424.699C1448.09 424.699 1448.09 424.7 1448.09 424.7C1480.2 456.824 1480.2 508.774 1448.1 540.873C1415.92 572.933 1363.99 572.931 1331.84 540.899L1124.15 332.917L1124.15 332.914C906.058 114.883 551.155 114.83 333.036 332.888C227.361 438.52 169.218 579.019 169.218 728.397C169.218 877.803 227.44 1018.33 333.035 1123.96L333.037 1123.96C438.684 1229.54 579.203 1287.72 728.606 1287.72C878.034 1287.72 1018.5 1229.54 1124.17 1123.96L1124.18 1123.96L2057.2 191.082L2057.95 191.778L2061.33 188.737C2192.66 70.5502 2363.02 5 2543.4 5C2736.73 5 2918.43 80.2369 3055.06 216.901L3058.6 213.366L3055.07 216.903C3191.75 353.516 3267 535.212 3267 728.487C3267 921.762 3191.75 1103.46 3055.09 1240.1C2918.46 1376.74 2736.73 1452 2543.42 1452C2356.99 1452 2181.18 1381.92 2046.39 1254.28L2044.81 1252.78L2044.48 1252.8L1825.51 1034.75C1825.51 1034.74 1825.5 1034.74 1825.5 1034.74C1793.42 1002.56 1793.43 950.63 1825.5 918.482M216.935 216.926L1825.5 918.482M2147.93 1123.96L1941.76 918.489L1941.76 918.486C1909.6 886.383 1857.66 886.382 1825.5 918.482M2147.93 1123.96L1825.5 918.482" stroke="url(#paint0_linear_1689_421)" stroke-width="10"/>
<defs>
<linearGradient id="paint0_linear_1689_421" x1="3272" y1="-10930.4" x2="-0.0295096" y2="-10930.4" gradientUnits="userSpaceOnUse">
<stop stop-color="#E09F3E"/>
<stop offset="0.501295" stop-color="#824670"/>
<stop offset="1" stop-color="#0068A4"/>
</linearGradient>
</defs>
</svg>
