<svg width="31" height="28" viewBox="0 0 31 28" fill="none" xmlns="http://www.w3.org/2000/svg">
<path d="M17.0833 27.75H10.25V9.25H17.0833V12.3333C18.5399 10.661 20.7487 9.66405 23.1052 9.61538C27.3429 9.6366 30.7623 12.7487 30.75 16.5729V27.75H23.9167V17.3437C23.6433 15.6211 22.0064 14.343 20.078 14.3467C19.2346 14.3708 18.4384 14.7041 17.8733 15.2696C17.3081 15.8352 17.0229 16.5842 17.0833 17.3437V27.75ZM6.83333 27.75H0V9.25H6.83333V27.75ZM3.41667 6.16667C1.52969 6.16667 0 4.78621 0 3.08333C0 1.38045 1.52969 0 3.41667 0C5.30364 0 6.83333 1.38045 6.83333 3.08333C6.83333 3.90108 6.47337 4.68534 5.83261 5.26357C5.19186 5.84182 4.32282 6.16667 3.41667 6.16667Z" fill="#005B8C"/>
</svg>
