<svg width="40" height="32" viewBox="0 0 40 32" fill="none" xmlns="http://www.w3.org/2000/svg">
<path d="M34.6575 5.26148C36.3009 4.27898 37.5307 2.73192 38.117 0.909148C36.5728 1.82545 34.883 2.47093 33.1212 2.81765C30.6784 0.23362 26.8081 -0.395232 23.6729 1.28251C20.5377 2.96025 18.9137 6.52921 19.7085 9.99515C13.3828 9.67756 7.48929 6.68948 3.49453 1.77448C1.40974 5.37042 2.4751 9.96724 5.9292 12.2795C4.68016 12.2393 3.45882 11.9011 2.36703 11.2931C2.36703 11.3261 2.36703 11.3592 2.36703 11.3922C2.36774 15.1378 5.00771 18.3645 8.6792 19.1068C7.52064 19.422 6.3054 19.4684 5.1262 19.2425C6.15873 22.4459 9.11104 24.6404 12.476 24.7058C9.68905 26.8932 6.24722 28.0795 2.70436 28.0737C2.07639 28.0746 1.44891 28.0385 0.825195 27.9655C4.42291 30.2773 8.61021 31.5044 12.8867 31.5002C18.8364 31.5411 24.554 29.1955 28.7609 24.9882C32.9679 20.7809 35.3131 15.0629 35.2717 9.11331C35.2717 8.77231 35.2638 8.43315 35.2478 8.09581C36.7887 6.98225 38.1185 5.60276 39.1748 4.02215C37.7393 4.65842 36.2167 5.07617 34.6575 5.26148Z" fill="#0085FF"/>
</svg>
