<svg width="35" height="35" viewBox="0 0 35 35" fill="none" xmlns="http://www.w3.org/2000/svg">
<path d="M2.47789 17.5001C2.47789 23.4426 5.91785 28.578 10.9061 31.0116L3.7726 11.3902C2.94285 13.2573 2.47789 15.3236 2.47789 17.5001ZM27.5276 16.7425C27.5276 14.8871 26.8638 13.6021 26.2944 12.602C25.5363 11.3653 24.8258 10.3181 24.8258 9.08141C24.8258 7.70134 25.8684 6.41669 27.337 6.41669C27.4033 6.41669 27.4662 6.42498 27.5308 6.42869C24.8702 3.98165 21.3255 2.4876 17.4323 2.4876C12.2079 2.4876 7.6115 5.1786 4.93756 9.25453C5.28841 9.2651 5.61906 9.27252 5.89992 9.27252C7.46411 9.27252 9.88537 9.08198 9.88537 9.08198C10.6915 9.03428 10.7865 10.2229 9.98126 10.3186C9.98126 10.3186 9.17114 10.4143 8.26967 10.4618L13.7154 26.7235L16.9881 16.8699L14.6582 10.4612C13.8529 10.4138 13.09 10.3181 13.09 10.3181C12.2841 10.2707 12.3786 9.0337 13.1845 9.08141C13.1845 9.08141 15.6541 9.27195 17.1235 9.27195C18.6874 9.27195 21.109 9.08141 21.109 9.08141C21.9157 9.0337 22.0104 10.2224 21.2049 10.3181C21.2049 10.3181 20.393 10.4138 19.4933 10.4612L24.8975 26.5998L26.3891 21.5957C27.0357 19.5192 27.5276 18.0277 27.5276 16.7425ZM17.6946 18.8133L13.2078 31.9023C14.5475 32.2977 15.9643 32.514 17.4323 32.514C19.1737 32.514 20.8438 32.2117 22.3983 31.663C22.3582 31.5987 22.3217 31.5304 22.2919 31.4561L17.6946 18.8133ZM30.5541 10.2972C30.6185 10.7754 30.6549 11.2888 30.6549 11.841C30.6549 13.3644 30.3715 15.077 29.5178 17.2184L24.9499 30.4771C29.3957 27.8744 32.3861 23.0389 32.3861 17.5004C32.3864 14.8902 31.7222 12.4357 30.5541 10.2972ZM17.4323 0C7.82037 0 0 7.85046 0 17.5001C0 27.1508 7.82037 35.001 17.4323 35.001C27.0439 35.001 34.8654 27.1508 34.8654 17.5001C34.8651 7.85046 27.0439 0 17.4323 0ZM17.4323 34.1988C8.26114 34.1988 0.799309 26.7077 0.799309 17.5001C0.799309 8.29297 8.26085 0.802444 17.4323 0.802444C26.6031 0.802444 34.0644 8.29297 34.0644 17.5001C34.0644 26.7077 26.6031 34.1988 17.4323 34.1988Z" fill="#D4D4D4"/>
</svg>
