<svg width="41" height="29" viewBox="0 0 41 29" fill="none" xmlns="http://www.w3.org/2000/svg">
<path d="M20.5121 28.8168H20.4712C20.3446 28.8168 7.68018 28.7923 4.48497 27.9246C2.72797 27.4514 1.35581 26.0783 0.88347 24.3211C0.308904 21.0797 0.0314622 17.7924 0.0545535 14.5007C0.0397106 11.2034 0.324687 7.9116 0.905929 4.66594C1.39125 2.90707 2.75737 1.5278 4.51151 1.02565C7.61893 0.208985 19.9343 0.208984 20.4569 0.208984H20.4998C20.6284 0.208984 33.3256 0.233484 36.4881 1.10119C38.2415 1.57692 39.6108 2.94706 40.0855 4.70065C40.6784 7.95413 40.9567 11.2571 40.9165 14.5639C40.9308 17.8572 40.6451 21.1448 40.0631 24.3864C39.5847 26.1414 38.2117 27.5114 36.4554 27.9859C33.3521 28.8087 21.0347 28.8168 20.5121 28.8168ZM16.4287 8.38586L16.4185 20.6359L27.0597 14.5109L16.4287 8.38586Z" fill="#FF0000"/>
</svg>
